<svg width="450" height="92" fill="none" xmlns="http://www.w3.org/2000/svg"><path d="M41.5 7.1c.5 0 1-.1 1.4-.1 4.9 0 6.9 3 6.9 6.9 0 5.4-3.9 12.5-9 14.9-.4.3-.7.5-.9.7.5.1 1.3.2 2.3.4.8.1 1.8.2 2.9.4 7.3-3.1 14.5-5 20.9-5 1.5 0 3 .1 4.5.4.4.2.7.5.7.8 0 .4-.4.8-.8.8h-.1c-2-.6-4.2-1-6.3-1-4.7 0-9.9 1.5-15.4 4.8C60 33.9 65.3 43.3 65.3 53.2c0 6.3-2.1 12.8-6.1 18.2C49.7 84.1 34.6 90 22.2 90 10.3 90 .8 84.7.8 75.1c0-4 1.7-8.8 5.5-14.3 3.4-4.9 8.1-9.9 13.6-14.5 4.6-16.5 10.9-34.6 19.9-38.7.2-.8.9-2.5.9-3.1 0-.1 0-.2-.1-.2h-.1c-.4.3-.7.4-1 .4-.8 0-1.1-.7-1.1-.8.8-2.5 2.4-3.7 3.5-3.7.8 0 1.4.6 1.4 1.7 0 .2 0 .4-.1.7-.2 0-.7 1.6-1.7 4.5ZM17.4 69.7c-.2 0-.4 0-.5-.2-.4 0-.8-.3-1-.7-.1-.4-.2-.9-.2-1.7 0-1.3.2-3 .5-5.2.5-3.4 1.1-6.5 2.4-11.3l.1-.4c-4.6 4.1-7.4 8-10.3 12.2-3.7 5.3-5.3 9.8-5.3 13.5 0 8.3 8.1 12.4 18.4 12.4 12.5 0 28.1-6 37-17.8 3.7-5 5.6-10.9 5.6-16.6 0-10.2-6-19.6-18.2-21.8-5.3 2.3-11.4 6-16.4 9.4-4.6 16.1-9.6 28.2-12.1 28.2Zm.2-1.9c2.1 0 5.9-10.6 9.9-25-2.6 1.9-4.3 3.6-6.6 5.5-.2.9-.4 1.8-.7 2.7-1.2 4.8-1.8 7.8-2.3 11.1-.4 2.2-.5 3.8-.5 4.9v.8h.2Zm21-57.2c-5.7 4.5-12.4 19-16.6 33.7 2.1-1.7 4.4-3.4 6.7-4.9 3.9-11 7.5-21.5 9.9-28.8ZM30.8 38c3.8-2.4 7.6-4.6 11.6-6.5h-.3c-1.2-.2-2.2-.3-2.8-.5-.8-.3-1.1-.6-1.1-1.2 0-.2 0-.4.1-.6.2-.4.8-1 1.8-1.7 4-2.8 7-8.8 7-13.1 0-2.8-1.2-4.8-4.2-4.8-.6 0-1.3.1-2.1.3-2.5 6.7-6.1 17-10 28.1ZM78.7 53.2c0 .9.3 1.7.9 2.1.2.2.6.2 1 .2 5.2 0 24.701-8.4 24.701-8.4.4-.3.7-.4 1-.4.8 0 1.4.6 1.4 1.1 0 .1 0 .2-.1.3 0 0-20.4 8.9-27.8 8.9-1.1 0-1.9-.2-2.3-.7-1.2-.8-1.7-2.3-1.7-4 0-3.1 1.5-6.8 2.3-8.2.4-.8 1-1.1 1.6-1.1.9 0 1.9.7 1.9 1.6v.4c-.1 0-2.9 5.1-2.9 8.2ZM84 36.3c0 .3 0 .6-.2.9-.3.9-1.1 1.5-1.8 1.5h-.4c-.6-.2-.9-.8-.9-1.6 0-.3 0-.6.2-.9.4-.9 1.1-1.5 1.8-1.5h.4c.6.2.9.8.9 1.6Z" fill="#fff"/><path d="M128.802 17.7c2.1-3.5 3.7-4.6 4.7-4.6.9 0 1.3.8 1.3 1.4v.6c0 9.1-15.8 30.6-15.8 30.6l-3.2 8.8c-2.9 7.9-4.3 17.4-4.3 21.7v1.3c.4 3.4 2.4 4.5 3.2 4.5.5 0 1.1.5 1.1 1 0 .3-.1.5-.4.7-.1.1-.3.1-.5.1-.8 0-1.7-1-1.7-1-2-2.2-2.4-6.1-2.4-6.1v-1.6c0-8.9 4.2-22.7 5.9-26.4 0 0-6.2 7.6-9.2 9-.5.3-1.1.4-1.5.4-1.5 0-2.4-1.3-2.4-3.4 0-.8.2-1.7.4-2.7 1.2-4.5 3.9-9.4 8.2-10.5.6-.2 1.1-.2 1.6-.2 3 0 4.2 2.7 4.2 2.7 3.4-10 6.4-18.9 10.8-26.3Zm-14 25.9h-.4c-1.9.3-4.7 3-6.6 6.3-1 1.6-1.9 4.1-1.9 5.4 0 .6.2.9.6.9.5 0 1.5-.7 3.1-2.6 5.4-6.2 7-8.2 7-8.2s-.2-1.8-1.8-1.8Zm16.8-23.6c.6-1.5 1.6-3.6 1.6-4.5 0-.3-.1-.4-.3-.4-1.1.1-3.5 4.1-3.5 4.1-3.7 5.8-8.1 20.4-8.1 20.4 3.7-6.6 9.4-17.7 10.3-19.6ZM154.302 29.4c-.8 3-2.6 6.7-3.6 9.8-1.6 4.5-3.4 9.9-5.1 15.3 5.9-3.3 14.6-7.4 17.8-7.6h.1c.4 0 .6.5.6 1 0 .4-.1.8-.5.8h-.3c-4.4 0-15 4.4-18.5 8.3.6 1.1.9 3.2.9 5.7 0 6.2-1.5 15.2-2.5 18.7-1.6 5.5-3.8 10.2-6.1 10.2h-.1c-1 0-1.4-1.3-1.4-3.3 0-7.8 5.9-26.9 6.2-27.8.1-.4.1-.7.1-.9 0-.7-.4-.7-.9-.7-.3 0-.7 0-1.1-.1-.2-.2-.4-.6-.4-1.1 0-.6.2-1.1.6-1.6.4-.4 1.1-.7 1.9-.7.4 0 .8.1 1.1.3 1.9-6.1 3.9-12.2 5.7-17.1.5-1.6 3.8-11.8 5.6-11.8.2 0 .4.1.7.3.8.8 1.1 2.9 1.1 4.9 0 2.3-.4 4.4-.4 4.5-.4.4-.9.5-1.5.5-.9 0-1.8-.4-2-1.1.2-.1 1.9-4.4 2-6.5Zm-17.1 57.8c0 .6 0 1.1.1 1.5 1.2-1.2 2.4-4.4 3.5-8.3 1.2-4.2 2.4-14.5 2.4-18.6v-1c-3.3 8.6-6 21.5-6 26.4Z" fill="#fff"/><path d="M170.501 49.4c-3.5 3.3-7.5 7-9.4 7h-.2c-.5-.1-.8-.4-1.1-.7-.4-.4-.5-1-.5-1.6v-.7c.1-.7.4-1.6.8-2.5 1.3-2.8 4-6.1 7.4-7.2.9-.3 1.7-.4 2.4-.4 1.4 0 2.4.4 3 1.1 1.3-1.1 2.9-2.2 3.7-2.2.1 0 .3 0 .4.1.6.1.9.7.9 1.6 0 1.1-.4 2.6-1.1 4.5-.5 1.3-.7 2.4-.7 3.3 0 2.3 1.5 3.1 3.6 3.1 5.6 0 16-5.9 17.6-7.9.3-.5.6-.7.8-.7.4 0 .7.4.7.8 0 .3-.1.5-.3.8-.5.8-12.4 7.7-19.3 7.7-2.8 0-4.8-1.2-4.8-4.5 0-.9.1-1.9.4-3.1.3-1.7.8-3.2.8-3.6 0 0-.7.6-1.7 1.6.2.5.2 1.1.2 1.3v.2c-.4.6-.9.8-1.4.8-.2 0-.4 0-.5-.1l-.1-.4c-.6.8-.8 1-1.6 1.7Zm-.7-2.9c-2.1 0-5.8 4.8-5.8 5.8 0 .1.1.2.3.2.8 0 3.5-2.1 6.3-5.8-.3-.2-.6-.2-.8-.2Z" fill="#fff"/><path d="M199.6 48.1c1.7-3.7 4.2-6 6.4-6 .9 0 1.8.4 2.5 1.4 1.6 3.6 8.2 4.3 13.1 4.3 2.2 0 4-.1 4.9-.2.5 0 .9-.4 1-.4.2 0 .4-.1.4-.1.3 0 .4.1.4.3 0 .3-.3.8-.7.8-.2.2-3.6.8-7.5.8-4.8 0-10.5-.8-12.7-3.9-.3-.4-.6-.5-.9-.5-3.1 0-8.9 13.8-9 13.9v.1c0 .5-.6.8-1.3.8-.8 0-1.7-.3-1.7-.8v-.2l3.8-15.7c.3-.8 1-1.1 1.7-1.1.8 0 1.7.5 1.7 1.3v.1l-2.1 5.1Z" fill="#fff"/><path d="M235.201 44.6c0 3.7-6 6.1-7.2 6.6v.9c0 1.1.2 2.3.7 3.1.6.9 1.5 1.3 2.8 1.3 6.1 0 18.3-9.2 18.3-9.2.2-.1.4-.2.5-.2.6 0 1.1.5 1.1 1.1 0 .2-.1.4-.4.6-.1 0-12 8.6-19.2 8.6-1.9 0-3.5-.6-4.5-2.1-.8-1.2-1.1-2.6-1.1-3.8 0-2.5 1.2-4.8 2.7-6.5.8-.9 1.7-1.6 2.5-2.1.6-.4 1.2-.5 1.8-.5.3 0 .6 0 .9.2.6.3 1.1.8 1.1 1.7v.3Zm-2.7 0c0-.1 0-.1-.1-.1-.9.1-1.7 1.8-3.8 4.4 2.9-2.5 3.9-3.9 3.9-4.3Z" fill="#fff"/><path d="M249.002 57.3c0 .7.1 1.1.5 1.3.2.1.4.1.6.1 3 0 5.4-9.8 6.8-12.5.6-1.6 1.2-2.2 1.8-2.2.5 0 1 .5 1.2 1 .5.5.7 2.2.8 3.3 0 .5.1 1.1.2 1.6.3 1.5 1.1 2.1 2.1 2.1 1.3 0 2.8-1.1 3.5-1.9 1.1-1.5 1.9-3.5 2.4-5.3v-.3c0-.3-.1-.7-.1-1v-.1c-.2-.2-.3-.5-.4-.8-.5-1-.8-2-.8-2.7v-.2c0-1 .4-1.6.9-1.9.2-.1.4-.1.5-.1.3 0 .6.1.9.4.5.4.8 1 .9 1.7.1.4.1.9.1 1.4 0 .6 0 1.2-.2 1.9.6 2 2.1 3.3 5 3.3 1.6 0 3.6-.4 6.2-1.4.4 0 .5.3.5.6 0 .5-.4 1.2-.8 1.3-1.8.4-3.4.6-4.7.6-3 0-5.2-.9-6.7-2.3-.6 1.9-1.5 3.9-2.7 5.5-1.6 2.1-3.6 3.3-5.3 3.3-2 0-3.6-1.6-3.9-5.4 0-.7-.1-1.2-.1-1.2s0 .3-.1.7c-.3 1-4.4 12.8-8.9 12.8-.4 0-.8-.1-1.1-.3-1.1-.5-1.5-1.9-1.5-3.8 0-6.7 5.4-19.3 5.5-19.4.4-.8 1.4-1.2 2.3-1.2 1 0 1.9.5 1.9 1.5 0 .4-.1.7-.3 1.1-.9 2.5-7 14.3-7 18.5Z" fill="#fff"/><path d="M289 44.6c0 3.7-6 6.1-7.2 6.6v.9c0 1.1.2 2.3.7 3.1.6.9 1.5 1.3 2.8 1.3 6.1 0 18.3-9.2 18.3-9.2.2-.1.4-.2.5-.2.6 0 1.1.5 1.1 1.1 0 .2-.1.4-.4.6-.1 0-12 8.6-19.2 8.6-1.9 0-3.5-.6-4.5-2.1-.8-1.2-1.1-2.6-1.1-3.8 0-2.5 1.2-4.8 2.7-6.5.8-.9 1.7-1.6 2.5-2.1.6-.4 1.2-.5 1.8-.5.3 0 .6 0 .9.2.6.3 1.1.8 1.1 1.7v.3Zm-2.7 0c0-.1 0-.1-.1-.1-.9.1-1.7 1.8-3.8 4.4 2.9-2.5 3.9-3.9 3.9-4.3Z" fill="#fff"/><path d="M323.301 8c.9.3 1.3 1.1 1.3 2.1 0 5-8.7 17.1-11.9 21.4l-.7 1.1c-3.4 4.8-12.8 31.8-12.8 45.5 0 4.7 1.1 7.8 3.8 8.1.5 0 .8.4.8.8 0 .5-.4 1-.9 1h-.3c-3.4-1.5-4.8-6.1-4.8-12.6 0-10.9 4.1-26.9 9.9-41.3l1.4-3.4c5.7-12.9 11.5-22.7 14.2-22.7Zm-9.9 62.7c0 1.5.2 2.7.6 3.5.4.9 1.1 1.3 1.9 1.3 5.8 0 20-20.3 23.2-26.1.5-.9.8-2.1.8-2.1.4-.7.9-1 1.3-1s.8.4.8.9v.1c0 .1-18.3 28.7-26.4 28.7-1.1 0-2.1-.6-2.8-2-.4-.9-.7-2.4-.7-4.2 0-11.6 8.6-38.3 14.5-46.4 1.4-2.4 2.8-4.5 4-5.9 1.3-1.5 2.6-2.4 3.6-2.4h.1c.8 0 1.3.5 1.7 1.5.2.5.3 1.1.3 1.7 0 7.8-11.5 26-17.5 30.8-.4.3-.7.4-1 1.1-3.1 10.2-4.4 16.6-4.4 20.5Zm8.8-59.1c.3-.8.4-1.2.4-1.4v-.1c-.6 0-8.5 16-8.7 16.4 2.2-2.7 7.2-11.8 8.3-14.9Zm12.5 6.3c0-.2 0-.4-.1-.5-.1-.3-.2-.4-.3-.4-.4 0-1.3.7-2.3 1.9-1.1 1.4-2.5 3.3-3.8 5.7-2.7 4.6-6.3 14.4-8.4 20.3 2.7-2.7 14.9-22.3 14.9-27Z" fill="#fff"/><path d="M343.001 29.9c5.2 0 12.7-.3 22.6-1.1 5.7-13.4 11.8-23.7 14.5-23.7h.1c.8.3 1.2 1.1 1.2 2.1 0 5-8.7 17.1-11.8 21.4 3.9-.3 30.1-2.6 34.6-2.6h.6c.2.3.3.5.3.7 0 1.6-3.7 2.8-3.7 2.8-.2.1-.4.1-.5.1-.6 0-1.1-.5-1.1-1.1 0-.2 0-.4.1-.5 0 0-20.7.9-30.9 1.7-3.6 5-14.9 31.6-14.9 43.9 0 3.6 1 6.1 3.5 6.3.5 0 .8.4.8.8 0 .5-.4 1-.9 1h-.3c-2.6-1.1-3.6-4.4-3.6-9.1 0-10.5 5.5-28 11.6-42.5-7.2 0-15.9.4-22.4.4-5 0-8.7-.2-8.9-.9 0-.1-.1-.2-.1-.3 0-.6 1-.8 1.5-.8h.3c.7 0 1.7.3 1.7 1.3 1.3 0 3.2.1 5.7.1Zm36-21.3c.3-.8.4-1.3.4-1.5V7c-.7 0-8.5 16-8.7 16.4 2.2-2.6 7.2-11.7 8.3-14.8Z" fill="#fff"/><path d="M373.5 43.5c-.1-.2-.1-.4-.1-.6 0-.4.1-.6.4-.8.2-.2.4-.3.7-.3.1 0 .3 0 .4.1.8.3 1.3 1 1.6 2.2 1 1.1 2.5 2 5.4 2.3 1.5.1 3 .2 4.2.2 4.6 0 7.1-.7 7.1-.8h.2c.5 0 .8.4.8.8s-.2.9-.6 1c0 0-1.8.4-5.4.4-1.6 0-3.5-.1-5.8-.3-2.4-.2-4-.6-5.3-1.2 0 3.8-1.5 9.8-4.8 12.1-.6.4-1.4.7-2.1.7-.4 0-.7 0-1-.2-1.3-.5-1.7-1.8-1.7-3.3 0-2 .8-4.4 1.3-5.6.7-1.6 3.1-5.4 4.8-6.5-.1-.1-.1-.2-.1-.2Zm-3.2 7.6c-.3.6-1.1 3-1.1 4.7 0 .8.1 1.3.6 1.5h.3c2.1 0 4.6-9.5 4.6-11.9v-.3l-.3-.3c-1.5 1.4-3.3 4.4-4.1 6.3ZM415.102 56.5c0-1.6 1.1-2.8 2.6-2.8 1.6 0 2.6 1.1 2.6 2.8 0 1.6-1 2.8-2.6 2.8-1.5 0-2.6-1.2-2.6-2.8Zm14.8 0c0-1.6 1.1-2.8 2.7-2.8 1.5 0 2.6 1.1 2.6 2.8 0 1.6-1.1 2.8-2.7 2.8s-2.7-1.2-2.6-2.8Zm14.7 0c0-1.6 1.1-2.8 2.7-2.8s2.6 1.1 2.6 2.8c0 1.6-1 2.8-2.7 2.8-1.6 0-2.6-1.2-2.6-2.8Z" fill="#fff"/></svg>