<svg width="421" height="35" fill="none" xmlns="http://www.w3.org/2000/svg"><path d="M403.5 35h-386C7.8 35 0 27.2 0 17.5S7.8 0 17.5 0h386c9.7 0 17.5 7.8 17.5 17.5S413.2 35 403.5 35Z" fill="#2864BC"/><path d="M66.1 25.3V7.8h12.2v3.4h-8v3.5h7.3v3.4h-7.3v3.7h8v3.4H66.1v.1ZM80.2 25.3V12.2h3.9v2.4h.2c.3-.8.7-1.4 1.4-1.9s1.4-.7 2.3-.7c.9 0 1.7.2 2.3.7.6.5 1.1 1.1 1.2 1.9h.1c.2-.8.7-1.4 1.4-1.9s1.6-.7 2.5-.7c1.2 0 2.2.4 3 1.2.8.8 1.2 1.9 1.2 3.3v8.8h-4.2v-7.9c0-.6-.2-1.1-.5-1.5-.3-.4-.8-.5-1.3-.5-.6 0-1 .2-1.3.6-.3.4-.5.9-.5 1.5v7.8h-4v-7.9c0-.6-.2-1.1-.5-1.4-.3-.3-.8-.5-1.3-.5-.4 0-.7.1-1 .3-.3.2-.5.4-.7.7-.2.3-.2.7-.2 1.1v7.7h-4ZM109.8 25.5c-.7 0-1.2-.1-1.7-.3-.5-.2-.9-.5-1.2-.9-.3-.4-.6-.7-.7-1.1h-.2v2.1h-4.1V7.8h4.2v6.6h.1c.2-.4.4-.8.7-1.2.3-.4.7-.7 1.2-.9.5-.2 1.1-.4 1.8-.4.9 0 1.8.2 2.6.7.8.5 1.4 1.2 1.9 2.2.5 1 .7 2.3.7 3.8s-.2 2.7-.7 3.7c-.5 1-1.1 1.8-1.9 2.2-.8.4-1.8 1-2.7 1Zm-1.5-3.3c.5 0 1-.1 1.3-.4.3-.3.6-.7.8-1.2.2-.5.3-1.1.3-1.8s-.1-1.3-.3-1.8c-.2-.5-.5-.9-.8-1.2-.3-.3-.8-.4-1.3-.4s-.9.1-1.3.4c-.4.3-.6.7-.8 1.2-.2.5-.3 1.1-.3 1.9 0 .7.1 1.3.3 1.8.2.5.5.9.8 1.2.3.3.8.3 1.3.3ZM116.5 25.3V12.2h4v2.4h.1c.2-.9.6-1.5 1.2-1.9.6-.4 1.2-.6 1.9-.6h.6c.2 0 .4.1.6.1v3.6c-.2-.1-.5-.1-.8-.2-.3-.1-.6-.1-.9-.1-.5 0-.9.1-1.3.3-.4.2-.7.5-.9.9-.2.4-.3.8-.3 1.4v7.1h-4.2v.1ZM129.099 25.5c-.8 0-1.6-.1-2.2-.4-.6-.3-1.2-.7-1.5-1.3-.3-.6-.6-1.3-.6-2.2 0-.7.1-1.3.4-1.8.3-.5.6-.9 1.1-1.2.5-.3 1-.6 1.6-.7.6-.1 1.2-.3 1.9-.3.7-.1 1.3-.1 1.8-.2s.8-.2 1-.3c.2-.1.3-.4.3-.6v-.1c0-.4-.1-.8-.4-1-.3-.2-.7-.4-1.2-.4-.6 0-1 .1-1.3.4-.3.3-.5.6-.6 1l-3.8-.1c.1-.8.4-1.5.9-2.1.5-.6 1.1-1.1 2-1.5.9-.4 1.8-.5 3-.5.8 0 1.6.1 2.3.3.7.2 1.3.5 1.8.9s.9.8 1.2 1.4c.3.6.4 1.2.4 1.8v8.9h-4.2v-2h-.1c-.2.5-.5.8-.9 1.1-.4.3-.8.5-1.3.7-.5.2-1 .2-1.6.2Zm1.3-2.7c.4 0 .8-.1 1.2-.3.4-.2.7-.4.9-.8.2-.4.3-.7.3-1.1v-1.2c-.1.1-.3.1-.4.2-.1.1-.4.1-.6.1-.2 0-.4.1-.6.1-.2 0-.4.1-.6.1-.4.1-.7.2-1 .3-.3.1-.5.3-.6.5-.1.2-.2.4-.2.7 0 .4.2.8.5 1 .3.2.6.4 1.1.4ZM144.999 25.5c-1.4 0-2.6-.3-3.6-.9-1-.6-1.7-1.4-2.3-2.4-.6-1-.8-2.2-.8-3.5 0-1.3.3-2.5.8-3.5s1.3-1.8 2.3-2.4c1-.6 2.2-.9 3.5-.9 1.2 0 2.3.2 3.2.7.9.5 1.6 1.1 2.1 1.9.5.8.8 1.7.8 2.8h-3.9c-.1-.4-.2-.8-.4-1.1-.2-.3-.4-.6-.7-.7-.3-.1-.7-.3-1-.3-.5 0-.9.1-1.3.4-.4.3-.6.7-.8 1.2-.2.5-.3 1.2-.3 2s.1 1.4.3 2c.2.6.5.9.8 1.2.3.3.8.4 1.3.4.6 0 1-.2 1.4-.6.4-.4.6-.9.7-1.6h3.9c0 1.1-.3 2-.8 2.8-.5.8-1.2 1.4-2.1 1.9-.9.5-1.9.6-3.1.6ZM158.7 25.5c-1.4 0-2.6-.3-3.6-.8s-1.8-1.3-2.3-2.3c-.5-1-.8-2.2-.8-3.6s.3-2.5.8-3.5 1.3-1.8 2.2-2.4c.9-.6 2.1-.8 3.4-.8.9 0 1.8.1 2.6.4.8.3 1.4.7 2 1.3.6.6 1 1.3 1.3 2.1.3.8.5 1.8.5 2.9v1h-11.4v-2.4h9.4l-1.9.6c0-.6-.1-1.1-.3-1.5-.2-.4-.4-.8-.8-1-.4-.2-.8-.4-1.3-.4s-1 .1-1.3.4c-.3.3-.6.6-.8 1-.2.4-.3.9-.3 1.5v1.7c0 .6.1 1.1.3 1.6.2.5.5.8.9 1 .4.2.8.4 1.4.4.4 0 .7-.1 1-.2.3-.1.6-.3.8-.5.2-.2.4-.4.5-.7l3.8.1c-.2.9-.5 1.6-1 2.2-.5.6-1.2 1.1-2.1 1.5-.9.4-1.9.4-3 .4ZM170.199 11.3V7.9h14.8v3.4h-5.3v14h-4.1v-14h-5.4ZM190.6 17.8v7.5h-4.2V7.8h4v6.8h.2c.3-.8.8-1.4 1.5-1.9s1.5-.7 2.5-.7c.9 0 1.7.2 2.4.6.7.4 1.2 1 1.6 1.7.4.7.6 1.6.6 2.6v8.3H195v-7.5c0-.7-.2-1.3-.6-1.7-.4-.4-.9-.6-1.6-.6-.4 0-.8.1-1.2.3-.4.2-.6.5-.8.8-.2.3-.2.8-.2 1.3ZM207.1 25.5c-1.4 0-2.6-.3-3.6-.8s-1.8-1.3-2.3-2.3c-.5-1-.8-2.2-.8-3.6s.3-2.5.8-3.5 1.3-1.8 2.2-2.4c.9-.6 2.1-.8 3.4-.8.9 0 1.8.1 2.6.4.8.3 1.4.7 2 1.3.6.6 1 1.3 1.3 2.1.3.8.5 1.8.5 2.9v1H202v-2.4h9.4l-1.9.6c0-.6-.1-1.1-.3-1.5-.2-.4-.4-.8-.8-1-.4-.2-.8-.4-1.3-.4s-1 .1-1.3.4c-.3.3-.6.6-.8 1-.2.4-.3.9-.3 1.5v1.7c0 .6.1 1.1.3 1.6.2.5.5.8.9 1 .4.2.8.4 1.4.4.4 0 .7-.1 1-.2.3-.1.6-.3.8-.5.2-.2.4-.4.5-.7l3.8.1c-.2.9-.5 1.6-1 2.2-.5.6-1.2 1.1-2.1 1.5-.9.4-2 .4-3.2.4ZM227.4 25.5c-1.6 0-3-.3-4.2-1-1.2-.7-2.2-1.7-3-3-.8-1.3-1.1-3-1.1-4.9 0-1.9.4-3.6 1.1-4.9.7-1.3 1.7-2.4 3-3 1.3-.6 2.7-1 4.2-1 1.1 0 2 .1 2.9.4.9.3 1.7.7 2.4 1.3.7.6 1.2 1.2 1.7 2.1.5.9.7 1.7.8 2.8h-4.3l-.3-1.2c-.1-.4-.4-.7-.7-.9-.3-.2-.6-.4-1-.6-.4-.2-.8-.2-1.3-.2-.8 0-1.6.2-2.2.6-.6.4-1.1 1-1.4 1.8-.3.8-.5 1.7-.5 2.9 0 1.1.2 2.1.5 2.9.3.8.8 1.4 1.4 1.8.6.4 1.3.6 2.2.6.5 0 .9-.1 1.3-.2s.7-.3 1-.5c.3-.2.5-.5.7-.8.2-.3.3-.7.4-1.1h4.3c-.1.8-.3 1.5-.7 2.3-.4.8-.9 1.4-1.5 2.1-.6.7-1.4 1.1-2.4 1.5-1 .4-2.1.2-3.3.2ZM240.999 17.8v7.5h-4.2V7.8h4v6.8h.2c.3-.8.8-1.4 1.5-1.9s1.5-.7 2.5-.7c.9 0 1.7.2 2.4.6.7.4 1.2 1 1.6 1.7.4.7.6 1.6.6 2.6v8.3h-4.2v-7.5c0-.7-.2-1.3-.6-1.7-.4-.4-.9-.6-1.6-.6-.4 0-.8.1-1.2.3-.4.2-.6.5-.8.8-.2.3-.2.8-.2 1.3Z" fill="#fff"/><path d="M240.999 17.8v7.5h-4.2V7.8h4v6.8h.2c.3-.8.8-1.4 1.5-1.9s1.5-.7 2.5-.7c.9 0 1.7.2 2.4.6.7.4 1.2 1 1.6 1.7.4.7.6 1.6.6 2.6v8.3h-4.2v-7.5c0-.7-.2-1.3-.6-1.7-.4-.4-.9-.6-1.6-.6-.4 0-.8.1-1.2.3-.4.2-.6.5-.8.8-.2.3-.2.8-.2 1.3ZM255.2 25.5c-.8 0-1.6-.1-2.2-.4-.6-.3-1.2-.7-1.5-1.3-.3-.6-.6-1.3-.6-2.2 0-.7.1-1.3.4-1.8.3-.5.6-.9 1.1-1.2.5-.3 1-.6 1.6-.7.6-.1 1.2-.3 1.9-.3.7-.1 1.3-.1 1.8-.2s.8-.2 1-.3c.2-.1.3-.4.3-.6v-.1c0-.4-.1-.8-.4-1-.3-.2-.7-.4-1.2-.4-.6 0-1 .1-1.3.4-.3.3-.5.6-.6 1l-3.8-.1c.1-.8.4-1.5.9-2.1.5-.6 1.1-1.1 2-1.5.9-.4 1.8-.5 3-.5.8 0 1.6.1 2.3.3.7.2 1.3.5 1.8.9s.9.8 1.2 1.4c.3.6.4 1.2.4 1.8v8.9h-3.9v-2h-.4c-.2.5-.5.8-.9 1.1-.4.3-.8.5-1.3.7-.5.2-1 .2-1.6.2Zm1.3-2.7c.4 0 .8-.1 1.2-.3.4-.2.7-.4.9-.8.2-.4.3-.7.3-1.1v-1.2c-.1.1-.3.1-.4.2-.1.1-.4.1-.6.1-.2 0-.4.1-.6.1-.2 0-.4.1-.6.1-.4.1-.7.2-1 .3-.3.1-.5.3-.6.5-.1.2-.2.4-.2.7 0 .4.2.8.5 1 .3.2.6.4 1.1.4ZM269.2 17.8v7.5H265V12.2h4.1v2.4h.1c.3-.8.8-1.4 1.4-1.9.6-.5 1.5-.7 2.4-.7.9 0 1.7.2 2.4.6.7.4 1.2 1 1.6 1.7.4.7.6 1.6.6 2.6v8.3h-4.2v-7.5c0-.7-.2-1.3-.6-1.7-.4-.4-.9-.6-1.5-.6-.4 0-.8.1-1.1.3-.3.2-.6.5-.8.8-.2.3-.2.8-.2 1.3ZM285.7 30.5c-1.9 0-3.3-.4-4.4-1.1-1.1-.7-1.7-1.7-1.8-2.9l3.9-.2c.1.3.2.5.4.7.2.2.5.4.8.5.3.1.7.2 1.2.2.7 0 1.3-.2 1.7-.5.4-.3.7-.9.7-1.8v-2.3h-.2c-.2.4-.4.8-.8 1.1-.4.3-.8.6-1.2.8-.4.2-1.1.3-1.7.3-1 0-1.8-.2-2.6-.7-.8-.5-1.4-1.1-1.9-2.1s-.7-2.2-.7-3.6c0-1.5.2-2.8.7-3.8.5-1 1.1-1.7 1.9-2.2.8-.5 1.7-.7 2.6-.7.7 0 1.3.1 1.8.4.5.3.9.5 1.2.9.3.4.6.8.7 1.2h.1v-2.2h4.1v13.2c0 1.1-.3 2-.8 2.8-.5.8-1.3 1.3-2.3 1.7-1 .4-2.1.3-3.4.3Zm.1-8.4c.8 0 1.3-.3 1.8-.9.5-.6.6-1.4.6-2.5 0-.7-.1-1.3-.3-1.8-.2-.5-.5-.9-.8-1.2-.3-.3-.8-.4-1.3-.4s-1 .1-1.3.4c-.3.3-.6.7-.8 1.2-.2.5-.3 1.1-.3 1.8s.1 1.3.3 1.8c.2.5.5.9.8 1.2.3.3.8.4 1.3.4ZM300.399 25.5c-1.4 0-2.6-.3-3.6-.8s-1.8-1.3-2.3-2.3c-.5-1-.8-2.2-.8-3.6s.3-2.5.8-3.5 1.3-1.8 2.2-2.4c.9-.6 2.1-.8 3.4-.8.9 0 1.8.1 2.6.4.8.3 1.4.7 2 1.3.6.6 1 1.3 1.3 2.1.3.8.5 1.8.5 2.9v1h-11.4v-2.4h9.4l-1.9.6c0-.6-.1-1.1-.3-1.5-.2-.4-.4-.8-.8-1-.4-.2-.8-.4-1.3-.4s-1 .1-1.3.4c-.3.3-.6.6-.8 1-.2.4-.3.9-.3 1.5v1.7c0 .6.1 1.1.3 1.6.2.5.5.8.9 1 .4.2.8.4 1.4.4.4 0 .7-.1 1-.2.3-.1.6-.3.8-.5.2-.2.4-.4.5-.7l3.8.1c-.2.9-.5 1.6-1 2.2-.5.6-1.2 1.1-2.1 1.5-.9.4-1.9.4-3 .4ZM310.999 25.6c-.7 0-1.2-.2-1.7-.6-.5-.4-.6-.9-.6-1.6 0-.7.2-1.2.6-1.6.4-.4 1-.6 1.7-.6s1.3.2 1.7.6c.4.4.6.9.6 1.6 0 .7-.2 1.2-.6 1.6-.4.4-1 .6-1.7.6Zm-1.9-5.8-.3-12h4.4l-.3 12h-3.8Z" fill="#fff"/><path d="M322.5 8.6v2.3l1.6 1.6 5.4 5.4-5.4 5.4-1.6 1.6v2.3l9.3-9.3-9.3-9.3Z" fill="#fff" stroke="#fff" stroke-width="2" stroke-miterlimit="10"/><path opacity=".65" d="M334.5 8.6v2.3l1.6 1.6 5.4 5.4-5.4 5.4-1.6 1.6v2.3l9.3-9.3-9.3-9.3Z" fill="#fff" stroke="#fff" stroke-width="2" stroke-miterlimit="10"/><path opacity=".3" d="M346.5 8.6v2.3l1.6 1.6 5.4 5.4-5.4 5.4-1.6 1.6v2.3l9.3-9.3-9.3-9.3Z" fill="#fff" stroke="#fff" stroke-width="2" stroke-miterlimit="10"/></svg>