<svg width="606" height="36" fill="none" xmlns="http://www.w3.org/2000/svg"><path d="M588.5 35.4h-571C7.8 35.4 0 27.6 0 17.9S7.8.4 17.5.4h571c9.7 0 17.5 7.8 17.5 17.5s-7.8 17.5-17.5 17.5Z" fill="#2864BC"/><path d="M43.9 25.9c-1.5 0-2.7-.2-3.8-.7-1.1-.5-1.9-1.1-2.5-2-.6-.9-.9-2-.9-3.4h4c0 .6.2 1 .5 1.4.3.4.6.7 1.1.9.5.2 1 .3 1.6.3.6 0 1.1-.1 1.5-.2.4-.1.7-.4.9-.6.2-.2.3-.6.3-.9 0-.3-.1-.6-.3-.8-.2-.2-.5-.4-.9-.6-.4-.2-.9-.3-1.6-.5l-1.8-.4c-1.5-.3-2.7-.9-3.6-1.7-.9-.8-1.3-1.8-1.3-3.2 0-1.1.3-2 .9-2.8.6-.8 1.4-1.4 2.4-1.9s2.2-.7 3.5-.7c1.4 0 2.5.2 3.5.7 1 .5 1.8 1.1 2.3 1.9.5.8.8 1.8.8 2.9h-4.1c0-.6-.3-1.1-.7-1.5-.4-.4-1.1-.5-1.9-.5-.5 0-1 .1-1.4.2-.4.1-.6.3-.8.6-.2.3-.3.5-.3.8 0 .3.1.6.3.9.2.3.5.4.9.6.4.2.8.3 1.4.4l1.5.3c.9.2 1.6.4 2.3.8.7.4 1.2.7 1.7 1.1.5.4.8.9 1 1.5.2.6.4 1.2.4 1.9 0 1.1-.3 2.1-.8 2.9-.5.8-1.3 1.4-2.4 1.8-1.1.4-2.3.5-3.7.5ZM54.399 11.1c-.6 0-1.1-.2-1.5-.6-.4-.4-.6-.9-.6-1.4 0-.5.2-1 .6-1.4.4-.4.9-.6 1.5-.6s1.1.2 1.5.6c.4.4.6.9.6 1.4 0 .5-.2 1-.6 1.4-.4.4-1 .6-1.5.6Zm-2.1 14.6V12.6h4.2v13.1h-4.2ZM64.498 30.9c-1.9 0-3.3-.4-4.4-1.1-1.1-.7-1.7-1.7-1.8-2.9l3.9-.2c.1.3.2.5.4.7.2.2.5.4.8.5.3.1.7.2 1.2.2.7 0 1.3-.2 1.7-.5.4-.3.7-.9.7-1.8v-2.3h-.2c-.2.4-.4.8-.8 1.1-.4.3-.8.6-1.2.8-.4.2-1.1.3-1.7.3-1 0-1.8-.2-2.6-.7-.8-.5-1.4-1.1-1.9-2.1s-.7-2.2-.7-3.6c0-1.5.2-2.8.7-3.8.5-1 1.1-1.7 1.9-2.2.8-.5 1.7-.7 2.6-.7.7 0 1.3.1 1.8.4.5.3.9.5 1.2.9.3.4.6.8.7 1.2h.1v-2.2h4.1v13.2c0 1.1-.3 2-.8 2.8-.5.8-1.3 1.3-2.3 1.7-1 .4-2.1.3-3.4.3Zm.1-8.4c.8 0 1.3-.3 1.8-.9.5-.6.6-1.4.6-2.5 0-.7-.1-1.3-.3-1.8-.2-.5-.5-.9-.8-1.2-.3-.3-.8-.4-1.3-.4s-1 .1-1.3.4c-.3.3-.6.7-.8 1.2-.2.5-.3 1.1-.3 1.8s.1 1.3.3 1.8c.2.5.5.9.8 1.2.3.3.8.4 1.3.4ZM77.3 18.2v7.5h-4.2V12.6h4.1V15h.1c.3-.8.8-1.4 1.4-1.9.6-.5 1.5-.7 2.4-.7.9 0 1.7.2 2.4.6.7.4 1.2 1 1.6 1.7.4.7.6 1.6.6 2.6v8.3h-4.2v-7.5c0-.7-.2-1.3-.6-1.7-.4-.4-.9-.6-1.5-.6-.4 0-.8.1-1.1.3-.3.2-.6.5-.8.8-.2.3-.2.8-.2 1.3ZM100.599 20.1v-7.5h4.2v13.1h-4v-2.4h-.1c-.3.8-.8 1.4-1.5 1.9s-1.5.7-2.5.7c-.9 0-1.7-.2-2.3-.6-.6-.4-1.2-1-1.6-1.7-.4-.7-.6-1.6-.6-2.6v-8.4h4.2v7.5c0 .7.2 1.3.6 1.7.4.4.9.6 1.5.6.4 0 .8-.1 1.1-.3.3-.2.6-.5.8-.8.2-.3.2-.7.2-1.2ZM106.799 30.6v-18h4.1v2.2h.1c.2-.4.4-.8.7-1.2.3-.4.7-.7 1.2-.9.5-.2 1.1-.4 1.8-.4.9 0 1.8.2 2.6.7.8.5 1.4 1.2 1.9 2.2.5 1 .7 2.3.7 3.8s-.2 2.7-.7 3.7c-.5 1-1.1 1.8-1.9 2.2-.8.4-1.7.8-2.6.8-.7 0-1.2-.1-1.7-.3-.5-.2-.9-.5-1.2-.9-.3-.4-.6-.7-.7-1.1h-.1v7h-4.2v.2Zm6.5-8c.5 0 1-.1 1.3-.4.3-.3.6-.7.8-1.2.2-.5.3-1.1.3-1.8s-.1-1.3-.3-1.8c-.2-.5-.5-.9-.8-1.2-.3-.3-.8-.4-1.3-.4s-.9.1-1.3.4c-.4.3-.6.7-.8 1.2-.2.5-.3 1.1-.3 1.9 0 .7.1 1.3.3 1.8.2.5.5.9.8 1.2.3.3.8.3 1.3.3ZM133.3 12.6v3.1H125v-3.1h8.3Zm-6.5-3.1h4.2v12.1c0 .4.1.6.3.8.2.2.4.3.8.3h.5c.2 0 .3-.1.4-.1l.6 3c-.5.1-.9.2-1.3.3-.4.1-.8.1-1.2.1-1.4 0-2.4-.3-3.2-1-.8-.7-1.1-1.6-1.1-2.9V9.5ZM140.7 25.9c-1.4 0-2.6-.3-3.5-.8-.9-.5-1.7-1.4-2.3-2.4-.6-1-.8-2.2-.8-3.5 0-1.4.3-2.5.8-3.5s1.3-1.8 2.3-2.4c1-.6 2.2-.8 3.5-.8 1.3 0 2.6.3 3.5.8.9.5 1.7 1.4 2.3 2.4.6 1 .8 2.2.8 3.5 0 1.3-.3 2.5-.8 3.5s-1.3 1.8-2.3 2.4c-1 .6-2.1.8-3.5.8Zm.1-3.1c.5 0 .9-.1 1.3-.4.4-.3.6-.7.8-1.3.2-.6.3-1.2.3-1.9s-.1-1.4-.3-1.9c-.2-.5-.4-.9-.8-1.2-.4-.3-.8-.4-1.3-.4s-.9.1-1.3.4c-.4.3-.6.7-.8 1.2-.2.5-.3 1.2-.3 1.9s.1 1.3.3 1.9c.2.6.4 1 .8 1.3.4.3.8.4 1.3.4ZM153.598 25.9c-1 0-1.8-.2-2.6-.8-.8-.6-1.4-1.2-1.9-2.2-.5-1-.7-2.2-.7-3.7s.2-2.8.7-3.8c.5-1 1.1-1.7 1.9-2.2.8-.5 1.6-.7 2.6-.7.7 0 1.3.1 1.8.4.5.3.9.5 1.2.9.3.4.6.8.7 1.2h.1V8.4h4.2v17.5h-4.1v-2.1h-.1c-.2.4-.4.8-.8 1.1-.4.3-.7.6-1.2.9-.5.3-1.2.1-1.8.1Zm1.4-3.3c.5 0 .9-.1 1.3-.4.4-.3.6-.7.8-1.2.2-.5.3-1.1.3-1.8s-.1-1.3-.3-1.9c-.2-.6-.5-.9-.8-1.2-.3-.3-.8-.4-1.3-.4s-.9.1-1.3.4c-.4.3-.6.7-.8 1.2-.2.5-.3 1.1-.3 1.8s.1 1.3.3 1.8c.2.5.5.9.8 1.2.3.3.8.5 1.3.5ZM167.198 25.9c-.8 0-1.6-.1-2.2-.4-.6-.3-1.2-.7-1.5-1.3-.3-.6-.6-1.3-.6-2.2 0-.7.1-1.3.4-1.8.3-.5.6-.9 1.1-1.2.5-.3 1-.6 1.6-.7.6-.1 1.2-.3 1.9-.3.7-.1 1.3-.1 1.8-.2s.8-.2 1-.3c.2-.1.3-.4.3-.6v-.1c0-.4-.1-.8-.4-1-.3-.2-.7-.4-1.2-.4-.6 0-1 .1-1.3.4-.3.3-.5.6-.6 1l-3.8-.1c.1-.8.4-1.5.9-2.1.5-.6 1.1-1.1 2-1.5.9-.4 1.8-.5 3-.5.8 0 1.6.1 2.3.3.7.2 1.3.5 1.8.9s.9.8 1.2 1.4c.3.6.4 1.2.4 1.8v8.9h-3.9v-2h-.4c-.2.5-.5.8-.9 1.1-.4.3-.8.5-1.3.7-.5.2-1 .2-1.6.2Zm1.2-2.7c.4 0 .8-.1 1.2-.3.4-.2.7-.4.9-.8.2-.4.3-.7.3-1.1v-1.2c-.1.1-.3.1-.4.2-.1.1-.4.1-.6.1-.2 0-.4.1-.6.1-.2 0-.4.1-.6.1-.4.1-.7.2-1 .3-.3.1-.5.3-.6.5-.1.2-.2.4-.2.7 0 .4.2.8.5 1 .3.2.7.4 1.1.4ZM179 30.6c-.5 0-1 0-1.4-.1-.4-.1-.8-.2-1.1-.3l.9-3h.1c.6.2 1.1.2 1.5.2.4 0 .7-.3.9-.8l.2-.4-4.6-13.6h4.3l2.4 9.4h.1l2.4-9.4h4.4L184.2 27c-.2.7-.6 1.3-1 1.9-.4.6-1 1-1.7 1.3-.7.3-1.5.4-2.5.4ZM198.3 25.9c-.8 0-1.6-.1-2.2-.4-.6-.3-1.2-.7-1.5-1.3-.3-.6-.6-1.3-.6-2.2 0-.7.1-1.3.4-1.8.3-.5.6-.9 1.1-1.2.5-.3 1-.6 1.6-.7.6-.1 1.2-.3 1.9-.3.7-.1 1.3-.1 1.8-.2s.8-.2 1-.3c.2-.1.3-.4.3-.6v-.1c0-.4-.1-.8-.4-1-.3-.2-.7-.4-1.2-.4-.6 0-1 .1-1.3.4-.3.3-.5.6-.6 1l-3.8-.1c.1-.8.4-1.5.9-2.1.5-.6 1.1-1.1 2-1.5.9-.4 1.8-.5 3-.5.8 0 1.6.1 2.3.3.7.2 1.3.5 1.8.9s.9.8 1.2 1.4c.3.6.4 1.2.4 1.8v8.9h-3.9v-2h-.1c-.2.5-.5.8-.9 1.1-.4.3-.8.5-1.3.7-.5.2-1.3.2-1.9.2Zm1.3-2.7c.4 0 .8-.1 1.2-.3.4-.2.7-.4.9-.8.2-.4.3-.7.3-1.1v-1.2c-.1.1-.3.1-.4.2-.1.1-.4.1-.6.1-.2 0-.4.1-.6.1-.2 0-.4.1-.6.1-.4.1-.7.2-1 .3-.3.1-.5.3-.6.5-.1.2-.2.4-.2.7 0 .4.2.8.5 1 .3.2.6.4 1.1.4ZM212.3 18.2v7.5h-4.2V12.6h4.1V15h.1c.3-.8.8-1.4 1.4-1.9.6-.5 1.5-.7 2.4-.7.9 0 1.7.2 2.4.6.7.4 1.2 1 1.6 1.7.4.7.6 1.6.6 2.6v8.3h-4.2v-7.5c0-.7-.2-1.3-.6-1.7-.4-.4-.9-.6-1.5-.6-.4 0-.8.1-1.1.3-.3.2-.6.5-.8.8-.2.3-.2.8-.2 1.3ZM227.399 25.9c-1 0-1.8-.2-2.6-.8-.8-.6-1.4-1.2-1.9-2.2-.5-1-.7-2.2-.7-3.7s.2-2.8.7-3.8c.5-1 1.1-1.7 1.9-2.2.8-.5 1.6-.7 2.6-.7.7 0 1.3.1 1.8.4.5.3.9.5 1.2.9.3.4.6.8.7 1.2h.1V8.4h4.2v17.5h-4.1v-2.1h-.1c-.2.4-.4.8-.8 1.1-.4.3-.7.6-1.2.9-.5.3-1.1.1-1.8.1Zm1.5-3.3c.5 0 .9-.1 1.3-.4.4-.3.6-.7.8-1.2.2-.5.3-1.1.3-1.8s-.1-1.3-.3-1.9c-.2-.6-.5-.9-.8-1.2-.3-.3-.8-.4-1.3-.4s-.9.1-1.3.4c-.4.3-.6.7-.8 1.2-.2.5-.3 1.1-.3 1.8s.1 1.3.3 1.8c.2.5.5.9.8 1.2.3.3.8.5 1.3.5ZM247.999 25.9c-1.4 0-2.6-.3-3.6-.8s-1.8-1.3-2.3-2.3c-.5-1-.8-2.2-.8-3.6s.3-2.5.8-3.5 1.3-1.8 2.2-2.4c.9-.6 2.1-.8 3.4-.8.9 0 1.8.1 2.6.4.8.3 1.4.7 2 1.3.6.6 1 1.3 1.3 2.1.3.8.5 1.8.5 2.9v1h-11.4v-2.4h9.4l-1.9.6c0-.6-.1-1.1-.3-1.5-.2-.4-.4-.8-.8-1-.4-.2-.8-.4-1.3-.4s-1 .1-1.3.4c-.3.3-.6.6-.8 1-.2.4-.3.9-.3 1.5v1.7c0 .6.1 1.1.3 1.6.2.5.5.8.9 1 .4.2.8.4 1.4.4.4 0 .7-.1 1-.2.3-.1.6-.3.8-.5.2-.2.4-.4.5-.7l3.8.1c-.2.9-.5 1.6-1 2.2-.5.6-1.2 1.1-2.1 1.5-.9.4-1.9.4-3 .4ZM258.699 12.6l2.1 4.3 2.2-4.3h4.2l-3.7 6.6 3.8 6.5h-4.2l-2.4-4.3-2.3 4.3h-4.2l3.8-6.5-3.6-6.6h4.3ZM268.5 30.6v-18h4.1v2.2h.1c.2-.4.4-.8.7-1.2.3-.4.7-.7 1.2-.9.5-.2 1.1-.4 1.8-.4.9 0 1.8.2 2.6.7.8.5 1.4 1.2 1.9 2.2.5 1 .7 2.3.7 3.8s-.2 2.7-.7 3.7c-.5 1-1.1 1.8-1.9 2.2-.8.4-1.7.8-2.6.8-.7 0-1.2-.1-1.7-.3-.5-.2-.9-.5-1.2-.9-.3-.4-.6-.7-.7-1.1h-.1v7h-4.2v.2Zm6.5-8c.5 0 1-.1 1.3-.4.3-.3.6-.7.8-1.2.2-.5.3-1.1.3-1.8s-.1-1.3-.3-1.8c-.2-.5-.5-.9-.8-1.2-.3-.3-.8-.4-1.3-.4s-.9.1-1.3.4c-.4.3-.6.7-.8 1.2-.2.5-.3 1.1-.3 1.9 0 .7.1 1.3.3 1.8.2.5.5.9.8 1.2.3.3.8.3 1.3.3ZM289.3 25.9c-1.4 0-2.6-.3-3.6-.8s-1.8-1.3-2.3-2.3c-.5-1-.8-2.2-.8-3.6s.3-2.5.8-3.5 1.3-1.8 2.2-2.4c.9-.6 2.1-.8 3.4-.8.9 0 1.8.1 2.6.4.8.3 1.4.7 2 1.3.6.6 1 1.3 1.3 2.1.3.8.5 1.8.5 2.9v1H284v-2.4h9.4l-1.9.6c0-.6-.1-1.1-.3-1.5-.2-.4-.4-.8-.8-1-.4-.2-.8-.4-1.3-.4s-1 .1-1.3.4c-.3.3-.6.6-.8 1-.2.4-.3.9-.3 1.5v1.7c0 .6.1 1.1.3 1.6.2.5.5.8.9 1 .4.2.8.4 1.4.4.4 0 .7-.1 1-.2.3-.1.6-.3.8-.5.2-.2.4-.4.5-.7l3.8.1c-.2.9-.5 1.6-1 2.2-.5.6-1.2 1.1-2.1 1.5-.9.4-1.9.4-3 .4ZM296.898 25.7V12.6h4V15h.1c.2-.9.6-1.5 1.2-1.9.6-.4 1.2-.6 1.9-.6h.6c.2 0 .4.1.6.1v3.6c-.2-.1-.5-.1-.8-.2-.3-.1-.6-.1-.9-.1-.5 0-.9.1-1.3.3-.4.2-.7.5-.9.9-.2.4-.3.8-.3 1.4v7.1h-4.2v.1ZM308.399 11.1c-.6 0-1.1-.2-1.5-.6-.4-.4-.6-.9-.6-1.4 0-.5.2-1 .6-1.4.4-.4.9-.6 1.5-.6s1.1.2 1.5.6c.4.4.6.9.6 1.4 0 .5-.2 1-.6 1.4-.4.4-.9.6-1.5.6Zm-2.1 14.6V12.6h4.2v13.1h-4.2ZM318.598 25.9c-1.4 0-2.6-.3-3.6-.8s-1.8-1.3-2.3-2.3c-.5-1-.8-2.2-.8-3.6s.3-2.5.8-3.5 1.3-1.8 2.2-2.4c.9-.6 2.1-.8 3.4-.8.9 0 1.8.1 2.6.4.8.3 1.4.7 2 1.3.6.6 1 1.3 1.3 2.1.3.8.5 1.8.5 2.9v1h-11.4v-2.4h9.4l-1.9.6c0-.6-.1-1.1-.3-1.5-.2-.4-.4-.8-.8-1-.4-.2-.8-.4-1.3-.4s-1 .1-1.3.4c-.3.3-.6.6-.8 1-.2.4-.3.9-.3 1.5v1.7c0 .6.1 1.1.3 1.6.2.5.5.8.9 1 .4.2.8.4 1.4.4.4 0 .7-.1 1-.2.3-.1.6-.3.8-.5.2-.2.4-.4.5-.7l3.8.1c-.2.9-.5 1.6-1 2.2-.5.6-1.2 1.1-2.1 1.5-.9.4-1.9.4-3 .4ZM330.399 18.2v7.5h-4.2V12.6h4.1V15h.1c.3-.8.8-1.4 1.4-1.9.6-.5 1.5-.7 2.4-.7.9 0 1.7.2 2.4.6.7.4 1.2 1 1.6 1.7.4.7.6 1.6.6 2.6v8.3h-4.2v-7.5c0-.7-.2-1.3-.6-1.7-.4-.4-.9-.6-1.5-.6-.4 0-.8.1-1.1.3-.3.2-.6.5-.8.8-.2.3-.2.8-.2 1.3ZM346.899 25.9c-1.4 0-2.6-.3-3.6-.9-1-.6-1.7-1.4-2.3-2.4-.6-1-.8-2.2-.8-3.5 0-1.3.3-2.5.8-3.5s1.3-1.8 2.3-2.4c1-.6 2.2-.9 3.5-.9 1.2 0 2.3.2 3.2.7.9.5 1.6 1.1 2.1 1.9.5.8.8 1.7.8 2.8h-3.9c-.1-.4-.2-.8-.4-1.1-.2-.3-.4-.6-.7-.7-.3-.1-.7-.3-1-.3-.5 0-.9.1-1.3.4-.4.3-.6.7-.8 1.2-.2.5-.3 1.2-.3 2s.1 1.4.3 2c.2.6.5.9.8 1.2.3.3.8.4 1.3.4.6 0 1-.2 1.4-.6.4-.4.6-.9.7-1.6h3.9c0 1.1-.3 2-.8 2.8-.5.8-1.2 1.4-2.1 1.9-.9.5-1.8.6-3.1.6ZM360.598 25.9c-1.4 0-2.6-.3-3.6-.8s-1.8-1.3-2.3-2.3c-.5-1-.8-2.2-.8-3.6s.3-2.5.8-3.5 1.3-1.8 2.2-2.4c.9-.6 2.1-.8 3.4-.8.9 0 1.8.1 2.6.4.8.3 1.4.7 2 1.3.6.6 1 1.3 1.3 2.1.3.8.5 1.8.5 2.9v1h-11.4v-2.4h9.4l-1.9.6c0-.6-.1-1.1-.3-1.5-.2-.4-.4-.8-.8-1-.4-.2-.8-.4-1.3-.4s-1 .1-1.3.4c-.3.3-.6.6-.8 1-.2.4-.3.9-.3 1.5v1.7c0 .6.1 1.1.3 1.6.2.5.5.8.9 1 .4.2.8.4 1.4.4.4 0 .7-.1 1-.2.3-.1.6-.3.8-.5.2-.2.4-.4.5-.7l3.8.1c-.2.9-.5 1.6-1 2.2-.5.6-1.2 1.1-2.1 1.5-.9.4-1.9.4-3 .4ZM380.098 12.6v3.1h-8.2v-3.1h8.2Zm-6.5-3.1h4.2v12.1c0 .4.1.6.3.8.2.2.4.3.8.3h.5c.2 0 .3-.1.4-.1l.6 3c-.5.1-.9.2-1.3.3-.4.1-.8.1-1.2.1-1.4 0-2.4-.3-3.2-1-.8-.7-1.1-1.6-1.1-2.9V9.5ZM385.999 18.2v7.5h-4.2V8.2h4V15h.2c.3-.8.8-1.4 1.5-1.9s1.5-.7 2.5-.7c.9 0 1.7.2 2.4.6.7.4 1.2 1 1.6 1.7.4.7.6 1.6.6 2.6v8.3h-4.2v-7.5c0-.7-.2-1.3-.6-1.7-.4-.4-.9-.6-1.6-.6-.4 0-.8.1-1.2.3-.4.2-.6.5-.8.8-.2.3-.2.8-.2 1.3ZM402.598 25.9c-1.4 0-2.6-.3-3.6-.8s-1.8-1.3-2.3-2.3c-.5-1-.8-2.2-.8-3.6s.3-2.5.8-3.5 1.3-1.8 2.2-2.4c.9-.6 2.1-.8 3.4-.8.9 0 1.8.1 2.6.4.8.3 1.4.7 2 1.3.6.6 1 1.3 1.3 2.1.3.8.5 1.8.5 2.9v1h-11.4v-2.4h9.4l-1.9.6c0-.6-.1-1.1-.3-1.5-.2-.4-.4-.8-.8-1-.4-.2-.8-.4-1.3-.4s-1 .1-1.3.4c-.3.3-.6.6-.8 1-.2.4-.3.9-.3 1.5v1.7c0 .6.1 1.1.3 1.6.2.5.5.8.9 1 .4.2.8.4 1.4.4.4 0 .7-.1 1-.2.3-.1.6-.3.8-.5.2-.2.4-.4.5-.7l3.8.1c-.2.9-.5 1.6-1 2.2-.5.6-1.2 1.1-2.1 1.5-.9.4-1.9.4-3 .4ZM419.499 25.9c-1 0-1.8-.2-2.6-.8-.8-.6-1.4-1.2-1.9-2.2-.5-1-.7-2.2-.7-3.7s.2-2.8.7-3.8c.5-1 1.1-1.7 1.9-2.2.8-.5 1.6-.7 2.6-.7.7 0 1.3.1 1.8.4.5.3.9.5 1.2.9.3.4.6.8.7 1.2h.1V8.4h4.2v17.5h-4.1v-2.1h-.1c-.2.4-.4.8-.8 1.1-.4.3-.7.6-1.2.9-.5.3-1.2.1-1.8.1Zm1.4-3.3c.5 0 .9-.1 1.3-.4.4-.3.6-.7.8-1.2.2-.5.3-1.1.3-1.8s-.1-1.3-.3-1.9c-.2-.6-.5-.9-.8-1.2-.3-.3-.8-.4-1.3-.4s-.9.1-1.3.4c-.4.3-.6.7-.8 1.2-.2.5-.3 1.1-.3 1.8s.1 1.3.3 1.8c.2.5.5.9.8 1.2.3.3.8.5 1.3.5ZM431.399 11.1c-.6 0-1.1-.2-1.5-.6-.4-.4-.6-.9-.6-1.4 0-.5.2-1 .6-1.4.4-.4.9-.6 1.5-.6s1.1.2 1.5.6c.4.4.6.9.6 1.4 0 .5-.2 1-.6 1.4-.4.4-.9.6-1.5.6Zm-2 14.6V12.6h4.2v13.1h-4.2ZM443 12.6v3.1h-8.4v-3.1h8.4Zm-6.6 13.1V11.9c0-1 .2-1.9.6-2.5.4-.6.9-1.2 1.6-1.5.7-.3 1.5-.5 2.3-.5.6 0 1.1 0 1.6.1s.9.2 1.1.2l-.7 3c-.2 0-.3-.1-.6-.1s-.4-.1-.6-.1c-.5 0-.8.1-1 .3-.2.2-.3.5-.3.9v13.8h-4v.2ZM451.9 12.6v3.1h-8.4v-3.1h8.4Zm-6.7 13.1V11.9c0-1 .2-1.9.6-2.5.4-.6.9-1.2 1.6-1.5.7-.3 1.5-.5 2.3-.5.6 0 1.1 0 1.6.1s.9.2 1.1.2l-.7 3c-.2 0-.3-.1-.6-.1s-.4-.1-.6-.1c-.5 0-.8.1-1 .3-.2.2-.3.5-.3.9v13.8h-4v.2ZM458.899 25.9c-1.4 0-2.6-.3-3.6-.8s-1.8-1.3-2.3-2.3c-.5-1-.8-2.2-.8-3.6s.3-2.5.8-3.5 1.3-1.8 2.2-2.4c.9-.6 2.1-.8 3.4-.8.9 0 1.8.1 2.6.4.8.3 1.4.7 2 1.3.6.6 1 1.3 1.3 2.1.3.8.5 1.8.5 2.9v1h-11.4v-2.4h9.4l-1.9.6c0-.6-.1-1.1-.3-1.5-.2-.4-.4-.8-.8-1-.4-.2-.8-.4-1.3-.4s-1 .1-1.3.4c-.3.3-.6.6-.8 1-.2.4-.3.9-.3 1.5v1.7c0 .6.1 1.1.3 1.6.2.5.5.8.9 1 .4.2.8.4 1.4.4.4 0 .7-.1 1-.2.3-.1.6-.3.8-.5.2-.2.4-.4.5-.7l3.8.1c-.2.9-.5 1.6-1 2.2-.5.6-1.2 1.1-2.1 1.5-.9.4-1.8.4-3 .4ZM466.6 25.7V12.6h4V15h.1c.2-.9.6-1.5 1.2-1.9.6-.4 1.2-.6 1.9-.6h.6c.2 0 .4.1.6.1v3.6c-.2-.1-.5-.1-.8-.2-.3-.1-.6-.1-.9-.1-.5 0-.9.1-1.3.3-.4.2-.7.5-.9.9-.2.4-.3.8-.3 1.4v7.1h-4.2v.1ZM481.399 25.9c-1.4 0-2.6-.3-3.6-.8s-1.8-1.3-2.3-2.3c-.5-1-.8-2.2-.8-3.6s.3-2.5.8-3.5 1.3-1.8 2.2-2.4c.9-.6 2.1-.8 3.4-.8.9 0 1.8.1 2.6.4.8.3 1.4.7 2 1.3.6.6 1 1.3 1.3 2.1.3.8.5 1.8.5 2.9v1h-11.4v-2.4h9.4l-1.9.6c0-.6-.1-1.1-.3-1.5-.2-.4-.4-.8-.8-1-.4-.2-.8-.4-1.3-.4s-1 .1-1.3.4c-.3.3-.6.6-.8 1-.2.4-.3.9-.3 1.5v1.7c0 .6.1 1.1.3 1.6.2.5.5.8.9 1 .4.2.8.4 1.4.4.4 0 .7-.1 1-.2.3-.1.6-.3.8-.5.2-.2.4-.4.5-.7l3.8.1c-.2.9-.5 1.6-1 2.2-.5.6-1.2 1.1-2.1 1.5-.9.4-1.8.4-3 .4ZM493.2 18.2v7.5H489V12.6h4.1V15h.1c.3-.8.8-1.4 1.4-1.9.6-.5 1.5-.7 2.4-.7.9 0 1.7.2 2.4.6.7.4 1.2 1 1.6 1.7.4.7.6 1.6.6 2.6v8.3h-4.2v-7.5c0-.7-.2-1.3-.6-1.7-.4-.4-.9-.6-1.5-.6-.4 0-.8.1-1.1.3-.3.2-.6.5-.8.8-.2.3-.2.8-.2 1.3ZM509.8 25.9c-1.4 0-2.6-.3-3.6-.9-1-.6-1.7-1.4-2.3-2.4-.6-1-.8-2.2-.8-3.5 0-1.3.3-2.5.8-3.5s1.3-1.8 2.3-2.4c1-.6 2.2-.9 3.5-.9 1.2 0 2.3.2 3.2.7.9.5 1.6 1.1 2.1 1.9.5.8.8 1.7.8 2.8H512c-.1-.4-.2-.8-.4-1.1-.2-.3-.4-.6-.7-.7-.3-.1-.7-.3-1-.3-.5 0-.9.1-1.3.4-.4.3-.6.7-.8 1.2-.2.5-.3 1.2-.3 2s.1 1.4.3 2c.2.6.5.9.8 1.2.3.3.8.4 1.3.4.6 0 1-.2 1.4-.6.4-.4.6-.9.7-1.6h3.9c0 1.1-.3 2-.8 2.8-.5.8-1.2 1.4-2.1 1.9-.9.5-2 .6-3.2.6ZM523.399 25.9c-1.4 0-2.6-.3-3.6-.8s-1.8-1.3-2.3-2.3c-.5-1-.8-2.2-.8-3.6s.3-2.5.8-3.5 1.3-1.8 2.2-2.4c.9-.6 2.1-.8 3.4-.8.9 0 1.8.1 2.6.4.8.3 1.4.7 2 1.3.6.6 1 1.3 1.3 2.1.3.8.5 1.8.5 2.9v1h-11.4v-2.4h9.4l-1.9.6c0-.6-.1-1.1-.3-1.5-.2-.4-.4-.8-.8-1-.4-.2-.8-.4-1.3-.4s-1 .1-1.3.4c-.3.3-.6.6-.8 1-.2.4-.3.9-.3 1.5v1.7c0 .6.1 1.1.3 1.6.2.5.5.8.9 1 .4.2.8.4 1.4.4.4 0 .7-.1 1-.2.3-.1.6-.3.8-.5.2-.2.4-.4.5-.7l3.8.1c-.2.9-.5 1.6-1 2.2-.5.6-1.2 1.1-2.1 1.5-.9.4-1.8.4-3 .4Z" fill="#fff"/><path d="M536.5 9v2.3l1.6 1.6 5.4 5.4-5.4 5.4-1.6 1.6v2.3l9.3-9.3-9.3-9.3Z" fill="#fff" stroke="#fff" stroke-width="2" stroke-miterlimit="10"/><path opacity=".65" d="M548.5 9v2.3l1.6 1.6 5.4 5.4-5.4 5.4-1.6 1.6v2.3l9.3-9.3-9.3-9.3Z" fill="#fff" stroke="#fff" stroke-width="2" stroke-miterlimit="10"/><path opacity=".3" d="M560.5 9v2.3l1.6 1.6 5.4 5.4-5.4 5.4-1.6 1.6v2.3l9.3-9.3-9.3-9.3Z" fill="#fff" stroke="#fff" stroke-width="2" stroke-miterlimit="10"/></svg>