<svg xmlns="http://www.w3.org/2000/svg" width="24" height="24" fill="none"><g clip-path="url(#a)"><path fill="#3579EA" d="M12 24c6.627 0 12-5.373 12-12S18.627 0 12 0 0 5.373 0 12s5.373 12 12 12Z"/><path fill="#fff" d="m15.802 10.58-.242 2.09a.391.391 0 0 1-.384.35h-2.182l-.01 6.198a.28.28 0 0 1-.274.282H10.5a.273.273 0 0 1-.273-.284V13.02H8.591a.392.392 0 0 1-.387-.396l-.009-2.09a.393.393 0 0 1 .388-.398h1.644V8.118c0-2.343 1.391-3.618 3.431-3.618h1.672a.393.393 0 0 1 .389.398v1.76a.392.392 0 0 1-.389.397h-1.025c-1.11 0-1.325.546-1.325 1.334v1.747h2.437a.393.393 0 0 1 .385.443Z"/></g><defs><clipPath id="a"><path fill="#fff" d="M0 0h24v24H0z"/></clipPath></defs></svg>