<svg xmlns="http://www.w3.org/2000/svg" width="24" height="24" fill="none"><g clip-path="url(#a)"><path fill="#007AB9" d="M12 24c6.627 0 12-5.373 12-12 0-6.628-5.373-12-12-12S0 5.372 0 12c0 6.627 5.373 12 12 12Z"/><path fill="#F1F2F2" d="M19.17 12.965v4.948h-2.868v-4.616c0-1.16-.415-1.95-1.453-1.95-.793 0-1.264.532-1.471 1.048-.076.185-.095.44-.095.7v4.818h-2.869s.039-7.818 0-8.627h2.869v1.222l-.02.028h.02v-.028c.381-.586 1.06-1.425 2.585-1.425 1.887 0 3.302 1.233 3.302 3.882ZM7.413 5.127c-.98 0-1.623.644-1.623 1.49 0 .829.623 1.491 1.586 1.491h.018c1 0 1.623-.662 1.623-1.49-.02-.847-.622-1.49-1.604-1.49ZM5.961 17.913h2.867V9.286H5.961v8.627Z"/></g><defs><clipPath id="a"><path fill="#fff" d="M0 0h24v24H0z"/></clipPath></defs></svg>