<svg xmlns="http://www.w3.org/2000/svg" width="48" height="49" fill="none"><g clip-path="url(#a)"><path fill="#5F737C" d="M45.984 34.868H2.016C.96 34.868 0 34.004 0 32.852V6.836C0 5.78.864 4.82 2.016 4.82H46.08c1.056 0 2.016.864 2.016 2.016v26.016c-.096 1.152-.96 2.016-2.112 2.016Z"/><path fill="#839299" d="M45.984 33.524H2.016C.96 33.524 0 32.66 0 31.508V5.588c0-1.056.864-2.016 2.016-2.016H46.08c1.056 0 2.016.864 2.016 2.016v26.016a2.1 2.1 0 0 1-2.112 1.92Z"/><path fill="#245C5C" d="M44.256 31.508H3.744a1.926 1.926 0 0 1-1.92-1.92V7.124c0-1.056.864-1.92 1.92-1.92H44.16c1.056 0 1.92.864 1.92 1.92v22.368c.096 1.152-.768 2.016-1.824 2.016Z"/><path fill="#153350" d="M45.504 5.204H2.496a.656.656 0 0 0-.672.672V7.22c0-.384.288-.672.672-.672h43.008c.384 0 .672.288.672.672V5.876a.656.656 0 0 0-.672-.672Z"/><path fill="#5F737C" d="M30.912 42.164H17.088l.288-.48a14.417 14.417 0 0 0 2.016-6.816h9.312c.096 2.4.768 4.704 2.016 6.816l.192.48Z"/><path fill="#839299" d="M35.809 45.428H12.193c-.864 0-1.633-.768-1.633-1.632 0-.864.768-1.632 1.633-1.632h23.711c.864 0 1.632.768 1.632 1.632-.096.864-.767 1.632-1.727 1.632Z"/><path fill="#5F737C" d="M35.809 43.796H12.193c-.576 0-1.152-.288-1.44-.768-.097.192-.193.48-.193.768 0 .864.768 1.632 1.633 1.632h23.711c.864 0 1.632-.768 1.632-1.632 0-.288-.096-.576-.192-.768-.383.48-.864.768-1.535.768Z"/><path fill="#D2D9DC" d="m17.376 41.684-.288.48h13.824l-.288-.48c-.672-1.056-1.152-2.304-1.44-3.456H18.816c-.288 1.152-.864 2.4-1.44 3.456Z"/><path fill="#2D2F31" d="M24 30.26c5.567 0 10.08-4.513 10.08-10.08S29.567 10.1 24 10.1s-10.08 4.513-10.08 10.08S18.433 30.26 24 30.26Z" opacity=".19"/><path fill="#fff" d="M33.93 20.18c.892-5.495-2.84-10.673-8.335-11.565-5.495-.892-10.673 2.84-11.564 8.335-.892 5.495 2.84 10.673 8.335 11.565 5.495.892 10.673-2.84 11.565-8.335Z"/><path fill="#E6E7E8" d="m26.688 19.604 2.4-2.4c.768-.768.768-1.92 0-2.688-.768-.768-1.92-.768-2.688 0l-2.4 2.4-2.4-2.4c-.768-.768-1.92-.768-2.688 0-.768.768-.768 1.92 0 2.688l2.4 2.4-2.4 2.4c-.768.768-.768 1.92 0 2.688.768.768 1.92.768 2.688 0l2.4-2.4 2.4 2.4c.768.768 1.92.768 2.688 0 .768-.768.768-1.92 0-2.688l-2.4-2.4Z"/><path fill="#ED1C24" d="m26.688 18.548 2.4-2.4c.768-.768.768-1.92 0-2.688-.768-.768-1.92-.768-2.688 0l-2.4 2.4-2.4-2.4c-.768-.768-1.92-.768-2.688 0-.768.768-.768 1.92 0 2.688l2.4 2.4-2.4 2.4c-.768.768-.768 1.92 0 2.688.768.768 1.92.768 2.688 0l2.4-2.4 2.4 2.4c.768.768 1.92.768 2.688 0 .768-.768.768-1.92 0-2.688l-2.4-2.4Z"/><path fill="#2D2F31" d="m21.312 18.548.192-.192c.288-.288.288-.768 0-.96l-2.592-2.592c-.192-.192-.384-.384-.384-.672-.288.672-.096 1.44.384 2.016l2.4 2.4Zm7.776 3.744c-.768.768-1.92.768-2.688 0l-2.4-2.4-2.4 2.4c-.768.768-1.92.768-2.688 0-.192-.192-.384-.384-.384-.672-.288.672-.096 1.44.384 2.016.768.768 1.92.768 2.688 0l2.4-2.4 2.4 2.4c.768.768 1.92.768 2.688 0 .576-.576.672-1.344.384-2.016 0 .288-.192.48-.384.672Zm-.001-7.584L26.495 17.3c-.288.288-.288.768 0 .96l.192.192 2.4-2.4c.576-.576.672-1.344.384-2.016 0 .288-.192.48-.384.672Z" opacity=".19"/></g><defs><clipPath id="a"><path fill="#fff" d="M0 .5h48v48H0z"/></clipPath></defs></svg>