<svg xmlns="http://www.w3.org/2000/svg" width="208" height="44" fill="none"><path fill="#8FD348" d="M27.921 18.331v22.004L20.941 44V22l-6.981-3.665v-.004l6.98-3.665 6.981 3.665Zm13.971-7.338v22.012l-6.973 3.661-.007-.004v-7.325l.007-.004-.007-.004v-7.325l.008-.005-.008-.004V14.67l.007-.004-.007-.004-6.977-3.663 6.977-3.662.007-.004 6.974 3.66ZM27.923 3.665v.003l-13.962 7.33-.003.002-6.978 3.662-.007.005L0 11.007v-.013l6.973-3.66.007.003V7.33l6.978-3.662.003.002v-.004L20.941 0l6.982 3.665Z"/><path fill="#002046" d="M62.149 32.968c-1.38 0-2.654-.25-3.821-.751a6.416 6.416 0 0 1-2.817-2.298c-.71-1.031-1.086-2.348-1.126-3.95h4.476c.02.62.156 1.177.41 1.667.254.491.63.876 1.127 1.156.497.281 1.081.42 1.75.42.65 0 1.198-.124 1.645-.374a2.72 2.72 0 0 0 1.035-.992c.244-.41.365-.886.365-1.426 0-.641-.151-1.177-.456-1.608-.305-.43-.741-.76-1.31-.99-.568-.23-1.238-.346-2.01-.346h-1.582V19.78h1.583c.872 0 1.629-.2 2.268-.6.64-.401.96-1.032.96-1.893 0-.7-.229-1.256-.686-1.667-.456-.41-1.07-.616-1.842-.616-.893 0-1.583.266-2.07.796a2.976 2.976 0 0 0-.792 1.908h-4.415c.062-1.362.401-2.528 1.02-3.5a6.01 6.01 0 0 1 2.543-2.223c1.075-.51 2.324-.766 3.745-.766 1.481 0 2.745.26 3.79.781 1.046.521 1.838 1.217 2.376 2.088a5.31 5.31 0 0 1 .807 2.838c0 .841-.163 1.577-.488 2.208a4.715 4.715 0 0 1-1.263 1.562 5.04 5.04 0 0 1-1.66.887c.792.14 1.481.44 2.07.9a4.67 4.67 0 0 1 1.37 1.743c.325.701.488 1.492.488 2.373 0 1.161-.29 2.228-.868 3.199-.578.971-1.426 1.742-2.542 2.313-1.117.57-2.477.856-4.08.856ZM76.19 21.192h3.441c1.198 0 2.06-.27 2.588-.81.528-.541.792-1.262.792-2.163 0-.942-.264-1.672-.792-2.193-.528-.52-1.39-.781-2.588-.781h-3.44v5.947Zm-4.566 11.415V11.58h8.312c1.745 0 3.186.29 4.323.871 1.137.582 1.99 1.367 2.558 2.358.568.992.853 2.128.853 3.41a6.69 6.69 0 0 1-.808 3.213c-.538 1.002-1.38 1.813-2.527 2.434-1.147.62-2.613.931-4.4.931h-3.744v7.81h-4.567Zm17.478 0V11.581h4.567v17.542h9.195v3.484H89.102Zm26.248 0V13.323h-6.394v-1.742h14.92v1.742h-6.394v19.284h-2.132Zm13.637.361c-1.421 0-2.679-.326-3.775-.977-1.096-.65-1.959-1.561-2.588-2.733-.63-1.171-.944-2.548-.944-4.13 0-1.582.309-2.954.929-4.115a6.655 6.655 0 0 1 2.603-2.704c1.116-.64 2.395-.961 3.836-.961 1.462 0 2.71.326 3.746.976a6.587 6.587 0 0 1 2.374 2.538 7.117 7.117 0 0 1 .822 3.365v.63c0 .221-.01.471-.03.752h-12.636v-1.803h10.596c-.061-1.462-.559-2.603-1.492-3.424-.934-.821-2.091-1.232-3.471-1.232-.914 0-1.766.2-2.558.6a4.81 4.81 0 0 0-1.918 1.758c-.487.772-.73 1.727-.73 2.869v.811c0 1.342.253 2.459.761 3.35.507.89 1.162 1.551 1.964 1.982a5.23 5.23 0 0 0 2.511.646c1.137 0 2.091-.26 2.863-.782.771-.52 1.319-1.241 1.644-2.162h2.07a6.489 6.489 0 0 1-1.248 2.433 6.124 6.124 0 0 1-2.223 1.697c-.893.41-1.928.616-3.106.616Zm8.465-.361V17.71h1.948l.152 2.913h.092a5.108 5.108 0 0 1 1.248-1.772 5.51 5.51 0 0 1 1.888-1.112c.73-.26 1.563-.39 2.496-.39v2.193h-.578c-.69 0-1.345.085-1.964.255a4.068 4.068 0 0 0-1.629.871c-.467.411-.837.962-1.111 1.652-.274.691-.411 1.547-.411 2.569v7.72h-2.131Zm8.833-.001V17.708h1.949l.213 2.433h.091a5.772 5.772 0 0 1 1.903-2.013c.802-.52 1.781-.78 2.938-.78.69 0 1.35.094 1.979.285a4.51 4.51 0 0 1 1.705.96c.507.451.934 1.078 1.279 1.878h.091a4.842 4.842 0 0 1 2.056-2.298 5.969 5.969 0 0 1 3.06-.826c1.096 0 2.07.23 2.923.691.852.461 1.527 1.167 2.024 2.118.498.951.746 2.168.746 3.65v8.8h-2.131v-8.56c0-1.642-.335-2.864-1.005-3.665-.67-.8-1.613-1.202-2.831-1.202a4.47 4.47 0 0 0-2.268.586c-.681.39-1.214.961-1.599 1.712-.386.751-.579 1.678-.579 2.779v8.35h-2.131v-8.56c0-1.642-.335-2.864-1.005-3.665-.67-.8-1.613-1.202-2.831-1.202-.853 0-1.614.221-2.284.661-.67.441-1.198 1.082-1.583 1.923-.386.84-.579 1.882-.579 3.124v7.72h-2.131Zm25.301-14.897h2.132v14.898h-2.132V17.71Zm1.066-3.455c-.426 0-.791-.15-1.096-.45-.305-.3-.457-.67-.457-1.111 0-.461.147-.831.442-1.112.293-.28.664-.42 1.111-.42.426 0 .792.14 1.096.42.304.281.457.65.457 1.112 0 .44-.153.81-.457 1.111-.304.3-.67.45-1.096.45Zm3.652 18.353V17.71h1.949l.183 2.553h.091c.507-.941 1.197-1.662 2.07-2.163.873-.5 1.878-.75 3.015-.75 1.176 0 2.202.23 3.075.69.872.461 1.552 1.167 2.04 2.118.487.951.73 2.168.73 3.65v8.8h-2.131v-8.56c0-1.642-.35-2.864-1.05-3.665-.7-.8-1.711-1.202-3.03-1.202-.913 0-1.735.221-2.466.661-.731.44-1.305 1.082-1.72 1.923-.417.84-.624 1.882-.624 3.124v7.72h-2.132Zm20.49-1.502c.73 0 1.395-.14 1.994-.42a4.663 4.663 0 0 0 1.553-1.172c.436-.5.771-1.096 1.004-1.787a6.96 6.96 0 0 0 .351-2.238v-.12h-3.989c-1.096 0-1.974.13-2.634.39-.659.261-1.137.607-1.431 1.037a2.576 2.576 0 0 0-.441 1.487c0 .56.137 1.051.411 1.471.274.421.68.752 1.218.992.537.24 1.192.36 1.964.36Zm-.214 1.863c-1.258 0-2.303-.216-3.136-.646-.832-.43-1.451-.996-1.857-1.697a4.474 4.474 0 0 1-.609-2.283c0-1.04.274-1.918.822-2.628.548-.71 1.319-1.247 2.314-1.607.995-.36 2.141-.541 3.441-.541h4.141c0-.941-.158-1.742-.472-2.403-.315-.66-.767-1.161-1.355-1.502-.589-.34-1.32-.51-2.193-.51-1.055 0-1.968.265-2.74.795-.771.531-1.248 1.307-1.431 2.328h-2.253c.122-1.08.502-1.987 1.142-2.718a6.049 6.049 0 0 1 2.359-1.652 7.857 7.857 0 0 1 2.923-.556c1.401 0 2.553.26 3.456.781a4.959 4.959 0 0 1 2.025 2.148c.446.911.67 1.967.67 3.169v9.161h-1.949l-.213-2.883h-.091c-.203.42-.457.831-.761 1.231a5.11 5.11 0 0 1-1.051 1.037c-.395.29-.858.525-1.385.705-.528.18-1.127.27-1.797.27Zm9.289-21.538H208v21.177h-2.131V11.431Z"/></svg>