<svg xmlns="http://www.w3.org/2000/svg" width="265" height="56" fill="none"><path fill="#8FD348" d="M35.536 23.33v28.006L26.65 56V28l-8.884-4.664v-.005l8.884-4.665 8.885 4.665Zm17.782-9.338v28.015l-8.876 4.659-.009-.005v-9.323l.01-.006-.01-.005v-9.322l.01-.006-.01-.005v-9.323l.01-.005-.01-.006-8.88-4.66 8.88-4.662.01-.006 8.875 4.66Zm-17.78-9.328v.005l-17.77 9.328-.004.003-8.88 4.661-.01.006L0 14.007v-.015l8.875-4.659.01.005v-.01l8.88-4.661.004.002v-.005L26.653 0l8.885 4.664Z"/><path fill="#fff" d="M79.099 41.959c-1.758 0-3.379-.32-4.864-.956a8.163 8.163 0 0 1-3.584-2.925c-.905-1.312-1.382-2.987-1.434-5.027h5.696c.026.79.2 1.498.523 2.122a3.51 3.51 0 0 0 1.434 1.471c.633.358 1.376.536 2.228.536.827 0 1.524-.159 2.093-.478a3.463 3.463 0 0 0 1.318-1.262c.31-.521.464-1.127.464-1.815 0-.816-.193-1.498-.58-2.046-.388-.547-.944-.968-1.667-1.262-.724-.292-1.576-.44-2.558-.44h-2.015v-4.701h2.015c1.11 0 2.074-.255 2.887-.765.814-.51 1.22-1.312 1.22-2.408 0-.892-.29-1.6-.87-2.122-.582-.522-1.364-.784-2.346-.784-1.136 0-2.014.338-2.634 1.013-.62.676-.956 1.485-1.008 2.428h-5.619c.078-1.733.51-3.218 1.298-4.454.788-1.236 1.866-2.179 3.236-2.829 1.369-.65 2.958-.975 4.767-.975 1.885 0 3.493.332 4.824.994 1.33.663 2.338 1.549 3.023 2.657a6.753 6.753 0 0 1 1.027 3.613c0 1.07-.208 2.007-.62 2.81a6.002 6.002 0 0 1-1.609 1.988 6.397 6.397 0 0 1-2.112 1.128c1.008.178 1.886.56 2.635 1.146a5.945 5.945 0 0 1 1.744 2.218c.413.892.62 1.899.62 3.02 0 1.478-.368 2.836-1.104 4.072-.736 1.236-1.816 2.217-3.236 2.943-1.42.727-3.152 1.09-5.192 1.09ZM96.97 26.972h4.379c1.524 0 2.622-.344 3.294-1.032.671-.688 1.007-1.606 1.007-2.753 0-1.198-.336-2.127-1.007-2.79-.672-.663-1.77-.994-3.294-.994H96.97v7.57ZM91.157 41.5V14.739h10.579c2.222 0 4.056.37 5.503 1.108 1.447.74 2.531 1.74 3.255 3.001.723 1.262 1.085 2.709 1.085 4.34a8.52 8.52 0 0 1-1.027 4.09c-.685 1.274-1.757 2.307-3.216 3.097-1.46.79-3.327 1.185-5.6 1.185H96.97v9.94h-5.813Zm22.245 0V14.74h5.813v22.326h11.703V41.5h-17.516Zm33.408 0V16.956h-8.138V14.74h18.988v2.217h-8.138V41.5h-2.712Zm17.356.459c-1.809 0-3.41-.415-4.805-1.243-1.395-.828-2.494-1.988-3.294-3.479-.801-1.49-1.202-3.243-1.202-5.256 0-2.013.394-3.76 1.182-5.238.788-1.478 1.893-2.624 3.314-3.44 1.42-.816 3.048-1.224 4.882-1.224 1.86 0 3.449.415 4.767 1.242 1.317.829 2.325 1.906 3.023 3.23a9.064 9.064 0 0 1 1.046 4.283v.802c0 .282-.014.6-.039.957h-16.082v-2.294h13.485c-.077-1.86-.71-3.313-1.898-4.359-1.189-1.044-2.661-1.567-4.418-1.567a7.114 7.114 0 0 0-3.255.764 6.117 6.117 0 0 0-2.442 2.237c-.62.982-.929 2.198-.929 3.65v1.033c0 1.708.322 3.13.968 4.263.646 1.134 1.479 1.975 2.5 2.523a6.659 6.659 0 0 0 3.197.822c1.446 0 2.661-.331 3.642-.994.982-.662 1.679-1.58 2.093-2.752h2.635a8.228 8.228 0 0 1-1.589 3.096 7.801 7.801 0 0 1-2.828 2.16c-1.138.522-2.455.784-3.953.784Zm10.772-.459V22.54h2.48l.194 3.708h.117a6.503 6.503 0 0 1 1.588-2.256c.671-.611 1.473-1.083 2.403-1.414.93-.33 1.989-.497 3.177-.497v2.79h-.736c-.879 0-1.712.11-2.5.326a5.16 5.16 0 0 0-2.072 1.108c-.595.523-1.066 1.224-1.415 2.103-.348.88-.523 1.969-.523 3.269V41.5h-2.713Zm11.243-.001V22.537h2.48l.271 3.097h.117a7.332 7.332 0 0 1 2.422-2.562c1.02-.663 2.266-.994 3.739-.994.878 0 1.718.121 2.519.363.8.243 1.524.65 2.17 1.224.645.573 1.188 1.37 1.628 2.389h.116c.542-1.249 1.414-2.223 2.615-2.925a7.6 7.6 0 0 1 3.895-1.051c1.395 0 2.635.293 3.72.88 1.085.586 1.944 1.484 2.577 2.694.633 1.211.949 2.76.949 4.645V41.5h-2.712V30.603c0-2.09-.427-3.644-1.279-4.664-.853-1.019-2.054-1.53-3.604-1.53-1.059 0-2.022.25-2.887.746-.866.497-1.544 1.224-2.034 2.18-.491.955-.736 2.134-.736 3.536v10.628h-2.713V30.603c0-2.09-.426-3.644-1.279-4.664-.853-1.019-2.054-1.53-3.604-1.53-1.085 0-2.054.282-2.906.842-.853.56-1.525 1.376-2.015 2.447-.491 1.07-.737 2.396-.737 3.976v9.825h-2.712Zm32.201-18.961h2.713V41.5h-2.713V22.538Zm1.357-4.396a1.913 1.913 0 0 1-1.395-.574 1.908 1.908 0 0 1-.582-1.414c0-.586.188-1.057.562-1.415.374-.356.846-.535 1.415-.535a1.99 1.99 0 0 1 1.395.535c.387.358.581.829.581 1.415a1.91 1.91 0 0 1-.581 1.414 1.916 1.916 0 0 1-1.395.573Zm4.648 23.358V22.538h2.48l.233 3.25h.116c.646-1.198 1.524-2.115 2.635-2.753 1.111-.637 2.39-.956 3.837-.956 1.497 0 2.802.293 3.914.88 1.11.586 1.976 1.485 2.596 2.695.62 1.21.93 2.76.93 4.645V41.5h-2.713V30.605c0-2.09-.445-3.645-1.336-4.664-.892-1.02-2.178-1.53-3.856-1.53-1.163 0-2.209.281-3.139.841-.93.561-1.661 1.377-2.19 2.447-.53 1.07-.794 2.396-.794 3.976V41.5h-2.713Zm26.078-1.911c.93 0 1.775-.179 2.538-.536a5.933 5.933 0 0 0 1.976-1.49c.556-.637.982-1.396 1.279-2.275.296-.88.446-1.83.446-2.849v-.153h-5.077c-1.395 0-2.513.167-3.352.497-.839.332-1.447.771-1.821 1.32-.375.548-.562 1.178-.562 1.892 0 .713.174 1.338.523 1.873.349.536.865.956 1.55 1.262.684.306 1.518.459 2.5.459Zm-.272 2.37c-1.602 0-2.932-.275-3.991-.822-1.059-.548-1.847-1.268-2.364-2.16a5.691 5.691 0 0 1-.775-2.906c0-1.324.349-2.44 1.046-3.345.698-.904 1.679-1.586 2.946-2.045 1.265-.459 2.725-.688 4.378-.688h5.271c0-1.198-.201-2.218-.601-3.059-.401-.84-.976-1.478-1.725-1.911-.749-.433-1.679-.65-2.79-.65-1.343 0-2.506.338-3.487 1.013-.982.676-1.589 1.663-1.822 2.963h-2.867c.155-1.376.639-2.53 1.453-3.46a7.702 7.702 0 0 1 3.003-2.103 10 10 0 0 1 3.72-.707c1.783 0 3.249.331 4.399.994 1.149.663 2.008 1.574 2.577 2.734.567 1.16.852 2.504.852 4.033V41.5h-2.48l-.271-3.67h-.116a9.26 9.26 0 0 1-.969 1.567 6.53 6.53 0 0 1-1.337 1.32 6.521 6.521 0 0 1-1.764.898c-.671.229-1.433.344-2.286.344Zm11.822-27.411h2.712V41.5h-2.712V14.548Z"/></svg>