<svg xmlns="http://www.w3.org/2000/svg" width="187" height="218" fill="none"><rect width="186" height="199" x=".5" y="18.5" fill="#fff" rx="11.5"/><rect width="186" height="199" x=".5" y="18.5" stroke="#F8F8F8" rx="11.5"/><g filter="url(#a)"><g clip-path="url(#b)"><rect width="80" height="80" x="53.5" y="50" fill="#fff" fill-opacity=".01" rx="10" shape-rendering="crispEdges"/><path fill="#000" d="M53.5 50h80v80h-80z"/><g clip-path="url(#c)"><path fill="#F90" d="M114.21 107.212c-22.669 10.788-36.737 1.762-45.743-3.721-.557-.345-1.504.081-.683 1.025 3 3.638 12.833 12.406 25.667 12.406 12.843 0 20.484-7.007 21.439-8.23.95-1.212.279-1.881-.68-1.48Zm6.366-3.516c-.608-.793-3.701-.941-5.648-.702-1.949.233-4.875 1.424-4.621 2.139.131.268.397.148 1.736.028 1.343-.134 5.105-.609 5.889.416.788 1.032-1.2 5.947-1.563 6.74-.35.792.134.997.793.469.65-.528 1.826-1.895 2.615-3.829.784-1.945 1.262-4.658.799-5.261Z"/><path fill="#000" fill-rule="evenodd" d="M98.968 85.198c0 2.83.072 5.192-1.359 7.705-1.155 2.044-2.984 3.301-5.028 3.301-2.79 0-4.415-2.125-4.415-5.263 0-6.193 5.55-7.317 10.802-7.317v1.574Zm7.327 17.71c-.48.429-1.175.46-1.716.174-2.412-2.003-2.841-2.933-4.17-4.844-3.985 4.067-6.806 5.283-11.977 5.283-6.111 0-10.873-3.77-10.873-11.323 0-5.896 3.198-9.912 7.746-11.874 3.945-1.738 9.453-2.044 13.663-2.525v-.94c0-1.727.133-3.77-.879-5.263-.889-1.339-2.585-1.89-4.077-1.89-2.77 0-5.243 1.42-5.846 4.363-.123.654-.603 1.298-1.257 1.329l-7.051-.756c-.593-.133-1.247-.614-1.083-1.523C80.4 64.576 88.115 62 95.023 62c3.536 0 8.155.94 10.945 3.618 3.536 3.3 3.199 7.705 3.199 12.498v11.323c0 3.403 1.41 4.895 2.739 6.735.47.654.572 1.44-.021 1.931-1.482 1.236-4.118 3.536-5.569 4.824l-.021-.021" clip-rule="evenodd"/><path fill="#F90" d="M114.21 107.212c-22.669 10.788-36.737 1.762-45.743-3.721-.557-.345-1.504.081-.683 1.025 3 3.638 12.833 12.406 25.667 12.406 12.843 0 20.484-7.007 21.439-8.23.95-1.212.279-1.881-.68-1.48Zm6.366-3.516c-.608-.793-3.701-.941-5.648-.702-1.949.233-4.875 1.424-4.621 2.139.131.268.397.148 1.736.028 1.343-.134 5.105-.609 5.889.416.788 1.032-1.2 5.947-1.563 6.74-.35.792.134.997.793.469.65-.528 1.826-1.895 2.615-3.829.784-1.945 1.262-4.658.799-5.261Z"/><path fill="#fff" fill-rule="evenodd" d="M98.968 85.198c0 2.83.072 5.192-1.359 7.705-1.155 2.044-2.984 3.301-5.028 3.301-2.79 0-4.415-2.125-4.415-5.263 0-6.193 5.55-7.317 10.802-7.317v1.574Zm7.327 17.71c-.48.429-1.175.46-1.716.174-2.412-2.003-2.841-2.933-4.17-4.844-3.985 4.067-6.806 5.283-11.977 5.283-6.111 0-10.873-3.77-10.873-11.323 0-5.896 3.198-9.912 7.746-11.874 3.945-1.738 9.453-2.044 13.663-2.525v-.94c0-1.727.133-3.77-.879-5.263-.889-1.339-2.585-1.89-4.077-1.89-2.77 0-5.243 1.42-5.846 4.363-.123.654-.603 1.298-1.257 1.329l-7.051-.756c-.593-.133-1.247-.614-1.083-1.523C80.4 64.576 88.115 62 95.023 62c3.536 0 8.155.94 10.945 3.618 3.536 3.3 3.199 7.705 3.199 12.498v11.323c0 3.403 1.41 4.895 2.739 6.735.47.654.572 1.44-.021 1.931-1.482 1.236-4.118 3.536-5.569 4.824l-.021-.021Z" clip-rule="evenodd"/></g></g></g><path fill="#616161" d="M47.735 165.146 44.088 176H41.53l4.782-12.797h1.634l-.21 1.943ZM50.785 176l-3.665-10.854-.22-1.943h1.644L53.352 176h-2.567Zm-.167-4.755v1.907h-6.864v-1.907h6.864Zm5.96-2.803V176h-2.321v-9.51h2.188l.132 1.952Zm-.344 2.46h-.712c0-.662.08-1.271.238-1.828.164-.556.404-1.04.72-1.45a3.275 3.275 0 0 1 1.17-.967c.468-.228 1.01-.342 1.625-.342.428 0 .82.064 1.178.193.357.123.665.319.923.589.264.263.466.609.606 1.037.141.422.211.929.211 1.52V176h-2.32v-6.108c0-.446-.064-.794-.193-1.046a1.047 1.047 0 0 0-.536-.528 2.054 2.054 0 0 0-.844-.158c-.363 0-.677.074-.94.22a1.817 1.817 0 0 0-.642.589 2.848 2.848 0 0 0-.37.87 4.702 4.702 0 0 0-.114 1.063Zm5.784-.43-.958.176a5.954 5.954 0 0 1 .246-1.679c.158-.527.39-.987.694-1.38.31-.398.694-.709 1.151-.932.463-.228.996-.342 1.6-.342.469 0 .89.067 1.266.202.38.129.706.337.975.624.27.281.475.647.615 1.098.147.452.22 1.002.22 1.653V176H65.49v-6.117c0-.463-.064-.817-.193-1.064a1.006 1.006 0 0 0-.536-.509c-.235-.1-.51-.15-.826-.15-.323 0-.604.062-.844.185a1.725 1.725 0 0 0-.598.492 2.286 2.286 0 0 0-.36.738 3.365 3.365 0 0 0-.114.897Zm13.13 3.507v-4.386c0-.322-.055-.601-.167-.835a1.21 1.21 0 0 0-.51-.545c-.228-.129-.518-.193-.87-.193-.31 0-.582.052-.817.158a1.204 1.204 0 0 0-.527.448 1.159 1.159 0 0 0-.185.65h-2.329c0-.392.094-.764.281-1.116.188-.357.454-.674.8-.949.352-.281.77-.501 1.257-.659a5.39 5.39 0 0 1 1.652-.237c.721 0 1.363.123 1.925.369a2.92 2.92 0 0 1 1.336 1.09c.328.486.492 1.098.492 1.836v4.149c0 .475.03.882.088 1.222.065.334.158.624.282.87V176H75.49a3.503 3.503 0 0 1-.255-.914 7.163 7.163 0 0 1-.088-1.107Zm.326-3.771.017 1.38h-1.468c-.363 0-.682.038-.958.114-.275.071-.5.176-.676.317a1.279 1.279 0 0 0-.396.492 1.491 1.491 0 0 0-.132.641c0 .235.053.446.158.633.112.188.27.337.475.449.211.105.457.158.738.158.41 0 .768-.082 1.073-.246.304-.17.542-.375.712-.616.17-.24.26-.468.272-.685l.668 1.002c-.082.24-.205.495-.37.764-.163.27-.374.522-.632.756a3.202 3.202 0 0 1-.932.58c-.363.153-.785.229-1.265.229-.615 0-1.166-.123-1.652-.369a2.927 2.927 0 0 1-1.152-1.011 2.597 2.597 0 0 1-.422-1.459c0-.504.094-.949.282-1.336.187-.387.465-.712.834-.975.37-.27.827-.472 1.371-.607.551-.141 1.181-.211 1.89-.211h1.565Zm11.557 3.964V176h-7.154v-1.828h7.154Zm-.167-6.293L80.747 176h-1.53v-1.432l6.083-8.078h1.564v1.389Zm-.852-1.389v1.837H79.34v-1.837h6.67Zm2.118 4.852v-.185c0-.697.1-1.339.299-1.924.199-.592.489-1.105.87-1.539a3.92 3.92 0 0 1 1.397-1.01c.551-.246 1.178-.369 1.881-.369.715 0 1.348.123 1.899.369.556.24 1.025.577 1.406 1.01.38.434.67.947.87 1.539.2.585.299 1.227.299 1.924v.185c0 .691-.1 1.333-.299 1.925-.2.586-.49 1.098-.87 1.538-.381.433-.847.77-1.398 1.011-.55.24-1.18.36-1.89.36-.702 0-1.332-.12-1.889-.36a3.916 3.916 0 0 1-1.406-1.011c-.381-.44-.671-.952-.87-1.538a6.002 6.002 0 0 1-.3-1.925Zm2.32-.185v.185c0 .416.041.806.123 1.169.082.363.208.682.378.958.17.275.39.492.66.65.275.153.603.229.984.229.375 0 .697-.076.966-.229.27-.158.49-.375.66-.65.175-.276.304-.595.386-.958.082-.363.124-.753.124-1.169v-.185c0-.41-.041-.794-.124-1.151a2.986 2.986 0 0 0-.386-.958 1.846 1.846 0 0 0-.668-.659c-.27-.164-.595-.246-.976-.246-.375 0-.697.082-.967.246-.27.158-.489.378-.659.659-.17.275-.296.595-.378.958a5.136 5.136 0 0 0-.123 1.151Zm10.565-2.636V176h-2.32v-9.51h2.179l.141 2.031Zm-.369 2.381h-.686c.006-.691.1-1.318.281-1.88a4.455 4.455 0 0 1 .765-1.451 3.439 3.439 0 0 1 1.186-.931 3.522 3.522 0 0 1 1.53-.325c.457 0 .87.064 1.239.193.369.129.685.334.949.615.27.281.475.651.615 1.108.147.451.22 1.007.22 1.67V176h-2.338v-6.117c0-.434-.064-.776-.193-1.028a1.083 1.083 0 0 0-.545-.537c-.234-.105-.524-.158-.87-.158-.358 0-.671.074-.941.22a1.958 1.958 0 0 0-.668.589c-.175.252-.31.542-.404.87-.094.328-.14.683-.14 1.063Zm15.222-7.699V176h-2.417v-12.797h2.417Zm5.159 5.529v1.907h-5.792v-1.907h5.792Zm.677-5.529v1.907h-6.469v-1.907h6.469Zm6.548 7.093h-3.27l-.017-1.705h2.804c.48 0 .881-.067 1.204-.202.322-.135.565-.331.729-.589.17-.258.255-.571.255-.941 0-.41-.079-.744-.237-1.001-.153-.258-.393-.446-.721-.563-.328-.123-.744-.185-1.248-.185h-1.986V176h-2.417v-12.797h4.403a8.14 8.14 0 0 1 1.942.211c.575.135 1.061.346 1.459.633.399.287.701.647.906 1.081.211.434.316.949.316 1.547 0 .527-.123 1.014-.369 1.459-.24.439-.612.797-1.116 1.072-.498.276-1.131.434-1.899.475l-.738.615Zm-.106 5.704h-3.875l1.01-1.898h2.865c.481 0 .876-.079 1.187-.238.316-.158.551-.375.703-.65a1.94 1.94 0 0 0 .237-.967c0-.398-.07-.744-.211-1.037a1.426 1.426 0 0 0-.65-.677c-.293-.158-.68-.237-1.16-.237h-2.514l.018-1.705h3.199l.554.659c.738.006 1.339.152 1.802.44a2.69 2.69 0 0 1 1.037 1.107c.222.451.334.937.334 1.459 0 .82-.179 1.509-.536 2.065-.352.557-.868.976-1.547 1.257-.674.281-1.492.422-2.453.422Zm11.716-10.854L136.215 176h-2.558l4.781-12.797h1.635l-.211 1.943Zm3.05 10.854-3.665-10.854-.22-1.943h1.644L145.479 176h-2.567Zm-.167-4.755v1.907h-6.864v-1.907h6.864Z"/><defs><clipPath id="b"><rect width="80" height="80" x="53.5" y="50" fill="#fff" rx="10"/></clipPath><clipPath id="c"><path fill="#fff" d="M66 62h56v56H66z"/></clipPath><filter id="a" width="180" height="180" x="3.5" y="0" color-interpolation-filters="sRGB" filterUnits="userSpaceOnUse"><feFlood flood-opacity="0" result="BackgroundImageFix"/><feColorMatrix in="SourceAlpha" result="hardAlpha" values="0 0 0 0 0 0 0 0 0 0 0 0 0 0 0 0 0 0 127 0"/><feOffset/><feGaussianBlur stdDeviation="25"/><feComposite in2="hardAlpha" operator="out"/><feColorMatrix values="0 0 0 0 0.0901961 0 0 0 0 0.360784 0 0 0 0 1 0 0 0 0.1 0"/><feBlend in2="BackgroundImageFix" result="effect1_dropShadow_652_7269"/><feBlend in="SourceGraphic" in2="effect1_dropShadow_652_7269" result="shape"/></filter></defs></svg>