<svg width="450" height="92" viewBox="0 0 450 92" fill="none" xmlns="http://www.w3.org/2000/svg">
<path d="M41.5008 7.09995C42.0008 7.09995 42.5008 6.99995 42.9008 6.99995C47.8008 6.99995 49.8008 9.99995 49.8008 13.9C49.8008 19.3 45.9008 26.4 40.8008 28.8C40.4008 29.1 40.1008 29.2999 39.9008 29.5C40.4008 29.6 41.2008 29.7 42.2008 29.9C43.0008 30 44.0008 30.1 45.1008 30.3C52.4008 27.2 59.6008 25.3 66.0008 25.3C67.5008 25.3 69.0008 25.3999 70.5008 25.6999C70.9008 25.8999 71.2008 26.2 71.2008 26.5C71.2008 26.9 70.8008 27.3 70.4008 27.3H70.3008C68.3008 26.7 66.1008 26.3 64.0008 26.3C59.3008 26.3 54.1008 27.7999 48.6008 31.0999C60.0008 33.8999 65.3008 43.2999 65.3008 53.1999C65.3008 59.4999 63.2008 65.9999 59.2008 71.3999C49.7008 84.0999 34.6008 90 22.2008 90C10.3008 90 0.800781 84.6999 0.800781 75.0999C0.800781 71.0999 2.50078 66.3 6.30078 60.8C9.70078 55.9 14.4008 50.9 19.9008 46.3C24.5008 29.8 30.8008 11.6999 39.8008 7.59995C40.0008 6.79995 40.7008 5.09995 40.7008 4.49995C40.7008 4.39995 40.7008 4.29995 40.6008 4.29995H40.5008C40.1008 4.59995 39.8008 4.69995 39.5008 4.69995C38.7008 4.69995 38.4008 3.99995 38.4008 3.89995C39.2008 1.39995 40.8008 0.199951 41.9008 0.199951C42.7008 0.199951 43.3008 0.799952 43.3008 1.89995C43.3008 2.09995 43.3008 2.29995 43.2008 2.59995C43.0008 2.59995 42.5008 4.19995 41.5008 7.09995ZM17.4008 69.7C17.2008 69.7 17.0008 69.7 16.9008 69.5C16.5008 69.5 16.1008 69.2 15.9008 68.8C15.8008 68.4 15.7008 67.8999 15.7008 67.0999C15.7008 65.7999 15.9008 64.1 16.2008 61.9C16.7008 58.5 17.3008 55.3999 18.6008 50.5999L18.7008 50.1999C14.1008 54.2999 11.3008 58.2 8.40077 62.4C4.70077 67.7 3.10078 72.2 3.10078 75.8999C3.10078 84.2 11.2008 88.3 21.5008 88.3C34.0008 88.3 49.6008 82.3 58.5008 70.5C62.2008 65.5 64.1008 59.6 64.1008 53.9C64.1008 43.7 58.1008 34.2999 45.9008 32.0999C40.6008 34.3999 34.5008 38.0999 29.5008 41.5C24.9008 57.6 19.9008 69.7 17.4008 69.7ZM17.6008 67.8C19.7008 67.8 23.5008 57.2 27.5008 42.8C24.9008 44.7 23.2008 46.4 20.9008 48.3C20.7008 49.2 20.5008 50.0999 20.2008 51C19.0008 55.7999 18.4008 58.7999 17.9008 62.0999C17.5008 64.2999 17.4008 65.9 17.4008 67C17.4008 67.3 17.4008 67.5 17.4008 67.8C17.4008 67.8 17.5008 67.8 17.6008 67.8ZM38.6008 10.5999C32.9008 15.0999 26.2008 29.6 22.0008 44.3C24.1008 42.6 26.4008 40.9 28.7008 39.4C32.6008 28.4 36.2008 17.8999 38.6008 10.5999ZM30.8008 38C34.6008 35.5999 38.4008 33.4 42.4008 31.5H42.1008C40.9008 31.2999 39.9008 31.2 39.3008 31C38.5008 30.7 38.2008 30.4 38.2008 29.8C38.2008 29.6 38.2008 29.3999 38.3008 29.1999C38.5008 28.7999 39.1008 28.2 40.1008 27.5C44.1008 24.7 47.1008 18.7 47.1008 14.4C47.1008 11.6 45.9008 9.59995 42.9008 9.59995C42.3008 9.59995 41.6008 9.69995 40.8008 9.89995C38.3008 16.6 34.7008 26.9 30.8008 38Z" fill="white"/>
<path d="M78.7008 53.2C78.7008 54.1 79.0008 54.9 79.6008 55.3C79.8008 55.5 80.2008 55.5 80.6008 55.5C85.8008 55.5 105.301 47.1 105.301 47.1C105.701 46.8 106.001 46.7 106.301 46.7C107.101 46.7 107.701 47.3 107.701 47.8C107.701 47.9 107.701 48 107.601 48.1C107.601 48.1 87.2008 57 79.8008 57C78.7008 57 77.9008 56.8 77.5008 56.3C76.3008 55.5 75.8008 54 75.8008 52.3C75.8008 49.2 77.3008 45.5 78.1008 44.1C78.5008 43.3 79.1008 43 79.7008 43C80.6008 43 81.6008 43.7 81.6008 44.6C81.6008 44.7 81.6008 44.9 81.6008 45C81.5008 45 78.7008 50.1 78.7008 53.2ZM84.0008 36.3C84.0008 36.6 84.0008 36.9 83.8008 37.2C83.5008 38.1 82.7008 38.7 82.0008 38.7C81.9008 38.7 81.7008 38.7 81.6008 38.7C81.0008 38.5 80.7008 37.9 80.7008 37.1C80.7008 36.8 80.7008 36.5 80.9008 36.2C81.3008 35.3 82.0008 34.7 82.7008 34.7C82.8008 34.7 82.9008 34.7 83.1008 34.7C83.7008 34.9 84.0008 35.5 84.0008 36.3Z" fill="white"/>
<path d="M128.802 17.6999C130.902 14.1999 132.502 13.0999 133.502 13.0999C134.402 13.0999 134.802 13.8999 134.802 14.4999C134.802 14.5999 134.802 14.6999 134.802 14.7999V15.0999C134.802 24.1999 119.002 45.6999 119.002 45.6999L115.802 54.4999C112.902 62.3999 111.502 71.8999 111.502 76.1999C111.502 76.6999 111.502 77.0999 111.502 77.4999C111.902 80.8999 113.902 81.9999 114.702 81.9999C115.202 81.9999 115.802 82.4999 115.802 82.9999C115.802 83.2999 115.702 83.4999 115.402 83.6999C115.302 83.7999 115.102 83.7999 114.902 83.7999C114.102 83.7999 113.202 82.7999 113.202 82.7999C111.202 80.5999 110.802 76.6999 110.802 76.6999C110.802 76.1999 110.802 75.5999 110.802 75.0999C110.802 66.1999 115.002 52.3999 116.702 48.6999C116.702 48.6999 110.502 56.2999 107.502 57.6999C107.002 57.9999 106.402 58.0999 106.002 58.0999C104.502 58.0999 103.602 56.7999 103.602 54.6999C103.602 53.8999 103.802 52.9999 104.002 51.9999C105.202 47.4999 107.902 42.5999 112.202 41.4999C112.802 41.2999 113.302 41.2999 113.802 41.2999C116.802 41.2999 118.002 43.9999 118.002 43.9999C121.402 33.9999 124.402 25.0999 128.802 17.6999ZM114.802 43.5999C114.702 43.5999 114.502 43.5999 114.402 43.5999C112.502 43.8999 109.702 46.5999 107.802 49.8999C106.802 51.4999 105.902 53.9999 105.902 55.2999C105.902 55.8999 106.102 56.1999 106.502 56.1999C107.002 56.1999 108.002 55.4999 109.602 53.5999C115.002 47.3999 116.602 45.3999 116.602 45.3999C116.602 45.3999 116.402 43.5999 114.802 43.5999ZM131.602 19.9999C132.202 18.4999 133.202 16.3999 133.202 15.4999C133.202 15.1999 133.102 15.0999 132.902 15.0999C131.802 15.1999 129.402 19.1999 129.402 19.1999C125.702 24.9999 121.302 39.5999 121.302 39.5999C125.002 32.9999 130.702 21.8999 131.602 19.9999Z" fill="white"/>
<path d="M154.302 29.4C153.502 32.4 151.702 36.1 150.702 39.2C149.102 43.7 147.302 49.1 145.602 54.5C151.502 51.2 160.202 47.1 163.402 46.9H163.502C163.902 46.9 164.102 47.4 164.102 47.9C164.102 48.3 164.002 48.7 163.602 48.7H163.302C158.902 48.7 148.302 53.1 144.802 57C145.402 58.1 145.702 60.2 145.702 62.7C145.702 68.9 144.202 77.9 143.202 81.4C141.602 86.9 139.402 91.6001 137.102 91.6001H137.002C136.002 91.6001 135.602 90.3 135.602 88.3C135.602 80.5 141.502 61.4 141.802 60.5C141.902 60.1 141.902 59.8 141.902 59.6C141.902 58.9 141.502 58.9 141.002 58.9C140.702 58.9 140.302 58.9 139.902 58.8C139.702 58.6 139.502 58.2 139.502 57.7C139.502 57.1 139.702 56.6 140.102 56.1C140.502 55.7 141.202 55.4 142.002 55.4C142.402 55.4 142.802 55.5 143.102 55.7C145.002 49.6 147.002 43.5 148.802 38.6C149.302 37 152.602 26.8 154.402 26.8C154.602 26.8 154.802 26.9 155.102 27.1C155.902 27.9 156.202 30 156.202 32C156.202 34.3 155.802 36.4 155.802 36.5C155.402 36.9 154.902 37 154.302 37C153.402 37 152.502 36.6 152.302 35.9C152.502 35.8 154.202 31.5 154.302 29.4ZM137.202 87.2C137.202 87.8 137.202 88.3 137.302 88.7C138.502 87.5 139.702 84.3 140.802 80.4C142.002 76.2 143.202 65.9 143.202 61.8C143.202 61.4 143.202 61.1 143.202 60.8C139.902 69.4 137.202 82.3 137.202 87.2Z" fill="white"/>
<path d="M170.501 49.4C167.001 52.7 163.001 56.4 161.101 56.4C161.101 56.4 161.001 56.4 160.901 56.4C160.401 56.3 160.101 56 159.801 55.7C159.401 55.3 159.301 54.7 159.301 54.1C159.301 53.9 159.301 53.7 159.301 53.4C159.401 52.7 159.701 51.8 160.101 50.9C161.401 48.1 164.101 44.8 167.501 43.7C168.401 43.4 169.201 43.3 169.901 43.3C171.301 43.3 172.301 43.7 172.901 44.4C174.201 43.3 175.801 42.2 176.601 42.2C176.701 42.2 176.901 42.2 177.001 42.3C177.601 42.4 177.901 43 177.901 43.9C177.901 45 177.501 46.5 176.801 48.4C176.301 49.7 176.101 50.8 176.101 51.7C176.101 54 177.601 54.8 179.701 54.8C185.301 54.8 195.701 48.9 197.301 46.9C197.601 46.4 197.901 46.2 198.101 46.2C198.501 46.2 198.801 46.6 198.801 47C198.801 47.3 198.701 47.5 198.501 47.8C198.001 48.6 186.101 55.5 179.201 55.5C176.401 55.5 174.401 54.3 174.401 51C174.401 50.1 174.501 49.1 174.801 47.9C175.101 46.2 175.601 44.7 175.601 44.3C175.601 44.3 174.901 44.9 173.901 45.9C174.101 46.4 174.101 47 174.101 47.2V47.4C173.701 48 173.201 48.2 172.701 48.2C172.501 48.2 172.301 48.2 172.201 48.1L172.101 47.7C171.501 48.5 171.301 48.7 170.501 49.4ZM169.801 46.5C167.701 46.5 164.001 51.3 164.001 52.3C164.001 52.4 164.101 52.5 164.301 52.5C165.101 52.5 167.801 50.4 170.601 46.7C170.301 46.5 170.001 46.5 169.801 46.5Z" fill="white"/>
<path d="M199.6 48.0999C201.3 44.3999 203.8 42.0999 206 42.0999C206.9 42.0999 207.8 42.4999 208.5 43.4999C210.1 47.0999 216.7 47.7999 221.6 47.7999C223.8 47.7999 225.6 47.6999 226.5 47.5999C227 47.5999 227.4 47.1999 227.5 47.1999C227.7 47.1999 227.9 47.0999 227.9 47.0999C228.2 47.0999 228.3 47.1999 228.3 47.3999C228.3 47.6999 228 48.1999 227.6 48.1999C227.4 48.3999 224 48.9999 220.1 48.9999C215.3 48.9999 209.6 48.1999 207.4 45.0999C207.1 44.6999 206.8 44.5999 206.5 44.5999C203.4 44.5999 197.6 58.3999 197.5 58.4999V58.5999C197.5 59.0999 196.9 59.3999 196.2 59.3999C195.4 59.3999 194.5 59.0999 194.5 58.5999C194.5 58.4999 194.5 58.4999 194.5 58.3999L198.3 42.6999C198.6 41.8999 199.3 41.5999 200 41.5999C200.8 41.5999 201.7 42.0999 201.7 42.8999V42.9999L199.6 48.0999Z" fill="white"/>
<path d="M235.201 44.5999C235.201 48.2999 229.201 50.6999 228.001 51.1999C228.001 51.4999 228.001 51.7999 228.001 52.0999C228.001 53.1999 228.201 54.3999 228.701 55.1999C229.301 56.0999 230.201 56.4999 231.501 56.4999C237.601 56.4999 249.801 47.2999 249.801 47.2999C250.001 47.1999 250.201 47.0999 250.301 47.0999C250.901 47.0999 251.401 47.5999 251.401 48.1999C251.401 48.3999 251.301 48.5999 251.001 48.7999C250.901 48.7999 239.001 57.3999 231.801 57.3999C229.901 57.3999 228.301 56.7999 227.301 55.2999C226.501 54.0999 226.201 52.6999 226.201 51.4999C226.201 48.9999 227.401 46.6999 228.901 44.9999C229.701 44.0999 230.601 43.3999 231.401 42.8999C232.001 42.4999 232.601 42.3999 233.201 42.3999C233.501 42.3999 233.801 42.3999 234.101 42.5999C234.701 42.8999 235.201 43.3999 235.201 44.2999C235.201 44.2999 235.201 44.3999 235.201 44.5999ZM232.501 44.5999C232.501 44.4999 232.501 44.4999 232.401 44.4999C231.501 44.5999 230.701 46.2999 228.601 48.8999C231.501 46.3999 232.501 44.9999 232.501 44.5999Z" fill="white"/>
<path d="M249.002 57.3C249.002 58 249.102 58.4 249.502 58.6C249.702 58.7 249.902 58.7 250.102 58.7C253.102 58.7 255.502 48.9 256.902 46.2C257.502 44.6 258.102 44 258.702 44C259.202 44 259.702 44.5 259.902 45C260.402 45.5 260.602 47.2 260.702 48.3C260.702 48.8 260.802 49.4 260.902 49.9C261.202 51.4 262.002 52 263.002 52C264.302 52 265.802 50.9 266.502 50.1C267.602 48.6 268.402 46.6 268.902 44.8C268.902 44.7 268.902 44.6 268.902 44.5C268.902 44.2 268.802 43.8 268.802 43.5V43.4C268.602 43.2 268.502 42.9 268.402 42.6C267.902 41.6 267.602 40.6 267.602 39.9V39.7C267.602 38.7 268.002 38.1 268.502 37.8C268.702 37.7 268.902 37.7 269.002 37.7C269.302 37.7 269.602 37.8 269.902 38.1C270.402 38.5 270.702 39.1 270.802 39.8C270.902 40.2 270.902 40.7 270.902 41.2C270.902 41.8 270.902 42.4 270.702 43.1C271.302 45.1 272.802 46.4 275.702 46.4C277.302 46.4 279.302 46 281.902 45C282.302 45 282.402 45.3 282.402 45.6C282.402 46.1 282.002 46.8 281.602 46.9C279.802 47.3 278.202 47.5 276.902 47.5C273.902 47.5 271.702 46.6 270.202 45.2C269.602 47.1 268.702 49.1 267.502 50.7C265.902 52.8 263.902 54 262.202 54C260.202 54 258.602 52.4 258.302 48.6C258.302 47.9 258.202 47.4 258.202 47.4C258.202 47.4 258.202 47.7 258.102 48.1C257.802 49.1 253.702 60.9 249.202 60.9C248.802 60.9 248.402 60.8 248.102 60.6C247.002 60.1 246.602 58.7 246.602 56.8C246.602 50.1 252.002 37.5 252.102 37.4C252.502 36.6 253.502 36.2 254.402 36.2C255.402 36.2 256.302 36.7 256.302 37.7C256.302 38.1 256.202 38.4 256.002 38.8C255.102 41.3 249.002 53.1 249.002 57.3Z" fill="white"/>
<path d="M289 44.5999C289 48.2999 283 50.6999 281.8 51.1999C281.8 51.4999 281.8 51.7999 281.8 52.0999C281.8 53.1999 282 54.3999 282.5 55.1999C283.1 56.0999 284 56.4999 285.3 56.4999C291.4 56.4999 303.6 47.2999 303.6 47.2999C303.8 47.1999 304 47.0999 304.1 47.0999C304.7 47.0999 305.2 47.5999 305.2 48.1999C305.2 48.3999 305.1 48.5999 304.8 48.7999C304.7 48.7999 292.8 57.3999 285.6 57.3999C283.7 57.3999 282.1 56.7999 281.1 55.2999C280.3 54.0999 280 52.6999 280 51.4999C280 48.9999 281.2 46.6999 282.7 44.9999C283.5 44.0999 284.4 43.3999 285.2 42.8999C285.8 42.4999 286.4 42.3999 287 42.3999C287.3 42.3999 287.6 42.3999 287.9 42.5999C288.5 42.8999 289 43.3999 289 44.2999C289 44.2999 289 44.3999 289 44.5999ZM286.3 44.5999C286.3 44.4999 286.3 44.4999 286.2 44.4999C285.3 44.5999 284.5 46.2999 282.4 48.8999C285.3 46.3999 286.3 44.9999 286.3 44.5999Z" fill="white"/>
<path d="M323.301 7.99994C324.201 8.29994 324.601 9.09994 324.601 10.0999C324.601 15.0999 315.901 27.1999 312.701 31.4999L312.001 32.5999C308.601 37.3999 299.201 64.3999 299.201 78.0999C299.201 82.7999 300.301 85.8999 303.001 86.1999C303.501 86.1999 303.801 86.5999 303.801 86.9999C303.801 87.4999 303.401 87.9999 302.901 87.9999C302.801 87.9999 302.701 87.9999 302.601 87.9999C299.201 86.4999 297.801 81.8999 297.801 75.3999C297.801 64.4999 301.901 48.4999 307.701 34.0999L309.101 30.6999C314.801 17.7999 320.601 7.99994 323.301 7.99994ZM313.401 70.6999C313.401 72.1999 313.601 73.3999 314.001 74.1999C314.401 75.0999 315.101 75.4999 315.901 75.4999C321.701 75.4999 335.901 55.1999 339.101 49.3999C339.601 48.4999 339.901 47.2999 339.901 47.2999C340.301 46.5999 340.801 46.2999 341.201 46.2999C341.601 46.2999 342.001 46.6999 342.001 47.1999V47.2999C342.001 47.3999 323.701 75.9999 315.601 75.9999C314.501 75.9999 313.501 75.3999 312.801 73.9999C312.401 73.0999 312.101 71.5999 312.101 69.7999C312.101 58.1999 320.701 31.4999 326.601 23.3999C328.001 20.9999 329.401 18.8999 330.601 17.4999C331.901 15.9999 333.201 15.0999 334.201 15.0999H334.301C335.101 15.0999 335.601 15.5999 336.001 16.5999C336.201 17.0999 336.301 17.6999 336.301 18.2999C336.301 26.0999 324.801 44.2999 318.801 49.0999C318.401 49.3999 318.101 49.4999 317.801 50.1999C314.701 60.3999 313.401 66.7999 313.401 70.6999ZM322.201 11.5999C322.501 10.7999 322.601 10.3999 322.601 10.1999C322.601 10.0999 322.601 10.0999 322.601 10.0999C322.001 10.0999 314.101 26.0999 313.901 26.4999C316.101 23.7999 321.101 14.6999 322.201 11.5999ZM334.701 17.8999C334.701 17.6999 334.701 17.4999 334.601 17.3999C334.501 17.0999 334.401 16.9999 334.301 16.9999C333.901 16.9999 333.001 17.6999 332.001 18.8999C330.901 20.2999 329.501 22.1999 328.201 24.5999C325.501 29.1999 321.901 38.9999 319.801 44.8999C322.501 42.1999 334.701 22.5999 334.701 17.8999Z" fill="white"/>
<path d="M343.001 29.9C348.201 29.9 355.701 29.6 365.601 28.8C371.301 15.4 377.401 5.09998 380.101 5.09998H380.201C381.001 5.39998 381.401 6.19998 381.401 7.19998C381.401 12.2 372.701 24.3 369.601 28.6C373.501 28.3 399.701 26 404.201 26C404.501 26 404.701 26 404.801 26C405.001 26.3 405.101 26.5 405.101 26.7C405.101 28.3 401.401 29.5 401.401 29.5C401.201 29.6 401.001 29.6 400.901 29.6C400.301 29.6 399.801 29.1 399.801 28.5C399.801 28.3 399.801 28.1 399.901 28C399.901 28 379.201 28.9 369.001 29.7C365.401 34.7 354.101 61.3 354.101 73.6C354.101 77.2 355.101 79.7 357.601 79.9C358.101 79.9 358.401 80.3 358.401 80.7C358.401 81.2 358.001 81.7 357.501 81.7C357.401 81.7 357.301 81.7 357.201 81.7C354.601 80.6 353.601 77.3 353.601 72.6C353.601 62.1 359.101 44.6 365.201 30.1C358.001 30.1 349.301 30.5 342.801 30.5C337.801 30.5 334.101 30.3 333.901 29.6C333.901 29.5 333.801 29.4 333.801 29.3C333.801 28.7 334.801 28.5 335.301 28.5H335.601C336.301 28.5 337.301 28.8 337.301 29.8C338.601 29.8 340.501 29.9 343.001 29.9ZM379.001 8.59998C379.301 7.79998 379.401 7.29998 379.401 7.09998V6.99998C378.701 6.99998 370.901 23 370.701 23.4C372.901 20.8 377.901 11.7 379.001 8.59998Z" fill="white"/>
<path d="M373.5 43.5C373.4 43.3 373.4 43.1 373.4 42.9C373.4 42.5 373.5 42.3 373.8 42.1C374 41.9 374.2 41.8 374.5 41.8C374.6 41.8 374.8 41.8 374.9 41.9C375.7 42.2 376.2 42.9 376.5 44.1C377.5 45.2 379 46.1 381.9 46.4C383.4 46.5 384.9 46.6 386.1 46.6C390.7 46.6 393.2 45.9 393.2 45.8H393.4C393.9 45.8 394.2 46.2 394.2 46.6C394.2 47 394 47.5 393.6 47.6C393.6 47.6 391.8 48 388.2 48C386.6 48 384.7 47.9 382.4 47.7C380 47.5 378.4 47.1 377.1 46.5C377.1 50.3 375.6 56.3 372.3 58.6C371.7 59 370.9 59.3 370.2 59.3C369.8 59.3 369.5 59.3 369.2 59.1C367.9 58.6 367.5 57.3 367.5 55.8C367.5 53.8 368.3 51.4 368.8 50.2C369.5 48.6 371.9 44.8 373.6 43.7C373.5 43.6 373.5 43.5 373.5 43.5ZM370.3 51.1C370 51.7 369.2 54.1 369.2 55.8C369.2 56.6 369.3 57.1 369.8 57.3C369.9 57.3 370 57.3 370.1 57.3C372.2 57.3 374.7 47.8 374.7 45.4V45.1C374.6 45 374.5 44.9 374.4 44.8C372.9 46.2 371.1 49.2 370.3 51.1Z" fill="white"/>
<path d="M415.102 56.5C415.102 54.9 416.202 53.7 417.702 53.7C419.302 53.7 420.302 54.8 420.302 56.5C420.302 58.1 419.302 59.3 417.702 59.3C416.202 59.3 415.102 58.1 415.102 56.5ZM429.902 56.5C429.902 54.9 431.002 53.7 432.602 53.7C434.102 53.7 435.202 54.8 435.202 56.5C435.202 58.1 434.102 59.3 432.502 59.3C430.902 59.3 429.802 58.1 429.902 56.5ZM444.602 56.5C444.602 54.9 445.702 53.7 447.302 53.7C448.902 53.7 449.902 54.8 449.902 56.5C449.902 58.1 448.902 59.3 447.202 59.3C445.602 59.3 444.602 58.1 444.602 56.5Z" fill="white"/>
</svg>
