<svg width="1600" height="415" fill="none" xmlns="http://www.w3.org/2000/svg"><g clip-path="url(#a)"><path d="M1601-1H-1v417h1602V-1Z" fill="#001A38"/><path opacity=".2" d="M1601-1H-1v417h1602V-1Z" fill="#001A38"/><path d="m1293.3 438-1.6-.4c32.5-142 35.2-214.3 9-241.7-20.4-21.4-57.5-14.7-104.4-6.2-45.8 8.3-102.9 18.6-161.6 4.2-68.599-16.8-126.299-63.6-176.399-142.9l1.4-.9c112.6 178.4 241.999 155 336.399 138 47.4-8.5 84.8-15.3 105.9 6.7 26.5 27.9 23.9 100.6-8.7 243.2Z" fill="#fff" fill-opacity=".2"/><path d="m1325.3 436.5-1.6-.3c21.1-132.1 17.8-203.1-10.4-230.4-23.6-22.7-62.6-15.1-112-5.4-95 18.6-224.998 44-338.198-137.2l1.4-.9c112.6 180.3 242.098 155 336.598 136.5 49.9-9.8 89.2-17.5 113.4 5.9 28.6 27.7 32 99.2 10.8 231.8Z" fill="#fff" fill-opacity=".2"/><path d="m1357.3 435-1.6-.1c10.8-124.3 1.8-192-29.1-219.3-27.2-24.1-70.4-15-120.4-4.4-49.1 10.3-104.8 22.1-163.1 8.5-67.7-15.8-125-62.9-175.2-144.2l1.4-.9c112.6 182.1 242 154.9 336.6 134.9 50.5-10.6 94-19.8 121.8 4.8 31.3 27.7 40.5 95.8 29.6 220.7Z" fill="#fff" fill-opacity=".2"/><path d="M1389.3 433.5h-1.6c1.2-115.4-13.8-181.7-47.1-208.6-31.4-25.3-77-15.1-129.8-3.2-49.6 11.2-105.8 23.8-163.8 10.6-66.999-15.2-123.999-62.6-174.299-144.7l1.4-.8c112.5 183.8 236.599 155.9 336.399 133.4 53.2-12 99.2-22.3 131.2 3.5 33.7 27.2 48.8 93.8 47.6 209.8Z" fill="#fff" fill-opacity=".2"/><path d="M1419.7 432.1c-7.7-108.6-28.1-171.6-64.4-198.1-36.1-26.4-84.2-14.9-139.9-1.6-100.2 24-225 53.9-337.9-132.6l1.4-.8c112.3 185.4 236.4 155.7 336.1 131.8 56.1-13.4 104.6-25.1 141.3 1.8 36.6 26.9 57.3 90.2 65 199.3l-1.6.2Z" fill="#fff" fill-opacity=".2"/><path d="M1451.7 430.7c-15.9-102.3-41.7-162.1-81.1-188.1-41.3-27.3-92.1-14.4-150.8.4-50.5 12.8-107.8 27.3-165.2 14.8-65.799-14.4-122.099-62-172.299-145.8l1.4-.8c112 186.9 230.799 156.8 335.699 130.3 56.7-14.4 110.2-27.9 152.1-.2 39.8 26.3 65.8 86.4 81.8 189.2l-1.6.2Z" fill="#fff" fill-opacity=".2"/><path d="M1483.7 429.4c-23.4-95.2-55.3-153.6-97.4-178.6-47-27.8-103-12.9-162.3 2.9-105.3 28.1-224.598 59.9-336.898-129.4l1.4-.8C1000.1 311.8 1118.8 280.1 1223.6 252.2c59.6-15.9 115.9-30.9 163.5-2.7 42.5 25.2 74.6 83.9 98.2 179.6l-1.6.3Z" fill="#fff" fill-opacity=".2"/><path d="M1515.8 428c-34.7-101.8-76.3-158-130.8-177-48.5-16.9-101.2-2.2-156.9 13.4-54 15.1-109.8 30.7-166.4 18.8C997.5 269.7 942 221.7 892 136.5l1.4-.8c111.2 189.5 224.6 157.8 334.3 127.2 56-15.6 108.9-30.4 157.9-13.4 55 19.2 96.9 75.7 131.8 178l-1.6.5Z" fill="#fff" fill-opacity=".2"/><path d="M1547.8 426.6C1452.3 210.8 1345.3 242 1232 275.1c-110.1 32.1-223.9 65.4-335.199-126.4l1.4-.8C1008.9 338.6 1122.1 305.5 1231.6 273.5c57.5-16.8 111.9-32.7 165.2-17.6 60.3 17.1 108.8 71.1 152.5 170l-1.5.7Z" fill="#fff" fill-opacity=".2"/><path d="M1579.8 425.2c-51.6-93.8-107.9-146.5-172.2-161.2-57.3-13-115.6 4.7-171.9 21.8-54.9 16.7-111.7 34-167.5 22.6-62.5-12.8-117-61-166.7-147.5l1.4-.8c49.4 86.1 103.6 134 165.6 146.7 55.3 11.3 111.9-5.9 166.7-22.5 56.5-17.2 115-35 172.7-21.8 64.8 14.8 121.5 67.7 173.3 162l-1.4.7Z" fill="#fff" fill-opacity=".2"/><path d="M1611.9 423.8c-134.4-202.4-255.5-164.2-372.5-127.2-114.6 36.2-222.8 70.3-332.9-123.5l1.4-.8C1017.4 365 1125 331 1238.9 295c58.1-18.3 118.2-37.3 180.3-26.1 70.1 12.6 133.6 63 194.1 154l-1.4.9Z" fill="#fff" fill-opacity=".2"/><path d="M1643.9 422.4c-153.9-195.8-285.3-152.9-401.1-115-58.4 19.1-113.5 37.1-168.2 26.2-61.5-12.3-113.399-59.4-163.299-148.2l1.4-.8C962.401 273 1013.9 319.8 1074.9 332c54.3 10.9 109.3-7.1 167.4-26.1 59.7-19.5 121.4-39.7 188-30.5 75.5 10.4 145.8 58.2 214.9 146.1l-1.3.9Z" fill="#fff" fill-opacity=".2"/><path d="M1676 421c-173.5-189.3-309.7-143.3-429.9-102.8-58.8 19.8-114.3 38.6-168.5 27.8-60.5-12-111.798-59.2-161.498-148.6l1.4-.8C1025.5 390.9 1127.5 356.4 1245.6 316.6c120.7-40.7 257.4-86.9 431.6 103.2l-1.2 1.2Z" fill="#fff" fill-opacity=".2"/><path d="M1708 419.6c-193.2-182.9-334.3-133.8-458.8-90.4-59.2 20.6-115 40-168.7 29.5-59.5-11.7-110.199-59-159.699-148.9l1.4-.8c49.2 89.4 99.599 136.5 158.599 148.1 53.2 10.5 108.9-8.9 167.8-29.4 60-20.9 128-44.6 203.6-39.5 86.4 5.8 170.5 48.4 256.9 130.3l-1.1 1.1Z" fill="#fff" fill-opacity=".2"/><path d="M1740 418.2c-212.9-176.6-365.4-122-487.9-78.1-62.1 22.2-115.7 41.5-168.8 31-58.5-11.5-108.6-58.9-157.8-149.2l1.4-.8c106.5 195.6 202.7 161.1 324.6 117.4 61.6-22.1 131.4-47.1 211.5-44 92 3.5 182.9 43.5 278 122.4l-1 1.3Z" fill="#fff" fill-opacity=".2"/><path d="M1772.1 416.8c-232.8-170.3-390.4-112.2-517.1-65.6-62.4 23-116.3 42.8-168.8 32.5-57.4-11.3-106.9-58.8-155.8-149.5l1.4-.8c48.6 90.3 97.8 137.5 154.7 148.7 52 10.2 105.7-9.6 167.9-32.5 127-46.8 285.1-105 518.6 65.8l-.9 1.4Z" fill="#fff" fill-opacity=".2"/><path d="M1804.1 415.4c-252.8-164-415.6-102.5-546.4-53.1-62.7 23.7-116.9 44.1-168.7 34-56.3-11.1-105.199-58.7-153.799-149.8l1.4-.8C1041.3 442.3 1131.8 408.1 1257 360.8c64.8-24.5 138.1-52.2 227.3-53.3 103.1-1.3 208 33.5 320.6 106.6l-.8 1.3Z" fill="#fff" fill-opacity=".2"/><path d="m1884.6 150.9-1.4.7C1816.3 22.3 1771.7-34.7 1734-38.7c-29.4-3.1-53.4 25.9-83.7 62.6-29.7 35.9-66.6 80.6-120.7 107.5-63.3 31.5-137.5 33-227 4.8l.5-1.5c201.1 63.5 284.9-37.8 346-111.8 30.7-37.1 54.9-66.5 85.2-63.2 38.2 4.1 83.2 61.3 150.3 191.2Z" fill="#245C5C" fill-opacity=".3"/><path d="m1908.1 129.1-1.4.8C1837.5 15.5 1789.2-36.7 1750-39.3c-32.7-2.2-57.5 28.9-89 68.1-60.5 75.5-143.4 178.9-346.9 113.6l.5-1.5c202.4 65 284.9-37.9 345.1-113.1 31.8-39.6 56.9-71 90.4-68.7 39.8 2.6 88.5 55.1 158 170Z" fill="#245C5C" fill-opacity=".3"/><path d="m1931.6 107.3-1.3.9C1858.2 6.3 1807.7-39.5 1766.4-40.5c-36.3-.8-63.4 34-94.8 74.4-30.8 39.6-65.8 84.5-119.1 111.8-61.9 31.6-136.1 32.6-226.9 3l.5-1.5c203.6 66.4 284.8-38 344.1-114.2 31.7-40.7 59-75.9 96.2-75 41.9.9 92.8 46.9 165.2 149.3Z" fill="#245C5C" fill-opacity=".3"/><path d="m1955.1 85.5-1.2 1C1880.2-2.4 1826-43.3 1783.2-42.4c-40.3.9-68.5 38.2-101.1 81.4-30.7 40.5-65.4 86.5-118.2 113.9-61.1 31.6-135.2 32.3-226.6 2l.5-1.5c204.6 67.8 281.3-33.8 343-115.3 32.9-43.5 61.3-81.1 102.4-82 43.3-1 97.9 40.1 171.9 129.4Z" fill="#245C5C" fill-opacity=".3"/><path d="M1977.4 64.8c-76-78-132.3-112.9-177.1-109.8-44.6 3.1-73.9 43-107.9 89.2-61.1 83.1-137 186.4-343.6 116.9l.5-1.5c205.5 69.1 281-33.7 341.8-116.3 34.2-46.5 63.7-86.7 109.1-89.8 45.3-3.1 102 31.9 178.3 110.3l-1.1 1Z" fill="#245C5C" fill-opacity=".3"/><path d="M2000.9 43.1c-78.2-67.8-136.5-96.8-183.4-91.3-49.2 5.8-79.6 48.4-114.9 97.7-30.3 42.4-64.7 90.4-116.6 117.9-59.5 31.5-133.3 31.5-225.7-.1l.5-1.5c206.2 70.4 277.5-29.3 340.4-117.3 34-47.5 66.1-92.5 116-98.4 47.4-5.6 106 23.5 184.6 91.7l-.9 1.3Z" fill="#245C5C" fill-opacity=".3"/><path d="M2024.5 21.4c-79.3-57.6-141.4-81.6-189.7-73.5-53.9 9.1-87 56.7-122.1 107-62.3 89.4-132.9 190.8-340.8 118.7l.5-1.5c206.8 71.7 277-29.1 339-118 35.3-50.6 68.6-98.5 123.1-107.7 48.7-8.2 111.2 15.9 190.9 73.8l-.9 1.2Z" fill="#245C5C" fill-opacity=".3"/><path d="M2048-.3c-92.2-55.3-160.3-71.4-214.2-50.7-47.9 18.4-78.6 63.6-111.1 111.5-31.5 46.4-64 94.3-115 121.8-57.8 31.1-131.1 30.3-224.3-2.5l.5-1.5c207.3 73 273.4-24.5 337.4-118.7 32.7-48.1 63.5-93.5 111.9-112.1 54.4-20.9 122.9-4.7 215.6 50.8l-.8 1.4Z" fill="#245C5C" fill-opacity=".3"/><path d="M2071.6-22.1c-212.3-103.2-273.8-10.2-339 88.2-63.3 95.6-128.8 194.5-337.6 119.9l.5-1.5c207.6 74.2 272.7-24.2 335.7-119.3 33.1-50 64.3-97.2 114.8-120.1 57.1-25.9 129-15.9 226.2 31.3l-.6 1.5Z" fill="#245C5C" fill-opacity=".3"/><path d="M2095.2-43.8c-100-38.3-177-42.2-235.6-11.9-52.2 27-85.2 78.2-117.2 127.6-31.2 48.2-63.4 98.1-113.3 125.4-56 30.6-128.8 29-222.5-5l.6-1.5c93.3 33.8 165.6 35.5 221.2 5.1 49.6-27.1 81.7-76.8 112.7-124.8 32.1-49.6 65.2-100.9 117.8-128.2 59-30.6 136.5-26.7 236.9 11.8l-.6 1.5Z" fill="#245C5C" fill-opacity=".3"/><path d="M2118.8-65.6c-233.3-67.8-301.1 39.6-366.6 143.4-64.2 101.6-124.8 197.6-334 120.7l.6-1.5c208 76.5 268.2-19 332-120 32.5-51.5 66.2-104.8 120.8-136.4 61.7-35.7 142.7-38.2 247.6-7.7l-.4 1.5Z" fill="#245C5C" fill-opacity=".3"/><path d="M2142.3-87.3c-244-50.2-316.6 67.4-380.6 171.1-32.3 52.2-62.7 101.6-111.6 128.6-54.9 30.3-124.9 27.9-220.4-7.7l.6-1.5c95 35.4 164.6 37.9 219.1 7.8 48.5-26.8 78.8-76 111-128 33-53.4 67.1-108.7 123.9-144.7 64.4-40.8 148.9-49.7 258.5-27.2l-.5 1.6Z" fill="#245C5C" fill-opacity=".3"/><path d="M2165.9-109.1c-254.8-32.6-329.1 90.5-394.7 199.1-32.1 53.1-62.4 103.3-110.7 130-54 29.9-123.6 27-219.3-9.2l.6-1.5c207.9 78.6 263.6-13.5 328-120.2 65.8-109 140.5-232.6 396.2-199.9l-.1 1.7Z" fill="#245C5C" fill-opacity=".3"/><path d="M2189.5-130.8c-265.6-15-341.7 113.7-408.8 227.2-31.9 53.9-62 104.8-109.8 131.4-53 29.5-122.3 26.1-218.1-10.6l.6-1.5c95.3 36.5 164.1 39.9 216.7 10.7 47.4-26.3 77.4-77.1 109.2-130.8 32.3-54.7 69-116.7 130-161.6 69.8-51.4 161.5-73.1 280.3-66.4l-.1 1.6Z" fill="#245C5C" fill-opacity=".3"/><path d="M2213-152.6c-276.6 2.6-357.8 142.8-423 255.4-33.1 57.1-61.6 106.4-108.8 132.7-52.1 29-121 25.1-216.8-12.1l.6-1.5c207.6 80.6 258.8-7.9 323.7-119.9 32.8-56.6 69.9-120.8 133.1-170.2 72.5-56.7 167.8-84.9 291.3-86l-.1 1.6Z" fill="#245C5C" fill-opacity=".3"/><path d="M2236.6-174.3C1948.9-154.1 1865.9-8 1799.3 109.4c-32.8 57.8-61.2 107.8-107.9 133.8-51.1 28.5-119.6 24.1-215.5-13.6l.6-1.5c95.4 37.6 163.5 41.9 214.1 13.7 46.3-25.8 74.5-75.6 107.3-133.2 66.8-117.7 150-264.2 438.5-284.5l.2 1.6Z" fill="#245C5C" fill-opacity=".3"/><path d="M2260.1-196.1c-298.9 38-383.6 190-451.6 312.2-32.6 58.6-60.8 109.2-106.9 134.8-50.2 27.9-118.2 23.1-214.1-15.1l.6-1.5c206.9 82.5 253.9-2 319-119 33.7-60.5 71.8-129 139.2-187.5 77.9-67.6 180.5-108.7 313.6-125.6l.2 1.7Z" fill="#245C5C" fill-opacity=".3"/><path d="m69.9 669.2-.9-1.3c118.8-84.3 169-136.4 167.8-174.2-1-29.5-33.1-49.3-73.7-74.2-39.7-24.4-89.1-54.7-123.3-104.6-40-58.3-51.9-131.6-36.4-224.1L5 91c-34.9 208 77.1 276.8 158.9 327.1 41 25.2 73.5 45.1 74.5 75.5 1.2 38.5-49.2 91-168.5 175.6Z" fill="#245C5C"/><path d="m94.7 689.4-1-1.3c103.699-84.5 148.699-139.6 145.799-178.7-2.4-32.6-36.6-52.9-79.9-78.7-83.2-49.3-197.1-117-160.8-327.6l1.6.3c-36.2 209.5 77.2 276.9 160 326 43.7 25.9 78.2 46.4 80.7 79.9 2.9 39.8-42.2 95.3-146.4 180.1Z" fill="#245C5C"/><path d="m119.599 709.6-1.1-1.2c90.9-85.5 129.3-142 124.5-182.9-4.2-36.1-42.5-58.1-86.9-83.6-43.5-25-92.8-53.4-127.3-102.3-39.9-56.9-51.3-130.2-34.6-224.2l1.6.3c-37.4 210.8 77.3 276.8 161 324.9 44.7 25.7 83.3 47.9 87.7 84.8 5 41.5-33.6 98.3-124.9 184.2Z" fill="#245C5C"/><path d="m144.499 729.8-1.2-1.1c77.8-85.3 110.8-144.7 103.9-186.9-6.5-39.8-47.4-62.5-94.7-88.8-44.4-24.7-94.8-52.7-129.2-101.2-39.8-56.1-50.8-129.4-33.6-224.1l1.6.3c-38.6 212 72.6 273.9 162 323.6 47.7 26.5 88.9 49.4 95.5 90 7 42.7-26.2 102.5-104.3 188.2Z" fill="#245C5C"/><path d="M168.099 749c66.7-86.1 93.4-146.7 84-190.6-9.3-43.8-52.8-67.2-103.3-94.4-90.7-48.9-203.7-109.7-163.6-324l1.6.3c-39.8 213.1 72.5 273.6 162.8 322.3 50.8 27.4 94.7 51 104.1 95.5 9.4 44.4-17.4 105.4-84.3 192l-1.3-1.1Z" fill="#245C5C"/><path d="M192.899 769.3c56.3-86.9 76.9-148.7 64.9-194.3-12.6-47.9-59-72.1-112.8-100.2-46.2-24.1-98.6-51.5-133-99.1-39.5-54.5-49.7-127.6-31.3-223.5l1.6.3c-41 214 67.6 270.7 163.5 320.8 51.8 27.1 100.8 52.6 113.6 101.2 12.1 46.1-8.5 108.3-65.1 195.6l-1.4-.8Z" fill="#245C5C"/><path d="M217.6 789.6c46-86.6 61.1-151.4 46.3-198-16.5-52.1-68.2-78.3-123-106-97.2-49.2-207.4-105-165-321l1.6.3C-64.6 379.7 45 435.2 141.8 484.2c55 27.9 107.1 54.2 123.8 106.9 14.9 47.1-.3 112.3-46.5 199.3l-1.5-.8Z" fill="#245C5C"/><path d="M242.399 810c41.9-99 48.4-168.7 20.4-219.1-24.9-44.9-74-69-125.9-94.5-50.3-24.8-102.3-50.4-136.6-97-38.9-52.9-48.3-125.6-28.8-222.5l1.6.3c-43.4 215.4 62.3 267.3 164.6 317.6 52.2 25.6 101.5 49.8 126.6 95.2 28.3 50.9 21.8 121-20.3 220.5l-1.6-.5Z" fill="#245C5C"/><path d="M267.2 830.3c72.6-224.6-28-272.6-134.5-323.4C29.2 457.5-77.8 406.4-33 189.3l1.6.3C-76 405.5 30.5 456.3 133.4 505.4c54.1 25.8 105.2 50.2 134.9 97 33.6 52.9 33.7 125.5.5 228.4l-1.6-.5Z" fill="#245C5C"/><path d="M292.099 850.6c24.1-104.3 17.2-181.2-21-234.9-34-47.9-89.3-73.5-142.7-98.3-52.1-24.1-105.9-49.1-139.9-94.8-38.1-51.2-46.6-123.5-26-221.1l1.6.3c-20.5 97.1-12.1 169 25.7 219.7 33.7 45.5 87.3 70.3 139.2 94.4 53.6 24.8 109 50.5 143.3 98.8 38.5 54.2 45.4 131.4 21.3 236.2l-1.5-.3Z" fill="#245C5C"/><path d="M316.899 870.9c34.6-240.5-81.1-292.6-193-343.1-109.5-49.4-213-96-166-313.9l1.6.3c-46.7 216.6 56.1 263 165.1 312.1 55.5 25 113 50.9 151.9 100.7 43.9 56.1 57.7 136 42.1 244.2l-1.7-.3Z" fill="#245C5C"/><path d="M341.7 891.2c15.7-248.6-110.8-304.1-222.5-353.1C63 513.5 9.9 490.2-23.7 445.6c-37.7-50.1-45-119.8-23-219.4l1.6.3c-21.8 99-14.6 168.3 22.7 218 33.3 44.3 86.2 67.5 142.2 92.1 57.5 25.2 117 51.3 160.5 102.5 49.4 58.1 70 140.5 62.9 252.1h-1.5Z" fill="#245C5C"/><path d="M366.5 911.5c-3.2-256.8-135.4-313.3-252.1-363.1C57.4 524 3.5 501-29.8 456.9c-37.1-49.3-44-118.7-21.5-218.4l1.6.4C-98.5 455.7.4 498 115 546.9c117.1 50 249.9 106.7 253.1 364.6h-1.6Z" fill="#245C5C"/><path d="M391.3 931.8c-22.1-265.1-160.1-322.5-281.9-373.2-57.8-24-112.4-46.7-145.3-90.3-36.6-48.4-42.9-117.5-19.9-217.4l1.6.4c-22.9 99.4-16.7 168.1 19.6 216.1 32.7 43.3 87.1 65.9 144.7 89.9 58.7 24.4 125.2 52.1 178.1 106.2 60.6 62 94.8 149.7 104.7 268.3h-1.6Z" fill="#245C5C"/><path d="M416.2 952.1C375.1 678.6 225 617.7 104.4 568.8 43.3 544-9.5 522.6-42.1 479.5c-36-47.5-41.8-116.3-18.3-216.4l1.6.4C-109.7 480.3-15 518.7 105 567.3c60.6 24.6 129.4 52.4 187 108.1 66.3 63.9 107.4 154.3 125.8 276.5l-1.6.2Z" fill="#245C5C"/><path d="M441 972.4C380.9 690.3 224.7 628.6 99.1 578.9c-61.9-24.5-115.3-45.6-147.5-88.2C-83.7 444-89 375.6-64.9 275.4l1.6.4C-87.2 375.5-82 443.5-47.1 489.7c32 42.3 85.2 63.3 146.8 87.7C225.6 627.2 382.2 689.1 442.5 972l-1.5.4Z" fill="#245C5C"/><path d="M465.799 992.7c-79.2-290.7-241.6-353.4-372-403.7-62.5-24.1-116.6-45-148.4-87.1-34.7-45.8-39.4-113.8-14.9-214.1l1.6.4c-52.9 216.4 37.3 251.2 162.2 299.3 64.6 24.9 137.8 53.1 205 111.7 77.7 67.7 132.7 163.6 168 293.1l-1.5.4Z" fill="#245C5C"/><path d="M1273.5 35.7c-.4.3-.7.7-1.1 1-.1-.5-.3-1-.4-1.5-.8-2.8-1.5-5.5-2.3-8.2-.1-.5-.3-1-.4-1.4-.8-2.7-1.5-5.3-2.3-7.9-.1-.5-.3-.9-.4-1.4-.8-2.7-1.6-5.2-2.4-7.7-.1-.4-.3-.9-.4-1.3-.8-2.6-1.7-5.1-2.5-7.5-.2-.5-.3-.9-.5-1.4-.8-2.4-1.7-4.8-2.5-7.1-.2-.5-.3-.9-.5-1.4-.9-2.4-1.8-4.7-2.7-6.9-.2-.4-.3-.8-.5-1.2-.9-2.2-1.8-4.4-2.8-6.5l-.6-1.2c-1-2.2-1.9-4.2-2.9-6.2l-.6-1.2c-1-2-2-3.9-3-5.7l-.6-1.2c-1-1.8-2.1-3.6-3.1-5.3-.2-.4-.5-.7-.7-1.1-1.1-1.7-2.2-3.4-3.4-4.9-.2-.3-.5-.6-.7-1-1.2-1.5-2.3-3-3.5-4.3-.3-.4-.6-.7-1-1.1-1.2-1.3-2.4-2.5-3.6-3.6-.4-.4-.8-.7-1.2-1.1-1.2-1-2.4-2-3.6-2.9-.6-.4-1.1-.8-1.7-1.1-1.2-.8-2.4-1.4-3.6-2-.7-.4-1.4-.7-2.1-1-.4-.2-.9-.3-1.3-.5-22.1-8-47.1 9.2-78.7 30.8-31.5 21.5-70.6 48.3-119.2 57.3-56.901 10.4-115.601-5.1-179.501-47.5l.7-1.1c143.7 95.4 232.401 34.7 297.201-9.7 32.5-22.2 58.2-39.8 81.2-30.4.6.3 1.3.6 1.9.9 1.1.5 2.1 1.1 3.2 1.7.7.4 1.4.9 2.2 1.4.6.4 1.1.8 1.7 1.2 1.1.8 2.1 1.7 3.2 2.7.4.4.8.7 1.2 1.1 1.1 1.1 2.2 2.2 3.3 3.5.3.4.6.7 1 1.1 1.2 1.3 2.3 2.8 3.4 4.3.2.3.5.6.7 1 1.1 1.5 2.2 3.2 3.3 4.9.3.4.5.7.7 1.1 1 1.7 2.1 3.4 3.1 5.2l.6 1.2c1 1.8 2 3.7 3 5.7l.6 1.2c1 2 1.9 4 2.9 6.2l.6 1.2c.9 2.1 1.8 4.2 2.8 6.5.2.4.3.8.5 1.2.9 2.2 1.8 4.5 2.7 6.8.2.5.3.9.5 1.4.9 2.3 1.7 4.6 2.5 7 .2.5.3.9.5 1.4.8 2.4 1.7 4.9 2.5 7.4.1.4.3.9.4 1.3.8 2.5 1.6 5.1 2.4 7.7.1.5.3.9.4 1.4.8 2.6 1.5 5.2 2.3 7.9.1.5.3.9.4 1.4.8 2.7 1.5 5.4 2.3 8.1l.4 1.3Z" fill="#245C5C" fill-opacity=".3"/><path d="M1289.5 21c-.4.3-.7.6-1.1.9-.2-.4-.3-.9-.5-1.3-.9-2.5-1.8-4.9-2.8-7.3-.2-.4-.4-.9-.5-1.3-.9-2.4-1.9-4.7-2.8-7-.2-.4-.4-.9-.6-1.3-1-2.4-2-4.6-2.9-6.9-.2-.4-.3-.8-.5-1.2-1-2.3-2-4.4-3-6.6l-.6-1.2c-1-2.1-2-4.2-3-6.2-.2-.4-.4-.9-.7-1.3-1.1-2.1-2.1-4.1-3.2-6-.2-.4-.4-.7-.6-1.1-1.1-1.9-2.2-3.8-3.3-5.6-.2-.4-.5-.8-.7-1.1-1.1-1.8-2.3-3.6-3.4-5.3-.3-.4-.5-.7-.8-1.1-1.2-1.7-2.3-3.3-3.5-4.8-.3-.4-.6-.7-.8-1.1-1.2-1.5-2.4-3-3.6-4.3-.3-.4-.6-.7-.9-1.1-1.3-1.4-2.6-2.7-3.8-3.9-.3-.3-.6-.6-1-.9-1.3-1.2-2.6-2.3-3.9-3.3-.5-.4-.9-.7-1.4-1-1.3-.9-2.5-1.8-3.8-2.5-.7-.4-1.3-.8-2-1.1-1.2-.6-2.4-1.2-3.6-1.7-.6-.3-1.3-.5-1.9-.8l-1.8-.6c-1.7-.5-3.5-.9-5.2-1.2-1.2-.2-2.4-.3-3.5-.4-22.1-1.6-45.8 15.2-74.8 35.7-64.5 45.6-153.001 108.1-298.201 10.8l.7-1.1C989.999 73.6 1078.1 11.4 1142.4-34c27.7-19.5 50.6-35.8 72.1-36 1.3 0 2.5 0 3.7.1 3.6.3 7.2 1 10.7 2.3.6.2 1.2.5 1.8.7 1.2.5 2.4 1 3.6 1.7.7.3 1.3.7 2 1.1.6.4 1.3.8 1.9 1.2 1.1.7 2.2 1.5 3.3 2.3.5.3.9.7 1.4 1.1 1.2 1 2.5 2.1 3.7 3.2.3.3.6.6 1 .9 1.2 1.2 2.5 2.5 3.7 3.9.3.3.6.7.9 1.1 1.2 1.3 2.3 2.8 3.5 4.3.3.4.6.7.8 1.1 1.1 1.5 2.3 3.1 3.4 4.8.3.4.5.7.8 1.1 1.1 1.7 2.3 3.4 3.4 5.3.2.4.5.7.7 1.1 1.1 1.8 2.2 3.6 3.2 5.5.2.4.4.7.6 1.1 1.1 1.9 2.1 3.9 3.2 5.9.2.4.5.9.7 1.3 1 2 2 4 3 6.1l.6 1.2c1 2.1 2 4.3 3 6.5.2.4.3.8.5 1.1 1 2.2 2 4.5 2.9 6.9.2.4.4.9.6 1.3.9 2.3 1.9 4.6 2.8 6.9.2.4.4.9.5 1.3.9 2.4 1.8 4.8 2.8 7.2 0 .6.2 1 .3 1.4Z" fill="#245C5C" fill-opacity=".3"/><path d="M1304.9 7.9c-.3.3-.7.6-1 .8l-.6-1.2c-1.1-2.2-2.2-4.3-3.2-6.4l-.6-1.2c-1.1-2.1-2.2-4.1-3.3-6.1-.2-.4-.4-.8-.7-1.2-1.1-2.1-2.3-4.1-3.4-6.1l-.6-1c-1.2-2-2.3-3.9-3.5-5.7-.2-.4-.5-.8-.7-1.2-1.1-1.8-2.3-3.6-3.4-5.3-.3-.4-.6-.8-.8-1.2-1.2-1.8-2.4-3.5-3.7-5.1-.3-.3-.5-.7-.8-1-1.2-1.6-2.5-3.2-3.7-4.7-.3-.4-.6-.7-.9-1-1.3-1.5-2.6-3-3.9-4.4-.3-.3-.6-.7-.9-1a71.7 71.7 0 0 0-3.9-3.9c-.4-.4-.7-.7-1.1-1-1.3-1.2-2.6-2.3-4-3.4-.4-.3-.8-.7-1.3-1-1.4-1.1-2.8-2.1-4.2-3-.5-.3-1-.6-1.4-.9-1.4-.8-2.7-1.6-4.1-2.3-.7-.4-1.5-.7-2.3-1.1-1.2-.5-2.4-1-3.6-1.4-.6-.2-1.1-.4-1.7-.6-.9-.3-1.8-.5-2.7-.7-1.6-.4-3.1-.7-4.7-.9-1.3-.2-2.6-.3-3.8-.4-1.7-.1-3.4-.1-5.2 0-.7 0-1.4.1-2 .2-22.7 2.2-46.4 19.5-72.9 38.8-33.2 24.2-70.8 51.5-118.8 60.9-55.8 10.9-114.3-5.1-179-48.9l.7-1.1c145 98.2 232.4 34.5 296.3-12 26.1-19 49.5-36 72-38.9.7-.1 1.4-.2 2.1-.2 1-.1 2-.1 3.1-.2 1.4 0 2.7 0 4.1.1 3.8.2 7.6.9 11.3 2 .5.2 1 .3 1.5.5 1.4.5 2.8 1 4.1 1.7.6.3 1.2.5 1.8.8.7.4 1.5.7 2.2 1.1 1.2.6 2.3 1.3 3.5 2.1.5.3.9.6 1.4.9 1.3.9 2.6 1.8 3.9 2.8.4.3.8.7 1.3 1 1.3 1 2.5 2.1 3.8 3.3.4.3.7.7 1.1 1 1.3 1.2 2.5 2.5 3.8 3.8.3.3.6.7.9 1 1.3 1.4 2.6 2.8 3.8 4.4.3.3.6.7.9 1 1.2 1.5 2.5 3.1 3.7 4.7.3.3.5.7.8 1 1.2 1.6 2.4 3.3 3.6 5.1.3.4.6.8.9 1.3 1.1 1.7 2.3 3.4 3.4 5.2.2.4.5.8.7 1.1 1.2 1.8 2.3 3.7 3.5 5.7.2.3.4.7.6 1 1.1 1.9 2.3 4 3.4 6 .2.4.5.8.7 1.2 1.1 2 2.2 4 3.2 6.1l.6 1.2c1.1 2.1 2.1 4.2 3.2 6.4.1.8.3 1.1.5 1.5Z" fill="#245C5C" fill-opacity=".3"/><path d="M1319.5-3.6c-.4.3-.7.5-1.1.8-.2-.4-.4-.7-.7-1-1.2-1.9-2.5-3.8-3.7-5.6-.3-.4-.5-.7-.8-1.1-1.2-1.8-2.4-3.6-3.7-5.3-.3-.4-.6-.8-.8-1.2-1.3-1.8-2.6-3.6-3.9-5.3-.2-.3-.5-.6-.7-.9-1.3-1.7-2.6-3.3-3.9-4.9-.3-.4-.6-.7-.9-1.1-1.3-1.5-2.5-3-3.8-4.4-.4-.4-.7-.8-1.1-1.2-1.4-1.5-2.7-2.9-4.1-4.3l-.9-.9c-1.4-1.4-2.7-2.7-4.1-3.9-.4-.3-.7-.6-1.1-1-1.4-1.3-2.9-2.4-4.3-3.6l-1.2-.9c-1.4-1.1-2.8-2.1-4.2-3-.5-.3-1-.6-1.4-.9-1.4-.9-2.8-1.7-4.2-2.5-.6-.3-1.2-.7-1.8-1-1.4-.7-2.8-1.4-4.3-2-.8-.3-1.6-.6-2.3-.9-1.3-.5-2.5-.9-3.8-1.3-.5-.2-1-.3-1.5-.4-1.1-.3-2.3-.6-3.4-.8-1.4-.3-2.8-.5-4.1-.6-1.5-.2-2.9-.3-4.3-.3-1.7-.1-3.5 0-5.2.1-.7 0-1.5.1-2.2.2-2.1.2-4.2.5-6.3 1-.5.1-1 .2-1.6.3-22.6 5.2-45.4 22.3-70.7 41.3-33.3 24.9-70.9 53.2-118.7 62.8C983.499 53.7 925.099 37.4 860.199-7l.7-1.1C1006.4 91.4 1089.6 28.9 1156.6-21.2c25.1-18.8 47.8-35.8 70.3-41.3.5-.1 1.1-.3 1.6-.4 1.8-.4 3.7-.7 5.5-1 .7-.1 1.5-.2 2.2-.3.9-.1 1.8-.2 2.8-.2 1.5-.1 3.1-.1 4.6 0 4 .1 8 .7 12 1.8.5.1.9.3 1.4.4 1.6.5 3.1 1 4.6 1.6.6.2 1.1.4 1.7.7.8.3 1.5.7 2.3 1 1.2.5 2.4 1.1 3.6 1.8.6.3 1.2.6 1.8 1 1.3.7 2.6 1.6 3.9 2.4.5.3 1 .6 1.4 1 1.3.9 2.7 1.9 4 3l1.2.9c1.4 1.1 2.8 2.3 4.2 3.5.4.3.7.6 1.1 1 1.3 1.2 2.7 2.5 4 3.9l.9.9c1.3 1.4 2.7 2.8 4 4.2.4.4.7.8 1.1 1.2 1.3 1.4 2.5 2.9 3.8 4.4.3.4.6.7.9 1.1 1.3 1.6 2.6 3.2 3.9 4.9.2.3.5.6.7.9 1.3 1.7 2.6 3.4 3.9 5.2.3.4.6.8.8 1.2 1.2 1.7 2.4 3.4 3.6 5.2.3.4.5.7.8 1.1 1.2 1.8 2.4 3.7 3.7 5.6.1.2.4.6.6.9Z" fill="#245C5C" fill-opacity=".3"/><path d="M1333.6-13.9c-.4.2-.7.5-1.1.8-.3-.3-.5-.6-.8-.9-1.4-1.7-2.7-3.3-4.1-4.8-.3-.3-.6-.7-.9-1-1.3-1.5-2.7-3-4-4.5-.3-.4-.7-.7-1-1.1-1.5-1.6-2.9-3.1-4.3-4.5l-.8-.8c-1.4-1.4-2.9-2.8-4.3-4.1-.4-.3-.7-.7-1.1-1-1.4-1.2-2.8-2.4-4.1-3.6-.5-.4-.9-.7-1.4-1.1-1.5-1.2-3-2.4-4.5-3.5l-1.2-.9c-1.5-1.1-3-2.1-4.4-3.1-.5-.3-.9-.6-1.4-.9-1.5-1-3.1-1.9-4.6-2.7-.5-.3-1.1-.6-1.6-.9-1.5-.8-3-1.5-4.4-2.2-.7-.3-1.4-.6-2-.9-1.4-.6-2.8-1.1-4.2-1.6-1-.3-1.9-.7-2.9-.9-1.3-.4-2.5-.7-3.8-1-.5-.1-1-.2-1.5-.4-1.3-.3-2.5-.5-3.8-.7-1.3-.2-2.6-.4-3.9-.5-1.6-.1-3.2-.2-4.8-.2-1.7 0-3.4 0-5.2.1-.8.1-1.6.1-2.4.2-2.1.2-4.3.6-6.4 1-.6.1-1.1.2-1.7.4-2.4.5-4.8 1.2-7.2 2-.4.1-.9.3-1.3.4-22.2 7.5-44.2 24.4-68.3 43-66.7 51.5-149.8 115.6-296.501 14.2l.8-1.1C1014.3 100.1 1097 36.3 1163.4-14.9c24-18.5 45.9-35.4 68.1-43.1.5-.2.9-.3 1.3-.4 2.2-.7 4.5-1.4 6.7-1.9.6-.1 1.1-.3 1.7-.4 1.8-.4 3.7-.7 5.5-1 .8-.1 1.7-.2 2.5-.3.8-.1 1.6-.2 2.4-.2 1.7-.1 3.4-.2 5.1-.1 4.1.1 8.3.5 12.6 1.4.5.1 1.1.2 1.6.4 1.7.4 3.4.9 5.1 1.4.5.2.9.3 1.4.5.9.3 1.9.7 2.8 1 1.1.4 2.3.9 3.4 1.5.7.3 1.3.6 2 .9 1.3.6 2.7 1.3 4 2.1.5.3 1 .6 1.6.9 1.5.8 2.9 1.7 4.4 2.7.5.3.9.6 1.4.9 1.4.9 2.9 2 4.3 3l1.2.9c1.5 1.1 2.9 2.2 4.4 3.5.5.4.9.7 1.4 1.1 1.4 1.1 2.7 2.3 4.1 3.6.4.3.7.6 1.1 1 1.4 1.3 2.8 2.7 4.2 4.1l.8.8c1.4 1.4 2.9 2.9 4.3 4.5.3.4.7.7 1 1.1 1.3 1.4 2.7 2.9 4 4.5.3.3.6.7.9 1 1.4 1.6 2.7 3.2 4.1 4.8.3.2.6.5.8.8Z" fill="#245C5C" fill-opacity=".3"/><path d="M1347.3-23c-.4.2-.7.5-1.1.7-.3-.3-.6-.6-.9-.8-1.5-1.4-3-2.8-4.4-4.1-.4-.3-.7-.6-1.1-.9-1.5-1.3-2.9-2.5-4.4-3.8-.4-.4-.8-.7-1.3-1-1.6-1.3-3.2-2.6-4.8-3.8-.3-.3-.7-.5-1-.7-1.5-1.2-3.1-2.3-4.6-3.3-.4-.3-.9-.6-1.3-.9-1.5-1-2.9-1.9-4.3-2.8-.6-.4-1.2-.7-1.7-1-1.6-1-3.2-1.9-4.8-2.7-.5-.3-1-.5-1.5-.8-1.6-.8-3.1-1.6-4.7-2.3-.6-.3-1.2-.6-1.8-.8-1.6-.7-3.2-1.3-4.8-1.9-.7-.3-1.5-.5-2.2-.8-1.4-.5-2.9-.9-4.3-1.3l-3.3-.9c-1.2-.3-2.4-.6-3.6-.8-.6-.1-1.3-.2-1.9-.3-1.4-.2-2.9-.4-4.3-.6-1-.1-2-.2-3.1-.3-1.8-.1-3.6-.2-5.4-.1-1.7 0-3.5.1-5.2.2l-2.7.3c-2.1.2-4.2.6-6.3 1-.6.1-1.2.2-1.8.4-2.5.5-4.9 1.2-7.3 1.9-.5.2-.9.3-1.4.5-2.7.9-5.3 1.8-7.9 2.9-.4.2-.8.3-1.2.5-21.7 9.3-42.8 26-65.7 44.2-33.4 26.5-71.3 56.5-118.3 66.3C999 70.3 941 53.6 875.5 7.9l.8-1.1c146.1 102 224.7 39.7 294.1-15.2 22.2-17.6 43.6-34.5 65.8-44.1.4-.2.8-.3 1.2-.5 2.6-1.1 5.1-2 7.7-2.9.5-.2.9-.3 1.4-.5 2.3-.7 4.6-1.4 6.9-1.9.6-.2 1.2-.3 1.8-.4 1.8-.4 3.6-.7 5.4-1 .9-.1 1.8-.3 2.7-.4.7-.1 1.5-.1 2.2-.2 1.9-.2 3.8-.2 5.7-.2 4.2 0 8.4.3 12.6 1l1.8.3c2 .4 4 .8 5.9 1.4.3.1.6.2.9.2 1.1.3 2.1.6 3.2 1s2.3.8 3.4 1.2c.7.3 1.4.5 2.2.8 1.4.6 2.9 1.2 4.3 1.8.6.3 1.2.6 1.8.8 1.5.7 2.9 1.5 4.4 2.2.5.3 1 .5 1.5.8 1.5.8 3.1 1.7 4.6 2.7.6.4 1.1.7 1.7 1.1 1.4.9 2.8 1.8 4.2 2.8.4.3.9.6 1.3.9 1.5 1 3 2.1 4.5 3.3.3.2.6.5 1 .7 1.6 1.2 3.1 2.4 4.7 3.7.4.3.8.7 1.3 1 1.4 1.2 2.9 2.4 4.3 3.7.3.3.7.6 1 .9 1.5 1.3 2.9 2.7 4.4 4.1l1.1 1.1Z" fill="#245C5C" fill-opacity=".3"/><path d="M1360.3-31c-.4.2-.8.5-1.2.7-.3-.3-.7-.5-1-.7-1.6-1.2-3.2-2.3-4.8-3.4l-1.2-.9c-1.6-1.1-3.1-2.1-4.6-3-.5-.3-1-.6-1.5-1-1.7-1.1-3.4-2.1-5.1-3.1-.4-.2-.8-.4-1.2-.7-1.6-.9-3.3-1.8-4.9-2.6-.5-.3-1.1-.6-1.6-.8-1.5-.7-3-1.5-4.4-2.1-.7-.3-1.5-.7-2.2-1-1.7-.7-3.3-1.4-5-2-.6-.3-1.3-.5-1.9-.7-1.6-.6-3.1-1.1-4.7-1.6-.9-.3-1.7-.5-2.6-.7-1.5-.4-3.1-.8-4.6-1.1-1.1-.3-2.3-.5-3.4-.7-1.2-.2-2.4-.4-3.5-.6-.9-.1-1.7-.2-2.6-.3-1.5-.2-3-.3-4.5-.4-.7 0-1.3-.1-2-.1-2-.1-4.1-.1-6.1 0l-5.1.3-3 .3c-2.2.3-4.3.6-6.5 1-.7.1-1.3.3-2 .4-2.4.5-4.8 1.1-7.2 1.9-.5.2-1 .3-1.5.5-2.7.8-5.4 1.8-8.1 2.9-.4.2-.9.3-1.3.5-2.9 1.2-5.8 2.5-8.7 3.9-.4.2-.8.4-1.1.6-21.4 10.8-41.9 27.5-63.1 44.7-69.2 56.2-147.5 119.9-294.702 16.2l.8-1.1C1030.5 117.4 1108.5 54 1177.3-1.9c21.2-17.2 41.7-33.9 63.2-44.8l1.2-.6c2.8-1.4 5.6-2.7 8.5-3.9.4-.2.9-.4 1.3-.5 2.6-1 5.2-2 7.8-2.8.5-.2 1-.3 1.5-.5 2.2-.7 4.5-1.3 6.7-1.8.7-.2 1.3-.3 2-.4 1.8-.4 3.6-.7 5.4-1 1-.2 2-.3 3-.4.6-.1 1.1-.1 1.7-.2 2.1-.2 4.2-.4 6.3-.4 4.1-.1 8.3 0 12.5.5.8.1 1.7.2 2.5.3 2.2.3 4.4.7 6.7 1.2.2 0 .3.1.5.1 1.1.2 2.2.5 3.3.8 1.2.3 2.4.6 3.6 1 .8.3 1.7.5 2.6.8 1.4.5 2.8.9 4.2 1.5.6.2 1.3.5 1.9.7 1.6.6 3.1 1.3 4.7 1.9.7.3 1.5.7 2.2 1 1.4.6 2.8 1.3 4.3 2.1.5.3 1.1.6 1.6.8 1.6.8 3.1 1.7 4.7 2.6.4.2.8.5 1.2.7 1.7 1 3.3 2 5 3 .5.3 1 .6 1.5 1l4.5 3c.4.3.8.6 1.3.9 1.6 1.1 3.2 2.2 4.7 3.4.2.4.5.7.9.9Z" fill="#245C5C" fill-opacity=".3"/><path d="M1373.3-38.2c-.5.2-.9.5-1.4.7-.4-.2-.8-.5-1.2-.7-1.7-1-3.4-1.9-5.1-2.8-.5-.3-1-.5-1.5-.8l-4.8-2.4c-.6-.3-1.3-.6-1.9-.9l-5.4-2.4c-.5-.2-1-.4-1.4-.6-1.7-.7-3.4-1.3-5-1.9-.7-.3-1.4-.5-2-.7-1.5-.5-2.9-1-4.4-1.4l-3-.9c-1.7-.5-3.3-.9-5-1.3-.9-.2-1.8-.4-2.8-.6-1.5-.3-2.9-.6-4.4-.8-1.4-.2-2.8-.4-4.1-.6-1.3-.2-2.6-.3-3.9-.4-2.5-.2-5-.4-7.5-.4h-1.1c-2.3 0-4.5 0-6.8.1-1.2.1-2.4.1-3.5.2-.5 0-1 .1-1.4.1-1.1.1-2.2.2-3.3.4-2.2.3-4.4.6-6.5 1.1-.7.1-1.4.3-2.2.4-2.5.6-5 1.2-7.4 1.9-.6.2-1.1.3-1.6.5-2.7.8-5.4 1.8-8 2.8-.5.2-.9.4-1.3.5-3 1.2-5.9 2.5-8.9 3.9l-1.2.6c-3.1 1.5-6.3 3.2-9.3 4.9-.4.2-.7.4-1.1.6-20.5 11.8-40.1 28-60.2 44.8-35.2 29.3-71.6 59.7-117.9 69.7-52.4 11.4-109.9-5.8-175.7-52.6l.8-1.1c146.4 104.2 220.4 42.5 292-17.1 20.2-16.8 39.8-33.2 60.4-45 .4-.2.7-.4 1.1-.6 3-1.7 6.1-3.3 9.2-4.8l1.2-.6c2.8-1.4 5.7-2.6 8.6-3.8.5-.2.9-.4 1.4-.5 2.5-1 5.1-1.9 7.7-2.7.5-.2 1.1-.3 1.6-.5 2.3-.7 4.5-1.3 6.8-1.8.7-.2 1.5-.3 2.2-.5 1.7-.4 3.5-.7 5.3-1 1.1-.2 2.2-.4 3.4-.5.4-.1.7-.1 1.1-.1 1.1-.1 2.3-.3 3.4-.4 1.3-.1 2.5-.2 3.8-.3 5.2-.3 10.4-.1 15.7.4 2.4.2 4.8.5 7.2.9.1 0 .3 0 .4.1 1.4.2 2.7.5 4.1.8 1.1.2 2.1.5 3.2.7.9.2 1.8.4 2.7.7 1.5.4 3 .8 4.4 1.2 1 .3 2 .6 2.9.9 1.4.4 2.7.9 4.1 1.4.7.2 1.4.5 2 .7 1.6.6 3.2 1.2 4.8 1.9.5.2 1 .4 1.4.6 1.8.7 3.5 1.5 5.3 2.4.6.3 1.3.6 1.9.9 1.6.7 3.1 1.5 4.7 2.3.5.3 1 .5 1.5.8 1.7.9 3.3 1.8 5 2.8.1.3.5.5.9.8Z" fill="#245C5C" fill-opacity=".3"/><path d="M1385.9-44.6c-.6.3-1.1.5-1.7.8-.5-.2-.9-.4-1.4-.6-1.8-.7-3.6-1.5-5.3-2.1-.6-.2-1.2-.5-1.8-.7-1.6-.6-3.3-1.2-4.9-1.8-.8-.3-1.6-.5-2.3-.8-1.9-.6-3.8-1.2-5.6-1.7-.6-.2-1.2-.3-1.8-.5-1.7-.5-3.3-.9-5-1.3l-2.7-.6c-1.3-.3-2.6-.6-3.9-.8-1.4-.3-2.8-.5-4.2-.7-1.6-.2-3.1-.5-4.6-.6-1.4-.2-2.9-.3-4.3-.5-.9-.1-1.8-.2-2.8-.2-3.1-.2-6.1-.3-9-.3h-.9c-2.6 0-5.1.2-7.6.4-1.6.1-3.2.3-4.8.5-1.2.1-2.4.3-3.6.5-2.1.3-4.2.7-6.4 1.1-.8.2-1.6.3-2.4.5-2.5.6-5 1.2-7.4 1.9-.6.2-1.2.3-1.8.5-2.8.8-5.5 1.8-8.2 2.8-.5.2-1 .4-1.4.6-2.9 1.1-5.8 2.3-8.7 3.7l-1.2.6c-3.2 1.5-6.4 3.1-9.5 4.8-.4.2-.8.4-1.1.6-3.4 1.9-6.7 3.8-10 5.9-.4.2-.7.5-1.1.7-19.7 12.5-38.4 28.4-57.3 44.6-71.4 60.8-145.2 123.8-292.401 18l.8-1.1C1046 134.8 1119.4 72.2 1190.4 11.7c19.2-16.4 37.9-32.3 57.6-44.8.4-.2.7-.5 1.1-.7 3.2-2 6.5-4 9.8-5.8.4-.2.8-.4 1.1-.6 3.1-1.7 6.2-3.3 9.3-4.7.4-.2.8-.4 1.3-.6 2.8-1.3 5.6-2.5 8.4-3.6.5-.2 1-.4 1.4-.5 2.6-1 5.2-1.9 7.8-2.7.6-.2 1.2-.4 1.8-.5 2.2-.7 4.5-1.3 6.8-1.8l2.4-.6c1.7-.4 3.4-.7 5.1-1 1.1-.2 2.3-.4 3.4-.6h.3c.2 0 .4-.1.6-.1 2.6-.4 5.3-.7 7.9-.8 5.5-.4 11.1-.4 16.7-.1 2.6.1 5.2.4 7.7.7.4 0 .7.1 1.1.1 1.1.1 2.1.3 3.2.4 1.1.2 2.2.4 3.4.6 1.4.2 2.8.5 4.2.8 1.1.2 2.2.5 3.3.7l2.7.6c1.5.4 3.1.8 4.6 1.3.6.2 1.2.3 1.8.5 1.8.5 3.6 1.1 5.4 1.7.8.3 1.5.5 2.3.8 1.6.6 3.1 1.1 4.7 1.7.6.2 1.2.5 1.8.7 1.7.7 3.4 1.4 5.2 2.1.4.1.9.3 1.3.5Z" fill="#245C5C" fill-opacity=".3"/><path d="M1397.9-50.1c-.6.3-1.2.6-1.9.8-.5-.2-1.1-.3-1.6-.5-1.8-.5-3.7-1.1-5.5-1.5-.7-.2-1.5-.4-2.2-.6-1.6-.4-3.3-.8-4.9-1.2-1-.2-2-.4-2.9-.6-2-.4-3.9-.8-5.8-1.1-.8-.1-1.6-.3-2.4-.4-1.6-.3-3.2-.5-4.8-.7-1.3-.2-2.5-.3-3.8-.4l-3-.3c-2.2-.2-4.4-.3-6.6-.4-1.3-.1-2.5-.1-3.8-.1h-6.8c-.8 0-1.5 0-2.3.1-2 .1-4.1.2-6.1.4-1.8.1-3.6.3-5.4.6-1.4.2-2.8.4-4.1.6-1.9.3-3.8.6-5.7 1-.3.1-.6.1-1 .2-.9.2-1.7.4-2.6.6-2.5.6-5 1.2-7.4 1.9-.6.2-1.3.4-1.9.6-2.8.8-5.5 1.8-8.3 2.7l-1.5.6c-3 1.1-6 2.3-8.9 3.6-.4.2-.9.4-1.3.6-3.2 1.4-6.3 3-9.4 4.6l-1.2.6c-3.4 1.8-6.8 3.8-10.2 5.8-.4.2-.7.4-1.1.7-3.6 2.2-7.2 4.5-10.7 6.9-.4.2-.7.5-1.1.7-19.1 13-36.9 28.6-54.4 43.9-35.4 30.8-72 62.7-117.4 72.9-50.9 11.4-107.7-6.3-173.8-54.2l.8-1.1c65.7 47.7 122.2 65.3 172.7 54 45.1-10.1 81.5-41.9 116.8-72.6 17.6-15.4 35.6-31 54.8-44.1.4-.3.7-.5 1.1-.7 3.5-2.4 7-4.6 10.5-6.8.4-.2.7-.4 1.1-.7 3.3-2 6.6-3.9 10-5.7l1.2-.6c3-1.6 6.1-3.1 9.1-4.5.4-.2.9-.4 1.3-.6 2.8-1.3 5.7-2.5 8.6-3.6l1.5-.6c2.6-.9 5.2-1.8 7.8-2.6.6-.2 1.3-.4 2-.6l6.6-1.8c.9-.2 1.8-.4 2.6-.6 1.1-.2 2.2-.5 3.3-.7l1.8-.3c1.4-.3 2.8-.5 4.2-.7.2 0 .3-.1.5-.1 2.8-.4 5.7-.8 8.6-1 5.4-.5 10.8-.7 16.3-.5 2.7.1 5.4.2 8.2.4h.4c2 .2 4 .4 6.1.6.5.1 1 .1 1.6.2 1.2.2 2.5.3 3.7.5 1.4.2 2.8.4 4.1.7.8.1 1.6.3 2.4.4 1.8.3 3.6.7 5.4 1.1 1 .2 2 .4 3 .7 1.5.4 3.1.7 4.6 1.2.7.2 1.5.4 2.2.6 1.8.5 3.5 1 5.3 1.5.5-.2 1.1 0 1.6.2Z" fill="#245C5C" fill-opacity=".3"/><path d="M1410-55.2c-.7.3-1.3.5-2 .8-.7-.1-1.3-.3-2-.4-1.8-.4-3.7-.7-5.5-1-.9-.2-1.9-.3-2.8-.4-1.6-.2-3.1-.5-4.6-.7-1.3-.2-2.6-.3-3.9-.5-1.9-.2-3.8-.4-5.7-.5-1.1-.1-2.2-.2-3.3-.2-1.3-.1-2.7-.2-4-.2-1.8-.1-3.6-.1-5.3-.1h-.6c-4.2 0-8.4.1-12.5.4-.3 0-.6 0-.9.1-2.9.2-5.7.5-8.4.8-1.2.1-2.4.3-3.6.5-1.5.2-3 .5-4.4.7-2.2.4-4.4.8-6.6 1.3-1 .2-1.9.4-2.9.6-2.6.6-5.1 1.3-7.7 2l-2.1.6c-2.8.8-5.5 1.7-8.1 2.7-.6.2-1.1.4-1.7.6-3 1.1-6 2.3-9 3.5-.5.2-.9.4-1.4.6-3.2 1.4-6.4 2.9-9.6 4.5l-1.2.6c-3.4 1.7-6.7 3.5-10 5.4-.4.2-.8.4-1.1.7-3.7 2.1-7.3 4.4-10.8 6.7-.4.2-.7.5-1.1.7-3.8 2.5-7.6 5.1-11.3 7.8-.4.3-.7.5-1.1.8-17.9 13.1-34.7 28.1-51.4 43-73.4 65.4-142.7 127.1-289.8 19.4l.8-1.1c146.2 107.1 215.1 45.7 288.1-19.3 16.7-14.9 33.6-30 51.8-43.2.4-.3.7-.5 1.1-.8 3.7-2.7 7.4-5.3 11.2-7.7.4-.2.7-.5 1.1-.7 3.5-2.3 7.1-4.5 10.7-6.6.4-.2.7-.4 1.1-.6 3.2-1.9 6.5-3.6 9.8-5.3l1.2-.6c3.1-1.6 6.2-3 9.4-4.4.5-.2.9-.4 1.4-.6 2.8-1.2 5.7-2.4 8.6-3.5.6-.2 1.1-.4 1.7-.6 2.5-.9 5.1-1.8 7.7-2.6l2.1-.6c2.3-.7 4.5-1.3 6.8-1.9h.2c.9-.2 1.8-.5 2.8-.7 1.7-.4 3.3-.7 5-1.1l3.3-.6c.4-.1.8-.1 1.2-.2 2.8-.5 5.7-.9 8.6-1.2 5.8-.7 11.6-1 17.6-1.1 2.8 0 5.6 0 8.5.1 1.5.1 3 .1 4.6.2.4 0 .9.1 1.3.1.9.1 1.7.1 2.6.2 1.1.1 2.1.2 3.2.3 1.7.2 3.3.4 5 .6 1.3.2 2.5.3 3.8.5l4.2.6c.9.2 1.8.3 2.8.5 1.7.3 3.5.6 5.2 1 .6-.2 1.3 0 1.9.1Z" fill="#245C5C" fill-opacity=".3"/><path d="M1422.1-59.7c-1.1.4-2.2.8-3.2 1.2-.8-.1-1.7-.2-2.5-.2-1.9-.2-3.7-.3-5.5-.5-1.2-.1-2.5-.2-3.7-.2-1.4-.1-2.8-.1-4.2-.2-1.8-.1-3.7-.1-5.5-.1h-5.9c-1.8 0-3.5.1-5.3.2-1.2 0-2.3.1-3.5.2-1 .1-1.9.1-2.9.2-3 .2-6 .5-8.9.9-.5 0-.9.1-1.4.2-1.9.2-3.8.5-5.7.8-1.7.3-3.3.5-5 .8-2.2.4-4.3.8-6.5 1.3-1.1.2-2.1.5-3.2.7-2.7.6-5.4 1.3-8 2-.8.2-1.5.4-2.3.7-3 .9-5.9 1.8-8.8 2.8l-1.8.6c-3 1.1-6 2.2-9 3.4l-1.5.6c-3.3 1.4-6.6 2.8-9.8 4.4-.4.2-.9.4-1.3.6-3.5 1.7-6.9 3.5-10.3 5.3l-1.2.6c-3.6 2-7.2 4.1-10.7 6.3-.4.2-.7.5-1.1.7-3.9 2.4-7.7 5-11.5 7.6-.4.2-.7.5-1.1.7-4.1 2.8-8 5.8-12 8.8-.4.3-.7.6-1.1.8-17.1 13.2-33 27.6-48.4 41.6-37.2 33.8-72.2 65.7-116.7 75.8-50 11.4-104.5-6.3-171.5-55.9l.8-1.1c66.7 49.3 120.8 67 170.4 55.7C1137 97.5 1171.9 65.7 1209 32c15.8-14.3 31.7-28.8 48.8-42 .4-.3.7-.6 1.1-.8 3.9-3 7.8-5.9 11.8-8.7.4-.2.7-.5 1.1-.7 3.7-2.6 7.5-5.1 11.3-7.5.4-.2.7-.5 1.1-.7 3.4-2.1 6.9-4.2 10.4-6.2.4-.2.8-.5 1.2-.7 3.3-1.8 6.6-3.6 10-5.3.4-.2.9-.4 1.3-.6 3.1-1.5 6.2-2.9 9.4-4.3l1.5-.6c2.8-1.2 5.6-2.3 8.5-3.3.6-.2 1.2-.4 1.8-.7 2.6-.9 5.3-1.8 8-2.7.8-.2 1.6-.5 2.4-.7.2 0 .3-.1.5-.1 2.1-.6 4.2-1.2 6.3-1.7 1.1-.3 2.1-.5 3.2-.8 1.3-.3 2.7-.6 4-.9 1.5-.3 3.1-.6 4.6-.9.2 0 .3-.1.5-.1 3.1-.6 6.2-1.1 9.4-1.5 5.9-.8 11.9-1.3 17.9-1.6 3-.1 6-.2 9.1-.2h5c1.2 0 2.5.1 3.7.1 1.8.1 3.5.2 5.3.3 1.1.1 2.1.1 3.2.2l3.6.3c1.6.1 3.2.3 4.9.5.6 0 1.4.1 2.2.2Z" fill="#245C5C" fill-opacity=".3"/><path d="M1434.4-63.8c-1.3.4-2.5.8-3.8 1.2-1.1 0-2.2-.1-3.2-.1-1.7 0-3.3-.1-5-.1-1.7 0-3.4 0-5.1.1-.9 0-1.8 0-2.7.1-2.8.1-5.6.2-8.4.4-1.6.1-3.2.2-4.8.4-1.5.1-3 .3-4.5.4-2.2.2-4.3.5-6.4.8-2.6.3-5.1.7-7.6 1.1-.5.1-1.1.2-1.6.3-1.6.3-3.3.6-4.9.9-2.4.5-4.8 1-7.1 1.5-1.2.3-2.3.6-3.5.8-2.4.6-4.8 1.2-7.2 1.9-.9.2-1.7.5-2.6.8-2.9.9-5.7 1.8-8.5 2.8-.7.2-1.3.5-2 .7-3.2 1.1-6.3 2.3-9.3 3.5-.5.2-1.1.4-1.6.7-3.2 1.3-6.4 2.7-9.5 4.2-.5.2-.9.4-1.4.6-3.5 1.7-6.9 3.4-10.3 5.2-.4.2-.8.4-1.2.7-3.7 2-7.3 4-10.8 6.2-.4.2-.8.5-1.1.7-3.8 2.3-7.5 4.7-11.2 7.2-.4.2-.7.5-1.1.7-4.1 2.8-8.1 5.6-12 8.5-.4.3-.7.5-1.1.8-4.3 3.2-8.5 6.5-12.6 9.8-.4.3-.7.6-1.1.9-15.9 12.9-30.8 26.7-45.3 40.2-37.2 34.5-72.3 67.1-116.4 77.2-49.2 11.3-103.301-6.7-170.301-56.8l.8-1.1C1075.7 168.2 1140.2 108.3 1215 39c14.7-13.6 29.7-27.5 45.8-40.6.4-.3.7-.6 1.1-.9 4.1-3.3 8.2-6.5 12.4-9.7.4-.3.7-.5 1.1-.8 3.9-2.9 7.9-5.7 11.9-8.5.4-.2.7-.5 1.1-.7 3.6-2.4 7.3-4.8 11.1-7.1.4-.2.7-.5 1.1-.7 3.5-2.1 7-4.1 10.6-6.1.4-.2.8-.4 1.2-.7 3.3-1.8 6.6-3.5 10-5.1.5-.2.9-.4 1.4-.7 3-1.4 6.1-2.8 9.2-4.1.5-.2 1.1-.5 1.6-.7 2.9-1.2 5.9-2.4 8.9-3.4.7-.3 1.3-.5 2-.7 2.6-.9 5.2-1.8 7.9-2.6.9-.3 1.7-.5 2.6-.8 2-.6 4-1.2 6.1-1.7l3.6-.9c1.4-.4 2.7-.7 4.1-1 .3-.1.5-.1.8-.2 1.6-.4 3.3-.7 5-1.1 3.1-.6 6.3-1.2 9.5-1.7 6.3-1 12.8-1.8 19.5-2.2 3-.2 6-.4 9-.5h1.4c2.2-.1 4.4-.1 6.7-.1h.7c1.6 0 3.3 0 5 .1 1.3 0 2.6.1 4 .1.8.2 1.9.2 3 .3Z" fill="#245C5C" fill-opacity=".3"/><path d="M1446.6-67.5c-1.4.4-2.9.8-4.3 1.2-1.5 0-3 .1-4.5.2-1.2 0-2.3.1-3.5.2-1.9.1-3.8.2-5.6.4-.7.1-1.5.1-2.2.2-4 .3-7.9.8-11.7 1.3-1.1.1-2.1.3-3.2.5-3.4.5-6.8 1.1-10.2 1.7-.8.1-1.7.3-2.5.5-2.5.5-4.9 1-7.4 1.6-1.5.3-3 .7-4.5 1.1-1.1.3-2.3.6-3.4.9-2.7.7-5.3 1.4-7.9 2.2-.9.3-1.9.6-2.8.8-2.7.8-5.3 1.7-7.9 2.6-.7.3-1.5.5-2.2.8-3.1 1.1-6.1 2.3-9.1 3.5-.6.2-1.2.5-1.7.7-3.3 1.4-6.6 2.8-9.9 4.3-.5.2-1 .5-1.5.7-3.4 1.6-6.8 3.2-10.1 5-.4.2-.8.4-1.3.7-3.7 1.9-7.3 3.9-10.8 6-.4.2-.8.4-1.2.7-3.9 2.3-7.7 4.6-11.4 7-.4.2-.7.5-1.1.7-4 2.6-7.9 5.3-11.8 8.1-.4.3-.7.5-1.1.8-4.3 3.1-8.5 6.3-12.6 9.5-.4.3-.7.6-1.1.8-4.5 3.5-8.9 7.1-13.2 10.8-.4.3-.7.6-1.1.9-14.8 12.6-28.7 25.7-42.2 38.5-37.2 35.2-72.4 68.4-116 78.5-48.3 11.2-102-7.1-169-57.6l.8-1.1c66.6 50.2 120 68.5 167.9 57.4 43.2-10 78.3-43.1 115.4-78.1 13.5-12.7 27.6-26 42.7-38.9.4-.3.7-.6 1.1-.9 4.3-3.6 8.6-7.2 13.1-10.6.4-.3.7-.6 1.1-.8 4.1-3.2 8.2-6.3 12.5-9.4.4-.3.7-.5 1.1-.8 3.8-2.7 7.7-5.4 11.7-8 .4-.2.7-.5 1.1-.7 3.7-2.4 7.4-4.7 11.2-7 .4-.2.8-.5 1.2-.7 3.5-2 7-4 10.7-5.9.4-.2.9-.5 1.3-.7 3.2-1.7 6.5-3.3 9.9-4.9.5-.2 1-.5 1.5-.7 3.2-1.5 6.4-2.9 9.6-4.2.6-.3 1.2-.5 1.7-.7 2.4-1 4.9-1.9 7.3-2.9.5-.2.9-.3 1.4-.5.7-.3 1.5-.5 2.2-.8 2.4-.9 4.9-1.7 7.4-2.5.9-.3 1.9-.6 2.8-.9 2.3-.7 4.6-1.4 6.9-2 1.1-.3 2.3-.6 3.5-.9.8-.2 1.7-.4 2.5-.6 1.4-.4 2.7-.7 4.1-1 1.2-.3 2.4-.5 3.5-.8 3.4-.7 6.9-1.4 10.4-2 6.2-1.1 12.5-1.9 19-2.6 3-.3 6.1-.6 9.2-.8 2.4-.2 4.9-.3 7.3-.4h.5c.6 0 1.2-.1 1.7-.1 1.7-.2 3.2-.2 4.7-.3Z" fill="#245C5C" fill-opacity=".3"/><path d="M1460.1-71c-3.2.8-6.3 1.6-9.4 2.4-2.4.3-4.8.5-7.2.8-.9.1-1.7.2-2.6.3-.4.1-.7.1-1.1.2-3.8.5-7.5 1.1-11.1 1.8l-4.8.9h-.1c-.8.2-1.6.3-2.4.5l-6.9 1.5c-2.2.5-4.5 1-6.7 1.6-1.7.4-3.3.9-5 1.3-2.4.6-4.7 1.3-7.1 2-.9.3-1.8.5-2.7.8-3.1.9-6.1 1.9-9.1 3-.8.3-1.6.6-2.4.8l-9 3.3c-.6.3-1.3.5-1.9.8-3.4 1.3-6.7 2.8-9.9 4.2-.5.2-1 .5-1.6.7-3.6 1.6-7.2 3.3-10.7 5.1-.5.2-.9.5-1.4.7-3.6 1.8-7.2 3.8-10.7 5.7-.4.2-.8.5-1.2.7-3.9 2.2-7.7 4.5-11.5 6.8-.4.2-.7.5-1.1.7-4.1 2.5-8.1 5.2-12 7.8-.4.2-.7.5-1.1.7-4.2 2.9-8.4 5.9-12.4 8.9-.4.3-.7.5-1.1.8-4.5 3.4-8.9 6.8-13.2 10.4-.4.3-.7.6-1.1.9-4.7 3.9-9.3 7.8-13.8 11.7-.4.3-.7.6-1.1.9-13.8 12.2-26.8 24.6-39.2 36.5-38.9 37.4-72.5 69.7-115.5 79.7-47.5 11-100.7-7.6-167.701-58.5l.8-1.1C1090 184.6 1150.3 126.6 1226.6 53.2c12.5-12.1 25.6-24.7 39.7-37 .4-.3.7-.6 1.1-.9 4.5-3.9 9-7.8 13.7-11.6.4-.3.7-.6 1.1-.9 4.3-3.5 8.6-6.9 13.1-10.3l1.1-.8c4-3 8.1-6 12.3-8.8.4-.3.7-.5 1.1-.7 3.9-2.7 7.8-5.3 11.8-7.8.4-.2.7-.5 1.1-.7 3.7-2.3 7.4-4.5 11.3-6.7.4-.2.8-.5 1.2-.7 3.4-1.9 6.9-3.8 10.5-5.6.5-.2.9-.5 1.4-.7 3.4-1.7 6.8-3.4 10.3-5 .5-.2 1-.5 1.6-.7 3.1-1.4 6.3-2.8 9.5-4.1.5-.2.9-.4 1.4-.6.2-.1.4-.2.6-.2 2.8-1.1 5.5-2.2 8.3-3.2.8-.3 1.6-.6 2.4-.8 2.7-1 5.4-1.9 8.2-2.8.9-.3 1.8-.6 2.7-.8 1.8-.6 3.6-1.1 5.4-1.6 1.7-.5 3.4-1 5.2-1.5 1.2-.3 2.4-.6 3.5-.9 1.8-.5 3.6-.9 5.4-1.3.6-.1 1.2-.3 1.8-.4 3.3-.8 6.6-1.5 10-2.1 6.5-1.3 13-2.3 19.6-3.1 3.4-.4 6.8-.8 10.2-1.1 2-.2 3.9-.4 5.9-.5.3-.2.7-.2 1-.3Z" fill="#245C5C" fill-opacity=".3"/><path d="M1479-75c-5.9 1.1-11.8 2.4-17.4 3.7-.8.1-1.7.3-2.5.4-4.3.7-8.6 1.5-12.8 2.3-1.8.4-3.5.7-5.3 1.1-.2 0-.4.1-.6.1-2 .4-4 .9-6 1.4l-7.2 1.8c-1.6.4-3.2.9-4.8 1.3-2.6.7-5.1 1.5-7.6 2.2l-3.9 1.2c-2.7.9-5.4 1.8-8 2.7-.8.3-1.5.5-2.2.8-3.3 1.2-6.5 2.4-9.6 3.6-.7.3-1.4.5-2 .8-3.2 1.3-6.4 2.6-9.6 4-.6.3-1.2.5-1.8.8-3.5 1.6-7 3.2-10.4 4.9-.5.2-1 .5-1.5.7-3.8 1.9-7.5 3.8-11.2 5.8-.4.2-.9.5-1.3.7-3.8 2.1-7.6 4.3-11.3 6.5-.4.2-.8.5-1.2.7-4.1 2.5-8.1 5-12 7.6-.4.2-.7.5-1.1.7-4.3 2.8-8.5 5.7-12.5 8.7-.4.2-.7.5-1.1.8-4.4 3.2-8.8 6.5-13 9.8-.4.3-.7.5-1 .8-4.7 3.7-9.3 7.5-13.8 11.3-.4.3-.7.6-1 .9-4.9 4.2-9.7 8.4-14.4 12.7-.4.3-.7.7-1.1 1-12.7 11.6-24.6 23.2-36.1 34.5-38.9 38-72.5 70.9-115 80.8-46.6 10.8-99.4-8-166.302-59.4l.8-1c66.502 51.1 119.002 69.9 165.202 59.2 42.2-9.8 75.7-42.5 114.4-80.4 11.7-11.4 23.8-23.2 36.6-35 .4-.3.7-.6 1.1-1 4.7-4.2 9.4-8.4 14.3-12.6.3-.3.7-.6 1-.9 4.4-3.8 9-7.5 13.7-11.2.3-.3.7-.5 1-.8 4.2-3.3 8.5-6.5 12.8-9.7.4-.3.7-.5 1.1-.8 4-2.9 8.2-5.8 12.4-8.6.4-.3.7-.5 1.1-.7 3.9-2.6 7.8-5.1 11.8-7.5.4-.3.8-.5 1.2-.7 3.6-2.2 7.3-4.3 11.1-6.4.4-.2.9-.5 1.3-.7 3.6-2 7.2-3.9 10.9-5.7.5-.3 1-.5 1.5-.7 3.3-1.6 6.7-3.2 10.1-4.8.6-.3 1.2-.5 1.8-.8 3-1.3 6.1-2.6 9.1-3.9.7-.3 1.4-.6 2.1-.8 3-1.2 6-2.4 9-3.5.7-.3 1.5-.6 2.2-.8 2.4-.8 4.7-1.7 7.1-2.5 1.3-.4 2.6-.9 4-1.3 2-.6 4.1-1.3 6.1-1.9 1.6-.5 3.3-1 4.9-1.4.6-.2 1.1-.3 1.7-.5h.1c.8-.2 1.7-.5 2.6-.7 2-.5 4-1 6-1.6 3.4-.8 6.9-1.6 10.4-2.4 6.9-1.5 14.1-2.8 21.4-3.9 4.9-.5 9.8-1.1 14.7-1.7Z" fill="#245C5C" fill-opacity=".3"/><path d="M1479-75c-5.9 1.1-11.8 2.4-17.4 3.7-.5.1-.9.2-1.4.3-3.2.8-6.3 1.6-9.4 2.4-1.4.4-2.7.7-4.1 1.1-1.4.4-2.9.8-4.3 1.2-2.7.8-5.4 1.6-8 2.4-1.3.4-2.5.8-3.8 1.2-2.9.9-5.7 1.9-8.5 2.9-1.1.4-2.2.8-3.2 1.2-3 1.1-5.9 2.2-8.8 3.4-.7.3-1.3.5-2 .8-3.4 1.4-6.8 2.8-10.2 4.3-.6.3-1.2.6-1.9.8-3.4 1.5-6.8 3.1-10.1 4.7-.6.3-1.1.5-1.7.8-3.7 1.8-7.4 3.7-10.9 5.6-.5.2-.9.5-1.4.7-4 2.1-7.8 4.3-11.6 6.5-.4.2-.8.5-1.2.7-4 2.4-7.9 4.8-11.8 7.3-.4.2-.7.5-1.1.7-4.3 2.7-8.4 5.5-12.5 8.4-.4.2-.7.5-1.1.8-4.4 3.1-8.8 6.3-13 9.5-.4.3-.7.5-1.1.8-4.6 3.5-9.1 7.1-13.5 10.7-.3.3-.7.6-1 .8-4.9 4-9.7 8.1-14.3 12.3-.4.3-.7.6-1.1.9-5.1 4.5-10.1 9.1-15 13.7-.4.3-.7.7-1.1 1-11.5 10.8-22.4 21.7-33 32.2-38.9 38.7-72.4 72.1-114.5 81.8-45.7 10.6-98.1-8.5-164.9-60.3l.8-1c143.9 111.6 200 55.8 277.6-21.4 10.7-10.7 21.8-21.7 33.6-32.7.4-.4.7-.7 1.1-1 4.9-4.5 9.8-9.1 14.9-13.6.4-.3.7-.6 1.1-.9 4.6-4.1 9.4-8.1 14.3-12.1.3-.3.7-.6 1-.8 4.4-3.6 8.8-7.1 13.4-10.6.4-.3.7-.5 1-.8 4.2-3.2 8.5-6.3 12.9-9.4.4-.3.7-.5 1.1-.7 4-2.8 8.2-5.6 12.4-8.3.4-.2.7-.5 1.1-.7 3.8-2.4 7.7-4.8 11.7-7.2.4-.2.8-.5 1.2-.7 3.8-2.2 7.6-4.3 11.5-6.4.5-.3.9-.5 1.4-.7 3.5-1.9 7.1-3.7 10.7-5.5.6-.3 1.1-.5 1.7-.8 1.9-.9 3.7-1.8 5.6-2.7 1.4-.7 2.8-1.3 4.3-1.9.6-.3 1.2-.6 1.9-.8 3.2-1.5 6.5-2.8 9.8-4.2.6-.3 1.3-.6 2-.8 2.8-1.1 5.5-2.2 8.3-3.2 1.1-.4 2.2-.8 3.2-1.2 2.6-.9 5.1-1.8 7.7-2.7 1.3-.4 2.5-.8 3.8-1.3 2.2-.7 4.5-1.4 6.7-2.1 1.4-.4 2.8-.9 4.3-1.3.5-.2 1-.3 1.4-.4.9-.3 1.8-.5 2.7-.8l6.9-1.8c3.7-1 7.5-1.9 11.2-2.7 4.8-.9 9.7-1.5 14.6-2.1Z" fill="#245C5C" fill-opacity=".3"/></g><defs><clipPath id="a"><path fill="#fff" d="M0 0h1600v415H0z"/></clipPath></defs></svg>