<svg width="1600" height="415" viewBox="0 0 1600 415" fill="none" xmlns="http://www.w3.org/2000/svg">
<g clip-path="url(#clip0_1132_1888)">
<path d="M1601 -1H-1V416H1601V-1Z" fill="#001A38"/>
<path opacity="0.2" d="M1601 -1H-1V416H1601V-1Z" fill="#001A38"/>
<path d="M1293.3 438L1291.7 437.6C1324.2 295.6 1326.9 223.3 1300.7 195.9C1280.3 174.5 1243.2 181.2 1196.3 189.7C1150.5 198 1093.4 208.3 1034.7 193.9C966.101 177.1 908.401 130.3 858.301 51.0001L859.701 50.1001C972.301 228.5 1101.7 205.1 1196.1 188.1C1243.5 179.6 1280.9 172.8 1302 194.8C1328.5 222.7 1325.9 295.4 1293.3 438Z" fill="white" fill-opacity="0.2"/>
<path d="M1325.3 436.5L1323.7 436.2C1344.8 304.1 1341.5 233.1 1313.3 205.8C1289.7 183.1 1250.7 190.7 1201.3 200.4C1106.3 219 976.302 244.4 863.102 63.2001L864.502 62.3C977.102 242.6 1106.6 217.3 1201.1 198.8C1251 189 1290.3 181.3 1314.5 204.7C1343.1 232.4 1346.5 303.9 1325.3 436.5Z" fill="white" fill-opacity="0.2"/>
<path d="M1357.3 435L1355.7 434.9C1366.5 310.6 1357.5 242.9 1326.6 215.6C1299.4 191.5 1256.2 200.6 1206.2 211.2C1157.1 221.5 1101.4 233.3 1043.1 219.7C975.4 203.9 918.1 156.8 867.9 75.5001L869.3 74.6001C981.9 256.7 1111.3 229.5 1205.9 209.5C1256.4 198.9 1299.9 189.7 1327.7 214.3C1359 242 1368.2 310.1 1357.3 435Z" fill="white" fill-opacity="0.2"/>
<path d="M1389.3 433.5H1387.7C1388.9 318.1 1373.9 251.8 1340.6 224.9C1309.2 199.6 1263.6 209.8 1210.8 221.7C1161.2 232.9 1105 245.5 1047 232.3C980.001 217.1 923.001 169.7 872.701 87.6L874.101 86.8C986.601 270.6 1110.7 242.7 1210.5 220.2C1263.7 208.2 1309.7 197.9 1341.7 223.7C1375.4 250.9 1390.5 317.5 1389.3 433.5Z" fill="white" fill-opacity="0.2"/>
<path d="M1419.7 432.1C1412 323.5 1391.6 260.5 1355.3 234C1319.2 207.6 1271.1 219.1 1215.4 232.4C1115.2 256.4 990.4 286.3 877.5 99.8L878.9 99C991.2 284.4 1115.3 254.7 1215 230.8C1271.1 217.4 1319.6 205.7 1356.3 232.6C1392.9 259.5 1413.6 322.8 1421.3 431.9L1419.7 432.1Z" fill="white" fill-opacity="0.2"/>
<path d="M1451.7 430.7C1435.8 328.4 1410 268.6 1370.6 242.6C1329.3 215.3 1278.5 228.2 1219.8 243C1169.3 255.8 1112 270.3 1054.6 257.8C988.801 243.4 932.501 195.8 882.301 112L883.701 111.2C995.701 298.1 1114.5 268 1219.4 241.5C1276.1 227.1 1329.6 213.6 1371.5 241.3C1411.3 267.6 1437.3 327.7 1453.3 430.5L1451.7 430.7Z" fill="white" fill-opacity="0.2"/>
<path d="M1483.7 429.4C1460.3 334.2 1428.4 275.8 1386.3 250.8C1339.3 223 1283.3 237.9 1224 253.7C1118.7 281.8 999.402 313.6 887.102 124.3L888.502 123.5C1000.1 311.8 1118.8 280.1 1223.6 252.2C1283.2 236.3 1339.5 221.3 1387.1 249.5C1429.6 274.7 1461.7 333.4 1485.3 429.1L1483.7 429.4Z" fill="white" fill-opacity="0.2"/>
<path d="M1515.8 428C1481.1 326.2 1439.5 270 1385 251C1336.5 234.1 1283.8 248.8 1228.1 264.4C1174.1 279.5 1118.3 295.1 1061.7 283.2C997.5 269.7 942 221.7 892 136.5L893.4 135.7C1004.6 325.2 1118 293.5 1227.7 262.9C1283.7 247.3 1336.6 232.5 1385.6 249.5C1440.6 268.7 1482.5 325.2 1517.4 427.5L1515.8 428Z" fill="white" fill-opacity="0.2"/>
<path d="M1547.8 426.6C1452.3 210.8 1345.3 242 1232 275.1C1121.9 307.2 1008.1 340.5 896.801 148.7L898.201 147.9C1008.9 338.6 1122.1 305.5 1231.6 273.5C1289.1 256.7 1343.5 240.8 1396.8 255.9C1457.1 273 1505.6 327 1549.3 425.9L1547.8 426.6Z" fill="white" fill-opacity="0.2"/>
<path d="M1579.8 425.2C1528.2 331.4 1471.9 278.7 1407.6 264C1350.3 251 1292 268.7 1235.7 285.8C1180.8 302.5 1124 319.8 1068.2 308.4C1005.7 295.6 951.2 247.4 901.5 160.9L902.9 160.1C952.3 246.2 1006.5 294.1 1068.5 306.8C1123.8 318.1 1180.4 300.9 1235.2 284.3C1291.7 267.1 1350.2 249.3 1407.9 262.5C1472.7 277.3 1529.4 330.2 1581.2 424.5L1579.8 425.2Z" fill="white" fill-opacity="0.2"/>
<path d="M1611.9 423.8C1477.5 221.4 1356.4 259.6 1239.4 296.6C1124.8 332.8 1016.6 366.9 906.5 173.1L907.9 172.3C1017.4 365 1125 331 1238.9 295C1297 276.7 1357.1 257.7 1419.2 268.9C1489.3 281.5 1552.8 331.9 1613.3 422.9L1611.9 423.8Z" fill="white" fill-opacity="0.2"/>
<path d="M1643.9 422.4C1490 226.6 1358.6 269.5 1242.8 307.4C1184.4 326.5 1129.3 344.5 1074.6 333.6C1013.1 321.3 961.201 274.2 911.301 185.4L912.701 184.6C962.401 273 1013.9 319.8 1074.9 332C1129.2 342.9 1184.2 324.9 1242.3 305.9C1302 286.4 1363.7 266.2 1430.3 275.4C1505.8 285.8 1576.1 333.6 1645.2 421.5L1643.9 422.4Z" fill="white" fill-opacity="0.2"/>
<path d="M1676 421C1502.5 231.7 1366.3 277.7 1246.1 318.2C1187.3 338 1131.8 356.8 1077.6 346C1017.1 334 965.802 286.8 916.102 197.4L917.502 196.6C1025.5 390.9 1127.5 356.4 1245.6 316.6C1366.3 275.9 1503 229.7 1677.2 419.8L1676 421Z" fill="white" fill-opacity="0.2"/>
<path d="M1708 419.6C1514.8 236.7 1373.7 285.8 1249.2 329.2C1190 349.8 1134.2 369.2 1080.5 358.7C1021 347 970.301 299.7 920.801 209.8L922.201 209C971.401 298.4 1021.8 345.5 1080.8 357.1C1134 367.6 1189.7 348.2 1248.6 327.7C1308.6 306.8 1376.6 283.1 1452.2 288.2C1538.6 294 1622.7 336.6 1709.1 418.5L1708 419.6Z" fill="white" fill-opacity="0.2"/>
<path d="M1740 418.2C1527.1 241.6 1374.6 296.2 1252.1 340.1C1190 362.3 1136.4 381.6 1083.3 371.1C1024.8 359.6 974.7 312.2 925.5 221.9L926.9 221.1C1033.4 416.7 1129.6 382.2 1251.5 338.5C1313.1 316.4 1382.9 291.4 1463 294.5C1555 298 1645.9 338 1741 416.9L1740 418.2Z" fill="white" fill-opacity="0.2"/>
<path d="M1772.1 416.8C1539.3 246.5 1381.7 304.6 1255 351.2C1192.6 374.2 1138.7 394 1086.2 383.7C1028.8 372.4 979.3 324.9 930.4 234.2L931.8 233.4C980.4 323.7 1029.6 370.9 1086.5 382.1C1138.5 392.3 1192.2 372.5 1254.4 349.6C1381.4 302.8 1539.5 244.6 1773 415.4L1772.1 416.8Z" fill="white" fill-opacity="0.2"/>
<path d="M1804.1 415.4C1551.3 251.4 1388.5 312.9 1257.7 362.3C1195 386 1140.8 406.4 1089 396.3C1032.7 385.2 983.801 337.6 935.201 246.5L936.601 245.7C1041.3 442.3 1131.8 408.1 1257 360.8C1321.8 336.3 1395.1 308.6 1484.3 307.5C1587.4 306.2 1692.3 341 1804.9 414.1L1804.1 415.4Z" fill="white" fill-opacity="0.2"/>
<path d="M1884.6 150.9L1883.2 151.6C1816.3 22.3 1771.7 -34.7 1734 -38.7C1704.6 -41.8 1680.6 -12.8 1650.3 23.9C1620.6 59.8 1583.7 104.5 1529.6 131.4C1466.3 162.9 1392.1 164.4 1302.6 136.2L1303.1 134.7C1504.2 198.2 1588 96.9 1649.1 22.9C1679.8 -14.2 1704 -43.6 1734.3 -40.3C1772.5 -36.2 1817.5 21 1884.6 150.9Z" fill="#245C5C" fill-opacity="0.3"/>
<path d="M1908.1 129.1L1906.7 129.9C1837.5 15.5 1789.2 -36.7 1750 -39.3C1717.3 -41.5 1692.5 -10.4 1661 28.8C1600.5 104.3 1517.6 207.7 1314.1 142.4L1314.6 140.9C1517 205.9 1599.5 103 1659.7 27.8C1691.5 -11.8 1716.6 -43.2 1750.1 -40.9C1789.9 -38.3 1838.6 14.2 1908.1 129.1Z" fill="#245C5C" fill-opacity="0.3"/>
<path d="M1931.6 107.3L1930.3 108.2C1858.2 6.29992 1807.7 -39.5001 1766.4 -40.5001C1730.1 -41.3001 1703 -6.50008 1671.6 33.8999C1640.8 73.4999 1605.8 118.4 1552.5 145.7C1490.6 177.3 1416.4 178.3 1325.6 148.7L1326.1 147.2C1529.7 213.6 1610.9 109.2 1670.2 32.9999C1701.9 -7.70008 1729.2 -42.9001 1766.4 -42.0001C1808.3 -41.1001 1859.2 4.89993 1931.6 107.3Z" fill="#245C5C" fill-opacity="0.3"/>
<path d="M1955.1 85.4998L1953.9 86.4998C1880.2 -2.40017 1826 -43.3002 1783.2 -42.4002C1742.9 -41.5002 1714.7 -4.20016 1682.1 38.9998C1651.4 79.4998 1616.7 125.5 1563.9 152.9C1502.8 184.5 1428.7 185.2 1337.3 154.9L1337.8 153.4C1542.4 221.2 1619.1 119.6 1680.8 38.0998C1713.7 -5.40016 1742.1 -43.0002 1783.2 -43.9002C1826.5 -44.9002 1881.1 -3.80017 1955.1 85.4998Z" fill="#245C5C" fill-opacity="0.3"/>
<path d="M1977.4 64.7999C1901.4 -13.2001 1845.1 -48.1001 1800.3 -45.0001C1755.7 -41.9001 1726.4 -2.00015 1692.4 44.1999C1631.3 127.3 1555.4 230.6 1348.8 161.1L1349.3 159.6C1554.8 228.7 1630.3 125.9 1691.1 43.2999C1725.3 -3.20015 1754.8 -43.4001 1800.2 -46.5001C1845.5 -49.6001 1902.2 -14.6002 1978.5 63.7999L1977.4 64.7999Z" fill="#245C5C" fill-opacity="0.3"/>
<path d="M2000.9 43.0998C1922.7 -24.7002 1864.4 -53.7002 1817.5 -48.2002C1768.3 -42.4002 1737.9 0.199833 1702.6 49.4998C1672.3 91.8998 1637.9 139.9 1586 167.4C1526.5 198.9 1452.7 198.9 1360.3 167.3L1360.8 165.8C1567 236.2 1638.3 136.5 1701.2 48.4998C1735.2 0.999832 1767.3 -44.0002 1817.2 -49.9002C1864.6 -55.5002 1923.2 -26.4002 2001.8 41.7998L2000.9 43.0998Z" fill="#245C5C" fill-opacity="0.3"/>
<path d="M2024.5 21.4C1945.2 -36.2 1883.1 -60.2 1834.8 -52.1C1780.9 -43 1747.8 4.60004 1712.7 54.9C1650.4 144.3 1579.8 245.7 1371.9 173.6L1372.4 172.1C1579.2 243.8 1649.4 143 1711.4 54.1C1746.7 3.50004 1780 -44.4 1834.5 -53.6C1883.2 -61.8 1945.7 -37.7 2025.4 20.2L2024.5 21.4Z" fill="#245C5C" fill-opacity="0.3"/>
<path d="M2048 -0.300152C1955.8 -55.6002 1887.7 -71.7002 1833.8 -51.0002C1785.9 -32.6002 1755.2 12.5998 1722.7 60.4998C1691.2 106.9 1658.7 154.8 1607.7 182.3C1549.9 213.4 1476.6 212.6 1383.4 179.8L1383.9 178.3C1591.2 251.3 1657.3 153.8 1721.3 59.5998C1754 11.4998 1784.8 -33.9002 1833.2 -52.5002C1887.6 -73.4002 1956.1 -57.2001 2048.8 -1.70015L2048 -0.300152Z" fill="#245C5C" fill-opacity="0.3"/>
<path d="M2071.6 -22.1001C1859.3 -125.3 1797.8 -32.3001 1732.6 66.0999C1669.3 161.7 1603.8 260.6 1395 186L1395.5 184.5C1603.1 258.7 1668.2 160.3 1731.2 65.2C1764.3 15.2 1795.5 -32.0001 1846 -54.9001C1903.1 -80.8001 1975 -70.8001 2072.2 -23.6001L2071.6 -22.1001Z" fill="#245C5C" fill-opacity="0.3"/>
<path d="M2095.2 -43.8001C1995.2 -82.1001 1918.2 -86.0001 1859.6 -55.7001C1807.4 -28.7001 1774.4 22.4999 1742.4 71.8999C1711.2 120.1 1679 170 1629.1 197.3C1573.1 227.9 1500.3 226.3 1406.6 192.3L1407.2 190.8C1500.5 224.6 1572.8 226.3 1628.4 195.9C1678 168.8 1710.1 119.1 1741.1 71.0999C1773.2 21.4999 1806.3 -29.8001 1858.9 -57.1001C1917.9 -87.7001 1995.4 -83.8001 2095.8 -45.3001L2095.2 -43.8001Z" fill="#245C5C" fill-opacity="0.3"/>
<path d="M2118.8 -65.6001C1885.5 -133.4 1817.7 -26.0001 1752.2 77.7999C1688 179.4 1627.4 275.4 1418.2 198.5L1418.8 197C1626.8 273.5 1687 178 1750.8 76.9999C1783.3 25.4999 1817 -27.8001 1871.6 -59.4001C1933.3 -95.1001 2014.3 -97.6001 2119.2 -67.1001L2118.8 -65.6001Z" fill="#245C5C" fill-opacity="0.3"/>
<path d="M2142.3 -87.2999C1898.3 -137.5 1825.7 -19.8999 1761.7 83.8001C1729.4 136 1699 185.4 1650.1 212.4C1595.2 242.7 1525.2 240.3 1429.7 204.7L1430.3 203.2C1525.3 238.6 1594.9 241.1 1649.4 211C1697.9 184.2 1728.2 135 1760.4 83.0001C1793.4 29.6001 1827.5 -25.6999 1884.3 -61.6999C1948.7 -102.5 2033.2 -111.4 2142.8 -88.8999L2142.3 -87.2999Z" fill="#245C5C" fill-opacity="0.3"/>
<path d="M2165.9 -109.1C1911.1 -141.7 1836.8 -18.5999 1771.2 90.0001C1739.1 143.1 1708.8 193.3 1660.5 220C1606.5 249.9 1536.9 247 1441.2 210.8L1441.8 209.3C1649.7 287.9 1705.4 195.8 1769.8 89.1001C1835.6 -19.8999 1910.3 -143.5 2166 -110.8L2165.9 -109.1Z" fill="#245C5C" fill-opacity="0.3"/>
<path d="M2189.5 -130.8C1923.9 -145.8 1847.8 -17.1001 1780.7 96.3999C1748.8 150.3 1718.7 201.2 1670.9 227.8C1617.9 257.3 1548.6 253.9 1452.8 217.2L1453.4 215.7C1548.7 252.2 1617.5 255.6 1670.1 226.4C1717.5 200.1 1747.5 149.3 1779.3 95.5999C1811.6 40.8999 1848.3 -21.1002 1909.3 -66.0002C1979.1 -117.4 2070.8 -139.1 2189.6 -132.4L2189.5 -130.8Z" fill="#245C5C" fill-opacity="0.3"/>
<path d="M2213 -152.6C1936.4 -150 1855.2 -9.79996 1790 102.8C1756.9 159.9 1728.4 209.2 1681.2 235.5C1629.1 264.5 1560.2 260.6 1464.4 223.4L1465 221.9C1672.6 302.5 1723.8 214 1788.7 102C1821.5 45.4001 1858.6 -18.8 1921.8 -68.2C1994.3 -124.9 2089.6 -153.1 2213.1 -154.2L2213 -152.6Z" fill="#245C5C" fill-opacity="0.3"/>
<path d="M2236.6 -174.3C1948.9 -154.1 1865.9 -8.00015 1799.3 109.4C1766.5 167.2 1738.1 217.2 1691.4 243.2C1640.3 271.7 1571.8 267.3 1475.9 229.6L1476.5 228.1C1571.9 265.7 1640 270 1690.6 241.8C1736.9 216 1765.1 166.2 1797.9 108.6C1864.7 -9.10014 1947.9 -155.6 2236.4 -175.9L2236.6 -174.3Z" fill="#245C5C" fill-opacity="0.3"/>
<path d="M2260.1 -196.1C1961.2 -158.1 1876.5 -6.10005 1808.5 116.1C1775.9 174.7 1747.7 225.3 1701.6 250.9C1651.4 278.8 1583.4 274 1487.5 235.8L1488.1 234.3C1695 316.8 1742 232.3 1807.1 115.3C1840.8 54.8 1878.9 -13.7 1946.3 -72.2C2024.2 -139.8 2126.8 -180.9 2259.9 -197.8L2260.1 -196.1Z" fill="#245C5C" fill-opacity="0.3"/>
<path d="M69.9003 669.2L69.0003 667.9C187.8 583.6 238 531.5 236.8 493.7C235.8 464.2 203.7 444.4 163.1 419.5C123.4 395.1 74.0003 364.8 39.8003 314.9C-0.199726 256.6 -12.0997 183.3 3.40028 90.8L5.00028 91C-29.8997 299 82.1003 367.8 163.9 418.1C204.9 443.3 237.4 463.2 238.4 493.6C239.6 532.1 189.2 584.6 69.9003 669.2Z" fill="#245C5C"/>
<path d="M94.6992 689.4L93.6992 688.1C197.399 603.6 242.399 548.5 239.499 509.4C237.099 476.8 202.899 456.5 159.599 430.7C76.3992 381.4 -37.5008 313.7 -1.20078 103.1L0.399223 103.4C-35.8008 312.9 77.5992 380.3 160.399 429.4C204.099 455.3 238.599 475.8 241.099 509.3C243.999 549.1 198.899 604.6 94.6992 689.4Z" fill="#245C5C"/>
<path d="M119.599 709.6L118.499 708.4C209.399 622.9 247.799 566.4 242.999 525.5C238.799 489.4 200.499 467.4 156.099 441.9C112.599 416.9 63.2988 388.5 28.7988 339.6C-11.1012 282.7 -22.5012 209.4 -5.80115 115.4L-4.20115 115.7C-41.6012 326.5 73.0988 392.5 156.799 440.6C201.499 466.3 240.099 488.5 244.499 525.4C249.499 566.9 210.899 623.7 119.599 709.6Z" fill="#245C5C"/>
<path d="M144.499 729.8L143.299 728.7C221.099 643.4 254.099 584 247.199 541.8C240.699 502 199.799 479.3 152.499 453C108.099 428.3 57.6988 400.3 23.2988 351.8C-16.5012 295.7 -27.5012 222.4 -10.3012 127.7L-8.70119 128C-47.3012 340 63.8988 401.9 153.299 451.6C200.999 478.1 242.199 501 248.799 541.6C255.799 584.3 222.599 644.1 144.499 729.8Z" fill="#245C5C"/>
<path d="M168.099 749C234.799 662.9 261.499 602.3 252.099 558.4C242.799 514.6 199.299 491.2 148.799 464C58.0986 415.1 -54.9014 354.3 -14.8014 140L-13.2014 140.3C-53.0014 353.4 59.2986 413.9 149.599 462.6C200.399 490 244.299 513.6 253.699 558.1C263.099 602.5 236.299 663.5 169.399 750.1L168.099 749Z" fill="#245C5C"/>
<path d="M192.899 769.3C249.199 682.4 269.799 620.6 257.799 575C245.199 527.1 198.799 502.9 144.999 474.8C98.7989 450.7 46.3989 423.3 11.9989 375.7C-27.5011 321.2 -37.7011 248.1 -19.3011 152.2L-17.7011 152.5C-58.7011 366.5 49.8989 423.2 145.799 473.3C197.599 500.4 246.599 525.9 259.399 574.5C271.499 620.6 250.899 682.8 194.299 770.1L192.899 769.3Z" fill="#245C5C"/>
<path d="M217.6 789.6C263.6 703 278.7 638.2 263.9 591.6C247.4 539.5 195.7 513.3 140.9 485.6C43.6996 436.4 -66.5004 380.6 -24.1003 164.6L-22.5003 164.9C-64.6003 379.7 44.9996 435.2 141.8 484.2C196.8 512.1 248.9 538.4 265.6 591.1C280.5 638.2 265.3 703.4 219.1 790.4L217.6 789.6Z" fill="#245C5C"/>
<path d="M242.399 810C284.299 711 290.799 641.3 262.799 590.9C237.899 546 188.799 521.9 136.899 496.4C86.5994 471.6 34.5995 446 0.299458 399.4C-38.6005 346.5 -48.0005 273.8 -28.5005 176.9L-26.9005 177.2C-70.3005 392.6 35.3994 444.5 137.699 494.8C189.899 520.4 239.199 544.6 264.299 590C292.599 640.9 286.099 711 243.999 810.5L242.399 810Z" fill="#245C5C"/>
<path d="M267.2 830.3C339.8 605.7 239.2 557.7 132.7 506.9C29.1997 457.5 -77.8003 406.4 -33.0003 189.3L-31.4003 189.6C-76.0003 405.5 30.4997 456.3 133.4 505.4C187.5 531.2 238.6 555.6 268.3 602.4C301.9 655.3 302 727.9 268.8 830.8L267.2 830.3Z" fill="#245C5C"/>
<path d="M292.099 850.6C316.199 746.3 309.299 669.4 271.099 615.7C237.099 567.8 181.799 542.2 128.399 517.4C76.299 493.3 22.499 468.3 -11.501 422.6C-49.601 371.4 -58.101 299.1 -37.501 201.5L-35.901 201.8C-56.401 298.9 -48.001 370.8 -10.201 421.5C23.499 467 77.099 491.8 128.999 515.9C182.599 540.7 237.999 566.4 272.299 614.7C310.799 668.9 317.699 746.1 293.599 850.9L292.099 850.6Z" fill="#245C5C"/>
<path d="M316.899 870.9C351.499 630.4 235.799 578.3 123.899 527.8C14.3992 478.4 -89.1008 431.8 -42.1008 213.9L-40.5008 214.2C-87.2008 430.8 15.5992 477.2 124.599 526.3C180.099 551.3 237.599 577.2 276.499 627C320.399 683.1 334.199 763 318.599 871.2L316.899 870.9Z" fill="#245C5C"/>
<path d="M341.7 891.2C357.4 642.6 230.9 587.1 119.2 538.1C63.0002 513.5 9.90022 490.2 -23.6998 445.6C-61.3998 395.5 -68.6998 325.8 -46.6998 226.2L-45.0998 226.5C-66.8998 325.5 -59.6998 394.8 -22.3998 444.5C10.9002 488.8 63.8002 512 119.8 536.6C177.3 561.8 236.8 587.9 280.3 639.1C329.7 697.2 350.3 779.6 343.2 891.2H341.7Z" fill="#245C5C"/>
<path d="M366.5 911.5C363.3 654.7 231.1 598.2 114.4 548.4C57.4001 524 3.50014 501 -29.7999 456.9C-66.8999 407.6 -73.7999 338.2 -51.2999 238.5L-49.6999 238.9C-98.4999 455.7 0.400139 498 115 546.9C232.1 596.9 364.9 653.6 368.1 911.5H366.5Z" fill="#245C5C"/>
<path d="M391.3 931.8C369.2 666.7 231.2 609.3 109.4 558.6C51.5998 534.6 -3.00016 511.9 -35.9002 468.3C-72.5002 419.9 -78.8002 350.8 -55.8002 250.9L-54.2002 251.3C-77.1002 350.7 -70.9002 419.4 -34.6002 467.4C-1.90016 510.7 52.4998 533.3 110.1 557.3C168.8 581.7 235.3 609.4 288.2 663.5C348.8 725.5 383 813.2 392.9 931.8H391.3Z" fill="#245C5C"/>
<path d="M416.2 952.1C375.1 678.6 225 617.7 104.4 568.8C43.3001 544 -9.49994 522.6 -42.0999 479.5C-78.0999 432 -83.8999 363.2 -60.3999 263.1L-58.7999 263.5C-109.7 480.3 -14.9999 518.7 105 567.3C165.6 591.9 234.4 619.7 292 675.4C358.3 739.3 399.4 829.7 417.8 951.9L416.2 952.1Z" fill="#245C5C"/>
<path d="M441 972.4C380.9 690.3 224.7 628.6 99.0997 578.9C37.1997 554.4 -16.2003 533.3 -48.4003 490.7C-83.7003 444 -89.0003 375.6 -64.9003 275.4L-63.3003 275.8C-87.2003 375.5 -82.0003 443.5 -47.1003 489.7C-15.1003 532 38.0997 553 99.6997 577.4C225.6 627.2 382.2 689.1 442.5 972L441 972.4Z" fill="#245C5C"/>
<path d="M465.799 992.7C386.599 702 224.199 639.3 93.7994 589C31.2994 564.9 -22.8006 544 -54.6006 501.9C-89.3006 456.1 -94.0006 388.1 -69.5006 287.8L-67.9006 288.2C-120.801 504.6 -30.6006 539.4 94.2994 587.5C158.899 612.4 232.099 640.6 299.299 699.2C376.999 766.9 431.999 862.8 467.299 992.3L465.799 992.7Z" fill="#245C5C"/>
<path d="M1273.5 35.7C1273.1 36 1272.8 36.4 1272.4 36.7C1272.3 36.2 1272.1 35.7 1272 35.2C1271.2 32.4 1270.5 29.7 1269.7 27C1269.6 26.5 1269.4 26 1269.3 25.6C1268.5 22.9 1267.8 20.3 1267 17.7C1266.9 17.2 1266.7 16.8 1266.6 16.3C1265.8 13.6 1265 11.1 1264.2 8.60003C1264.1 8.20003 1263.9 7.70003 1263.8 7.30003C1263 4.70003 1262.1 2.20003 1261.3 -0.199974C1261.1 -0.699974 1261 -1.09998 1260.8 -1.59998C1260 -3.99998 1259.1 -6.39997 1258.3 -8.69997C1258.1 -9.19997 1258 -9.59997 1257.8 -10.1C1256.9 -12.5 1256 -14.8 1255.1 -17C1254.9 -17.4 1254.8 -17.8 1254.6 -18.2C1253.7 -20.4 1252.8 -22.6 1251.8 -24.7C1251.6 -25.1 1251.4 -25.5 1251.2 -25.9C1250.2 -28.1 1249.3 -30.1 1248.3 -32.1C1248.1 -32.5 1247.9 -32.9 1247.7 -33.3C1246.7 -35.3 1245.7 -37.2 1244.7 -39C1244.5 -39.4 1244.3 -39.8 1244.1 -40.2C1243.1 -42 1242 -43.8 1241 -45.5C1240.8 -45.9 1240.5 -46.2 1240.3 -46.6C1239.2 -48.3 1238.1 -50 1236.9 -51.5C1236.7 -51.8 1236.4 -52.1 1236.2 -52.5C1235 -54 1233.9 -55.5 1232.7 -56.8C1232.4 -57.2 1232.1 -57.5 1231.7 -57.9C1230.5 -59.2 1229.3 -60.4 1228.1 -61.5C1227.7 -61.9 1227.3 -62.2 1226.9 -62.6C1225.7 -63.6 1224.5 -64.6 1223.3 -65.5C1222.7 -65.9 1222.2 -66.3 1221.6 -66.6C1220.4 -67.4 1219.2 -68 1218 -68.6C1217.3 -69 1216.6 -69.3 1215.9 -69.6C1215.5 -69.8 1215 -69.9 1214.6 -70.1C1192.5 -78.1 1167.5 -60.9 1135.9 -39.3C1104.4 -17.8 1065.3 9.00003 1016.7 18C959.799 28.4 901.099 12.9 837.199 -29.5L837.899 -30.6C981.599 64.8 1070.3 4.10003 1135.1 -40.3C1167.6 -62.5 1193.3 -80.1 1216.3 -70.7C1216.9 -70.4 1217.6 -70.1 1218.2 -69.8C1219.3 -69.3 1220.3 -68.7 1221.4 -68.1C1222.1 -67.7 1222.8 -67.2 1223.6 -66.7C1224.2 -66.3 1224.7 -65.9 1225.3 -65.5C1226.4 -64.7 1227.4 -63.8 1228.5 -62.8C1228.9 -62.4 1229.3 -62.1 1229.7 -61.7C1230.8 -60.6 1231.9 -59.5 1233 -58.2C1233.3 -57.8 1233.6 -57.5 1234 -57.1C1235.2 -55.8 1236.3 -54.3 1237.4 -52.8C1237.6 -52.5 1237.9 -52.2 1238.1 -51.8C1239.2 -50.3 1240.3 -48.6 1241.4 -46.9C1241.7 -46.5 1241.9 -46.2 1242.1 -45.8C1243.1 -44.1 1244.2 -42.4 1245.2 -40.6C1245.4 -40.2 1245.6 -39.8 1245.8 -39.4C1246.8 -37.6 1247.8 -35.7 1248.8 -33.7C1249 -33.3 1249.2 -32.9 1249.4 -32.5C1250.4 -30.5 1251.3 -28.5 1252.3 -26.3C1252.5 -25.9 1252.7 -25.5 1252.9 -25.1C1253.8 -23 1254.7 -20.9 1255.7 -18.6C1255.9 -18.2 1256 -17.8 1256.2 -17.4C1257.1 -15.2 1258 -12.9 1258.9 -10.6C1259.1 -10.1 1259.2 -9.69997 1259.4 -9.19997C1260.3 -6.89997 1261.1 -4.59998 1261.9 -2.19997C1262.1 -1.69997 1262.2 -1.29997 1262.4 -0.799973C1263.2 1.60003 1264.1 4.10003 1264.9 6.60003C1265 7.00003 1265.2 7.50002 1265.3 7.90002C1266.1 10.4 1266.9 13 1267.7 15.6C1267.8 16.1 1268 16.5 1268.1 17C1268.9 19.6 1269.6 22.2 1270.4 24.9C1270.5 25.4 1270.7 25.8 1270.8 26.3C1271.6 29 1272.3 31.7 1273.1 34.4L1273.5 35.7Z" fill="#245C5C" fill-opacity="0.3"/>
<path d="M1289.5 21C1289.1 21.3 1288.8 21.6 1288.4 21.9C1288.2 21.5 1288.1 21 1287.9 20.6C1287 18.1 1286.1 15.7 1285.1 13.3C1284.9 12.9 1284.7 12.4 1284.6 12C1283.7 9.6 1282.7 7.3 1281.8 5C1281.6 4.6 1281.4 4.1 1281.2 3.7C1280.2 1.3 1279.2 -0.899994 1278.3 -3.2C1278.1 -3.6 1278 -4 1277.8 -4.4C1276.8 -6.7 1275.8 -8.8 1274.8 -11C1274.6 -11.4 1274.4 -11.8 1274.2 -12.2C1273.2 -14.3 1272.2 -16.4 1271.2 -18.4C1271 -18.8 1270.8 -19.3 1270.5 -19.7C1269.4 -21.8 1268.4 -23.8 1267.3 -25.7C1267.1 -26.1 1266.9 -26.4 1266.7 -26.8C1265.6 -28.7 1264.5 -30.6 1263.4 -32.4C1263.2 -32.8 1262.9 -33.2 1262.7 -33.5C1261.6 -35.3 1260.4 -37.1 1259.3 -38.8C1259 -39.2 1258.8 -39.5 1258.5 -39.9C1257.3 -41.6 1256.2 -43.2 1255 -44.7C1254.7 -45.1 1254.4 -45.4 1254.2 -45.8C1253 -47.3 1251.8 -48.8 1250.6 -50.1C1250.3 -50.5 1250 -50.8 1249.7 -51.2C1248.4 -52.6 1247.1 -53.9 1245.9 -55.1C1245.6 -55.4 1245.3 -55.7 1244.9 -56C1243.6 -57.2 1242.3 -58.3 1241 -59.3C1240.5 -59.7 1240.1 -60 1239.6 -60.3C1238.3 -61.2 1237.1 -62.1 1235.8 -62.8C1235.1 -63.2 1234.5 -63.6 1233.8 -63.9C1232.6 -64.5 1231.4 -65.1 1230.2 -65.6C1229.6 -65.9 1228.9 -66.1 1228.3 -66.4C1227.7 -66.6 1227.1 -66.8 1226.5 -67C1224.8 -67.5 1223 -67.9 1221.3 -68.2C1220.1 -68.4 1218.9 -68.5 1217.8 -68.6C1195.7 -70.2 1172 -53.4 1143 -32.9C1078.5 12.7 989.999 75.2 844.799 -22.1L845.499 -23.2C989.999 73.6 1078.1 11.4 1142.4 -34C1170.1 -53.5 1193 -69.8 1214.5 -70C1215.8 -70 1217 -70 1218.2 -69.9C1221.8 -69.6 1225.4 -68.9 1228.9 -67.6C1229.5 -67.4 1230.1 -67.1 1230.7 -66.9C1231.9 -66.4 1233.1 -65.9 1234.3 -65.2C1235 -64.9 1235.6 -64.5 1236.3 -64.1C1236.9 -63.7 1237.6 -63.3 1238.2 -62.9C1239.3 -62.2 1240.4 -61.4 1241.5 -60.6C1242 -60.3 1242.4 -59.9 1242.9 -59.5C1244.1 -58.5 1245.4 -57.4 1246.6 -56.3C1246.9 -56 1247.2 -55.7 1247.6 -55.4C1248.8 -54.2 1250.1 -52.9 1251.3 -51.5C1251.6 -51.2 1251.9 -50.8 1252.2 -50.4C1253.4 -49.1 1254.5 -47.6 1255.7 -46.1C1256 -45.7 1256.3 -45.4 1256.5 -45C1257.6 -43.5 1258.8 -41.9 1259.9 -40.2C1260.2 -39.8 1260.4 -39.5 1260.7 -39.1C1261.8 -37.4 1263 -35.7 1264.1 -33.8C1264.3 -33.4 1264.6 -33.1 1264.8 -32.7C1265.9 -30.9 1267 -29.1 1268 -27.2C1268.2 -26.8 1268.4 -26.5 1268.6 -26.1C1269.7 -24.2 1270.7 -22.2 1271.8 -20.2C1272 -19.8 1272.3 -19.3 1272.5 -18.9C1273.5 -16.9 1274.5 -14.9 1275.5 -12.8C1275.7 -12.4 1275.9 -12 1276.1 -11.6C1277.1 -9.5 1278.1 -7.3 1279.1 -5.1C1279.3 -4.7 1279.4 -4.3 1279.6 -4C1280.6 -1.8 1281.6 0.5 1282.5 2.9C1282.7 3.3 1282.9 3.8 1283.1 4.2C1284 6.5 1285 8.8 1285.9 11.1C1286.1 11.5 1286.3 12 1286.4 12.4C1287.3 14.8 1288.2 17.2 1289.2 19.6C1289.2 20.2 1289.4 20.6 1289.5 21Z" fill="#245C5C" fill-opacity="0.3"/>
<path d="M1304.9 7.8999C1304.6 8.19991 1304.2 8.4999 1303.9 8.6999C1303.7 8.2999 1303.5 7.8999 1303.3 7.4999C1302.2 5.2999 1301.1 3.1999 1300.1 1.0999C1299.9 0.699898 1299.7 0.299904 1299.5 -0.100098C1298.4 -2.2001 1297.3 -4.2001 1296.2 -6.2001C1296 -6.6001 1295.8 -7.0001 1295.5 -7.4001C1294.4 -9.5001 1293.2 -11.5001 1292.1 -13.5001L1291.5 -14.5001C1290.3 -16.5001 1289.2 -18.4001 1288 -20.2001C1287.8 -20.6001 1287.5 -21.0001 1287.3 -21.4001C1286.2 -23.2001 1285 -25.0001 1283.9 -26.7001C1283.6 -27.1001 1283.3 -27.5001 1283.1 -27.9001C1281.9 -29.7001 1280.7 -31.4001 1279.4 -33.0001C1279.1 -33.3001 1278.9 -33.7001 1278.6 -34.0001C1277.4 -35.6001 1276.1 -37.2001 1274.9 -38.7001C1274.6 -39.1001 1274.3 -39.4001 1274 -39.7001C1272.7 -41.2001 1271.4 -42.7001 1270.1 -44.1001C1269.8 -44.4001 1269.5 -44.8001 1269.2 -45.1001C1267.9 -46.5001 1266.6 -47.8001 1265.3 -49.0001C1264.9 -49.4001 1264.6 -49.7001 1264.2 -50.0001C1262.9 -51.2001 1261.6 -52.3001 1260.2 -53.4001C1259.8 -53.7001 1259.4 -54.1001 1258.9 -54.4001C1257.5 -55.5001 1256.1 -56.5001 1254.7 -57.4001C1254.2 -57.7001 1253.7 -58.0001 1253.3 -58.3001C1251.9 -59.1001 1250.6 -59.9001 1249.2 -60.6001C1248.5 -61.0001 1247.7 -61.3001 1246.9 -61.7001C1245.7 -62.2001 1244.5 -62.7001 1243.3 -63.1001C1242.7 -63.3001 1242.2 -63.5001 1241.6 -63.7001C1240.7 -64.0001 1239.8 -64.2001 1238.9 -64.4001C1237.3 -64.8001 1235.8 -65.1001 1234.2 -65.3001C1232.9 -65.5001 1231.6 -65.6001 1230.4 -65.7001C1228.7 -65.8001 1227 -65.8001 1225.2 -65.7001C1224.5 -65.7001 1223.8 -65.6001 1223.2 -65.5001C1200.5 -63.3001 1176.8 -46.0001 1150.3 -26.7001C1117.1 -2.5001 1079.5 24.7999 1031.5 34.1999C975.7 45.0999 917.2 29.0999 852.5 -14.7001L853.2 -15.8001C998.2 82.3999 1085.6 18.6999 1149.5 -27.8001C1175.6 -46.8001 1199 -63.8001 1221.5 -66.7001C1222.2 -66.8001 1222.9 -66.9001 1223.6 -66.9001C1224.6 -67.0001 1225.6 -67.0001 1226.7 -67.1001C1228.1 -67.1001 1229.4 -67.1001 1230.8 -67.0001C1234.6 -66.8001 1238.4 -66.1001 1242.1 -65.0001C1242.6 -64.8001 1243.1 -64.7001 1243.6 -64.5001C1245 -64.0001 1246.4 -63.5001 1247.7 -62.8001C1248.3 -62.5001 1248.9 -62.3001 1249.5 -62.0001C1250.2 -61.6001 1251 -61.3001 1251.7 -60.9001C1252.9 -60.3001 1254 -59.6001 1255.2 -58.8001C1255.7 -58.5001 1256.1 -58.2001 1256.6 -57.9001C1257.9 -57.0001 1259.2 -56.1001 1260.5 -55.1001C1260.9 -54.8001 1261.3 -54.4001 1261.8 -54.1001C1263.1 -53.1001 1264.3 -52.0001 1265.6 -50.8001C1266 -50.5001 1266.3 -50.1001 1266.7 -49.8001C1268 -48.6001 1269.2 -47.3001 1270.5 -46.0001C1270.8 -45.7001 1271.1 -45.3001 1271.4 -45.0001C1272.7 -43.6001 1274 -42.2001 1275.2 -40.6001C1275.5 -40.3001 1275.8 -39.9001 1276.1 -39.6001C1277.3 -38.1001 1278.6 -36.5001 1279.8 -34.9001C1280.1 -34.6001 1280.3 -34.2001 1280.6 -33.9001C1281.8 -32.3001 1283 -30.6001 1284.2 -28.8001C1284.5 -28.4001 1284.8 -28.0001 1285.1 -27.5001C1286.2 -25.8001 1287.4 -24.1001 1288.5 -22.3001C1288.7 -21.9001 1289 -21.5001 1289.2 -21.2001C1290.4 -19.4001 1291.5 -17.5001 1292.7 -15.5001C1292.9 -15.2001 1293.1 -14.8001 1293.3 -14.5001C1294.4 -12.6001 1295.6 -10.5001 1296.7 -8.5001C1296.9 -8.1001 1297.2 -7.7001 1297.4 -7.3001C1298.5 -5.3001 1299.6 -3.30009 1300.6 -1.2001C1300.8 -0.800095 1301 -0.400101 1301.2 -9.91821e-05C1302.3 2.0999 1303.3 4.19991 1304.4 6.3999C1304.5 7.19991 1304.7 7.4999 1304.9 7.8999Z" fill="#245C5C" fill-opacity="0.3"/>
<path d="M1319.5 -3.59998C1319.1 -3.29998 1318.8 -3.09997 1318.4 -2.79997C1318.2 -3.19997 1318 -3.49997 1317.7 -3.79997C1316.5 -5.69997 1315.2 -7.59998 1314 -9.39997C1313.7 -9.79998 1313.5 -10.1 1313.2 -10.5C1312 -12.3 1310.8 -14.1 1309.5 -15.8C1309.2 -16.2 1308.9 -16.6 1308.7 -17C1307.4 -18.8 1306.1 -20.6 1304.8 -22.3C1304.6 -22.6 1304.3 -22.9 1304.1 -23.2C1302.8 -24.9 1301.5 -26.5 1300.2 -28.1C1299.9 -28.5 1299.6 -28.8 1299.3 -29.2C1298 -30.7 1296.8 -32.2 1295.5 -33.6C1295.1 -34 1294.8 -34.4 1294.4 -34.8C1293 -36.3 1291.7 -37.7 1290.3 -39.1C1290 -39.4 1289.7 -39.7 1289.4 -40C1288 -41.4 1286.7 -42.7 1285.3 -43.9C1284.9 -44.2 1284.6 -44.5 1284.2 -44.9C1282.8 -46.2 1281.3 -47.3 1279.9 -48.5C1279.5 -48.8 1279.1 -49.1 1278.7 -49.4C1277.3 -50.5 1275.9 -51.5 1274.5 -52.4C1274 -52.7 1273.5 -53 1273.1 -53.3C1271.7 -54.2 1270.3 -55 1268.9 -55.8C1268.3 -56.1 1267.7 -56.5 1267.1 -56.8C1265.7 -57.5 1264.3 -58.2 1262.8 -58.8C1262 -59.1 1261.2 -59.4 1260.5 -59.7C1259.2 -60.2 1258 -60.6 1256.7 -61C1256.2 -61.2 1255.7 -61.3 1255.2 -61.4C1254.1 -61.7 1252.9 -62 1251.8 -62.2C1250.4 -62.5 1249 -62.7 1247.7 -62.8C1246.2 -63 1244.8 -63.1 1243.4 -63.1C1241.7 -63.2 1239.9 -63.1 1238.2 -63C1237.5 -63 1236.7 -62.9 1236 -62.8C1233.9 -62.6 1231.8 -62.3 1229.7 -61.8C1229.2 -61.7 1228.7 -61.6 1228.1 -61.5C1205.5 -56.3 1182.7 -39.2 1157.4 -20.2C1124.1 4.70003 1086.5 33 1038.7 42.6C983.499 53.7 925.099 37.4 860.199 -6.99997L860.899 -8.09998C1006.4 91.4 1089.6 28.9 1156.6 -21.2C1181.7 -40 1204.4 -57 1226.9 -62.5C1227.4 -62.6 1228 -62.8 1228.5 -62.9C1230.3 -63.3 1232.2 -63.6 1234 -63.9C1234.7 -64 1235.5 -64.1 1236.2 -64.2C1237.1 -64.3 1238 -64.4 1239 -64.4C1240.5 -64.5 1242.1 -64.5 1243.6 -64.4C1247.6 -64.3 1251.6 -63.7 1255.6 -62.6C1256.1 -62.5 1256.5 -62.3 1257 -62.2C1258.6 -61.7 1260.1 -61.2 1261.6 -60.6C1262.2 -60.4 1262.7 -60.2 1263.3 -59.9C1264.1 -59.6 1264.8 -59.2 1265.6 -58.9C1266.8 -58.4 1268 -57.8 1269.2 -57.1C1269.8 -56.8 1270.4 -56.5 1271 -56.1C1272.3 -55.4 1273.6 -54.5 1274.9 -53.7C1275.4 -53.4 1275.9 -53.1 1276.3 -52.7C1277.6 -51.8 1279 -50.8 1280.3 -49.7C1280.7 -49.4 1281.1 -49.1 1281.5 -48.8C1282.9 -47.7 1284.3 -46.5 1285.7 -45.3C1286.1 -45 1286.4 -44.7 1286.8 -44.3C1288.1 -43.1 1289.5 -41.8 1290.8 -40.4C1291.1 -40.1 1291.4 -39.8 1291.7 -39.5C1293 -38.1 1294.4 -36.7 1295.7 -35.3C1296.1 -34.9 1296.4 -34.5 1296.8 -34.1C1298.1 -32.7 1299.3 -31.2 1300.6 -29.7C1300.9 -29.3 1301.2 -29 1301.5 -28.6C1302.8 -27 1304.1 -25.4 1305.4 -23.7C1305.6 -23.4 1305.9 -23.1 1306.1 -22.8C1307.4 -21.1 1308.7 -19.4 1310 -17.6C1310.3 -17.2 1310.6 -16.8 1310.8 -16.4C1312 -14.7 1313.2 -13 1314.4 -11.2C1314.7 -10.8 1314.9 -10.5 1315.2 -10.1C1316.4 -8.29998 1317.6 -6.39997 1318.9 -4.49997C1319 -4.29997 1319.3 -3.89997 1319.5 -3.59998Z" fill="#245C5C" fill-opacity="0.3"/>
<path d="M1333.6 -13.9C1333.2 -13.7 1332.9 -13.4 1332.5 -13.1C1332.2 -13.4 1332 -13.7 1331.7 -14C1330.3 -15.7 1329 -17.3 1327.6 -18.8C1327.3 -19.1 1327 -19.5 1326.7 -19.8C1325.4 -21.3 1324 -22.8 1322.7 -24.3C1322.4 -24.7 1322 -25 1321.7 -25.4C1320.2 -27 1318.8 -28.5 1317.4 -29.9C1317.1 -30.2 1316.8 -30.5 1316.6 -30.7C1315.2 -32.1 1313.7 -33.5 1312.3 -34.8C1311.9 -35.1 1311.6 -35.5 1311.2 -35.8C1309.8 -37 1308.4 -38.2 1307.1 -39.4C1306.6 -39.8 1306.2 -40.1 1305.7 -40.5C1304.2 -41.7 1302.7 -42.9 1301.2 -44C1300.8 -44.3 1300.4 -44.6 1300 -44.9C1298.5 -46 1297 -47 1295.6 -48C1295.1 -48.3 1294.7 -48.6 1294.2 -48.9C1292.7 -49.9 1291.1 -50.8 1289.6 -51.6C1289.1 -51.9 1288.5 -52.2 1288 -52.5C1286.5 -53.3 1285 -54 1283.6 -54.7C1282.9 -55 1282.2 -55.3 1281.6 -55.6C1280.2 -56.2 1278.8 -56.7 1277.4 -57.2C1276.4 -57.5 1275.5 -57.9 1274.5 -58.1C1273.2 -58.5 1272 -58.8 1270.7 -59.1C1270.2 -59.2 1269.7 -59.3 1269.2 -59.5C1267.9 -59.8 1266.7 -60 1265.4 -60.2C1264.1 -60.4 1262.8 -60.6 1261.5 -60.7C1259.9 -60.8 1258.3 -60.9 1256.7 -60.9C1255 -60.9 1253.3 -60.9 1251.5 -60.8C1250.7 -60.7 1249.9 -60.7 1249.1 -60.6C1247 -60.4 1244.8 -60 1242.7 -59.6C1242.1 -59.5 1241.6 -59.4 1241 -59.2C1238.6 -58.7 1236.2 -58 1233.8 -57.2C1233.4 -57.1 1232.9 -56.9 1232.5 -56.8C1210.3 -49.3 1188.3 -32.4 1164.2 -13.8C1097.5 37.7 1014.4 101.8 867.699 0.39999L868.499 -0.700008C1014.3 100.1 1097 36.3 1163.4 -14.9C1187.4 -33.4 1209.3 -50.3 1231.5 -58C1232 -58.2 1232.4 -58.3 1232.8 -58.4C1235 -59.1 1237.3 -59.8 1239.5 -60.3C1240.1 -60.4 1240.6 -60.6 1241.2 -60.7C1243 -61.1 1244.9 -61.4 1246.7 -61.7C1247.5 -61.8 1248.4 -61.9 1249.2 -62C1250 -62.1 1250.8 -62.2 1251.6 -62.2C1253.3 -62.3 1255 -62.4 1256.7 -62.3C1260.8 -62.2 1265 -61.8 1269.3 -60.9C1269.8 -60.8 1270.4 -60.7 1270.9 -60.5C1272.6 -60.1 1274.3 -59.6 1276 -59.1C1276.5 -58.9 1276.9 -58.8 1277.4 -58.6C1278.3 -58.3 1279.3 -57.9 1280.2 -57.6C1281.3 -57.2 1282.5 -56.7 1283.6 -56.1C1284.3 -55.8 1284.9 -55.5 1285.6 -55.2C1286.9 -54.6 1288.3 -53.9 1289.6 -53.1C1290.1 -52.8 1290.6 -52.5 1291.2 -52.2C1292.7 -51.4 1294.1 -50.5 1295.6 -49.5C1296.1 -49.2 1296.5 -48.9 1297 -48.6C1298.4 -47.7 1299.9 -46.6 1301.3 -45.6C1301.7 -45.3 1302.1 -45 1302.5 -44.7C1304 -43.6 1305.4 -42.5 1306.9 -41.2C1307.4 -40.8 1307.8 -40.5 1308.3 -40.1C1309.7 -39 1311 -37.8 1312.4 -36.5C1312.8 -36.2 1313.1 -35.9 1313.5 -35.5C1314.9 -34.2 1316.3 -32.8 1317.7 -31.4C1318 -31.1 1318.3 -30.8 1318.5 -30.6C1319.9 -29.2 1321.4 -27.7 1322.8 -26.1C1323.1 -25.7 1323.5 -25.4 1323.8 -25C1325.1 -23.6 1326.5 -22.1 1327.8 -20.5C1328.1 -20.2 1328.4 -19.8 1328.7 -19.5C1330.1 -17.9 1331.4 -16.3 1332.8 -14.7C1333.1 -14.5 1333.4 -14.2 1333.6 -13.9Z" fill="#245C5C" fill-opacity="0.3"/>
<path d="M1347.3 -23C1346.9 -22.8 1346.6 -22.5 1346.2 -22.3C1345.9 -22.6 1345.6 -22.9 1345.3 -23.1C1343.8 -24.5 1342.3 -25.9 1340.9 -27.2C1340.5 -27.5 1340.2 -27.8 1339.8 -28.1C1338.3 -29.4 1336.9 -30.6 1335.4 -31.9C1335 -32.3 1334.6 -32.6 1334.1 -32.9C1332.5 -34.2 1330.9 -35.5 1329.3 -36.7C1329 -37 1328.6 -37.2 1328.3 -37.4C1326.8 -38.6 1325.2 -39.7 1323.7 -40.7C1323.3 -41 1322.8 -41.3 1322.4 -41.6C1320.9 -42.6 1319.5 -43.5 1318.1 -44.4C1317.5 -44.8 1316.9 -45.1 1316.4 -45.4C1314.8 -46.4 1313.2 -47.3 1311.6 -48.1C1311.1 -48.4 1310.6 -48.6 1310.1 -48.9C1308.5 -49.7 1307 -50.5 1305.4 -51.2C1304.8 -51.5 1304.2 -51.8 1303.6 -52C1302 -52.7 1300.4 -53.3 1298.8 -53.9C1298.1 -54.2 1297.3 -54.4 1296.6 -54.7C1295.2 -55.2 1293.7 -55.6 1292.3 -56C1291.2 -56.3 1290.1 -56.6 1289 -56.9C1287.8 -57.2 1286.6 -57.5 1285.4 -57.7C1284.8 -57.8 1284.1 -57.9 1283.5 -58C1282.1 -58.2 1280.6 -58.4 1279.2 -58.6C1278.2 -58.7 1277.2 -58.8 1276.1 -58.9C1274.3 -59 1272.5 -59.1 1270.7 -59C1269 -59 1267.2 -58.9 1265.5 -58.8C1264.6 -58.7 1263.7 -58.6 1262.8 -58.5C1260.7 -58.3 1258.6 -57.9 1256.5 -57.5C1255.9 -57.4 1255.3 -57.3 1254.7 -57.1C1252.2 -56.6 1249.8 -55.9 1247.4 -55.2C1246.9 -55 1246.5 -54.9 1246 -54.7C1243.3 -53.8 1240.7 -52.9 1238.1 -51.8C1237.7 -51.6 1237.3 -51.5 1236.9 -51.3C1215.2 -42 1194.1 -25.3 1171.2 -7.1C1137.8 19.4 1099.9 49.4 1052.9 59.2C999 70.3 941 53.6 875.5 7.9L876.3 6.8C1022.4 108.8 1101 46.5 1170.4 -8.4C1192.6 -26 1214 -42.9 1236.2 -52.5C1236.6 -52.7 1237 -52.8 1237.4 -53C1240 -54.1 1242.5 -55 1245.1 -55.9C1245.6 -56.1 1246 -56.2 1246.5 -56.4C1248.8 -57.1 1251.1 -57.8 1253.4 -58.3C1254 -58.5 1254.6 -58.6 1255.2 -58.7C1257 -59.1 1258.8 -59.4 1260.6 -59.7C1261.5 -59.8 1262.4 -60 1263.3 -60.1C1264 -60.2 1264.8 -60.2 1265.5 -60.3C1267.4 -60.5 1269.3 -60.5 1271.2 -60.5C1275.4 -60.5 1279.6 -60.2 1283.8 -59.5C1284.4 -59.4 1285 -59.3 1285.6 -59.2C1287.6 -58.8 1289.6 -58.4 1291.5 -57.8C1291.8 -57.7 1292.1 -57.6 1292.4 -57.6C1293.5 -57.3 1294.5 -57 1295.6 -56.6C1296.7 -56.2 1297.9 -55.8 1299 -55.4C1299.7 -55.1 1300.4 -54.9 1301.2 -54.6C1302.6 -54 1304.1 -53.4 1305.5 -52.8C1306.1 -52.5 1306.7 -52.2 1307.3 -52C1308.8 -51.3 1310.2 -50.5 1311.7 -49.8C1312.2 -49.5 1312.7 -49.3 1313.2 -49C1314.7 -48.2 1316.3 -47.3 1317.8 -46.3C1318.4 -45.9 1318.9 -45.6 1319.5 -45.2C1320.9 -44.3 1322.3 -43.4 1323.7 -42.4C1324.1 -42.1 1324.6 -41.8 1325 -41.5C1326.5 -40.5 1328 -39.4 1329.5 -38.2C1329.8 -38 1330.1 -37.7 1330.5 -37.5C1332.1 -36.3 1333.6 -35.1 1335.2 -33.8C1335.6 -33.5 1336 -33.1 1336.5 -32.8C1337.9 -31.6 1339.4 -30.4 1340.8 -29.1C1341.1 -28.8 1341.5 -28.5 1341.8 -28.2C1343.3 -26.9 1344.7 -25.5 1346.2 -24.1C1346.7 -23.6 1347 -23.3 1347.3 -23Z" fill="#245C5C" fill-opacity="0.3"/>
<path d="M1360.3 -31C1359.9 -30.8 1359.5 -30.5 1359.1 -30.3C1358.8 -30.6 1358.4 -30.8 1358.1 -31C1356.5 -32.2 1354.9 -33.3 1353.3 -34.4C1352.9 -34.7 1352.5 -35 1352.1 -35.3C1350.5 -36.4 1349 -37.4 1347.5 -38.3C1347 -38.6 1346.5 -38.9 1346 -39.3C1344.3 -40.4 1342.6 -41.4 1340.9 -42.4C1340.5 -42.6 1340.1 -42.8 1339.7 -43.1C1338.1 -44 1336.4 -44.9 1334.8 -45.7C1334.3 -46 1333.7 -46.3 1333.2 -46.5C1331.7 -47.2 1330.2 -48 1328.8 -48.6C1328.1 -48.9 1327.3 -49.3 1326.6 -49.6C1324.9 -50.3 1323.3 -51 1321.6 -51.6C1321 -51.9 1320.3 -52.1 1319.7 -52.3C1318.1 -52.9 1316.6 -53.4 1315 -53.9C1314.1 -54.2 1313.3 -54.4 1312.4 -54.6C1310.9 -55 1309.3 -55.4 1307.8 -55.7C1306.7 -56 1305.5 -56.2 1304.4 -56.4C1303.2 -56.6 1302 -56.8 1300.9 -57C1300 -57.1 1299.2 -57.2 1298.3 -57.3C1296.8 -57.5 1295.3 -57.6 1293.8 -57.7C1293.1 -57.7 1292.5 -57.8 1291.8 -57.8C1289.8 -57.9 1287.7 -57.9 1285.7 -57.8C1284 -57.7 1282.3 -57.6 1280.6 -57.5C1279.6 -57.4 1278.6 -57.3 1277.6 -57.2C1275.4 -56.9 1273.3 -56.6 1271.1 -56.2C1270.4 -56.1 1269.8 -55.9 1269.1 -55.8C1266.7 -55.3 1264.3 -54.7 1261.9 -53.9C1261.4 -53.7 1260.9 -53.6 1260.4 -53.4C1257.7 -52.6 1255 -51.6 1252.3 -50.5C1251.9 -50.3 1251.4 -50.2 1251 -50C1248.1 -48.8 1245.2 -47.5 1242.3 -46.1C1241.9 -45.9 1241.5 -45.7 1241.2 -45.5C1219.8 -34.7 1199.3 -18 1178.1 -0.800014C1108.9 55.4 1030.6 119.1 883.398 15.4L884.198 14.3C1030.5 117.4 1108.5 54 1177.3 -1.90002C1198.5 -19.1 1219 -35.8 1240.5 -46.7C1240.9 -46.9 1241.3 -47.1 1241.7 -47.3C1244.5 -48.7 1247.3 -50 1250.2 -51.2C1250.6 -51.4 1251.1 -51.6 1251.5 -51.7C1254.1 -52.7 1256.7 -53.7 1259.3 -54.5C1259.8 -54.7 1260.3 -54.8 1260.8 -55C1263 -55.7 1265.3 -56.3 1267.5 -56.8C1268.2 -57 1268.8 -57.1 1269.5 -57.2C1271.3 -57.6 1273.1 -57.9 1274.9 -58.2C1275.9 -58.4 1276.9 -58.5 1277.9 -58.6C1278.5 -58.7 1279 -58.7 1279.6 -58.8C1281.7 -59 1283.8 -59.2 1285.9 -59.2C1290 -59.3 1294.2 -59.2 1298.4 -58.7C1299.2 -58.6 1300.1 -58.5 1300.9 -58.4C1303.1 -58.1 1305.3 -57.7 1307.6 -57.2C1307.8 -57.2 1307.9 -57.1 1308.1 -57.1C1309.2 -56.9 1310.3 -56.6 1311.4 -56.3C1312.6 -56 1313.8 -55.7 1315 -55.3C1315.8 -55 1316.7 -54.8 1317.6 -54.5C1319 -54 1320.4 -53.6 1321.8 -53C1322.4 -52.8 1323.1 -52.5 1323.7 -52.3C1325.3 -51.7 1326.8 -51 1328.4 -50.4C1329.1 -50.1 1329.9 -49.7 1330.6 -49.4C1332 -48.8 1333.4 -48.1 1334.9 -47.3C1335.4 -47 1336 -46.7 1336.5 -46.5C1338.1 -45.7 1339.6 -44.8 1341.2 -43.9C1341.6 -43.7 1342 -43.4 1342.4 -43.2C1344.1 -42.2 1345.7 -41.2 1347.4 -40.2C1347.9 -39.9 1348.4 -39.6 1348.9 -39.2C1350.4 -38.2 1351.9 -37.2 1353.4 -36.2C1353.8 -35.9 1354.2 -35.6 1354.7 -35.3C1356.3 -34.2 1357.9 -33.1 1359.4 -31.9C1359.6 -31.5 1359.9 -31.2 1360.3 -31Z" fill="#245C5C" fill-opacity="0.3"/>
<path d="M1373.3 -38.1999C1372.8 -37.9999 1372.4 -37.6999 1371.9 -37.4999C1371.5 -37.6999 1371.1 -37.9999 1370.7 -38.1999C1369 -39.1999 1367.3 -40.0999 1365.6 -40.9999C1365.1 -41.2999 1364.6 -41.4999 1364.1 -41.7999C1362.5 -42.5999 1360.9 -43.3999 1359.3 -44.1999C1358.7 -44.4999 1358 -44.7999 1357.4 -45.0999C1355.6 -45.8999 1353.8 -46.6999 1352 -47.4999C1351.5 -47.6999 1351 -47.8999 1350.6 -48.0999C1348.9 -48.7999 1347.2 -49.3999 1345.6 -49.9999C1344.9 -50.2999 1344.2 -50.4999 1343.6 -50.6999C1342.1 -51.1999 1340.7 -51.6999 1339.2 -52.0999C1338.2 -52.3999 1337.2 -52.6999 1336.2 -52.9999C1334.5 -53.4999 1332.9 -53.8999 1331.2 -54.2999C1330.3 -54.4999 1329.4 -54.6999 1328.4 -54.8999C1326.9 -55.1999 1325.5 -55.4999 1324 -55.6999C1322.6 -55.8999 1321.2 -56.0999 1319.9 -56.2999C1318.6 -56.4999 1317.3 -56.5999 1316 -56.6999C1313.5 -56.8999 1311 -57.0999 1308.5 -57.0999C1308.1 -57.0999 1307.8 -57.0999 1307.4 -57.0999C1305.1 -57.0999 1302.9 -57.0999 1300.6 -56.9999C1299.4 -56.8999 1298.2 -56.8999 1297.1 -56.7999C1296.6 -56.7999 1296.1 -56.6999 1295.7 -56.6999C1294.6 -56.5999 1293.5 -56.4999 1292.4 -56.2999C1290.2 -55.9999 1288 -55.6999 1285.9 -55.1999C1285.2 -55.0999 1284.5 -54.8999 1283.7 -54.7999C1281.2 -54.1999 1278.7 -53.5999 1276.3 -52.8999C1275.7 -52.6999 1275.2 -52.5999 1274.7 -52.3999C1272 -51.5999 1269.3 -50.5999 1266.7 -49.5999C1266.2 -49.3999 1265.8 -49.1999 1265.4 -49.0999C1262.4 -47.8999 1259.5 -46.5999 1256.5 -45.1999C1256.1 -44.9999 1255.7 -44.7999 1255.3 -44.5999C1252.2 -43.0999 1249 -41.3999 1246 -39.6999C1245.6 -39.4999 1245.3 -39.2999 1244.9 -39.0999C1224.4 -27.2999 1204.8 -11.0999 1184.7 5.70008C1149.5 35.0001 1113.1 65.4001 1066.8 75.4001C1014.4 86.8001 956.9 69.6001 891.1 22.8001L891.9 21.7001C1038.3 125.9 1112.3 64.2001 1183.9 4.60009C1204.1 -12.1999 1223.7 -28.5999 1244.3 -40.3999C1244.7 -40.5999 1245 -40.7999 1245.4 -40.9999C1248.4 -42.6999 1251.5 -44.2999 1254.6 -45.7999C1255 -45.9999 1255.4 -46.1999 1255.8 -46.3999C1258.6 -47.7999 1261.5 -48.9999 1264.4 -50.1999C1264.9 -50.3999 1265.3 -50.5999 1265.8 -50.6999C1268.3 -51.6999 1270.9 -52.5999 1273.5 -53.3999C1274 -53.5999 1274.6 -53.6999 1275.1 -53.8999C1277.4 -54.5999 1279.6 -55.1999 1281.9 -55.6999C1282.6 -55.8999 1283.4 -55.9999 1284.1 -56.1999C1285.8 -56.5999 1287.6 -56.8999 1289.4 -57.1999C1290.5 -57.3999 1291.6 -57.5999 1292.8 -57.6999C1293.2 -57.7999 1293.5 -57.7999 1293.9 -57.7999C1295 -57.8999 1296.2 -58.0999 1297.3 -58.1999C1298.6 -58.2999 1299.8 -58.3999 1301.1 -58.4999C1306.3 -58.7999 1311.5 -58.5999 1316.8 -58.0999C1319.2 -57.8999 1321.6 -57.5999 1324 -57.1999C1324.1 -57.1999 1324.3 -57.1999 1324.4 -57.0999C1325.8 -56.8999 1327.1 -56.5999 1328.5 -56.2999C1329.6 -56.0999 1330.6 -55.7999 1331.7 -55.5999C1332.6 -55.3999 1333.5 -55.1999 1334.4 -54.8999C1335.9 -54.4999 1337.4 -54.0999 1338.8 -53.6999C1339.8 -53.3999 1340.8 -53.0999 1341.7 -52.7999C1343.1 -52.3999 1344.4 -51.8999 1345.8 -51.3999C1346.5 -51.1999 1347.2 -50.8999 1347.8 -50.6999C1349.4 -50.0999 1351 -49.4999 1352.6 -48.7999C1353.1 -48.5999 1353.6 -48.3999 1354 -48.1999C1355.8 -47.4999 1357.5 -46.6999 1359.3 -45.7999C1359.9 -45.4999 1360.6 -45.1999 1361.2 -44.8999C1362.8 -44.1999 1364.3 -43.3999 1365.9 -42.5999C1366.4 -42.2999 1366.9 -42.0999 1367.4 -41.7999C1369.1 -40.8999 1370.7 -39.9999 1372.4 -38.9999C1372.5 -38.6999 1372.9 -38.4999 1373.3 -38.1999Z" fill="#245C5C" fill-opacity="0.3"/>
<path d="M1385.9 -44.6001C1385.3 -44.3001 1384.8 -44.1001 1384.2 -43.8001C1383.7 -44.0001 1383.3 -44.2001 1382.8 -44.4001C1381 -45.1001 1379.2 -45.9001 1377.5 -46.5001C1376.9 -46.7001 1376.3 -47.0001 1375.7 -47.2001C1374.1 -47.8001 1372.4 -48.4001 1370.8 -49.0001C1370 -49.3001 1369.2 -49.5001 1368.5 -49.8001C1366.6 -50.4001 1364.7 -51.0001 1362.9 -51.5001C1362.3 -51.7001 1361.7 -51.8001 1361.1 -52.0001C1359.4 -52.5001 1357.8 -52.9001 1356.1 -53.3001C1355.2 -53.5001 1354.3 -53.7001 1353.4 -53.9001C1352.1 -54.2001 1350.8 -54.5001 1349.5 -54.7001C1348.1 -55.0001 1346.7 -55.2001 1345.3 -55.4001C1343.7 -55.6001 1342.2 -55.9001 1340.7 -56.0001C1339.3 -56.2001 1337.8 -56.3001 1336.4 -56.5001C1335.5 -56.6001 1334.6 -56.7001 1333.6 -56.7001C1330.5 -56.9001 1327.5 -57.0001 1324.6 -57.0001C1324.3 -57.0001 1324 -57.0001 1323.7 -57.0001C1321.1 -57.0001 1318.6 -56.8001 1316.1 -56.6001C1314.5 -56.5001 1312.9 -56.3001 1311.3 -56.1001C1310.1 -56.0001 1308.9 -55.8001 1307.7 -55.6001C1305.6 -55.3001 1303.5 -54.9001 1301.3 -54.5001C1300.5 -54.3001 1299.7 -54.2001 1298.9 -54.0001C1296.4 -53.4001 1293.9 -52.8001 1291.5 -52.1001C1290.9 -51.9001 1290.3 -51.8001 1289.7 -51.6001C1286.9 -50.8001 1284.2 -49.8001 1281.5 -48.8001C1281 -48.6001 1280.5 -48.4001 1280.1 -48.2001C1277.2 -47.1001 1274.3 -45.9001 1271.4 -44.5001C1271 -44.3001 1270.6 -44.1001 1270.2 -43.9001C1267 -42.4001 1263.8 -40.8001 1260.7 -39.1001C1260.3 -38.9001 1259.9 -38.7001 1259.6 -38.5001C1256.2 -36.6001 1252.9 -34.7001 1249.6 -32.6001C1249.2 -32.4001 1248.9 -32.1001 1248.5 -31.9001C1228.8 -19.4001 1210.1 -3.50007 1191.2 12.6999C1119.8 73.4999 1046 136.5 898.799 30.6999L899.599 29.5999C1046 134.8 1119.4 72.1999 1190.4 11.6999C1209.6 -4.70007 1228.3 -20.6001 1248 -33.1001C1248.4 -33.3001 1248.7 -33.6001 1249.1 -33.8001C1252.3 -35.8001 1255.6 -37.8001 1258.9 -39.6001C1259.3 -39.8001 1259.7 -40.0001 1260 -40.2001C1263.1 -41.9001 1266.2 -43.5001 1269.3 -44.9001C1269.7 -45.1001 1270.1 -45.3001 1270.6 -45.5001C1273.4 -46.8001 1276.2 -48.0001 1279 -49.1001C1279.5 -49.3001 1280 -49.5001 1280.4 -49.6001C1283 -50.6001 1285.6 -51.5001 1288.2 -52.3001C1288.8 -52.5001 1289.4 -52.7001 1290 -52.8001C1292.2 -53.5001 1294.5 -54.1001 1296.8 -54.6001C1297.6 -54.8001 1298.4 -55.0001 1299.2 -55.2001C1300.9 -55.6001 1302.6 -55.9001 1304.3 -56.2001C1305.4 -56.4001 1306.6 -56.6001 1307.7 -56.8001C1307.8 -56.8001 1307.9 -56.8001 1308 -56.8001C1308.2 -56.8001 1308.4 -56.9001 1308.6 -56.9001C1311.2 -57.3001 1313.9 -57.6001 1316.5 -57.7001C1322 -58.1001 1327.6 -58.1001 1333.2 -57.8001C1335.8 -57.7001 1338.4 -57.4001 1340.9 -57.1001C1341.3 -57.1001 1341.6 -57.0001 1342 -57.0001C1343.1 -56.9001 1344.1 -56.7001 1345.2 -56.6001C1346.3 -56.4001 1347.4 -56.2001 1348.6 -56.0001C1350 -55.8001 1351.4 -55.5001 1352.8 -55.2001C1353.9 -55.0001 1355 -54.7001 1356.1 -54.5001C1357 -54.3001 1357.9 -54.1001 1358.8 -53.9001C1360.3 -53.5001 1361.9 -53.1001 1363.4 -52.6001C1364 -52.4001 1364.6 -52.3001 1365.2 -52.1001C1367 -51.6001 1368.8 -51.0001 1370.6 -50.4001C1371.4 -50.1001 1372.1 -49.9001 1372.9 -49.6001C1374.5 -49.0001 1376 -48.5001 1377.6 -47.9001C1378.2 -47.7001 1378.8 -47.4001 1379.4 -47.2001C1381.1 -46.5001 1382.8 -45.8001 1384.6 -45.1001C1385 -45.0001 1385.5 -44.8001 1385.9 -44.6001Z" fill="#245C5C" fill-opacity="0.3"/>
<path d="M1397.9 -50.1C1397.3 -49.8 1396.7 -49.5 1396 -49.3C1395.5 -49.5 1394.9 -49.6 1394.4 -49.8C1392.6 -50.3 1390.7 -50.9 1388.9 -51.3C1388.2 -51.5 1387.4 -51.7 1386.7 -51.9C1385.1 -52.3 1383.4 -52.7 1381.8 -53.1C1380.8 -53.3 1379.8 -53.5 1378.9 -53.7C1376.9 -54.1 1375 -54.5 1373.1 -54.8C1372.3 -54.9 1371.5 -55.1 1370.7 -55.2C1369.1 -55.5 1367.5 -55.7 1365.9 -55.9C1364.6 -56.1 1363.4 -56.2 1362.1 -56.3C1361.1 -56.4 1360.1 -56.5 1359.1 -56.6C1356.9 -56.8 1354.7 -56.9 1352.5 -57C1351.2 -57.1 1350 -57.1 1348.7 -57.1C1346.4 -57.1 1344.2 -57.1 1341.9 -57.1C1341.1 -57.1 1340.4 -57.1 1339.6 -57C1337.6 -56.9 1335.5 -56.8 1333.5 -56.6C1331.7 -56.5 1329.9 -56.3 1328.1 -56C1326.7 -55.8 1325.3 -55.6 1324 -55.4C1322.1 -55.1 1320.2 -54.8 1318.3 -54.4C1318 -54.3 1317.7 -54.3 1317.3 -54.2C1316.4 -54 1315.6 -53.8 1314.7 -53.6C1312.2 -53 1309.7 -52.4 1307.3 -51.7C1306.7 -51.5 1306 -51.3 1305.4 -51.1C1302.6 -50.3 1299.9 -49.3 1297.1 -48.4C1296.6 -48.2 1296.1 -48 1295.6 -47.8C1292.6 -46.7 1289.6 -45.5 1286.7 -44.2C1286.3 -44 1285.8 -43.8 1285.4 -43.6C1282.2 -42.2 1279.1 -40.6 1276 -39C1275.6 -38.8 1275.2 -38.6 1274.8 -38.4C1271.4 -36.6 1268 -34.6 1264.6 -32.6C1264.2 -32.4 1263.9 -32.2 1263.5 -31.9C1259.9 -29.7 1256.3 -27.4 1252.8 -25C1252.4 -24.8 1252.1 -24.5 1251.7 -24.3C1232.6 -11.3 1214.8 4.30003 1197.3 19.6C1161.9 50.4 1125.3 82.3 1079.9 92.5C1029 103.9 972.2 86.2 906.1 38.3L906.9 37.2C972.6 84.9 1029.1 102.5 1079.6 91.2C1124.7 81.1 1161.1 49.3 1196.4 18.6C1214 3.20003 1232 -12.4 1251.2 -25.5C1251.6 -25.8 1251.9 -26 1252.3 -26.2C1255.8 -28.6 1259.3 -30.8 1262.8 -33C1263.2 -33.2 1263.5 -33.4 1263.9 -33.7C1267.2 -35.7 1270.5 -37.6 1273.9 -39.4C1274.3 -39.6 1274.7 -39.8 1275.1 -40C1278.1 -41.6 1281.2 -43.1 1284.2 -44.5C1284.6 -44.7 1285.1 -44.9 1285.5 -45.1C1288.3 -46.4 1291.2 -47.6 1294.1 -48.7C1294.6 -48.9 1295.1 -49.1 1295.6 -49.3C1298.2 -50.2 1300.8 -51.1 1303.4 -51.9C1304 -52.1 1304.7 -52.3 1305.4 -52.5C1307.6 -53.1 1309.8 -53.7 1312 -54.3C1312.9 -54.5 1313.8 -54.7 1314.6 -54.9C1315.7 -55.1 1316.8 -55.4 1317.9 -55.6C1318.5 -55.7 1319.1 -55.8 1319.7 -55.9C1321.1 -56.2 1322.5 -56.4 1323.9 -56.6C1324.1 -56.6 1324.2 -56.7 1324.4 -56.7C1327.2 -57.1 1330.1 -57.5 1333 -57.7C1338.4 -58.2 1343.8 -58.4 1349.3 -58.2C1352 -58.1 1354.7 -58 1357.5 -57.8C1357.6 -57.8 1357.8 -57.8 1357.9 -57.8C1359.9 -57.6 1361.9 -57.4 1364 -57.2C1364.5 -57.1 1365 -57.1 1365.6 -57C1366.8 -56.8 1368.1 -56.7 1369.3 -56.5C1370.7 -56.3 1372.1 -56.1 1373.4 -55.8C1374.2 -55.7 1375 -55.5 1375.8 -55.4C1377.6 -55.1 1379.4 -54.7 1381.2 -54.3C1382.2 -54.1 1383.2 -53.9 1384.2 -53.6C1385.7 -53.2 1387.3 -52.9 1388.8 -52.4C1389.5 -52.2 1390.3 -52 1391 -51.8C1392.8 -51.3 1394.5 -50.8 1396.3 -50.3C1396.8 -50.5 1397.4 -50.3 1397.9 -50.1Z" fill="#245C5C" fill-opacity="0.3"/>
<path d="M1410 -55.1999C1409.3 -54.8999 1408.7 -54.6999 1408 -54.3999C1407.3 -54.4999 1406.7 -54.6999 1406 -54.7999C1404.2 -55.1999 1402.3 -55.4999 1400.5 -55.7999C1399.6 -55.9999 1398.6 -56.0999 1397.7 -56.1999C1396.1 -56.3999 1394.6 -56.6999 1393.1 -56.8999C1391.8 -57.0999 1390.5 -57.1999 1389.2 -57.3999C1387.3 -57.5999 1385.4 -57.7999 1383.5 -57.8999C1382.4 -57.9999 1381.3 -58.0999 1380.2 -58.0999C1378.9 -58.1999 1377.5 -58.2999 1376.2 -58.2999C1374.4 -58.3999 1372.6 -58.3999 1370.9 -58.3999H1370.3C1366.1 -58.3999 1361.9 -58.2999 1357.8 -57.9999C1357.5 -57.9999 1357.2 -57.9999 1356.9 -57.8999C1354 -57.6999 1351.2 -57.3999 1348.5 -57.0999C1347.3 -56.9999 1346.1 -56.7999 1344.9 -56.5999C1343.4 -56.3999 1341.9 -56.0999 1340.5 -55.8999C1338.3 -55.4999 1336.1 -55.0999 1333.9 -54.5999C1332.9 -54.3999 1332 -54.1999 1331 -53.9999C1328.4 -53.3999 1325.9 -52.6999 1323.3 -51.9999C1322.6 -51.7999 1321.9 -51.5999 1321.2 -51.3999C1318.4 -50.5999 1315.7 -49.6999 1313.1 -48.6999C1312.5 -48.4999 1312 -48.2999 1311.4 -48.0999C1308.4 -46.9999 1305.4 -45.7999 1302.4 -44.5999C1301.9 -44.3999 1301.5 -44.1999 1301 -43.9999C1297.8 -42.5999 1294.6 -41.0999 1291.4 -39.4999C1291 -39.2999 1290.6 -39.0999 1290.2 -38.8999C1286.8 -37.1999 1283.5 -35.3999 1280.2 -33.4999C1279.8 -33.2999 1279.4 -33.0999 1279.1 -32.7999C1275.4 -30.6999 1271.8 -28.3999 1268.3 -26.0999C1267.9 -25.8999 1267.6 -25.5999 1267.2 -25.3999C1263.4 -22.8999 1259.6 -20.2999 1255.9 -17.5999C1255.5 -17.2999 1255.2 -17.0999 1254.8 -16.7999C1236.9 -3.6999 1220.1 11.3001 1203.4 26.2001C1130 91.6001 1060.7 153.3 913.6 45.6001L914.4 44.5001C1060.6 151.6 1129.5 90.2001 1202.5 25.2001C1219.2 10.3001 1236.1 -4.7999 1254.3 -17.9999C1254.7 -18.2999 1255 -18.4999 1255.4 -18.7999C1259.1 -21.4999 1262.8 -24.0999 1266.6 -26.4999C1267 -26.6999 1267.3 -26.9999 1267.7 -27.1999C1271.2 -29.4999 1274.8 -31.6999 1278.4 -33.7999C1278.8 -33.9999 1279.1 -34.1999 1279.5 -34.3999C1282.7 -36.2999 1286 -37.9999 1289.3 -39.6999C1289.7 -39.8999 1290.1 -40.0999 1290.5 -40.2999C1293.6 -41.8999 1296.7 -43.2999 1299.9 -44.6999C1300.4 -44.8999 1300.8 -45.0999 1301.3 -45.2999C1304.1 -46.4999 1307 -47.6999 1309.9 -48.7999C1310.5 -48.9999 1311 -49.1999 1311.6 -49.3999C1314.1 -50.2999 1316.7 -51.1999 1319.3 -51.9999C1320 -52.1999 1320.7 -52.3999 1321.4 -52.5999C1323.7 -53.2999 1325.9 -53.8999 1328.2 -54.4999C1328.3 -54.4999 1328.3 -54.4999 1328.4 -54.4999C1329.3 -54.6999 1330.2 -54.9999 1331.2 -55.1999C1332.9 -55.5999 1334.5 -55.8999 1336.2 -56.2999C1337.3 -56.4999 1338.4 -56.6999 1339.5 -56.8999C1339.9 -56.9999 1340.3 -56.9999 1340.7 -57.0999C1343.5 -57.5999 1346.4 -57.9999 1349.3 -58.2999C1355.1 -58.9999 1360.9 -59.2999 1366.9 -59.3999C1369.7 -59.3999 1372.5 -59.3999 1375.4 -59.2999C1376.9 -59.1999 1378.4 -59.1999 1380 -59.0999C1380.4 -59.0999 1380.9 -58.9999 1381.3 -58.9999C1382.2 -58.8999 1383 -58.8999 1383.9 -58.7999C1385 -58.6999 1386 -58.5999 1387.1 -58.4999C1388.8 -58.2999 1390.4 -58.0999 1392.1 -57.8999C1393.4 -57.6999 1394.6 -57.5999 1395.9 -57.3999C1397.3 -57.1999 1398.7 -56.9999 1400.1 -56.7999C1401 -56.5999 1401.9 -56.4999 1402.9 -56.2999C1404.6 -55.9999 1406.4 -55.6999 1408.1 -55.2999C1408.7 -55.4999 1409.4 -55.2999 1410 -55.1999Z" fill="#245C5C" fill-opacity="0.3"/>
<path d="M1422.1 -59.7001C1421 -59.3001 1419.9 -58.9 1418.9 -58.5C1418.1 -58.6 1417.2 -58.7001 1416.4 -58.7001C1414.5 -58.9001 1412.7 -59.0001 1410.9 -59.2001C1409.7 -59.3001 1408.4 -59.4001 1407.2 -59.4001C1405.8 -59.5001 1404.4 -59.5 1403 -59.6C1401.2 -59.7 1399.3 -59.7001 1397.5 -59.7001C1395.5 -59.7001 1393.5 -59.7001 1391.6 -59.7001C1389.8 -59.7001 1388.1 -59.6 1386.3 -59.5C1385.1 -59.5 1384 -59.4 1382.8 -59.3C1381.8 -59.2 1380.9 -59.2 1379.9 -59.1C1376.9 -58.9 1373.9 -58.6001 1371 -58.2001C1370.5 -58.2001 1370.1 -58.1 1369.6 -58C1367.7 -57.8 1365.8 -57.5001 1363.9 -57.2001C1362.2 -56.9001 1360.6 -56.7001 1358.9 -56.4001C1356.7 -56.0001 1354.6 -55.6 1352.4 -55.1C1351.3 -54.9 1350.3 -54.6001 1349.2 -54.4001C1346.5 -53.8001 1343.8 -53.1001 1341.2 -52.4001C1340.4 -52.2001 1339.7 -52.0001 1338.9 -51.7001C1335.9 -50.8001 1333 -49.9001 1330.1 -48.9001C1329.5 -48.7001 1328.9 -48.5 1328.3 -48.3C1325.3 -47.2 1322.3 -46.1001 1319.3 -44.9001C1318.8 -44.7001 1318.3 -44.5 1317.8 -44.3C1314.5 -42.9 1311.2 -41.5001 1308 -39.9001C1307.6 -39.7001 1307.1 -39.5 1306.7 -39.3C1303.2 -37.6 1299.8 -35.8 1296.4 -34C1296 -33.8 1295.6 -33.6001 1295.2 -33.4001C1291.6 -31.4001 1288 -29.3001 1284.5 -27.1001C1284.1 -26.9001 1283.8 -26.6 1283.4 -26.4C1279.5 -24 1275.7 -21.4 1271.9 -18.8C1271.5 -18.6 1271.2 -18.3001 1270.8 -18.1001C1266.7 -15.3001 1262.8 -12.3 1258.8 -9.30005C1258.4 -9.00005 1258.1 -8.70005 1257.7 -8.50005C1240.6 4.69995 1224.7 19.0999 1209.3 33.0999C1172.1 66.8999 1137.1 98.7999 1092.6 108.9C1042.6 120.3 988.1 102.6 921.1 53L921.9 51.8999C988.6 101.2 1042.7 118.9 1092.3 107.6C1137 97.4999 1171.9 65.7 1209 32C1224.8 17.7 1240.7 3.19995 1257.8 -10C1258.2 -10.3 1258.5 -10.6 1258.9 -10.8C1262.8 -13.8 1266.7 -16.7001 1270.7 -19.5C1271.1 -19.7001 1271.4 -20 1271.8 -20.2001C1275.5 -22.8 1279.3 -25.3 1283.1 -27.7001C1283.5 -27.9001 1283.8 -28.2 1284.2 -28.4C1287.6 -30.5 1291.1 -32.6 1294.6 -34.6C1295 -34.8 1295.4 -35.1 1295.8 -35.3C1299.1 -37.1 1302.4 -38.9 1305.8 -40.6C1306.2 -40.8 1306.7 -41 1307.1 -41.2001C1310.2 -42.7001 1313.3 -44.1 1316.5 -45.5C1317 -45.7 1317.5 -45.9 1318 -46.1C1320.8 -47.3 1323.6 -48.4001 1326.5 -49.4001C1327.1 -49.6001 1327.7 -49.8 1328.3 -50.1C1330.9 -51 1333.6 -51.9 1336.3 -52.8C1337.1 -53 1337.9 -53.3 1338.7 -53.5C1338.9 -53.5 1339 -53.6 1339.2 -53.6C1341.3 -54.2 1343.4 -54.8 1345.5 -55.3C1346.6 -55.6 1347.6 -55.8 1348.7 -56.1C1350 -56.4 1351.4 -56.7 1352.7 -57C1354.2 -57.3 1355.8 -57.6001 1357.3 -57.9001C1357.5 -57.9001 1357.6 -58 1357.8 -58C1360.9 -58.6 1364 -59.1 1367.2 -59.5C1373.1 -60.3 1379.1 -60.8 1385.1 -61.1C1388.1 -61.2 1391.1 -61.3 1394.2 -61.3C1395.2 -61.3 1396.1 -61.3 1397.1 -61.3C1397.8 -61.3 1398.5 -61.3 1399.2 -61.3C1400.4 -61.3 1401.7 -61.2001 1402.9 -61.2001C1404.7 -61.1001 1406.4 -61.0001 1408.2 -60.9001C1409.3 -60.8001 1410.3 -60.8001 1411.4 -60.7001C1412.6 -60.6001 1413.8 -60.5001 1415 -60.4001C1416.6 -60.3001 1418.2 -60.1001 1419.9 -59.9001C1420.5 -59.9001 1421.3 -59.8001 1422.1 -59.7001Z" fill="#245C5C" fill-opacity="0.3"/>
<path d="M1434.4 -63.8C1433.1 -63.4 1431.9 -63 1430.6 -62.6C1429.5 -62.6 1428.4 -62.7 1427.4 -62.7C1425.7 -62.7 1424.1 -62.8 1422.4 -62.8C1420.7 -62.8 1419 -62.8 1417.3 -62.7C1416.4 -62.7 1415.5 -62.7 1414.6 -62.6C1411.8 -62.5 1409 -62.4 1406.2 -62.2C1404.6 -62.1 1403 -62 1401.4 -61.8C1399.9 -61.7 1398.4 -61.5 1396.9 -61.4C1394.7 -61.2 1392.6 -60.9 1390.5 -60.6C1387.9 -60.3 1385.4 -59.9 1382.9 -59.5C1382.4 -59.4 1381.8 -59.3 1381.3 -59.2C1379.7 -58.9 1378 -58.6 1376.4 -58.3C1374 -57.8 1371.6 -57.3 1369.3 -56.8C1368.1 -56.5 1367 -56.2 1365.8 -56C1363.4 -55.4 1361 -54.8 1358.6 -54.1C1357.7 -53.9 1356.9 -53.6 1356 -53.3C1353.1 -52.4 1350.3 -51.5 1347.5 -50.5C1346.8 -50.3 1346.2 -50 1345.5 -49.8C1342.3 -48.7 1339.2 -47.5 1336.2 -46.3C1335.7 -46.1 1335.1 -45.9 1334.6 -45.6C1331.4 -44.3 1328.2 -42.9 1325.1 -41.4C1324.6 -41.2 1324.2 -41 1323.7 -40.8C1320.2 -39.1 1316.8 -37.4 1313.4 -35.6C1313 -35.4 1312.6 -35.2 1312.2 -34.9C1308.5 -32.9 1304.9 -30.9 1301.4 -28.7C1301 -28.5 1300.6 -28.2 1300.3 -28C1296.5 -25.7 1292.8 -23.3 1289.1 -20.8C1288.7 -20.6 1288.4 -20.3 1288 -20.1C1283.9 -17.3 1279.9 -14.5 1276 -11.6C1275.6 -11.3 1275.3 -11.1 1274.9 -10.8C1270.6 -7.60004 1266.4 -4.30005 1262.3 -1.00005C1261.9 -0.700047 1261.6 -0.400043 1261.2 -0.100044C1245.3 12.8 1230.4 26.6 1215.9 40.1C1178.7 74.5999 1143.6 107.2 1099.5 117.3C1050.3 128.6 996.199 110.6 929.199 60.5L929.999 59.4C1075.7 168.2 1140.2 108.3 1215 39C1229.7 25.4 1244.7 11.5 1260.8 -1.60004C1261.2 -1.90004 1261.5 -2.20005 1261.9 -2.50005C1266 -5.80005 1270.1 -9.00005 1274.3 -12.2C1274.7 -12.5 1275 -12.7 1275.4 -13C1279.3 -15.9 1283.3 -18.7 1287.3 -21.5C1287.7 -21.7 1288 -22 1288.4 -22.2C1292 -24.6 1295.7 -27 1299.5 -29.3C1299.9 -29.5 1300.2 -29.8 1300.6 -30C1304.1 -32.1 1307.6 -34.1 1311.2 -36.1C1311.6 -36.3 1312 -36.5 1312.4 -36.8C1315.7 -38.6 1319 -40.3 1322.4 -41.9C1322.9 -42.1 1323.3 -42.3 1323.8 -42.6C1326.8 -44 1329.9 -45.4 1333 -46.7C1333.5 -46.9 1334.1 -47.2 1334.6 -47.4C1337.5 -48.6 1340.5 -49.8 1343.5 -50.8C1344.2 -51.1 1344.8 -51.3 1345.5 -51.5C1348.1 -52.4 1350.7 -53.3 1353.4 -54.1C1354.3 -54.4 1355.1 -54.6 1356 -54.9C1358 -55.5 1360 -56.1 1362.1 -56.6C1363.3 -56.9 1364.5 -57.2 1365.7 -57.5C1367.1 -57.9 1368.4 -58.2 1369.8 -58.5C1370.1 -58.6 1370.3 -58.6 1370.6 -58.7C1372.2 -59.1 1373.9 -59.4 1375.6 -59.8C1378.7 -60.4 1381.9 -61 1385.1 -61.5C1391.4 -62.5 1397.9 -63.3 1404.6 -63.7C1407.6 -63.9 1410.6 -64.1 1413.6 -64.2C1414.1 -64.2 1414.5 -64.2 1415 -64.2C1417.2 -64.3 1419.4 -64.3 1421.7 -64.3H1422.4C1424 -64.3 1425.7 -64.3 1427.4 -64.2C1428.7 -64.2 1430 -64.1 1431.4 -64.1C1432.2 -63.9 1433.3 -63.9 1434.4 -63.8Z" fill="#245C5C" fill-opacity="0.3"/>
<path d="M1446.6 -67.5C1445.2 -67.1 1443.7 -66.7 1442.3 -66.3C1440.8 -66.3 1439.3 -66.2 1437.8 -66.1C1436.6 -66.1 1435.5 -66 1434.3 -65.9C1432.4 -65.8 1430.5 -65.7 1428.7 -65.5C1428 -65.4 1427.2 -65.4 1426.5 -65.3C1422.5 -65 1418.6 -64.5 1414.8 -64C1413.7 -63.9 1412.7 -63.7 1411.6 -63.5C1408.2 -63 1404.8 -62.4 1401.4 -61.8C1400.6 -61.7 1399.7 -61.5 1398.9 -61.3C1396.4 -60.8 1394 -60.3 1391.5 -59.7C1390 -59.4 1388.5 -59 1387 -58.6C1385.9 -58.3 1384.7 -58 1383.6 -57.7C1380.9 -57 1378.3 -56.3 1375.7 -55.5C1374.8 -55.2 1373.8 -54.9 1372.9 -54.7C1370.2 -53.9 1367.6 -53 1365 -52.1C1364.3 -51.8 1363.5 -51.6 1362.8 -51.3C1359.7 -50.2 1356.7 -49 1353.7 -47.8C1353.1 -47.6 1352.5 -47.3 1352 -47.1C1348.7 -45.7 1345.4 -44.3 1342.1 -42.8C1341.6 -42.6 1341.1 -42.3 1340.6 -42.1C1337.2 -40.5 1333.8 -38.9 1330.5 -37.1C1330.1 -36.9 1329.7 -36.7 1329.2 -36.4C1325.5 -34.5 1321.9 -32.5 1318.4 -30.4C1318 -30.2 1317.6 -30 1317.2 -29.7C1313.3 -27.4 1309.5 -25.1 1305.8 -22.7C1305.4 -22.5 1305.1 -22.2 1304.7 -22C1300.7 -19.4 1296.8 -16.7 1292.9 -13.9C1292.5 -13.6 1292.2 -13.4 1291.8 -13.1C1287.5 -10 1283.3 -6.8 1279.2 -3.6C1278.8 -3.3 1278.5 -3 1278.1 -2.8C1273.6 0.699997 1269.2 4.3 1264.9 8C1264.5 8.3 1264.2 8.6 1263.8 8.9C1249 21.5 1235.1 34.6 1221.6 47.4C1184.4 82.6 1149.2 115.8 1105.6 125.9C1057.3 137.1 1003.6 118.8 936.6 68.3L937.4 67.2C1004 117.4 1057.4 135.7 1105.3 124.6C1148.5 114.6 1183.6 81.5 1220.7 46.5C1234.2 33.8 1248.3 20.5 1263.4 7.6C1263.8 7.3 1264.1 7 1264.5 6.7C1268.8 3.1 1273.1 -0.5 1277.6 -3.9C1278 -4.2 1278.3 -4.5 1278.7 -4.7C1282.8 -7.9 1286.9 -11 1291.2 -14.1C1291.6 -14.4 1291.9 -14.6 1292.3 -14.9C1296.1 -17.6 1300 -20.3 1304 -22.9C1304.4 -23.1 1304.7 -23.4 1305.1 -23.6C1308.8 -26 1312.5 -28.3 1316.3 -30.6C1316.7 -30.8 1317.1 -31.1 1317.5 -31.3C1321 -33.3 1324.5 -35.3 1328.2 -37.2C1328.6 -37.4 1329.1 -37.7 1329.5 -37.9C1332.7 -39.6 1336 -41.2 1339.4 -42.8C1339.9 -43 1340.4 -43.3 1340.9 -43.5C1344.1 -45 1347.3 -46.4 1350.5 -47.7C1351.1 -48 1351.7 -48.2 1352.2 -48.4C1354.6 -49.4 1357.1 -50.3 1359.5 -51.3C1360 -51.5 1360.4 -51.6 1360.9 -51.8C1361.6 -52.1 1362.4 -52.3 1363.1 -52.6C1365.5 -53.5 1368 -54.3 1370.5 -55.1C1371.4 -55.4 1372.4 -55.7 1373.3 -56C1375.6 -56.7 1377.9 -57.4 1380.2 -58C1381.3 -58.3 1382.5 -58.6 1383.7 -58.9C1384.5 -59.1 1385.4 -59.3 1386.2 -59.5C1387.6 -59.9 1388.9 -60.2 1390.3 -60.5C1391.5 -60.8 1392.7 -61 1393.8 -61.3C1397.2 -62 1400.7 -62.7 1404.2 -63.3C1410.4 -64.4 1416.7 -65.2 1423.2 -65.9C1426.2 -66.2 1429.3 -66.5 1432.4 -66.7C1434.8 -66.9 1437.3 -67 1439.7 -67.1C1439.9 -67.1 1440.1 -67.1 1440.2 -67.1C1440.8 -67.1 1441.4 -67.2 1441.9 -67.2C1443.6 -67.4 1445.1 -67.4 1446.6 -67.5Z" fill="#245C5C" fill-opacity="0.3"/>
<path d="M1460.1 -71C1456.9 -70.2 1453.8 -69.4 1450.7 -68.6C1448.3 -68.3 1445.9 -68.1 1443.5 -67.8C1442.6 -67.7 1441.8 -67.6 1440.9 -67.5C1440.5 -67.4 1440.2 -67.4 1439.8 -67.3C1436 -66.8 1432.3 -66.2 1428.7 -65.5C1427.1 -65.2 1425.5 -64.9 1423.9 -64.6C1423.9 -64.6 1423.9 -64.6 1423.8 -64.6C1423 -64.4 1422.2 -64.3 1421.4 -64.1C1419.1 -63.6 1416.8 -63.1 1414.5 -62.6C1412.3 -62.1 1410 -61.6 1407.8 -61C1406.1 -60.6 1404.5 -60.1 1402.8 -59.7C1400.4 -59.1 1398.1 -58.4 1395.7 -57.7C1394.8 -57.4 1393.9 -57.2 1393 -56.9C1389.9 -56 1386.9 -55 1383.9 -53.9C1383.1 -53.6 1382.3 -53.3 1381.5 -53.1C1378.5 -52 1375.5 -50.9 1372.5 -49.8C1371.9 -49.5 1371.2 -49.3 1370.6 -49C1367.2 -47.7 1363.9 -46.2 1360.7 -44.8C1360.2 -44.6 1359.7 -44.3 1359.1 -44.1C1355.5 -42.5 1351.9 -40.8 1348.4 -39C1347.9 -38.8 1347.5 -38.5 1347 -38.3C1343.4 -36.5 1339.8 -34.5 1336.3 -32.6C1335.9 -32.4 1335.5 -32.1 1335.1 -31.9C1331.2 -29.7 1327.4 -27.4 1323.6 -25.1C1323.2 -24.9 1322.9 -24.6 1322.5 -24.4C1318.4 -21.9 1314.4 -19.2 1310.5 -16.6C1310.1 -16.4 1309.8 -16.1 1309.4 -15.9C1305.2 -13 1301 -10 1297 -7C1296.6 -6.7 1296.3 -6.5 1295.9 -6.2C1291.4 -2.8 1287 0.599998 1282.7 4.2C1282.3 4.5 1282 4.8 1281.6 5.1C1276.9 9 1272.3 12.9 1267.8 16.8C1267.4 17.1 1267.1 17.4 1266.7 17.7C1252.9 29.9 1239.9 42.3 1227.5 54.2C1188.6 91.6 1155 123.9 1112 133.9C1064.5 144.9 1011.3 126.3 944.299 75.4L945.099 74.3C1090 184.6 1150.3 126.6 1226.6 53.2C1239.1 41.1 1252.2 28.5 1266.3 16.2C1266.7 15.9 1267 15.6 1267.4 15.3C1271.9 11.4 1276.4 7.5 1281.1 3.7C1281.5 3.39999 1281.8 3.10001 1282.2 2.8C1286.5 -0.699997 1290.8 -4.1 1295.3 -7.5L1296.4 -8.3C1300.4 -11.3 1304.5 -14.3 1308.7 -17.1C1309.1 -17.4 1309.4 -17.6 1309.8 -17.8C1313.7 -20.5 1317.6 -23.1 1321.6 -25.6C1322 -25.8 1322.3 -26.1 1322.7 -26.3C1326.4 -28.6 1330.1 -30.8 1334 -33C1334.4 -33.2 1334.8 -33.5 1335.2 -33.7C1338.6 -35.6 1342.1 -37.5 1345.7 -39.3C1346.2 -39.5 1346.6 -39.8 1347.1 -40C1350.5 -41.7 1353.9 -43.4 1357.4 -45C1357.9 -45.2 1358.4 -45.5 1359 -45.7C1362.1 -47.1 1365.3 -48.5 1368.5 -49.8C1369 -50 1369.4 -50.2 1369.9 -50.4C1370.1 -50.5 1370.3 -50.6 1370.5 -50.6C1373.3 -51.7 1376 -52.8 1378.8 -53.8C1379.6 -54.1 1380.4 -54.4 1381.2 -54.6C1383.9 -55.6 1386.6 -56.5 1389.4 -57.4C1390.3 -57.7 1391.2 -58 1392.1 -58.2C1393.9 -58.8 1395.7 -59.3 1397.5 -59.8C1399.2 -60.3 1400.9 -60.8 1402.7 -61.3C1403.9 -61.6 1405.1 -61.9 1406.2 -62.2C1408 -62.7 1409.8 -63.1 1411.6 -63.5C1412.2 -63.6 1412.8 -63.8 1413.4 -63.9C1416.7 -64.7 1420 -65.4 1423.4 -66C1429.9 -67.3 1436.4 -68.3 1443 -69.1C1446.4 -69.5 1449.8 -69.9 1453.2 -70.2C1455.2 -70.4 1457.1 -70.6 1459.1 -70.7C1459.4 -70.9 1459.8 -70.9 1460.1 -71Z" fill="#245C5C" fill-opacity="0.3"/>
<path d="M1479 -75C1473.1 -73.9 1467.2 -72.6 1461.6 -71.3C1460.8 -71.2 1459.9 -71 1459.1 -70.9C1454.8 -70.2 1450.5 -69.4 1446.3 -68.6C1444.5 -68.2 1442.8 -67.9 1441 -67.5C1440.8 -67.5 1440.6 -67.4 1440.4 -67.4C1438.4 -67 1436.4 -66.5 1434.4 -66C1432 -65.4 1429.6 -64.8 1427.2 -64.2C1425.6 -63.8 1424 -63.3 1422.4 -62.9C1419.8 -62.2 1417.3 -61.4 1414.8 -60.7C1413.5 -60.3 1412.2 -59.9 1410.9 -59.5C1408.2 -58.6 1405.5 -57.7 1402.9 -56.8C1402.1 -56.5 1401.4 -56.3 1400.7 -56C1397.4 -54.8 1394.2 -53.6 1391.1 -52.4C1390.4 -52.1 1389.7 -51.9 1389.1 -51.6C1385.9 -50.3 1382.7 -49 1379.5 -47.6C1378.9 -47.3 1378.3 -47.1 1377.7 -46.8C1374.2 -45.2 1370.7 -43.6 1367.3 -41.9C1366.8 -41.7 1366.3 -41.4 1365.8 -41.2C1362 -39.3 1358.3 -37.4 1354.6 -35.4C1354.2 -35.2 1353.7 -34.9 1353.3 -34.7C1349.5 -32.6 1345.7 -30.4 1342 -28.2C1341.6 -28 1341.2 -27.7 1340.8 -27.5C1336.7 -25 1332.7 -22.5 1328.8 -19.9C1328.4 -19.7 1328.1 -19.4 1327.7 -19.2C1323.4 -16.4 1319.2 -13.5 1315.2 -10.5C1314.8 -10.3 1314.5 -10 1314.1 -9.7C1309.7 -6.5 1305.3 -3.2 1301.1 0.0999985C1300.7 0.400002 1300.4 0.599998 1300.1 0.900002C1295.4 4.6 1290.8 8.39999 1286.3 12.2C1285.9 12.5 1285.6 12.8 1285.3 13.1C1280.4 17.3 1275.6 21.5 1270.9 25.8C1270.5 26.1 1270.2 26.5 1269.8 26.8C1257.1 38.4 1245.2 50 1233.7 61.3C1194.8 99.3 1161.2 132.2 1118.7 142.1C1072.1 152.9 1019.3 134.1 952.398 82.7L953.198 81.7C1019.7 132.8 1072.2 151.6 1118.4 140.9C1160.6 131.1 1194.1 98.4 1232.8 60.5C1244.5 49.1 1256.6 37.3 1269.4 25.5C1269.8 25.2 1270.1 24.9 1270.5 24.5C1275.2 20.3 1279.9 16.1 1284.8 11.9C1285.1 11.6 1285.5 11.3 1285.8 11C1290.2 7.2 1294.8 3.5 1299.5 -0.199997C1299.8 -0.5 1300.2 -0.699997 1300.5 -1C1304.7 -4.3 1309 -7.5 1313.3 -10.7C1313.7 -11 1314 -11.2 1314.4 -11.5C1318.4 -14.4 1322.6 -17.3 1326.8 -20.1C1327.2 -20.4 1327.5 -20.6 1327.9 -20.8C1331.8 -23.4 1335.7 -25.9 1339.7 -28.3C1340.1 -28.6 1340.5 -28.8 1340.9 -29C1344.5 -31.2 1348.2 -33.3 1352 -35.4C1352.4 -35.6 1352.9 -35.9 1353.3 -36.1C1356.9 -38.1 1360.5 -40 1364.2 -41.8C1364.7 -42.1 1365.2 -42.3 1365.7 -42.5C1369 -44.1 1372.4 -45.7 1375.8 -47.3C1376.4 -47.6 1377 -47.8 1377.6 -48.1C1380.6 -49.4 1383.7 -50.7 1386.7 -52C1387.4 -52.3 1388.1 -52.6 1388.8 -52.8C1391.8 -54 1394.8 -55.2 1397.8 -56.3C1398.5 -56.6 1399.3 -56.9 1400 -57.1C1402.4 -57.9 1404.7 -58.8 1407.1 -59.6C1408.4 -60 1409.7 -60.5 1411.1 -60.9C1413.1 -61.5 1415.2 -62.2 1417.2 -62.8C1418.8 -63.3 1420.5 -63.8 1422.1 -64.2C1422.7 -64.4 1423.2 -64.5 1423.8 -64.7C1423.8 -64.7 1423.8 -64.7 1423.9 -64.7C1424.7 -64.9 1425.6 -65.2 1426.5 -65.4C1428.5 -65.9 1430.5 -66.4 1432.5 -67C1435.9 -67.8 1439.4 -68.6 1442.9 -69.4C1449.8 -70.9 1457 -72.2 1464.3 -73.3C1469.2 -73.8 1474.1 -74.4 1479 -75Z" fill="#245C5C" fill-opacity="0.3"/>
<path d="M1479 -75C1473.1 -73.9 1467.2 -72.6 1461.6 -71.3C1461.1 -71.2 1460.7 -71.1 1460.2 -71C1457 -70.2 1453.9 -69.4 1450.8 -68.6C1449.4 -68.2 1448.1 -67.9 1446.7 -67.5C1445.3 -67.1 1443.8 -66.7 1442.4 -66.3C1439.7 -65.5 1437 -64.7 1434.4 -63.9C1433.1 -63.5 1431.9 -63.1 1430.6 -62.7C1427.7 -61.8 1424.9 -60.8 1422.1 -59.8C1421 -59.4 1419.9 -59 1418.9 -58.6C1415.9 -57.5 1413 -56.4 1410.1 -55.2C1409.4 -54.9 1408.8 -54.7 1408.1 -54.4C1404.7 -53 1401.3 -51.6 1397.9 -50.1C1397.3 -49.8 1396.7 -49.5 1396 -49.3C1392.6 -47.8 1389.2 -46.2 1385.9 -44.6C1385.3 -44.3 1384.8 -44.1 1384.2 -43.8C1380.5 -42 1376.8 -40.1 1373.3 -38.2C1372.8 -38 1372.4 -37.7 1371.9 -37.5C1367.9 -35.4 1364.1 -33.2 1360.3 -31C1359.9 -30.8 1359.5 -30.5 1359.1 -30.3C1355.1 -27.9 1351.2 -25.5 1347.3 -23C1346.9 -22.8 1346.6 -22.5 1346.2 -22.3C1341.9 -19.6 1337.8 -16.8 1333.7 -13.9C1333.3 -13.7 1333 -13.4 1332.6 -13.1C1328.2 -10 1323.8 -6.8 1319.6 -3.6C1319.2 -3.3 1318.9 -3.10001 1318.5 -2.8C1313.9 0.699997 1309.4 4.3 1305 7.9C1304.7 8.2 1304.3 8.5 1304 8.7C1299.1 12.7 1294.3 16.8 1289.7 21C1289.3 21.3 1289 21.6 1288.6 21.9C1283.5 26.4 1278.5 31 1273.6 35.6C1273.2 35.9 1272.9 36.3 1272.5 36.6C1261 47.4 1250.1 58.3 1239.5 68.8C1200.6 107.5 1167.1 140.9 1125 150.6C1079.3 161.2 1026.9 142.1 960.1 90.3L960.9 89.3C1104.8 200.9 1160.9 145.1 1238.5 67.9C1249.2 57.2 1260.3 46.2 1272.1 35.2C1272.5 34.8 1272.8 34.5 1273.2 34.2C1278.1 29.7 1283 25.1 1288.1 20.6C1288.5 20.3 1288.8 20 1289.2 19.7C1293.8 15.6 1298.6 11.6 1303.5 7.6C1303.8 7.3 1304.2 7 1304.5 6.8C1308.9 3.2 1313.3 -0.300003 1317.9 -3.8C1318.3 -4.10001 1318.6 -4.3 1318.9 -4.6C1323.1 -7.8 1327.4 -10.9 1331.8 -14C1332.2 -14.3 1332.5 -14.5 1332.9 -14.7C1336.9 -17.5 1341.1 -20.3 1345.3 -23C1345.7 -23.2 1346 -23.5 1346.4 -23.7C1350.2 -26.1 1354.1 -28.5 1358.1 -30.9C1358.5 -31.1 1358.9 -31.4 1359.3 -31.6C1363.1 -33.8 1366.9 -35.9 1370.8 -38C1371.3 -38.3 1371.7 -38.5 1372.2 -38.7C1375.7 -40.6 1379.3 -42.4 1382.9 -44.2C1383.5 -44.5 1384 -44.7 1384.6 -45C1386.5 -45.9 1388.3 -46.8 1390.2 -47.7C1391.6 -48.4 1393 -49 1394.5 -49.6C1395.1 -49.9 1395.7 -50.2 1396.4 -50.4C1399.6 -51.9 1402.9 -53.2 1406.2 -54.6C1406.8 -54.9 1407.5 -55.2 1408.2 -55.4C1411 -56.5 1413.7 -57.6 1416.5 -58.6C1417.6 -59 1418.7 -59.4 1419.7 -59.8C1422.3 -60.7 1424.8 -61.6 1427.4 -62.5C1428.7 -62.9 1429.9 -63.3 1431.2 -63.8C1433.4 -64.5 1435.7 -65.2 1437.9 -65.9C1439.3 -66.3 1440.7 -66.8 1442.2 -67.2C1442.7 -67.4 1443.2 -67.5 1443.6 -67.6C1444.5 -67.9 1445.4 -68.1 1446.3 -68.4C1448.6 -69 1450.9 -69.6 1453.2 -70.2C1456.9 -71.2 1460.7 -72.1 1464.4 -72.9C1469.2 -73.8 1474.1 -74.4 1479 -75Z" fill="#245C5C" fill-opacity="0.3"/>
</g>
<defs>
<clipPath id="clip0_1132_1888">
<rect width="1600" height="415" fill="white"/>
</clipPath>
</defs>
</svg>
