<svg width="421" height="35" viewBox="0 0 421 35" fill="none" xmlns="http://www.w3.org/2000/svg">
<path d="M403.5 35H17.5C7.8 35 0 27.2 0 17.5C0 7.8 7.8 0 17.5 0H403.5C413.2 0 421 7.8 421 17.5C421 27.2 413.2 35 403.5 35Z" fill="#2864BC"/>
<path d="M66.0996 25.2999V7.79993H78.2996V11.2H70.2996V14.7H77.5996V18.0999H70.2996V21.7999H78.2996V25.2H66.0996V25.2999Z" fill="white"/>
<path d="M80.1992 25.3V12.2H84.0992V14.6H84.2992C84.5992 13.8 84.9992 13.2 85.6992 12.7C86.3992 12.2 87.0992 12 87.9992 12C88.8992 12 89.6992 12.2 90.2992 12.7C90.8992 13.2 91.3992 13.8 91.4992 14.6H91.5992C91.7992 13.8 92.2992 13.2 92.9992 12.7C93.6992 12.2 94.5992 12 95.4992 12C96.6992 12 97.6992 12.4 98.4992 13.2C99.2992 14 99.6992 15.1 99.6992 16.5V25.3H95.4992V17.4C95.4992 16.8 95.2992 16.3 94.9992 15.9C94.6992 15.5 94.1992 15.4 93.6992 15.4C93.0992 15.4 92.6992 15.6 92.3992 16C92.0992 16.4 91.8992 16.9 91.8992 17.5V25.3H87.8992V17.4C87.8992 16.8 87.6992 16.3 87.3992 16C87.0992 15.7 86.5992 15.5 86.0992 15.5C85.6992 15.5 85.3992 15.6 85.0992 15.8C84.7992 16 84.5992 16.2 84.3992 16.5C84.1992 16.8 84.1992 17.2 84.1992 17.6V25.3H80.1992Z" fill="white"/>
<path d="M109.8 25.4998C109.1 25.4998 108.6 25.3998 108.1 25.1998C107.6 24.9998 107.2 24.6998 106.9 24.2998C106.6 23.8998 106.3 23.5998 106.2 23.1998H106V25.2998H101.9V7.7998H106.1V14.3998H106.2C106.4 13.9998 106.6 13.5998 106.9 13.1998C107.2 12.7998 107.6 12.4998 108.1 12.2998C108.6 12.0998 109.2 11.8998 109.9 11.8998C110.8 11.8998 111.7 12.0998 112.5 12.5998C113.3 13.0998 113.9 13.7998 114.4 14.7998C114.9 15.7998 115.1 17.0998 115.1 18.5998C115.1 20.0998 114.9 21.2998 114.4 22.2998C113.9 23.2998 113.3 24.0998 112.5 24.4998C111.7 24.8998 110.7 25.4998 109.8 25.4998ZM108.3 22.1998C108.8 22.1998 109.3 22.0998 109.6 21.7998C109.9 21.4998 110.2 21.0998 110.4 20.5998C110.6 20.0998 110.7 19.4998 110.7 18.7998C110.7 18.0998 110.6 17.4998 110.4 16.9998C110.2 16.4998 109.9 16.0998 109.6 15.7998C109.3 15.4998 108.8 15.3998 108.3 15.3998C107.8 15.3998 107.4 15.4998 107 15.7998C106.6 16.0998 106.4 16.4998 106.2 16.9998C106 17.4998 105.9 18.0998 105.9 18.8998C105.9 19.5998 106 20.1998 106.2 20.6998C106.4 21.1998 106.7 21.5998 107 21.8998C107.3 22.1998 107.8 22.1998 108.3 22.1998Z" fill="white"/>
<path d="M116.5 25.2998V12.1999H120.5V14.5999H120.6C120.8 13.6999 121.2 13.0999 121.8 12.6999C122.4 12.2999 123 12.0999 123.7 12.0999C123.9 12.0999 124.1 12.0999 124.3 12.0999C124.5 12.0999 124.7 12.1999 124.9 12.1999V15.7998C124.7 15.6998 124.4 15.6999 124.1 15.5999C123.8 15.4999 123.5 15.4998 123.2 15.4998C122.7 15.4998 122.3 15.5998 121.9 15.7998C121.5 15.9998 121.2 16.2999 121 16.6999C120.8 17.0999 120.7 17.4999 120.7 18.0999V25.1999H116.5V25.2998Z" fill="white"/>
<path d="M129.099 25.4999C128.299 25.4999 127.499 25.3999 126.899 25.0999C126.299 24.7999 125.699 24.3999 125.399 23.7999C125.099 23.1999 124.799 22.4999 124.799 21.5999C124.799 20.8999 124.899 20.2999 125.199 19.7999C125.499 19.2999 125.799 18.8999 126.299 18.5999C126.799 18.2999 127.299 17.9999 127.899 17.8999C128.499 17.7999 129.099 17.5999 129.799 17.5999C130.499 17.4999 131.099 17.4999 131.599 17.3999C132.099 17.2999 132.399 17.1999 132.599 17.0999C132.799 16.9999 132.899 16.6999 132.899 16.4999V16.3999C132.899 15.9999 132.799 15.5999 132.499 15.3999C132.199 15.1999 131.799 14.9999 131.299 14.9999C130.699 14.9999 130.299 15.0999 129.999 15.3999C129.699 15.6999 129.499 15.9999 129.399 16.3999L125.599 16.2999C125.699 15.4999 125.999 14.8 126.499 14.2C126.999 13.6 127.599 13.1 128.499 12.7C129.399 12.3 130.299 12.2 131.499 12.2C132.299 12.2 133.099 12.2999 133.799 12.4999C134.499 12.6999 135.099 12.9999 135.599 13.3999C136.099 13.7999 136.499 14.1999 136.799 14.7999C137.099 15.3999 137.199 15.9999 137.199 16.5999V25.4999H132.999V23.4999H132.899C132.699 23.9999 132.399 24.2999 131.999 24.5999C131.599 24.8999 131.199 25.0999 130.699 25.2999C130.199 25.4999 129.699 25.4999 129.099 25.4999ZM130.399 22.7999C130.799 22.7999 131.199 22.6999 131.599 22.4999C131.999 22.2999 132.299 22.1 132.499 21.7C132.699 21.3 132.799 20.9999 132.799 20.5999V19.3999C132.699 19.4999 132.499 19.4999 132.399 19.5999C132.299 19.6999 131.999 19.7 131.799 19.7C131.599 19.7 131.399 19.7999 131.199 19.7999C130.999 19.7999 130.799 19.8999 130.599 19.8999C130.199 19.9999 129.899 20.1 129.599 20.2C129.299 20.3 129.099 20.5 128.999 20.7C128.899 20.9 128.799 21.0999 128.799 21.3999C128.799 21.7999 128.999 22.1999 129.299 22.3999C129.599 22.5999 129.899 22.7999 130.399 22.7999Z" fill="white"/>
<path d="M144.999 25.4999C143.599 25.4999 142.399 25.1999 141.399 24.5999C140.399 23.9999 139.699 23.1999 139.099 22.1999C138.499 21.1999 138.299 19.9999 138.299 18.6999C138.299 17.3999 138.599 16.1999 139.099 15.1999C139.599 14.1999 140.399 13.3999 141.399 12.7999C142.399 12.1999 143.599 11.8999 144.899 11.8999C146.099 11.8999 147.199 12.0999 148.099 12.5999C148.999 13.0999 149.699 13.6999 150.199 14.4999C150.699 15.2999 150.999 16.1999 150.999 17.2999H147.099C146.999 16.8999 146.899 16.4999 146.699 16.1999C146.499 15.8999 146.299 15.5999 145.999 15.4999C145.699 15.3999 145.299 15.1999 144.999 15.1999C144.499 15.1999 144.099 15.2999 143.699 15.5999C143.299 15.8999 143.099 16.2999 142.899 16.7999C142.699 17.2999 142.599 17.9999 142.599 18.7999C142.599 19.5999 142.699 20.1999 142.899 20.7999C143.099 21.3999 143.399 21.6999 143.699 21.9999C143.999 22.2999 144.499 22.3999 144.999 22.3999C145.599 22.3999 145.999 22.1999 146.399 21.7999C146.799 21.3999 146.999 20.8999 147.099 20.1999H150.999C150.999 21.2999 150.699 22.1999 150.199 22.9999C149.699 23.7999 148.999 24.3999 148.099 24.8999C147.199 25.3999 146.199 25.4999 144.999 25.4999Z" fill="white"/>
<path d="M158.7 25.4998C157.3 25.4998 156.1 25.1999 155.1 24.6999C154.1 24.1999 153.3 23.3998 152.8 22.3998C152.3 21.3998 152 20.1998 152 18.7998C152 17.3998 152.3 16.2998 152.8 15.2998C153.3 14.2998 154.1 13.4998 155 12.8998C155.9 12.2998 157.1 12.0999 158.4 12.0999C159.3 12.0999 160.2 12.1998 161 12.4998C161.8 12.7998 162.4 13.1998 163 13.7998C163.6 14.3998 164 15.0998 164.3 15.8998C164.6 16.6998 164.8 17.6998 164.8 18.7998V19.7998H153.4V17.3998H162.8L160.9 17.9998C160.9 17.3998 160.8 16.8998 160.6 16.4998C160.4 16.0998 160.2 15.6998 159.8 15.4998C159.4 15.2998 159 15.0999 158.5 15.0999C158 15.0999 157.5 15.1998 157.2 15.4998C156.9 15.7998 156.6 16.0998 156.4 16.4998C156.2 16.8998 156.1 17.3998 156.1 17.9998V19.6999C156.1 20.2999 156.2 20.7998 156.4 21.2998C156.6 21.7998 156.9 22.0998 157.3 22.2998C157.7 22.4998 158.1 22.6999 158.7 22.6999C159.1 22.6999 159.4 22.5998 159.7 22.4998C160 22.3998 160.3 22.1998 160.5 21.9998C160.7 21.7998 160.9 21.5998 161 21.2998L164.8 21.3998C164.6 22.2998 164.3 22.9999 163.8 23.5999C163.3 24.1999 162.6 24.6999 161.7 25.0999C160.8 25.4999 159.8 25.4998 158.7 25.4998Z" fill="white"/>
<path d="M170.199 11.2999V7.8999H184.999V11.2999H179.699V25.2999H175.599V11.2999H170.199Z" fill="white"/>
<path d="M190.6 17.7998V25.2998H186.4V7.7998H190.4V14.5998H190.6C190.9 13.7998 191.4 13.1998 192.1 12.6998C192.8 12.1998 193.6 11.9998 194.6 11.9998C195.5 11.9998 196.3 12.1998 197 12.5998C197.7 12.9998 198.2 13.5998 198.6 14.2998C199 14.9998 199.2 15.8998 199.2 16.8998V25.1998H195V17.6998C195 16.9998 194.8 16.3998 194.4 15.9998C194 15.5998 193.5 15.3998 192.8 15.3998C192.4 15.3998 192 15.4998 191.6 15.6998C191.2 15.8998 191 16.1998 190.8 16.4998C190.6 16.7998 190.6 17.2998 190.6 17.7998Z" fill="white"/>
<path d="M207.1 25.4998C205.7 25.4998 204.5 25.1999 203.5 24.6999C202.5 24.1999 201.7 23.3998 201.2 22.3998C200.7 21.3998 200.4 20.1998 200.4 18.7998C200.4 17.3998 200.7 16.2998 201.2 15.2998C201.7 14.2998 202.5 13.4998 203.4 12.8998C204.3 12.2998 205.5 12.0999 206.8 12.0999C207.7 12.0999 208.6 12.1998 209.4 12.4998C210.2 12.7998 210.8 13.1998 211.4 13.7998C212 14.3998 212.4 15.0998 212.7 15.8998C213 16.6998 213.2 17.6998 213.2 18.7998V19.7998H202V17.3998H211.4L209.5 17.9998C209.5 17.3998 209.4 16.8998 209.2 16.4998C209 16.0998 208.8 15.6998 208.4 15.4998C208 15.2998 207.6 15.0999 207.1 15.0999C206.6 15.0999 206.1 15.1998 205.8 15.4998C205.5 15.7998 205.2 16.0998 205 16.4998C204.8 16.8998 204.7 17.3998 204.7 17.9998V19.6999C204.7 20.2999 204.8 20.7998 205 21.2998C205.2 21.7998 205.5 22.0998 205.9 22.2998C206.3 22.4998 206.7 22.6999 207.3 22.6999C207.7 22.6999 208 22.5998 208.3 22.4998C208.6 22.3998 208.9 22.1998 209.1 21.9998C209.3 21.7998 209.5 21.5998 209.6 21.2998L213.4 21.3998C213.2 22.2998 212.9 22.9999 212.4 23.5999C211.9 24.1999 211.2 24.6999 210.3 25.0999C209.4 25.4999 208.3 25.4998 207.1 25.4998Z" fill="white"/>
<path d="M227.4 25.4999C225.8 25.4999 224.4 25.1999 223.2 24.4999C222 23.7999 221 22.7999 220.2 21.4999C219.4 20.1999 219.1 18.4999 219.1 16.5999C219.1 14.6999 219.5 13 220.2 11.7C220.9 10.4 221.9 9.29995 223.2 8.69995C224.5 8.09995 225.9 7.69995 227.4 7.69995C228.5 7.69995 229.4 7.79995 230.3 8.09995C231.2 8.39995 232 8.79993 232.7 9.39993C233.4 9.99993 233.9 10.5999 234.4 11.4999C234.9 12.3999 235.1 13.1999 235.2 14.2999H230.9C230.8 13.8999 230.7 13.4999 230.6 13.0999C230.5 12.6999 230.2 12.4 229.9 12.2C229.6 12 229.3 11.7999 228.9 11.5999C228.5 11.3999 228.1 11.3999 227.6 11.3999C226.8 11.3999 226 11.5999 225.4 11.9999C224.8 12.3999 224.3 12.9999 224 13.7999C223.7 14.5999 223.5 15.5 223.5 16.7C223.5 17.8 223.7 18.7999 224 19.5999C224.3 20.3999 224.8 20.9999 225.4 21.3999C226 21.7999 226.7 21.9999 227.6 21.9999C228.1 21.9999 228.5 21.8999 228.9 21.7999C229.3 21.6999 229.6 21.4999 229.9 21.2999C230.2 21.0999 230.4 20.7999 230.6 20.4999C230.8 20.1999 230.9 19.7999 231 19.3999H235.3C235.2 20.1999 235 20.9 234.6 21.7C234.2 22.5 233.7 23.0999 233.1 23.7999C232.5 24.4999 231.7 24.8999 230.7 25.2999C229.7 25.6999 228.6 25.4999 227.4 25.4999Z" fill="white"/>
<path d="M240.999 17.7998V25.2998H236.799V7.7998H240.799V14.5998H240.999C241.299 13.7998 241.799 13.1998 242.499 12.6998C243.199 12.1998 243.999 11.9998 244.999 11.9998C245.899 11.9998 246.699 12.1998 247.399 12.5998C248.099 12.9998 248.599 13.5998 248.999 14.2998C249.399 14.9998 249.599 15.8998 249.599 16.8998V25.1998H245.399V17.6998C245.399 16.9998 245.199 16.3998 244.799 15.9998C244.399 15.5998 243.899 15.3998 243.199 15.3998C242.799 15.3998 242.399 15.4998 241.999 15.6998C241.599 15.8998 241.399 16.1998 241.199 16.4998C240.999 16.7998 240.999 17.2998 240.999 17.7998Z" fill="white"/>
<path d="M240.999 17.7998V25.2998H236.799V7.7998H240.799V14.5998H240.999C241.299 13.7998 241.799 13.1998 242.499 12.6998C243.199 12.1998 243.999 11.9998 244.999 11.9998C245.899 11.9998 246.699 12.1998 247.399 12.5998C248.099 12.9998 248.599 13.5998 248.999 14.2998C249.399 14.9998 249.599 15.8998 249.599 16.8998V25.1998H245.399V17.6998C245.399 16.9998 245.199 16.3998 244.799 15.9998C244.399 15.5998 243.899 15.3998 243.199 15.3998C242.799 15.3998 242.399 15.4998 241.999 15.6998C241.599 15.8998 241.399 16.1998 241.199 16.4998C240.999 16.7998 240.999 17.2998 240.999 17.7998Z" fill="white"/>
<path d="M255.2 25.4999C254.4 25.4999 253.6 25.3999 253 25.0999C252.4 24.7999 251.8 24.3999 251.5 23.7999C251.2 23.1999 250.9 22.4999 250.9 21.5999C250.9 20.8999 251 20.2999 251.3 19.7999C251.6 19.2999 251.9 18.8999 252.4 18.5999C252.9 18.2999 253.4 17.9999 254 17.8999C254.6 17.7999 255.2 17.5999 255.9 17.5999C256.6 17.4999 257.2 17.4999 257.7 17.3999C258.2 17.2999 258.5 17.1999 258.7 17.0999C258.9 16.9999 259 16.6999 259 16.4999V16.3999C259 15.9999 258.9 15.5999 258.6 15.3999C258.3 15.1999 257.9 14.9999 257.4 14.9999C256.8 14.9999 256.4 15.0999 256.1 15.3999C255.8 15.6999 255.6 15.9999 255.5 16.3999L251.7 16.2999C251.8 15.4999 252.1 14.8 252.6 14.2C253.1 13.6 253.7 13.1 254.6 12.7C255.5 12.3 256.4 12.2 257.6 12.2C258.4 12.2 259.2 12.2999 259.9 12.4999C260.6 12.6999 261.2 12.9999 261.7 13.3999C262.2 13.7999 262.6 14.1999 262.9 14.7999C263.2 15.3999 263.3 15.9999 263.3 16.5999V25.4999H259.4V23.4999H259C258.8 23.9999 258.5 24.2999 258.1 24.5999C257.7 24.8999 257.3 25.0999 256.8 25.2999C256.3 25.4999 255.8 25.4999 255.2 25.4999ZM256.5 22.7999C256.9 22.7999 257.3 22.6999 257.7 22.4999C258.1 22.2999 258.4 22.1 258.6 21.7C258.8 21.3 258.9 20.9999 258.9 20.5999V19.3999C258.8 19.4999 258.6 19.4999 258.5 19.5999C258.4 19.6999 258.1 19.7 257.9 19.7C257.7 19.7 257.5 19.7999 257.3 19.7999C257.1 19.7999 256.9 19.8999 256.7 19.8999C256.3 19.9999 256 20.1 255.7 20.2C255.4 20.3 255.2 20.5 255.1 20.7C255 20.9 254.9 21.0999 254.9 21.3999C254.9 21.7999 255.1 22.1999 255.4 22.3999C255.7 22.5999 256 22.7999 256.5 22.7999Z" fill="white"/>
<path d="M269.2 17.8V25.3H265V12.2H269.1V14.6H269.2C269.5 13.8 270 13.2 270.6 12.7C271.2 12.2 272.1 12 273 12C273.9 12 274.7 12.2 275.4 12.6C276.1 13 276.6 13.6 277 14.3C277.4 15 277.6 15.9 277.6 16.9V25.2H273.4V17.7C273.4 17 273.2 16.4 272.8 16C272.4 15.6 271.9 15.4 271.3 15.4C270.9 15.4 270.5 15.5 270.2 15.7C269.9 15.9 269.6 16.2 269.4 16.5C269.2 16.8 269.2 17.3 269.2 17.8Z" fill="white"/>
<path d="M285.7 30.4999C283.8 30.4999 282.4 30.0999 281.3 29.3999C280.2 28.6999 279.6 27.6999 279.5 26.4999L283.4 26.2999C283.5 26.5999 283.6 26.7999 283.8 26.9999C284 27.1999 284.3 27.3999 284.6 27.4999C284.9 27.5999 285.3 27.7 285.8 27.7C286.5 27.7 287.1 27.5 287.5 27.2C287.9 26.9 288.2 26.2999 288.2 25.3999V23.0999H288C287.8 23.4999 287.6 23.9 287.2 24.2C286.8 24.5 286.4 24.7999 286 24.9999C285.6 25.1999 284.9 25.2999 284.3 25.2999C283.3 25.2999 282.5 25.0999 281.7 24.5999C280.9 24.0999 280.3 23.4999 279.8 22.4999C279.3 21.4999 279.1 20.2999 279.1 18.8999C279.1 17.3999 279.3 16.0999 279.8 15.0999C280.3 14.0999 280.9 13.3999 281.7 12.8999C282.5 12.3999 283.4 12.2 284.3 12.2C285 12.2 285.6 12.2999 286.1 12.5999C286.6 12.8999 287 13.0999 287.3 13.4999C287.6 13.8999 287.9 14.3 288 14.7H288.1V12.4999H292.2V25.7C292.2 26.8 291.9 27.6999 291.4 28.4999C290.9 29.2999 290.1 29.8 289.1 30.2C288.1 30.6 287 30.4999 285.7 30.4999ZM285.8 22.0999C286.6 22.0999 287.1 21.8 287.6 21.2C288.1 20.6 288.2 19.8 288.2 18.7C288.2 18 288.1 17.3999 287.9 16.8999C287.7 16.3999 287.4 16 287.1 15.7C286.8 15.4 286.3 15.2999 285.8 15.2999C285.3 15.2999 284.8 15.4 284.5 15.7C284.2 16 283.9 16.3999 283.7 16.8999C283.5 17.3999 283.4 18 283.4 18.7C283.4 19.4 283.5 19.9999 283.7 20.4999C283.9 20.9999 284.2 21.4 284.5 21.7C284.8 22 285.3 22.0999 285.8 22.0999Z" fill="white"/>
<path d="M300.399 25.4998C298.999 25.4998 297.799 25.1999 296.799 24.6999C295.799 24.1999 294.999 23.3998 294.499 22.3998C293.999 21.3998 293.699 20.1998 293.699 18.7998C293.699 17.3998 293.999 16.2998 294.499 15.2998C294.999 14.2998 295.799 13.4998 296.699 12.8998C297.599 12.2998 298.799 12.0999 300.099 12.0999C300.999 12.0999 301.899 12.1998 302.699 12.4998C303.499 12.7998 304.099 13.1998 304.699 13.7998C305.299 14.3998 305.699 15.0998 305.999 15.8998C306.299 16.6998 306.499 17.6998 306.499 18.7998V19.7998H295.099V17.3998H304.499L302.599 17.9998C302.599 17.3998 302.499 16.8998 302.299 16.4998C302.099 16.0998 301.899 15.6998 301.499 15.4998C301.099 15.2998 300.699 15.0999 300.199 15.0999C299.699 15.0999 299.199 15.1998 298.899 15.4998C298.599 15.7998 298.299 16.0998 298.099 16.4998C297.899 16.8998 297.799 17.3998 297.799 17.9998V19.6999C297.799 20.2999 297.899 20.7998 298.099 21.2998C298.299 21.7998 298.599 22.0998 298.999 22.2998C299.399 22.4998 299.799 22.6999 300.399 22.6999C300.799 22.6999 301.099 22.5998 301.399 22.4998C301.699 22.3998 301.999 22.1998 302.199 21.9998C302.399 21.7998 302.599 21.5998 302.699 21.2998L306.499 21.3998C306.299 22.2998 305.999 22.9999 305.499 23.5999C304.999 24.1999 304.299 24.6999 303.399 25.0999C302.499 25.4999 301.499 25.4998 300.399 25.4998Z" fill="white"/>
<path d="M310.999 25.5998C310.299 25.5998 309.799 25.3998 309.299 24.9998C308.799 24.5998 308.699 24.0998 308.699 23.3998C308.699 22.6998 308.899 22.1998 309.299 21.7998C309.699 21.3998 310.299 21.1998 310.999 21.1998C311.699 21.1998 312.299 21.3998 312.699 21.7998C313.099 22.1998 313.299 22.6998 313.299 23.3998C313.299 24.0998 313.099 24.5998 312.699 24.9998C312.299 25.3998 311.699 25.5998 310.999 25.5998ZM309.099 19.7998L308.799 7.7998H313.199L312.899 19.7998H309.099Z" fill="white"/>
<path d="M322.5 8.59985V10.8998L324.1 12.4998L329.5 17.8998L324.1 23.2998L322.5 24.8998V27.1999L331.8 17.8998L322.5 8.59985Z" fill="white" stroke="white" stroke-width="2" stroke-miterlimit="10"/>
<path opacity="0.65" d="M334.5 8.59985V10.8998L336.1 12.4998L341.5 17.8998L336.1 23.2998L334.5 24.8998V27.1999L343.8 17.8998L334.5 8.59985Z" fill="white" stroke="white" stroke-width="2" stroke-miterlimit="10"/>
<path opacity="0.3" d="M346.5 8.59985V10.8998L348.1 12.4998L353.5 17.8998L348.1 23.2998L346.5 24.8998V27.1999L355.8 17.8998L346.5 8.59985Z" fill="white" stroke="white" stroke-width="2" stroke-miterlimit="10"/>
</svg>
