<svg width="606" height="36" viewBox="0 0 606 36" fill="none" xmlns="http://www.w3.org/2000/svg">
<path d="M588.5 35.3999H17.5C7.8 35.3999 0 27.5999 0 17.8999C0 8.1999 7.8 0.399902 17.5 0.399902H588.5C598.2 0.399902 606 8.1999 606 17.8999C606 27.5999 598.2 35.3999 588.5 35.3999Z" fill="#2864BC"/>
<path d="M43.8992 25.9001C42.3992 25.9001 41.1992 25.7001 40.0992 25.2001C38.9992 24.7001 38.1992 24.1001 37.5992 23.2001C36.9992 22.3001 36.6992 21.2001 36.6992 19.8001H40.6992C40.6992 20.4001 40.8992 20.8001 41.1992 21.2001C41.4992 21.6001 41.7992 21.9001 42.2992 22.1001C42.7992 22.3001 43.2992 22.4001 43.8992 22.4001C44.4992 22.4001 44.9992 22.3001 45.3992 22.2001C45.7992 22.1001 46.0992 21.8001 46.2992 21.6001C46.4992 21.4001 46.5992 21.0001 46.5992 20.7001C46.5992 20.4001 46.4992 20.1001 46.2992 19.9001C46.0992 19.7001 45.7992 19.5001 45.3992 19.3001C44.9992 19.1001 44.4992 19.0001 43.7992 18.8001L41.9992 18.4001C40.4992 18.1001 39.2992 17.5001 38.3992 16.7001C37.4992 15.9001 37.0992 14.9001 37.0992 13.5001C37.0992 12.4001 37.3992 11.5001 37.9992 10.7001C38.5992 9.90007 39.3992 9.30008 40.3992 8.80008C41.3992 8.30008 42.5992 8.1001 43.8992 8.1001C45.2992 8.1001 46.3992 8.30008 47.3992 8.80008C48.3992 9.30008 49.1992 9.90007 49.6992 10.7001C50.1992 11.5001 50.4992 12.5001 50.4992 13.6001H46.3992C46.3992 13.0001 46.0992 12.5001 45.6992 12.1001C45.2992 11.7001 44.5992 11.6001 43.7992 11.6001C43.2992 11.6001 42.7992 11.7001 42.3992 11.8001C41.9992 11.9001 41.7992 12.1001 41.5992 12.4001C41.3992 12.7001 41.2992 12.9001 41.2992 13.2001C41.2992 13.5001 41.3992 13.8001 41.5992 14.1001C41.7992 14.4001 42.0992 14.5001 42.4992 14.7001C42.8992 14.9001 43.2992 15.0001 43.8992 15.1001L45.3992 15.4001C46.2992 15.6001 46.9992 15.8001 47.6992 16.2001C48.3992 16.6001 48.8992 16.9001 49.3992 17.3001C49.8992 17.7001 50.1992 18.2001 50.3992 18.8001C50.5992 19.4001 50.7992 20.0001 50.7992 20.7001C50.7992 21.8001 50.4992 22.8001 49.9992 23.6001C49.4992 24.4001 48.6992 25.0001 47.5992 25.4001C46.4992 25.8001 45.2992 25.9001 43.8992 25.9001Z" fill="white"/>
<path d="M54.3988 11.1001C53.7988 11.1001 53.2988 10.9001 52.8988 10.5001C52.4988 10.1001 52.2988 9.6001 52.2988 9.1001C52.2988 8.6001 52.4988 8.10007 52.8988 7.70007C53.2988 7.30007 53.7988 7.1001 54.3988 7.1001C54.9988 7.1001 55.4988 7.30007 55.8988 7.70007C56.2988 8.10007 56.4988 8.6001 56.4988 9.1001C56.4988 9.6001 56.2988 10.1001 55.8988 10.5001C55.4988 10.9001 54.8988 11.1001 54.3988 11.1001ZM52.2988 25.7001V12.6001H56.4988V25.7001H52.2988Z" fill="white"/>
<path d="M64.4984 30.9001C62.5984 30.9001 61.1984 30.5001 60.0984 29.8001C58.9984 29.1001 58.3984 28.1001 58.2984 26.9001L62.1984 26.7001C62.2984 27.0001 62.3984 27.2001 62.5984 27.4001C62.7984 27.6001 63.0984 27.8001 63.3984 27.9001C63.6984 28.0001 64.0984 28.1001 64.5984 28.1001C65.2984 28.1001 65.8984 27.9001 66.2984 27.6001C66.6984 27.3001 66.9984 26.7001 66.9984 25.8001V23.5001H66.7984C66.5984 23.9001 66.3984 24.3001 65.9984 24.6001C65.5984 24.9001 65.1984 25.2001 64.7984 25.4001C64.3984 25.6001 63.6984 25.7001 63.0984 25.7001C62.0984 25.7001 61.2984 25.5001 60.4984 25.0001C59.6984 24.5001 59.0984 23.9001 58.5984 22.9001C58.0984 21.9001 57.8984 20.7001 57.8984 19.3001C57.8984 17.8001 58.0984 16.5001 58.5984 15.5001C59.0984 14.5001 59.6984 13.8001 60.4984 13.3001C61.2984 12.8001 62.1984 12.6001 63.0984 12.6001C63.7984 12.6001 64.3984 12.7001 64.8984 13.0001C65.3984 13.3001 65.7984 13.5001 66.0984 13.9001C66.3984 14.3001 66.6984 14.7001 66.7984 15.1001H66.8984V12.9001H70.9984V26.1001C70.9984 27.2001 70.6984 28.1001 70.1984 28.9001C69.6984 29.7001 68.8984 30.2001 67.8984 30.6001C66.8984 31.0001 65.7984 30.9001 64.4984 30.9001ZM64.5984 22.5001C65.3984 22.5001 65.8984 22.2001 66.3984 21.6001C66.8984 21.0001 66.9984 20.2001 66.9984 19.1001C66.9984 18.4001 66.8984 17.8001 66.6984 17.3001C66.4984 16.8001 66.1984 16.4001 65.8984 16.1001C65.5984 15.8001 65.0984 15.7001 64.5984 15.7001C64.0984 15.7001 63.5984 15.8001 63.2984 16.1001C62.9984 16.4001 62.6984 16.8001 62.4984 17.3001C62.2984 17.8001 62.1984 18.4001 62.1984 19.1001C62.1984 19.8001 62.2984 20.4001 62.4984 20.9001C62.6984 21.4001 62.9984 21.8001 63.2984 22.1001C63.5984 22.4001 64.0984 22.5001 64.5984 22.5001Z" fill="white"/>
<path d="M77.2996 18.1999V25.6999H73.0996V12.5999H77.1996V14.9999H77.2996C77.5996 14.1999 78.0996 13.5999 78.6996 13.0999C79.2996 12.5999 80.1996 12.3999 81.0996 12.3999C81.9996 12.3999 82.7996 12.5999 83.4996 12.9999C84.1996 13.3999 84.6996 13.9999 85.0996 14.6999C85.4996 15.3999 85.6996 16.2999 85.6996 17.2999V25.5999H81.4996V18.0999C81.4996 17.3999 81.2996 16.7999 80.8996 16.3999C80.4996 15.9999 79.9996 15.7999 79.3996 15.7999C78.9996 15.7999 78.5996 15.8999 78.2996 16.0999C77.9996 16.2999 77.6996 16.5999 77.4996 16.8999C77.2996 17.1999 77.2996 17.6999 77.2996 18.1999Z" fill="white"/>
<path d="M100.599 20.1001V12.6001H104.799V25.7001H100.799V23.3001H100.699C100.399 24.1001 99.8992 24.7001 99.1992 25.2001C98.4992 25.7001 97.6992 25.9001 96.6992 25.9001C95.7992 25.9001 94.9992 25.7001 94.3992 25.3001C93.7992 24.9001 93.1992 24.3001 92.7992 23.6001C92.3992 22.9001 92.1992 22.0001 92.1992 21.0001V12.6001H96.3992V20.1001C96.3992 20.8001 96.5992 21.4001 96.9992 21.8001C97.3992 22.2001 97.8992 22.4001 98.4992 22.4001C98.8992 22.4001 99.2992 22.3001 99.5992 22.1001C99.8992 21.9001 100.199 21.6001 100.399 21.3001C100.599 21.0001 100.599 20.6001 100.599 20.1001Z" fill="white"/>
<path d="M106.799 30.6003V12.6003H110.899V14.8003H110.999C111.199 14.4003 111.399 14.0003 111.699 13.6003C111.999 13.2003 112.399 12.9003 112.899 12.7003C113.399 12.5003 113.999 12.3003 114.699 12.3003C115.599 12.3003 116.499 12.5003 117.299 13.0003C118.099 13.5003 118.699 14.2003 119.199 15.2003C119.699 16.2003 119.899 17.5003 119.899 19.0003C119.899 20.5003 119.699 21.7003 119.199 22.7003C118.699 23.7003 118.099 24.5003 117.299 24.9003C116.499 25.3003 115.599 25.7003 114.699 25.7003C113.999 25.7003 113.499 25.6003 112.999 25.4003C112.499 25.2003 112.099 24.9003 111.799 24.5003C111.499 24.1003 111.199 23.8003 111.099 23.4003H110.999V30.4003H106.799V30.6003ZM113.299 22.6003C113.799 22.6003 114.299 22.5003 114.599 22.2003C114.899 21.9003 115.199 21.5003 115.399 21.0003C115.599 20.5003 115.699 19.9003 115.699 19.2003C115.699 18.5003 115.599 17.9003 115.399 17.4003C115.199 16.9003 114.899 16.5003 114.599 16.2003C114.299 15.9003 113.799 15.8003 113.299 15.8003C112.799 15.8003 112.399 15.9003 111.999 16.2003C111.599 16.5003 111.399 16.9003 111.199 17.4003C110.999 17.9003 110.899 18.5003 110.899 19.3003C110.899 20.0003 110.999 20.6003 111.199 21.1003C111.399 21.6003 111.699 22.0003 111.999 22.3003C112.299 22.6003 112.799 22.6003 113.299 22.6003Z" fill="white"/>
<path d="M133.3 12.6V15.7H125V12.6H133.3ZM126.8 9.5H131V21.6C131 22 131.1 22.2 131.3 22.4C131.5 22.6 131.7 22.7 132.1 22.7C132.2 22.7 132.4 22.7 132.6 22.7C132.8 22.7 132.9 22.6 133 22.6L133.6 25.6C133.1 25.7 132.7 25.8 132.3 25.9C131.9 26 131.5 26 131.1 26C129.7 26 128.7 25.7 127.9 25C127.1 24.3 126.8 23.4 126.8 22.1V9.5Z" fill="white"/>
<path d="M140.7 25.9C139.3 25.9 138.1 25.6 137.2 25.1C136.3 24.6 135.5 23.7 134.9 22.7C134.3 21.7 134.1 20.5 134.1 19.2C134.1 17.8 134.4 16.7 134.9 15.7C135.4 14.7 136.2 13.9 137.2 13.3C138.2 12.7 139.4 12.5 140.7 12.5C142 12.5 143.3 12.8 144.2 13.3C145.1 13.8 145.9 14.7 146.5 15.7C147.1 16.7 147.3 17.9 147.3 19.2C147.3 20.5 147 21.7 146.5 22.7C146 23.7 145.2 24.5 144.2 25.1C143.2 25.7 142.1 25.9 140.7 25.9ZM140.8 22.8C141.3 22.8 141.7 22.7 142.1 22.4C142.5 22.1 142.7 21.7 142.9 21.1C143.1 20.5 143.2 19.9 143.2 19.2C143.2 18.5 143.1 17.8 142.9 17.3C142.7 16.8 142.5 16.4 142.1 16.1C141.7 15.8 141.3 15.7 140.8 15.7C140.3 15.7 139.9 15.8 139.5 16.1C139.1 16.4 138.9 16.8 138.7 17.3C138.5 17.8 138.4 18.5 138.4 19.2C138.4 19.9 138.5 20.5 138.7 21.1C138.9 21.7 139.1 22.1 139.5 22.4C139.9 22.7 140.3 22.8 140.8 22.8Z" fill="white"/>
<path d="M153.598 25.8999C152.598 25.8999 151.798 25.6999 150.998 25.0999C150.198 24.4999 149.598 23.8999 149.098 22.8999C148.598 21.8999 148.398 20.6999 148.398 19.1999C148.398 17.6999 148.598 16.3999 149.098 15.3999C149.598 14.3999 150.198 13.6999 150.998 13.1999C151.798 12.6999 152.598 12.4999 153.598 12.4999C154.298 12.4999 154.898 12.5999 155.398 12.8999C155.898 13.1999 156.298 13.3999 156.598 13.7999C156.898 14.1999 157.198 14.5999 157.298 14.9999H157.398V8.3999H161.598V25.8999H157.498V23.7999H157.398C157.198 24.1999 156.998 24.5999 156.598 24.8999C156.198 25.1999 155.898 25.4999 155.398 25.7999C154.898 26.0999 154.198 25.8999 153.598 25.8999ZM154.998 22.5999C155.498 22.5999 155.898 22.4999 156.298 22.1999C156.698 21.8999 156.898 21.4999 157.098 20.9999C157.298 20.4999 157.398 19.8999 157.398 19.1999C157.398 18.4999 157.298 17.8999 157.098 17.2999C156.898 16.6999 156.598 16.3999 156.298 16.0999C155.998 15.7999 155.498 15.6999 154.998 15.6999C154.498 15.6999 154.098 15.7999 153.698 16.0999C153.298 16.3999 153.098 16.7999 152.898 17.2999C152.698 17.7999 152.598 18.3999 152.598 19.0999C152.598 19.7999 152.698 20.3999 152.898 20.8999C153.098 21.3999 153.398 21.7999 153.698 22.0999C153.998 22.3999 154.498 22.5999 154.998 22.5999Z" fill="white"/>
<path d="M167.198 25.9001C166.398 25.9001 165.598 25.8001 164.998 25.5001C164.398 25.2001 163.798 24.8001 163.498 24.2001C163.198 23.6001 162.898 22.9001 162.898 22.0001C162.898 21.3001 162.998 20.7001 163.298 20.2001C163.598 19.7001 163.898 19.3001 164.398 19.0001C164.898 18.7001 165.398 18.4001 165.998 18.3001C166.598 18.2001 167.198 18.0001 167.898 18.0001C168.598 17.9001 169.198 17.9001 169.698 17.8001C170.198 17.7001 170.498 17.6001 170.698 17.5001C170.898 17.4001 170.998 17.1001 170.998 16.9001V16.8001C170.998 16.4001 170.898 16.0001 170.598 15.8001C170.298 15.6001 169.898 15.4001 169.398 15.4001C168.798 15.4001 168.398 15.5001 168.098 15.8001C167.798 16.1001 167.598 16.4001 167.498 16.8001L163.698 16.7001C163.798 15.9001 164.098 15.2001 164.598 14.6001C165.098 14.0001 165.698 13.5001 166.598 13.1001C167.498 12.7001 168.398 12.6001 169.598 12.6001C170.398 12.6001 171.198 12.7001 171.898 12.9001C172.598 13.1001 173.198 13.4001 173.698 13.8001C174.198 14.2001 174.598 14.6001 174.898 15.2001C175.198 15.8001 175.298 16.4001 175.298 17.0001V25.9001H171.398V23.9001H170.998C170.798 24.4001 170.498 24.7001 170.098 25.0001C169.698 25.3001 169.298 25.5001 168.798 25.7001C168.298 25.9001 167.798 25.9001 167.198 25.9001ZM168.398 23.2001C168.798 23.2001 169.198 23.1001 169.598 22.9001C169.998 22.7001 170.298 22.5001 170.498 22.1001C170.698 21.7001 170.798 21.4001 170.798 21.0001V19.8001C170.698 19.9001 170.498 19.9001 170.398 20.0001C170.298 20.1001 169.998 20.1001 169.798 20.1001C169.598 20.1001 169.398 20.2001 169.198 20.2001C168.998 20.2001 168.798 20.3001 168.598 20.3001C168.198 20.4001 167.898 20.5001 167.598 20.6001C167.298 20.7001 167.098 20.9001 166.998 21.1001C166.898 21.3001 166.798 21.5001 166.798 21.8001C166.798 22.2001 166.998 22.6001 167.298 22.8001C167.598 23.0001 167.998 23.2001 168.398 23.2001Z" fill="white"/>
<path d="M179 30.6001C178.5 30.6001 178 30.6001 177.6 30.5001C177.2 30.4001 176.8 30.3001 176.5 30.2001L177.4 27.2001H177.5C178.1 27.4001 178.6 27.4001 179 27.4001C179.4 27.4001 179.7 27.1001 179.9 26.6001L180.1 26.2001L175.5 12.6001H179.8L182.2 22.0001H182.3L184.7 12.6001H189.1L184.2 27.0001C184 27.7001 183.6 28.3001 183.2 28.9001C182.8 29.5001 182.2 29.9001 181.5 30.2001C180.8 30.5001 180 30.6001 179 30.6001Z" fill="white"/>
<path d="M198.3 25.9001C197.5 25.9001 196.7 25.8001 196.1 25.5001C195.5 25.2001 194.9 24.8001 194.6 24.2001C194.3 23.6001 194 22.9001 194 22.0001C194 21.3001 194.1 20.7001 194.4 20.2001C194.7 19.7001 195 19.3001 195.5 19.0001C196 18.7001 196.5 18.4001 197.1 18.3001C197.7 18.2001 198.3 18.0001 199 18.0001C199.7 17.9001 200.3 17.9001 200.8 17.8001C201.3 17.7001 201.6 17.6001 201.8 17.5001C202 17.4001 202.1 17.1001 202.1 16.9001V16.8001C202.1 16.4001 202 16.0001 201.7 15.8001C201.4 15.6001 201 15.4001 200.5 15.4001C199.9 15.4001 199.5 15.5001 199.2 15.8001C198.9 16.1001 198.7 16.4001 198.6 16.8001L194.8 16.7001C194.9 15.9001 195.2 15.2001 195.7 14.6001C196.2 14.0001 196.8 13.5001 197.7 13.1001C198.6 12.7001 199.5 12.6001 200.7 12.6001C201.5 12.6001 202.3 12.7001 203 12.9001C203.7 13.1001 204.3 13.4001 204.8 13.8001C205.3 14.2001 205.7 14.6001 206 15.2001C206.3 15.8001 206.4 16.4001 206.4 17.0001V25.9001H202.5V23.9001H202.4C202.2 24.4001 201.9 24.7001 201.5 25.0001C201.1 25.3001 200.7 25.5001 200.2 25.7001C199.7 25.9001 198.9 25.9001 198.3 25.9001ZM199.6 23.2001C200 23.2001 200.4 23.1001 200.8 22.9001C201.2 22.7001 201.5 22.5001 201.7 22.1001C201.9 21.7001 202 21.4001 202 21.0001V19.8001C201.9 19.9001 201.7 19.9001 201.6 20.0001C201.5 20.1001 201.2 20.1001 201 20.1001C200.8 20.1001 200.6 20.2001 200.4 20.2001C200.2 20.2001 200 20.3001 199.8 20.3001C199.4 20.4001 199.1 20.5001 198.8 20.6001C198.5 20.7001 198.3 20.9001 198.2 21.1001C198.1 21.3001 198 21.5001 198 21.8001C198 22.2001 198.2 22.6001 198.5 22.8001C198.8 23.0001 199.1 23.2001 199.6 23.2001Z" fill="white"/>
<path d="M212.3 18.1999V25.6999H208.1V12.5999H212.2V14.9999H212.3C212.6 14.1999 213.1 13.5999 213.7 13.0999C214.3 12.5999 215.2 12.3999 216.1 12.3999C217 12.3999 217.8 12.5999 218.5 12.9999C219.2 13.3999 219.7 13.9999 220.1 14.6999C220.5 15.3999 220.7 16.2999 220.7 17.2999V25.5999H216.5V18.0999C216.5 17.3999 216.3 16.7999 215.9 16.3999C215.5 15.9999 215 15.7999 214.4 15.7999C214 15.7999 213.6 15.8999 213.3 16.0999C213 16.2999 212.7 16.5999 212.5 16.8999C212.3 17.1999 212.3 17.6999 212.3 18.1999Z" fill="white"/>
<path d="M227.399 25.9001C226.399 25.9001 225.599 25.7002 224.799 25.1002C223.999 24.5002 223.399 23.9001 222.899 22.9001C222.399 21.9001 222.199 20.7001 222.199 19.2001C222.199 17.7001 222.399 16.4001 222.899 15.4001C223.399 14.4001 223.999 13.7001 224.799 13.2001C225.599 12.7001 226.399 12.5002 227.399 12.5002C228.099 12.5002 228.699 12.6001 229.199 12.9001C229.699 13.2001 230.099 13.4001 230.399 13.8001C230.699 14.2001 230.999 14.6002 231.099 15.0002H231.199V8.40015H235.399V25.9001H231.299V23.8001H231.199C230.999 24.2001 230.799 24.6001 230.399 24.9001C229.999 25.2001 229.699 25.5001 229.199 25.8001C228.699 26.1001 228.099 25.9001 227.399 25.9001ZM228.899 22.6002C229.399 22.6002 229.799 22.5001 230.199 22.2001C230.599 21.9001 230.799 21.5002 230.999 21.0002C231.199 20.5002 231.299 19.9001 231.299 19.2001C231.299 18.5001 231.199 17.9001 230.999 17.3001C230.799 16.7001 230.499 16.4002 230.199 16.1002C229.899 15.8002 229.399 15.7001 228.899 15.7001C228.399 15.7001 227.999 15.8002 227.599 16.1002C227.199 16.4002 226.999 16.8001 226.799 17.3001C226.599 17.8001 226.499 18.4002 226.499 19.1002C226.499 19.8002 226.599 20.4001 226.799 20.9001C226.999 21.4001 227.299 21.8002 227.599 22.1002C227.899 22.4002 228.399 22.6002 228.899 22.6002Z" fill="white"/>
<path d="M247.999 25.9C246.599 25.9 245.399 25.6 244.399 25.1C243.399 24.6 242.599 23.8 242.099 22.8C241.599 21.8 241.299 20.6 241.299 19.2C241.299 17.8 241.599 16.7 242.099 15.7C242.599 14.7 243.399 13.9 244.299 13.3C245.199 12.7 246.399 12.5 247.699 12.5C248.599 12.5 249.499 12.6 250.299 12.9C251.099 13.2 251.699 13.6 252.299 14.2C252.899 14.8 253.299 15.5 253.599 16.3C253.899 17.1 254.099 18.1 254.099 19.2V20.2H242.699V17.8H252.099L250.199 18.4C250.199 17.8 250.099 17.3 249.899 16.9C249.699 16.5 249.499 16.1 249.099 15.9C248.699 15.7 248.299 15.5 247.799 15.5C247.299 15.5 246.799 15.6 246.499 15.9C246.199 16.2 245.899 16.5 245.699 16.9C245.499 17.3 245.399 17.8 245.399 18.4V20.1C245.399 20.7 245.499 21.2 245.699 21.7C245.899 22.2 246.199 22.5 246.599 22.7C246.999 22.9 247.399 23.1 247.999 23.1C248.399 23.1 248.699 23 248.999 22.9C249.299 22.8 249.599 22.6 249.799 22.4C249.999 22.2 250.199 22 250.299 21.7L254.099 21.8C253.899 22.7 253.599 23.4 253.099 24C252.599 24.6 251.899 25.1 250.999 25.5C250.099 25.9 249.099 25.9 247.999 25.9Z" fill="white"/>
<path d="M258.699 12.6001L260.799 16.9001L262.999 12.6001H267.199L263.499 19.2001L267.299 25.7001H263.099L260.699 21.4001L258.399 25.7001H254.199L257.999 19.2001L254.399 12.6001H258.699Z" fill="white"/>
<path d="M268.5 30.6003V12.6003H272.6V14.8003H272.7C272.9 14.4003 273.1 14.0003 273.4 13.6003C273.7 13.2003 274.1 12.9003 274.6 12.7003C275.1 12.5003 275.7 12.3003 276.4 12.3003C277.3 12.3003 278.2 12.5003 279 13.0003C279.8 13.5003 280.4 14.2003 280.9 15.2003C281.4 16.2003 281.6 17.5003 281.6 19.0003C281.6 20.5003 281.4 21.7003 280.9 22.7003C280.4 23.7003 279.8 24.5003 279 24.9003C278.2 25.3003 277.3 25.7003 276.4 25.7003C275.7 25.7003 275.2 25.6003 274.7 25.4003C274.2 25.2003 273.8 24.9003 273.5 24.5003C273.2 24.1003 272.9 23.8003 272.8 23.4003H272.7V30.4003H268.5V30.6003ZM275 22.6003C275.5 22.6003 276 22.5003 276.3 22.2003C276.6 21.9003 276.9 21.5003 277.1 21.0003C277.3 20.5003 277.4 19.9003 277.4 19.2003C277.4 18.5003 277.3 17.9003 277.1 17.4003C276.9 16.9003 276.6 16.5003 276.3 16.2003C276 15.9003 275.5 15.8003 275 15.8003C274.5 15.8003 274.1 15.9003 273.7 16.2003C273.3 16.5003 273.1 16.9003 272.9 17.4003C272.7 17.9003 272.6 18.5003 272.6 19.3003C272.6 20.0003 272.7 20.6003 272.9 21.1003C273.1 21.6003 273.4 22.0003 273.7 22.3003C274 22.6003 274.5 22.6003 275 22.6003Z" fill="white"/>
<path d="M289.3 25.9C287.9 25.9 286.7 25.6 285.7 25.1C284.7 24.6 283.9 23.8 283.4 22.8C282.9 21.8 282.6 20.6 282.6 19.2C282.6 17.8 282.9 16.7 283.4 15.7C283.9 14.7 284.7 13.9 285.6 13.3C286.5 12.7 287.7 12.5 289 12.5C289.9 12.5 290.8 12.6 291.6 12.9C292.4 13.2 293 13.6 293.6 14.2C294.2 14.8 294.6 15.5 294.9 16.3C295.2 17.1 295.4 18.1 295.4 19.2V20.2H284V17.8H293.4L291.5 18.4C291.5 17.8 291.4 17.3 291.2 16.9C291 16.5 290.8 16.1 290.4 15.9C290 15.7 289.6 15.5 289.1 15.5C288.6 15.5 288.1 15.6 287.8 15.9C287.5 16.2 287.2 16.5 287 16.9C286.8 17.3 286.7 17.8 286.7 18.4V20.1C286.7 20.7 286.8 21.2 287 21.7C287.2 22.2 287.5 22.5 287.9 22.7C288.3 22.9 288.7 23.1 289.3 23.1C289.7 23.1 290 23 290.3 22.9C290.6 22.8 290.9 22.6 291.1 22.4C291.3 22.2 291.5 22 291.6 21.7L295.4 21.8C295.2 22.7 294.9 23.4 294.4 24C293.9 24.6 293.2 25.1 292.3 25.5C291.4 25.9 290.4 25.9 289.3 25.9Z" fill="white"/>
<path d="M296.898 25.7V12.6H300.898V15H300.998C301.198 14.1 301.598 13.5 302.198 13.1C302.798 12.7 303.398 12.5 304.098 12.5C304.298 12.5 304.498 12.5 304.698 12.5C304.898 12.5 305.098 12.6 305.298 12.6V16.2C305.098 16.1 304.798 16.1 304.498 16C304.198 15.9 303.898 15.9 303.598 15.9C303.098 15.9 302.698 16 302.298 16.2C301.898 16.4 301.598 16.7 301.398 17.1C301.198 17.5 301.098 17.9 301.098 18.5V25.6H296.898V25.7Z" fill="white"/>
<path d="M308.399 11.1001C307.799 11.1001 307.299 10.9001 306.899 10.5001C306.499 10.1001 306.299 9.6001 306.299 9.1001C306.299 8.6001 306.499 8.10007 306.899 7.70007C307.299 7.30007 307.799 7.1001 308.399 7.1001C308.999 7.1001 309.499 7.30007 309.899 7.70007C310.299 8.10007 310.499 8.6001 310.499 9.1001C310.499 9.6001 310.299 10.1001 309.899 10.5001C309.499 10.9001 308.999 11.1001 308.399 11.1001ZM306.299 25.7001V12.6001H310.499V25.7001H306.299Z" fill="white"/>
<path d="M318.598 25.9C317.198 25.9 315.998 25.6 314.998 25.1C313.998 24.6 313.198 23.8 312.698 22.8C312.198 21.8 311.898 20.6 311.898 19.2C311.898 17.8 312.198 16.7 312.698 15.7C313.198 14.7 313.998 13.9 314.898 13.3C315.798 12.7 316.998 12.5 318.298 12.5C319.198 12.5 320.098 12.6 320.898 12.9C321.698 13.2 322.298 13.6 322.898 14.2C323.498 14.8 323.898 15.5 324.198 16.3C324.498 17.1 324.698 18.1 324.698 19.2V20.2H313.298V17.8H322.698L320.798 18.4C320.798 17.8 320.698 17.3 320.498 16.9C320.298 16.5 320.098 16.1 319.698 15.9C319.298 15.7 318.898 15.5 318.398 15.5C317.898 15.5 317.398 15.6 317.098 15.9C316.798 16.2 316.498 16.5 316.298 16.9C316.098 17.3 315.998 17.8 315.998 18.4V20.1C315.998 20.7 316.098 21.2 316.298 21.7C316.498 22.2 316.798 22.5 317.198 22.7C317.598 22.9 317.998 23.1 318.598 23.1C318.998 23.1 319.298 23 319.598 22.9C319.898 22.8 320.198 22.6 320.398 22.4C320.598 22.2 320.798 22 320.898 21.7L324.698 21.8C324.498 22.7 324.198 23.4 323.698 24C323.198 24.6 322.498 25.1 321.598 25.5C320.698 25.9 319.698 25.9 318.598 25.9Z" fill="white"/>
<path d="M330.399 18.2001V25.7001H326.199V12.6002H330.299V15.0002H330.399C330.699 14.2002 331.199 13.6002 331.799 13.1002C332.399 12.6002 333.299 12.4001 334.199 12.4001C335.099 12.4001 335.899 12.6002 336.599 13.0002C337.299 13.4002 337.799 14.0001 338.199 14.7001C338.599 15.4001 338.799 16.3001 338.799 17.3001V25.6002H334.599V18.1002C334.599 17.4002 334.399 16.8001 333.999 16.4001C333.599 16.0001 333.099 15.8001 332.499 15.8001C332.099 15.8001 331.699 15.9002 331.399 16.1002C331.099 16.3002 330.799 16.6001 330.599 16.9001C330.399 17.2001 330.399 17.7001 330.399 18.2001Z" fill="white"/>
<path d="M346.899 25.9001C345.499 25.9001 344.299 25.6001 343.299 25.0001C342.299 24.4001 341.599 23.6001 340.999 22.6001C340.399 21.6001 340.199 20.4001 340.199 19.1001C340.199 17.8001 340.499 16.6001 340.999 15.6001C341.499 14.6001 342.299 13.8 343.299 13.2C344.299 12.6 345.499 12.3 346.799 12.3C347.999 12.3 349.099 12.5001 349.999 13.0001C350.899 13.5001 351.599 14.1001 352.099 14.9001C352.599 15.7001 352.899 16.6 352.899 17.7H348.999C348.899 17.3 348.799 16.9001 348.599 16.6001C348.399 16.3001 348.199 16.0001 347.899 15.9001C347.599 15.8001 347.199 15.6001 346.899 15.6001C346.399 15.6001 345.999 15.7001 345.599 16.0001C345.199 16.3001 344.999 16.7 344.799 17.2C344.599 17.7 344.499 18.4 344.499 19.2C344.499 20 344.599 20.6 344.799 21.2C344.999 21.8 345.299 22.1001 345.599 22.4001C345.899 22.7001 346.399 22.8 346.899 22.8C347.499 22.8 347.899 22.6 348.299 22.2C348.699 21.8 348.899 21.3001 348.999 20.6001H352.899C352.899 21.7001 352.599 22.6001 352.099 23.4001C351.599 24.2001 350.899 24.8 349.999 25.3C349.099 25.8 348.199 25.9001 346.899 25.9001Z" fill="white"/>
<path d="M360.598 25.9C359.198 25.9 357.998 25.6 356.998 25.1C355.998 24.6 355.198 23.8 354.698 22.8C354.198 21.8 353.898 20.6 353.898 19.2C353.898 17.8 354.198 16.7 354.698 15.7C355.198 14.7 355.998 13.9 356.898 13.3C357.798 12.7 358.998 12.5 360.298 12.5C361.198 12.5 362.098 12.6 362.898 12.9C363.698 13.2 364.298 13.6 364.898 14.2C365.498 14.8 365.898 15.5 366.198 16.3C366.498 17.1 366.698 18.1 366.698 19.2V20.2H355.298V17.8H364.698L362.798 18.4C362.798 17.8 362.698 17.3 362.498 16.9C362.298 16.5 362.098 16.1 361.698 15.9C361.298 15.7 360.898 15.5 360.398 15.5C359.898 15.5 359.398 15.6 359.098 15.9C358.798 16.2 358.498 16.5 358.298 16.9C358.098 17.3 357.998 17.8 357.998 18.4V20.1C357.998 20.7 358.098 21.2 358.298 21.7C358.498 22.2 358.798 22.5 359.198 22.7C359.598 22.9 359.998 23.1 360.598 23.1C360.998 23.1 361.298 23 361.598 22.9C361.898 22.8 362.198 22.6 362.398 22.4C362.598 22.2 362.798 22 362.898 21.7L366.698 21.8C366.498 22.7 366.198 23.4 365.698 24C365.198 24.6 364.498 25.1 363.598 25.5C362.698 25.9 361.698 25.9 360.598 25.9Z" fill="white"/>
<path d="M380.098 12.6V15.7H371.898V12.6H380.098ZM373.598 9.5H377.798V21.6C377.798 22 377.898 22.2 378.098 22.4C378.298 22.6 378.498 22.7 378.898 22.7C378.998 22.7 379.198 22.7 379.398 22.7C379.598 22.7 379.698 22.6 379.798 22.6L380.398 25.6C379.898 25.7 379.498 25.8 379.098 25.9C378.698 26 378.298 26 377.898 26C376.498 26 375.498 25.7 374.698 25C373.898 24.3 373.598 23.4 373.598 22.1V9.5Z" fill="white"/>
<path d="M385.999 18.2002V25.7002H381.799V8.2002H385.799V15.0002H385.999C386.299 14.2002 386.799 13.6002 387.499 13.1002C388.199 12.6002 388.999 12.4002 389.999 12.4002C390.899 12.4002 391.699 12.6002 392.399 13.0002C393.099 13.4002 393.599 14.0002 393.999 14.7002C394.399 15.4002 394.599 16.3002 394.599 17.3002V25.6002H390.399V18.1002C390.399 17.4002 390.199 16.8002 389.799 16.4002C389.399 16.0002 388.899 15.8002 388.199 15.8002C387.799 15.8002 387.399 15.9002 386.999 16.1002C386.599 16.3002 386.399 16.6002 386.199 16.9002C385.999 17.2002 385.999 17.7002 385.999 18.2002Z" fill="white"/>
<path d="M402.598 25.9C401.198 25.9 399.998 25.6 398.998 25.1C397.998 24.6 397.198 23.8 396.698 22.8C396.198 21.8 395.898 20.6 395.898 19.2C395.898 17.8 396.198 16.7 396.698 15.7C397.198 14.7 397.998 13.9 398.898 13.3C399.798 12.7 400.998 12.5 402.298 12.5C403.198 12.5 404.098 12.6 404.898 12.9C405.698 13.2 406.298 13.6 406.898 14.2C407.498 14.8 407.898 15.5 408.198 16.3C408.498 17.1 408.698 18.1 408.698 19.2V20.2H397.298V17.8H406.698L404.798 18.4C404.798 17.8 404.698 17.3 404.498 16.9C404.298 16.5 404.098 16.1 403.698 15.9C403.298 15.7 402.898 15.5 402.398 15.5C401.898 15.5 401.398 15.6 401.098 15.9C400.798 16.2 400.498 16.5 400.298 16.9C400.098 17.3 399.998 17.8 399.998 18.4V20.1C399.998 20.7 400.098 21.2 400.298 21.7C400.498 22.2 400.798 22.5 401.198 22.7C401.598 22.9 401.998 23.1 402.598 23.1C402.998 23.1 403.298 23 403.598 22.9C403.898 22.8 404.198 22.6 404.398 22.4C404.598 22.2 404.798 22 404.898 21.7L408.698 21.8C408.498 22.7 408.198 23.4 407.698 24C407.198 24.6 406.498 25.1 405.598 25.5C404.698 25.9 403.698 25.9 402.598 25.9Z" fill="white"/>
<path d="M419.499 25.8999C418.499 25.8999 417.699 25.6999 416.899 25.0999C416.099 24.4999 415.499 23.8999 414.999 22.8999C414.499 21.8999 414.299 20.6999 414.299 19.1999C414.299 17.6999 414.499 16.3999 414.999 15.3999C415.499 14.3999 416.099 13.6999 416.899 13.1999C417.699 12.6999 418.499 12.4999 419.499 12.4999C420.199 12.4999 420.799 12.5999 421.299 12.8999C421.799 13.1999 422.199 13.3999 422.499 13.7999C422.799 14.1999 423.099 14.5999 423.199 14.9999H423.299V8.3999H427.499V25.8999H423.399V23.7999H423.299C423.099 24.1999 422.899 24.5999 422.499 24.8999C422.099 25.1999 421.799 25.4999 421.299 25.7999C420.799 26.0999 420.099 25.8999 419.499 25.8999ZM420.899 22.5999C421.399 22.5999 421.799 22.4999 422.199 22.1999C422.599 21.8999 422.799 21.4999 422.999 20.9999C423.199 20.4999 423.299 19.8999 423.299 19.1999C423.299 18.4999 423.199 17.8999 422.999 17.2999C422.799 16.6999 422.499 16.3999 422.199 16.0999C421.899 15.7999 421.399 15.6999 420.899 15.6999C420.399 15.6999 419.999 15.7999 419.599 16.0999C419.199 16.3999 418.999 16.7999 418.799 17.2999C418.599 17.7999 418.499 18.3999 418.499 19.0999C418.499 19.7999 418.599 20.3999 418.799 20.8999C418.999 21.3999 419.299 21.7999 419.599 22.0999C419.899 22.3999 420.399 22.5999 420.899 22.5999Z" fill="white"/>
<path d="M431.399 11.1001C430.799 11.1001 430.299 10.9001 429.899 10.5001C429.499 10.1001 429.299 9.6001 429.299 9.1001C429.299 8.6001 429.499 8.10007 429.899 7.70007C430.299 7.30007 430.799 7.1001 431.399 7.1001C431.999 7.1001 432.499 7.30007 432.899 7.70007C433.299 8.10007 433.499 8.6001 433.499 9.1001C433.499 9.6001 433.299 10.1001 432.899 10.5001C432.499 10.9001 431.999 11.1001 431.399 11.1001ZM429.399 25.7001V12.6001H433.599V25.7001H429.399Z" fill="white"/>
<path d="M443 12.5999V15.6999H434.6V12.5999H443ZM436.4 25.6999V11.8999C436.4 10.8999 436.6 9.9999 437 9.3999C437.4 8.7999 437.9 8.1999 438.6 7.8999C439.3 7.5999 440.1 7.3999 440.9 7.3999C441.5 7.3999 442 7.39991 442.5 7.49991C443 7.59991 443.4 7.69989 443.6 7.69989L442.9 10.6999C442.7 10.6999 442.6 10.5999 442.3 10.5999C442 10.5999 441.9 10.4999 441.7 10.4999C441.2 10.4999 440.9 10.5999 440.7 10.7999C440.5 10.9999 440.4 11.2999 440.4 11.6999V25.4999H436.4V25.6999Z" fill="white"/>
<path d="M451.9 12.5999V15.6999H443.5V12.5999H451.9ZM445.2 25.6999V11.8999C445.2 10.8999 445.4 9.9999 445.8 9.3999C446.2 8.7999 446.7 8.1999 447.4 7.8999C448.1 7.5999 448.9 7.3999 449.7 7.3999C450.3 7.3999 450.8 7.39991 451.3 7.49991C451.8 7.59991 452.2 7.69989 452.4 7.69989L451.7 10.6999C451.5 10.6999 451.4 10.5999 451.1 10.5999C450.8 10.5999 450.7 10.4999 450.5 10.4999C450 10.4999 449.7 10.5999 449.5 10.7999C449.3 10.9999 449.2 11.2999 449.2 11.6999V25.4999H445.2V25.6999Z" fill="white"/>
<path d="M458.899 25.9001C457.499 25.9001 456.299 25.6001 455.299 25.1001C454.299 24.6001 453.499 23.8001 452.999 22.8001C452.499 21.8001 452.199 20.6001 452.199 19.2001C452.199 17.8001 452.499 16.7001 452.999 15.7001C453.499 14.7001 454.299 13.9001 455.199 13.3001C456.099 12.7001 457.299 12.5001 458.599 12.5001C459.499 12.5001 460.399 12.6001 461.199 12.9001C461.999 13.2001 462.599 13.6001 463.199 14.2001C463.799 14.8001 464.199 15.5001 464.499 16.3001C464.799 17.1001 464.999 18.1001 464.999 19.2001V20.2001H453.599V17.8001H462.999L461.099 18.4001C461.099 17.8001 460.999 17.3001 460.799 16.9001C460.599 16.5001 460.399 16.1001 459.999 15.9001C459.599 15.7001 459.199 15.5001 458.699 15.5001C458.199 15.5001 457.699 15.6001 457.399 15.9001C457.099 16.2001 456.799 16.5001 456.599 16.9001C456.399 17.3001 456.299 17.8001 456.299 18.4001V20.1001C456.299 20.7001 456.399 21.2001 456.599 21.7001C456.799 22.2001 457.099 22.5001 457.499 22.7001C457.899 22.9001 458.299 23.1001 458.899 23.1001C459.299 23.1001 459.599 23.0001 459.899 22.9001C460.199 22.8001 460.499 22.6001 460.699 22.4001C460.899 22.2001 461.099 22.0001 461.199 21.7001L464.999 21.8001C464.799 22.7001 464.499 23.4001 463.999 24.0001C463.499 24.6001 462.799 25.1001 461.899 25.5001C460.999 25.9001 460.099 25.9001 458.899 25.9001Z" fill="white"/>
<path d="M466.6 25.7V12.6H470.6V15H470.7C470.9 14.1 471.3 13.5 471.9 13.1C472.5 12.7 473.1 12.5 473.8 12.5C474 12.5 474.2 12.5 474.4 12.5C474.6 12.5 474.8 12.6 475 12.6V16.2C474.8 16.1 474.5 16.1 474.2 16C473.9 15.9 473.6 15.9 473.3 15.9C472.8 15.9 472.4 16 472 16.2C471.6 16.4 471.3 16.7 471.1 17.1C470.9 17.5 470.8 17.9 470.8 18.5V25.6H466.6V25.7Z" fill="white"/>
<path d="M481.399 25.9001C479.999 25.9001 478.799 25.6001 477.799 25.1001C476.799 24.6001 475.999 23.8001 475.499 22.8001C474.999 21.8001 474.699 20.6001 474.699 19.2001C474.699 17.8001 474.999 16.7001 475.499 15.7001C475.999 14.7001 476.799 13.9001 477.699 13.3001C478.599 12.7001 479.799 12.5001 481.099 12.5001C481.999 12.5001 482.899 12.6001 483.699 12.9001C484.499 13.2001 485.099 13.6001 485.699 14.2001C486.299 14.8001 486.699 15.5001 486.999 16.3001C487.299 17.1001 487.499 18.1001 487.499 19.2001V20.2001H476.099V17.8001H485.499L483.599 18.4001C483.599 17.8001 483.499 17.3001 483.299 16.9001C483.099 16.5001 482.899 16.1001 482.499 15.9001C482.099 15.7001 481.699 15.5001 481.199 15.5001C480.699 15.5001 480.199 15.6001 479.899 15.9001C479.599 16.2001 479.299 16.5001 479.099 16.9001C478.899 17.3001 478.799 17.8001 478.799 18.4001V20.1001C478.799 20.7001 478.899 21.2001 479.099 21.7001C479.299 22.2001 479.599 22.5001 479.999 22.7001C480.399 22.9001 480.799 23.1001 481.399 23.1001C481.799 23.1001 482.099 23.0001 482.399 22.9001C482.699 22.8001 482.999 22.6001 483.199 22.4001C483.399 22.2001 483.599 22.0001 483.699 21.7001L487.499 21.8001C487.299 22.7001 486.999 23.4001 486.499 24.0001C485.999 24.6001 485.299 25.1001 484.399 25.5001C483.499 25.9001 482.599 25.9001 481.399 25.9001Z" fill="white"/>
<path d="M493.2 18.1999V25.6999H489V12.5999H493.1V14.9999H493.2C493.5 14.1999 494 13.5999 494.6 13.0999C495.2 12.5999 496.1 12.3999 497 12.3999C497.9 12.3999 498.7 12.5999 499.4 12.9999C500.1 13.3999 500.6 13.9999 501 14.6999C501.4 15.3999 501.6 16.2999 501.6 17.2999V25.5999H497.4V18.0999C497.4 17.3999 497.2 16.7999 496.8 16.3999C496.4 15.9999 495.9 15.7999 495.3 15.7999C494.9 15.7999 494.5 15.8999 494.2 16.0999C493.9 16.2999 493.6 16.5999 493.4 16.8999C493.2 17.1999 493.2 17.6999 493.2 18.1999Z" fill="white"/>
<path d="M509.8 25.9003C508.4 25.9003 507.2 25.6003 506.2 25.0003C505.2 24.4003 504.5 23.6003 503.9 22.6003C503.3 21.6003 503.1 20.4003 503.1 19.1003C503.1 17.8003 503.4 16.6003 503.9 15.6003C504.4 14.6003 505.2 13.8003 506.2 13.2003C507.2 12.6003 508.4 12.3003 509.7 12.3003C510.9 12.3003 512 12.5003 512.9 13.0003C513.8 13.5003 514.5 14.1003 515 14.9003C515.5 15.7003 515.8 16.6003 515.8 17.7003H512C511.9 17.3003 511.8 16.9003 511.6 16.6003C511.4 16.3003 511.2 16.0003 510.9 15.9003C510.6 15.8003 510.2 15.6003 509.9 15.6003C509.4 15.6003 509 15.7003 508.6 16.0003C508.2 16.3003 508 16.7003 507.8 17.2003C507.6 17.7003 507.5 18.4003 507.5 19.2003C507.5 20.0003 507.6 20.6003 507.8 21.2003C508 21.8003 508.3 22.1003 508.6 22.4003C508.9 22.7003 509.4 22.8003 509.9 22.8003C510.5 22.8003 510.9 22.6003 511.3 22.2003C511.7 21.8003 511.9 21.3003 512 20.6003H515.9C515.9 21.7003 515.6 22.6003 515.1 23.4003C514.6 24.2003 513.9 24.8003 513 25.3003C512.1 25.8003 511 25.9003 509.8 25.9003Z" fill="white"/>
<path d="M523.399 25.9001C521.999 25.9001 520.799 25.6001 519.799 25.1001C518.799 24.6001 517.999 23.8001 517.499 22.8001C516.999 21.8001 516.699 20.6001 516.699 19.2001C516.699 17.8001 516.999 16.7001 517.499 15.7001C517.999 14.7001 518.799 13.9001 519.699 13.3001C520.599 12.7001 521.799 12.5001 523.099 12.5001C523.999 12.5001 524.899 12.6001 525.699 12.9001C526.499 13.2001 527.099 13.6001 527.699 14.2001C528.299 14.8001 528.699 15.5001 528.999 16.3001C529.299 17.1001 529.499 18.1001 529.499 19.2001V20.2001H518.099V17.8001H527.499L525.599 18.4001C525.599 17.8001 525.499 17.3001 525.299 16.9001C525.099 16.5001 524.899 16.1001 524.499 15.9001C524.099 15.7001 523.699 15.5001 523.199 15.5001C522.699 15.5001 522.199 15.6001 521.899 15.9001C521.599 16.2001 521.299 16.5001 521.099 16.9001C520.899 17.3001 520.799 17.8001 520.799 18.4001V20.1001C520.799 20.7001 520.899 21.2001 521.099 21.7001C521.299 22.2001 521.599 22.5001 521.999 22.7001C522.399 22.9001 522.799 23.1001 523.399 23.1001C523.799 23.1001 524.099 23.0001 524.399 22.9001C524.699 22.8001 524.999 22.6001 525.199 22.4001C525.399 22.2001 525.599 22.0001 525.699 21.7001L529.499 21.8001C529.299 22.7001 528.999 23.4001 528.499 24.0001C527.999 24.6001 527.299 25.1001 526.399 25.5001C525.499 25.9001 524.599 25.9001 523.399 25.9001Z" fill="white"/>
<path d="M536.5 9V11.3L538.1 12.9L543.5 18.3L538.1 23.7L536.5 25.3V27.6L545.8 18.3L536.5 9Z" fill="white" stroke="white" stroke-width="2" stroke-miterlimit="10"/>
<path opacity="0.65" d="M548.5 9V11.3L550.1 12.9L555.5 18.3L550.1 23.7L548.5 25.3V27.6L557.8 18.3L548.5 9Z" fill="white" stroke="white" stroke-width="2" stroke-miterlimit="10"/>
<path opacity="0.3" d="M560.5 9V11.3L562.1 12.9L567.5 18.3L562.1 23.7L560.5 25.3V27.6L569.8 18.3L560.5 9Z" fill="white" stroke="white" stroke-width="2" stroke-miterlimit="10"/>
</svg>
