<svg xmlns="http://www.w3.org/2000/svg" width="22" height="24" fill="none"><path fill="#fff" d="M18.636 2.845h-7.008V.91a.628.628 0 1 0-1.257 0v1.94H3.364A3.134 3.134 0 0 0 .232 5.981v9.863a3.134 3.134 0 0 0 3.132 3.131H7.15l-2.489 3.778a.623.623 0 0 0 .52.97.632.632 0 0 0 .525-.28l2.944-4.468h4.697l2.944 4.467a.626.626 0 0 0 1.045-.689l-2.489-3.778h3.787a3.134 3.134 0 0 0 3.132-3.131V5.977a3.137 3.137 0 0 0-3.131-3.132Zm1.88 12.994c0 1.036-.844 1.88-1.88 1.88H3.364a1.883 1.883 0 0 1-1.88-1.88V5.977c0-1.036.844-1.88 1.88-1.88h15.272c1.036 0 1.88.844 1.88 1.88v9.862Z"/><path fill="#fff" d="M18.32 7.444H3.678a.628.628 0 0 0 0 1.256H18.32a.628.628 0 0 0 0-1.256Zm0 2.84H3.678a.628.628 0 0 0 0 1.256H18.32a.628.628 0 1 0 0-1.256Zm-7.321 2.836H3.677a.628.628 0 0 0 0 1.256h7.322a.628.628 0 0 0 0-1.256Z"/></svg>