<svg xmlns="http://www.w3.org/2000/svg" width="244" height="230" fill="none"><rect width="186" height="199" x=".5" y="30.5" fill="#fff" rx="11.5"/><rect width="186" height="199" x=".5" y="30.5" stroke="#F8F8F8" rx="11.5"/><path fill="#616161" d="M83.823 186.102V188h-6.802v-1.898h6.802Zm-6.064-10.899V188h-2.417v-12.797h2.417Zm5.177 5.282v1.855H77.02v-1.855h5.916Zm.86-5.282v1.907H77.02v-1.907h6.777Zm1.521-.703h2.33v11.4l-.229 2.1h-2.1v-13.5Zm8.447 8.649v.184c0 .709-.08 1.36-.238 1.951a4.562 4.562 0 0 1-.694 1.538c-.31.428-.697.762-1.16 1.002-.457.235-.993.352-1.608.352-.586 0-1.096-.114-1.53-.343a3.092 3.092 0 0 1-1.08-.967 5.37 5.37 0 0 1-.704-1.485 11.429 11.429 0 0 1-.395-1.881v-.501c.087-.685.22-1.312.395-1.881a5.37 5.37 0 0 1 .703-1.485 3.07 3.07 0 0 1 1.081-.976c.428-.228.932-.342 1.512-.342.621 0 1.163.12 1.626.36.469.234.855.568 1.16 1.002.31.428.542.937.694 1.529.159.586.238 1.234.238 1.943Zm-2.33.184v-.184c0-.405-.032-.786-.096-1.143a3.231 3.231 0 0 0-.316-.958 1.686 1.686 0 0 0-.598-.65c-.252-.159-.569-.238-.95-.238-.363 0-.673.062-.931.185a1.789 1.789 0 0 0-.633.51 2.523 2.523 0 0 0-.387.764c-.087.293-.146.61-.175.949v1.372a4.1 4.1 0 0 0 .29 1.221c.152.358.378.642.676.853.305.211.698.316 1.178.316.375 0 .689-.073.94-.22.253-.152.452-.363.598-.632.147-.276.25-.595.308-.958.064-.364.097-.759.097-1.187Zm9.255 2.646v-4.386a1.92 1.92 0 0 0-.167-.835 1.209 1.209 0 0 0-.509-.545c-.229-.129-.519-.193-.87-.193-.311 0-.583.052-.818.158a1.204 1.204 0 0 0-.527.448 1.158 1.158 0 0 0-.185.65h-2.329c0-.392.094-.764.281-1.116.188-.357.454-.674.8-.949.352-.281.77-.501 1.257-.659a5.39 5.39 0 0 1 1.652-.237c.721 0 1.363.123 1.925.369.569.24 1.014.603 1.336 1.09.328.486.492 1.098.492 1.836v4.149c0 .475.03.882.088 1.222.065.334.158.624.281.87V188h-2.364a3.53 3.53 0 0 1-.255-.914 7.238 7.238 0 0 1-.088-1.107Zm.326-3.771.017 1.38h-1.468c-.363 0-.682.038-.958.114-.275.071-.5.176-.676.317a1.279 1.279 0 0 0-.396.492 1.491 1.491 0 0 0-.132.641c0 .235.053.446.159.633.11.188.27.337.474.449.211.105.457.158.738.158.41 0 .768-.082 1.073-.246.304-.17.542-.375.712-.616.17-.24.26-.468.272-.685l.668 1.002c-.082.24-.205.495-.369.764a3.42 3.42 0 0 1-.633.756 3.204 3.204 0 0 1-.931.58c-.364.153-.786.229-1.266.229-.615 0-1.166-.123-1.653-.369a2.927 2.927 0 0 1-1.15-1.011 2.597 2.597 0 0 1-.423-1.459c0-.504.094-.949.282-1.336.187-.387.465-.712.834-.975.37-.27.827-.472 1.372-.607.55-.141 1.18-.211 1.89-.211h1.564Zm6.75 4.737 2.548-8.455h2.488l-3.815 10.952a7.59 7.59 0 0 1-.342.764 3.257 3.257 0 0 1-.545.782 2.629 2.629 0 0 1-.862.616c-.34.158-.753.237-1.239.237-.211 0-.398-.015-.562-.044a6.752 6.752 0 0 1-.519-.114v-1.74c.059.005.126.008.202.008.082.006.152.009.211.009.34 0 .621-.041.844-.123.222-.076.401-.202.536-.378.141-.17.258-.392.352-.668l.703-1.846Zm-1.257-8.455 2.153 7.005.378 2.452-1.6.29-3.436-9.747h2.505Z"/><g clip-path="url(#a)"><path fill="#E62435" d="M42.315 98.415c5.405 0 9.09 3.294 9.09 8.23H32.76c0-5.241 4.809-8.23 9.556-8.23Zm.234-4.29c-9.027 0-16.549 3.81-16.549 15.302 0 9.103 5.058 14.835 16.78 14.835 13.8 0 14.684-9.04 14.684-9.04h-6.687s-1.432 4.867-8.403 4.867c-5.678 0-9.763-3.814-9.763-9.162h25.554v-3.355c-.001-5.291-3.377-13.446-15.616-13.446Z"/><path fill="#3D60B5" d="M74.708 98.603c6.125 0 10.021 4.523 10.021 10.592 0 6.508-4.498 10.765-9.977 10.765-6.54 0-10.067-5.079-10.067-10.708 0-5.245 3.165-10.649 10.023-10.649ZM58.158 83v35.493c0 2.014-.144 4.844-.144 4.844h6.377s.229-2.032.229-3.889c0 0 3.151 4.903 11.719 4.903 9.02 0 15.149-6.23 15.149-15.155 0-8.303-5.63-14.982-15.134-14.982-8.903 0-11.67 4.781-11.67 4.781V83H58.16Z"/><path fill="#F2A90E" d="M114.794 109.89v1.853c0 2.419-1.498 8.433-10.335 8.433-4.837 0-6.91-2.402-6.91-5.187 0-5.066 6.984-5.099 17.245-5.099Zm-7.456-15.765c-13.58 0-14.452 7.396-14.452 8.579h6.76s.353-4.32 7.225-4.32c4.464 0 7.923 2.034 7.923 5.941v1.391h-7.923c-10.52 0-16.082 3.061-16.082 9.273 0 6.113 5.139 9.439 12.083 9.439 9.465 0 12.514-5.201 12.514-5.201 0 2.069.159 4.108.159 4.108h6.01s-.233-2.527-.233-4.145v-13.974c0-9.162-7.431-11.09-13.984-11.09Z"/><path fill="#78BF2B" d="M117.682 95.286h7.606l10.913 21.745 10.887-21.745h6.888L134.144 134h-7.226l5.723-10.791-14.959-27.923Z"/><path fill="#100F0D" d="M157.52 92.525c0-.27-.005-.498-.02-.7h.514l.025.347h.015c.116-.183.33-.4.727-.4.31 0 .553.173.655.434h.009a.897.897 0 0 1 .291-.294.79.79 0 0 1 .475-.14c.393 0 .791.265.791 1.018v1.384h-.582v-1.297c0-.391-.136-.623-.422-.623-.204 0-.354.145-.417.314a.824.824 0 0 0-.029.198v1.408h-.582v-1.36c0-.328-.13-.56-.407-.56-.223 0-.374.174-.427.338a.512.512 0 0 0-.034.194v1.389h-.582v-1.65Zm-1.018-1.371v.67h.567v.445h-.567v1.037c0 .284.077.434.305.434.102 0 .18-.014.233-.029l.01.454a1.326 1.326 0 0 1-.432.057c-.218 0-.403-.072-.514-.193-.126-.135-.184-.347-.184-.656v-1.105h-.34v-.444h.34v-.53l.582-.14Z"/></g><g filter="url(#b)"><path fill="#001A38" d="M181.433 9.561a3.51 3.51 0 0 1 5.419 1.152l1.405 2.896a3.508 3.508 0 0 0 3.774 1.924l3.169-.566a3.509 3.509 0 0 1 4.117 3.707l-.231 3.21a3.508 3.508 0 0 0 2.307 3.553l3.027 1.095a3.51 3.51 0 0 1 1.712 5.269l-1.806 2.664a3.51 3.51 0 0 0 .222 4.23l2.074 2.462a3.509 3.509 0 0 1-1.151 5.42l-2.897 1.404a3.51 3.51 0 0 0-1.923 3.774l.566 3.17a3.51 3.51 0 0 1-3.707 4.117l-3.211-.232a3.51 3.51 0 0 0-3.553 2.307l-1.094 3.027a3.51 3.51 0 0 1-5.269 1.712l-2.665-1.805a3.509 3.509 0 0 0-4.23.221l-2.462 2.075a3.51 3.51 0 0 1-5.419-1.152l-1.404-2.896a3.51 3.51 0 0 0-3.775-1.923l-3.169.565a3.509 3.509 0 0 1-4.117-3.707l.232-3.21a3.51 3.51 0 0 0-2.308-3.553l-3.027-1.094a3.51 3.51 0 0 1-1.712-5.27l1.806-2.664a3.508 3.508 0 0 0-.222-4.23l-2.074-2.462a3.51 3.51 0 0 1 1.152-5.42l2.896-1.404a3.51 3.51 0 0 0 1.923-3.774l-.566-3.17a3.51 3.51 0 0 1 3.707-4.117l3.211.232a3.51 3.51 0 0 0 3.553-2.307l1.094-3.027a3.51 3.51 0 0 1 5.269-1.712l2.665 1.806a3.509 3.509 0 0 0 4.23-.222l2.462-2.075Z"/><path fill="#fff" d="M167.573 29.877a2.373 2.373 0 0 0-.091-.565 1.414 1.414 0 0 0-.661-.849 1.794 1.794 0 0 0-.601-.232 1.9 1.9 0 0 0-.951.017c-.28.088-.525.233-.734.438a2.616 2.616 0 0 0-.526.72 3.901 3.901 0 0 0-.389 1.83c.015.317.077.61.185.882.11.266.275.495.495.689a1.9 1.9 0 0 0 .861.403c.257.054.492.06.705.016.215-.05.408-.136.581-.26.174-.128.323-.288.447-.478.123-.191.222-.403.297-.636l1.117.238a3.116 3.116 0 0 1-.484 1.016 2.673 2.673 0 0 1-.756.72c-.293.18-.618.299-.975.357a3.048 3.048 0 0 1-1.13-.04 3.233 3.233 0 0 1-1.262-.545 3.037 3.037 0 0 1-.822-.95 3.437 3.437 0 0 1-.39-1.221 4.18 4.18 0 0 1 .071-1.372c.099-.464.262-.888.491-1.273.234-.384.519-.703.854-.957a3.01 3.01 0 0 1 1.137-.534c.429-.1.888-.098 1.376.006.366.078.7.203 1.002.375.302.167.555.373.757.62.21.243.363.518.457.825.094.307.122.641.083 1.003l-1.144-.243Zm5.253-.242a1.901 1.901 0 0 0-.951.017c-.28.088-.525.233-.734.438a2.617 2.617 0 0 0-.526.72 3.903 3.903 0 0 0-.389 1.83c.015.317.077.61.185.882.11.266.275.495.495.689a1.9 1.9 0 0 0 .861.403c.348.074.662.068.942-.02.286-.086.533-.228.741-.426.21-.204.383-.448.519-.731a3.625 3.625 0 0 0 .389-1.831 2.46 2.46 0 0 0-.178-.87 1.774 1.774 0 0 0-.502-.7c-.22-.194-.504-.327-.852-.401Zm.198-.934a3.08 3.08 0 0 1 1.251.553c.351.266.628.583.831.951.202.369.329.775.382 1.22.058.446.038.901-.061 1.365-.1.47-.267.897-.502 1.28-.228.386-.51.705-.845.96a2.984 2.984 0 0 1-1.146.53 3.163 3.163 0 0 1-1.365-.012 3.231 3.231 0 0 1-1.262-.546 3.035 3.035 0 0 1-.822-.95 3.458 3.458 0 0 1-.391-1.221 4.208 4.208 0 0 1 .072-1.372c.099-.464.262-.888.491-1.273a3.42 3.42 0 0 1 .854-.957 3.01 3.01 0 0 1 1.137-.534c.429-.1.888-.098 1.376.006Zm4.121 1.038 1.611.343.715 5.5.019.004 2.845-4.743 1.593.338-1.39 6.536-1.089-.232 1.072-5.043-.018-.004-2.885 4.658-.942-.2-.741-5.43-.018-.003-1.072 5.044-1.089-.232 1.389-6.535Zm8.153 1.733 1.144.244-1.389 6.535-1.145-.243 1.39-6.536Zm2.501.532 1.209.257 1.96 5.45.019.003 1.023-4.815 1.089.232-1.389 6.535-1.208-.256-1.954-5.438-.027-.006-1.022 4.805-1.089-.231 1.389-6.536Zm10.966 9.162-.733-.156-.01-.806c-.379.283-.736.46-1.069.529-.334.07-.699.062-1.096-.022a3.228 3.228 0 0 1-1.261-.546 3.01 3.01 0 0 1-.822-.95 3.417 3.417 0 0 1-.391-1.221 4.235 4.235 0 0 1 .071-1.372c.099-.464.263-.889.491-1.274.235-.383.519-.703.854-.957a3.025 3.025 0 0 1 1.137-.533c.43-.1.888-.098 1.377.006.354.075.679.195.975.36.304.16.561.362.771.604.212.236.37.512.475.828.105.316.14.661.105 1.037l-1.117-.238c.015-.22-.013-.42-.083-.601a1.372 1.372 0 0 0-.287-.492 1.707 1.707 0 0 0-.46-.356 2.175 2.175 0 0 0-.578-.209 1.9 1.9 0 0 0-.951.018c-.28.087-.524.233-.734.437a2.616 2.616 0 0 0-.526.72c-.137.284-.238.582-.304.893a3.86 3.86 0 0 0-.085.939c.016.315.078.61.186.881.109.266.274.495.494.689.227.194.514.329.862.403.291.068.559.087.801.055a1.62 1.62 0 0 0 .644-.236c.192-.125.352-.292.479-.5.127-.21.223-.45.288-.724l-1.739-.37.184-.87 2.783.592-.731 3.442Zm-27.716 1.033c-.053.25-.056.473-.008.668.048.195.136.367.264.515.129.142.285.262.469.358.191.092.402.162.634.211.25.054.47.072.658.054.19-.023.35-.069.479-.137a.828.828 0 0 0 .304-.26.98.98 0 0 0 .151-.351c.054-.25.035-.446-.057-.587a.94.94 0 0 0-.311-.334 7.304 7.304 0 0 0-.764-.41c-.289-.145-.646-.326-1.071-.544a2.685 2.685 0 0 1-.645-.434 1.814 1.814 0 0 1-.354-.496 1.5 1.5 0 0 1-.138-.517 1.998 1.998 0 0 1 .043-.517c.07-.33.197-.6.382-.809a1.9 1.9 0 0 1 .678-.487c.259-.11.54-.172.842-.185.304-.018.602.004.895.066.342.073.653.187.932.342.287.15.525.338.713.563.194.226.331.485.409.776.08.284.083.598.011.94l-1.144-.244c.059-.427-.022-.754-.242-.98-.219-.23-.526-.389-.923-.473a1.974 1.974 0 0 0-.422-.042 1.177 1.177 0 0 0-.413.056.863.863 0 0 0-.348.194.747.747 0 0 0-.197.389c-.049.231-.018.43.094.593.119.16.287.298.505.414.023.011.112.059.266.143a41.897 41.897 0 0 1 1.106.56c.191.092.326.159.407.201.199.113.366.244.5.394.134.15.236.311.308.486.078.17.124.345.136.527.019.182.01.359-.026.53-.078.366-.221.664-.429.894a1.916 1.916 0 0 1-.72.507c-.28.113-.582.173-.909.18a3.93 3.93 0 0 1-.978-.084c-.372-.079-.713-.199-1.023-.36a2.521 2.521 0 0 1-.771-.605 2.113 2.113 0 0 1-.432-.847 2.5 2.5 0 0 1-.005-1.101l1.144.243Zm8.728-1.886a1.9 1.9 0 0 0-.951.018c-.28.087-.524.233-.733.437a2.62 2.62 0 0 0-.527.72 3.9 3.9 0 0 0-.304.893 3.91 3.91 0 0 0-.085.939c.016.316.078.61.186.881.109.266.274.495.495.689.226.194.513.329.861.403.348.074.662.067.942-.02.286-.086.533-.228.741-.426.209-.204.382-.448.519-.732.143-.282.247-.579.313-.89.067-.31.092-.625.076-.94a2.482 2.482 0 0 0-.178-.87 1.794 1.794 0 0 0-.502-.7 1.851 1.851 0 0 0-.853-.402Zm.199-.933c.488.103.905.288 1.25.552.352.267.629.584.831.952.203.368.33.775.382 1.22a4.04 4.04 0 0 1-.06 1.364c-.1.47-.267.897-.502 1.281-.229.385-.51.705-.845.959a3 3 0 0 1-1.146.531 3.164 3.164 0 0 1-1.365-.012 3.226 3.226 0 0 1-1.262-.546 3.01 3.01 0 0 1-.822-.95 3.438 3.438 0 0 1-.391-1.221 4.208 4.208 0 0 1 .072-1.372c.098-.464.262-.889.49-1.274.235-.383.52-.703.854-.957a3.025 3.025 0 0 1 1.137-.533c.43-.1.889-.098 1.377.006Zm6.756 2.412a1.899 1.899 0 0 0-.951.017c-.28.088-.525.233-.734.438a2.619 2.619 0 0 0-.526.72 3.953 3.953 0 0 0-.389 1.83c.015.317.077.61.185.882.11.266.275.495.495.689.227.195.514.33.862.403.347.074.661.067.941-.02.286-.086.533-.228.741-.426.21-.204.383-.448.52-.731a3.665 3.665 0 0 0 .389-1.831 2.482 2.482 0 0 0-.179-.87 1.774 1.774 0 0 0-.502-.7c-.22-.194-.504-.328-.852-.401Zm.198-.934c.489.104.905.288 1.251.553.352.266.629.583.831.951.202.369.33.775.382 1.22.058.446.038.901-.061 1.365-.1.47-.267.896-.502 1.28-.228.385-.51.705-.844.96a2.995 2.995 0 0 1-1.147.53 3.164 3.164 0 0 1-1.365-.012 3.233 3.233 0 0 1-1.262-.546 3.02 3.02 0 0 1-.821-.95 3.418 3.418 0 0 1-.391-1.221 4.18 4.18 0 0 1 .071-1.372c.099-.464.262-.888.491-1.273.235-.384.519-.703.854-.957a3.025 3.025 0 0 1 1.137-.534c.429-.1.888-.098 1.376.006Zm4.093 1.033 1.209.256 1.96 5.45.019.003 1.023-4.815 1.089.232-1.389 6.536-1.208-.257-1.954-5.438-.027-.006-1.021 4.806-1.09-.232 1.389-6.535ZM165.544 37.439a2.863 2.863 0 0 0-3.395 2.207 2.863 2.863 0 0 0 2.203 3.397c1.55.33 3.072-.659 3.401-2.206a2.867 2.867 0 0 0-2.209-3.398Zm.289 4.162a.278.278 0 0 1-.215.04.29.29 0 0 1-.18-.124l-.726-1.118a.282.282 0 0 1-.041-.217l.238-1.121a.287.287 0 0 1 .56.12l-.214 1.005.662 1.02a.285.285 0 0 1-.084.395Z"/></g><defs><clipPath id="a"><path fill="#fff" d="M26 83h135v51H26z"/></clipPath><filter id="b" width="130.439" height="190.439" x="113.01" y="2.734" color-interpolation-filters="sRGB" filterUnits="userSpaceOnUse"><feFlood flood-opacity="0" result="BackgroundImageFix"/><feColorMatrix in="SourceAlpha" result="hardAlpha" values="0 0 0 0 0 0 0 0 0 0 0 0 0 0 0 0 0 0 127 0"/><feOffset dy="90"/><feGaussianBlur stdDeviation="18"/><feComposite in2="hardAlpha" operator="out"/><feColorMatrix values="0 0 0 0 0.0627451 0 0 0 0 0.137255 0 0 0 0 0.254902 0 0 0 0.01 0"/><feBlend in2="BackgroundImageFix" result="effect1_dropShadow_929_1917"/><feColorMatrix in="SourceAlpha" result="hardAlpha" values="0 0 0 0 0 0 0 0 0 0 0 0 0 0 0 0 0 0 127 0"/><feOffset dy="51"/><feGaussianBlur stdDeviation="15"/><feComposite in2="hardAlpha" operator="out"/><feColorMatrix values="0 0 0 0 0.0627451 0 0 0 0 0.137255 0 0 0 0 0.254902 0 0 0 0.02 0"/><feBlend in2="effect1_dropShadow_929_1917" result="effect2_dropShadow_929_1917"/><feColorMatrix in="SourceAlpha" result="hardAlpha" values="0 0 0 0 0 0 0 0 0 0 0 0 0 0 0 0 0 0 127 0"/><feOffset dy="23"/><feGaussianBlur stdDeviation="11.5"/><feComposite in2="hardAlpha" operator="out"/><feColorMatrix values="0 0 0 0 0.0627451 0 0 0 0 0.137255 0 0 0 0 0.254902 0 0 0 0.04 0"/><feBlend in2="effect2_dropShadow_929_1917" result="effect3_dropShadow_929_1917"/><feColorMatrix in="SourceAlpha" result="hardAlpha" values="0 0 0 0 0 0 0 0 0 0 0 0 0 0 0 0 0 0 127 0"/><feOffset dy="6"/><feGaussianBlur stdDeviation="6"/><feComposite in2="hardAlpha" operator="out"/><feColorMatrix values="0 0 0 0 0.0627451 0 0 0 0 0.137255 0 0 0 0 0.254902 0 0 0 0.04 0"/><feBlend in2="effect3_dropShadow_929_1917" result="effect4_dropShadow_929_1917"/><feBlend in="SourceGraphic" in2="effect4_dropShadow_929_1917" result="shape"/></filter></defs></svg>