<svg width="244" height="230" viewBox="0 0 244 230" fill="none" xmlns="http://www.w3.org/2000/svg">
<rect x="0.5" y="30.5001" width="186" height="199" rx="11.5" fill="white"/>
<rect x="0.5" y="30.5001" width="186" height="199" rx="11.5" stroke="#F8F8F8"/>
<path d="M83.8232 186.102V188H77.0205V186.102H83.8232ZM77.7588 175.203V188H75.3418V175.203H77.7588ZM82.9355 180.485V182.34H77.0205V180.485H82.9355ZM83.7969 175.203V177.11H77.0205V175.203H83.7969ZM85.3174 174.5H87.6465V185.9L87.418 188H85.3174V174.5ZM93.7637 183.149V183.333C93.7637 184.042 93.6846 184.693 93.5264 185.284C93.374 185.876 93.1426 186.389 92.832 186.822C92.5215 187.25 92.1348 187.584 91.6719 187.824C91.2148 188.059 90.6787 188.176 90.0635 188.176C89.4775 188.176 88.9678 188.062 88.5342 187.833C88.1064 187.605 87.7461 187.282 87.4531 186.866C87.1602 186.444 86.9258 185.949 86.75 185.381C86.5742 184.807 86.4424 184.18 86.3545 183.5V182.999C86.4424 182.314 86.5742 181.687 86.75 181.118C86.9258 180.55 87.1602 180.055 87.4531 179.633C87.7461 179.211 88.1064 178.886 88.5342 178.657C88.9619 178.429 89.4658 178.315 90.0459 178.315C90.667 178.315 91.209 178.435 91.6719 178.675C92.1406 178.909 92.5273 179.243 92.832 179.677C93.1426 180.105 93.374 180.614 93.5264 181.206C93.6846 181.792 93.7637 182.44 93.7637 183.149ZM91.4346 183.333V183.149C91.4346 182.744 91.4023 182.363 91.3379 182.006C91.2734 181.643 91.168 181.323 91.0215 181.048C90.875 180.773 90.6758 180.556 90.4238 180.398C90.1719 180.239 89.8555 180.16 89.4746 180.16C89.1113 180.16 88.8008 180.222 88.543 180.345C88.291 180.468 88.0801 180.638 87.9102 180.855C87.7461 181.071 87.6172 181.326 87.5234 181.619C87.4355 181.912 87.377 182.229 87.3477 182.568V183.94C87.3887 184.391 87.4854 184.798 87.6377 185.161C87.79 185.519 88.0156 185.803 88.3145 186.014C88.6191 186.225 89.0117 186.33 89.4922 186.33C89.8672 186.33 90.1807 186.257 90.4326 186.11C90.6846 185.958 90.8838 185.747 91.0303 185.478C91.1768 185.202 91.2793 184.883 91.3379 184.52C91.4023 184.156 91.4346 183.761 91.4346 183.333ZM100.689 185.979V181.593C100.689 181.271 100.634 180.992 100.522 180.758C100.411 180.524 100.241 180.342 100.013 180.213C99.7842 180.084 99.4941 180.02 99.1426 180.02C98.832 180.02 98.5596 180.072 98.3252 180.178C98.0967 180.283 97.9209 180.433 97.7979 180.626C97.6748 180.814 97.6133 181.03 97.6133 181.276H95.2842C95.2842 180.884 95.3779 180.512 95.5654 180.16C95.7529 179.803 96.0195 179.486 96.3652 179.211C96.7168 178.93 97.1357 178.71 97.6221 178.552C98.1143 178.394 98.665 178.315 99.2744 178.315C99.9951 178.315 100.637 178.438 101.199 178.684C101.768 178.924 102.213 179.287 102.535 179.774C102.863 180.26 103.027 180.872 103.027 181.61V185.759C103.027 186.234 103.057 186.641 103.115 186.981C103.18 187.315 103.273 187.605 103.396 187.851V188H101.032C100.921 187.76 100.836 187.455 100.777 187.086C100.719 186.711 100.689 186.342 100.689 185.979ZM101.015 182.208L101.032 183.588H99.5645C99.2012 183.588 98.8818 183.626 98.6064 183.702C98.3311 183.773 98.1055 183.878 97.9297 184.019C97.7539 184.153 97.6221 184.318 97.5342 184.511C97.4463 184.698 97.4023 184.912 97.4023 185.152C97.4023 185.387 97.4551 185.598 97.5605 185.785C97.6719 185.973 97.8301 186.122 98.0352 186.234C98.2461 186.339 98.4922 186.392 98.7734 186.392C99.1836 186.392 99.541 186.31 99.8457 186.146C100.15 185.976 100.388 185.771 100.558 185.53C100.728 185.29 100.818 185.062 100.83 184.845L101.498 185.847C101.416 186.087 101.293 186.342 101.129 186.611C100.965 186.881 100.754 187.133 100.496 187.367C100.238 187.602 99.9277 187.795 99.5645 187.947C99.2012 188.1 98.7793 188.176 98.2988 188.176C97.6836 188.176 97.1328 188.053 96.6465 187.807C96.1602 187.561 95.7764 187.224 95.4951 186.796C95.2139 186.368 95.0732 185.882 95.0732 185.337C95.0732 184.833 95.167 184.388 95.3545 184.001C95.542 183.614 95.8203 183.289 96.1895 183.026C96.5586 182.756 97.0156 182.554 97.5605 182.419C98.1113 182.278 98.7412 182.208 99.4502 182.208H101.015ZM107.765 186.945L110.313 178.49H112.801L108.986 189.442C108.898 189.676 108.784 189.931 108.644 190.206C108.509 190.482 108.327 190.742 108.099 190.988C107.87 191.24 107.583 191.445 107.237 191.604C106.897 191.762 106.484 191.841 105.998 191.841C105.787 191.841 105.6 191.826 105.436 191.797C105.271 191.768 105.099 191.73 104.917 191.683V189.943C104.976 189.948 105.043 189.951 105.119 189.951C105.201 189.957 105.271 189.96 105.33 189.96C105.67 189.96 105.951 189.919 106.174 189.837C106.396 189.761 106.575 189.635 106.71 189.459C106.851 189.289 106.968 189.067 107.062 188.791L107.765 186.945ZM106.508 178.49L108.661 185.495L109.039 187.947L107.439 188.237L104.003 178.49H106.508Z" fill="#616161"/>
<g clip-path="url(#clip0_929_1917)">
<path d="M42.3153 98.415C47.7198 98.415 51.4051 101.709 51.4051 106.645H32.7593C32.7593 101.404 37.5678 98.415 42.3153 98.415ZM42.5486 94.1257C33.522 94.1257 26 97.9344 26 109.427C26 118.53 31.0581 124.262 42.7803 124.262C56.5805 124.262 57.4642 115.222 57.4642 115.222H50.7774C50.7774 115.222 49.3451 120.089 42.3737 120.089C36.6955 120.089 32.6115 116.275 32.6115 110.927H58.1649V107.572C58.164 102.281 54.7875 94.1257 42.5486 94.1257Z" fill="#E62435"/>
<path d="M74.7078 98.6031C80.8327 98.6031 84.7294 103.126 84.7294 109.195C84.7294 115.703 80.2313 119.96 74.7517 119.96C68.2127 119.96 64.6852 114.881 64.6852 109.252C64.6848 104.007 67.8502 98.6031 74.7078 98.6031ZM58.1587 82.999V118.492C58.1587 120.506 58.0137 123.336 58.0137 123.336H64.3914C64.3914 123.336 64.6198 121.304 64.6198 119.447C64.6198 119.447 67.771 124.35 76.3389 124.35C85.3595 124.35 91.4878 118.12 91.4878 109.195C91.4878 100.892 85.8583 94.2132 76.3537 94.2132C67.4506 94.2132 64.6843 98.9944 64.6843 98.9944V82.999H58.1587Z" fill="#3D60B5"/>
<path d="M114.794 109.89V111.743C114.794 114.162 113.296 120.176 104.459 120.176C99.6217 120.176 97.5488 117.774 97.5488 114.989C97.5488 109.923 104.533 109.89 114.794 109.89ZM107.338 94.1253C93.7571 94.1253 92.8862 101.521 92.8862 102.704H99.6455C99.6455 102.704 99.9994 98.3847 106.871 98.3847C111.335 98.3847 114.794 100.418 114.794 104.325V105.716H106.871C96.3507 105.716 90.7891 108.777 90.7891 114.989C90.7891 121.102 95.9277 124.428 102.872 124.428C112.337 124.428 115.386 119.227 115.386 119.227C115.386 121.296 115.545 123.335 115.545 123.335H121.555C121.555 123.335 121.322 120.808 121.322 119.19V105.216C121.322 96.0536 113.891 94.1253 107.338 94.1253Z" fill="#F2A90E"/>
<path d="M117.682 95.2863H125.288L136.201 117.031L147.088 95.2863H153.976L134.144 134H126.918L132.641 123.209L117.682 95.2863Z" fill="#78BF2B"/>
<path d="M157.52 92.5246C157.52 92.2542 157.515 92.0274 157.5 91.8248H158.014L158.039 92.1721H158.054C158.17 91.9885 158.384 91.7717 158.781 91.7717C159.091 91.7717 159.334 91.9453 159.436 92.2058H159.445C159.528 92.0754 159.625 91.979 159.736 91.9118C159.867 91.82 160.017 91.7717 160.211 91.7717C160.604 91.7717 161.002 92.0374 161.002 92.7897V94.1745H160.42V92.8766C160.42 92.4856 160.284 92.2542 159.998 92.2542C159.794 92.2542 159.644 92.3989 159.581 92.5677C159.566 92.6255 159.552 92.6982 159.552 92.7656V94.1745H158.97V92.814C158.97 92.4862 158.84 92.2545 158.563 92.2545C158.34 92.2545 158.189 92.4282 158.136 92.5923C158.112 92.6502 158.102 92.7182 158.102 92.7855V94.1749H157.52V92.5246H157.52ZM156.502 91.154V91.8248H157.069V92.2688H156.502V93.3058C156.502 93.5904 156.579 93.7399 156.807 93.7399C156.909 93.7399 156.987 93.7257 157.04 93.711L157.05 94.1645C156.962 94.1982 156.807 94.2223 156.618 94.2223C156.4 94.2223 156.215 94.1498 156.104 94.0292C155.978 93.8941 155.92 93.6819 155.92 93.3732V92.2684H155.58V91.8245H155.92V91.2935L156.502 91.154Z" fill="#100F0D"/>
</g>
<g filter="url(#filter0_dddd_929_1917)">
<path d="M181.433 9.56115C183.183 8.08631 185.853 8.65395 186.852 10.713L188.257 13.6094C188.942 15.0232 190.484 15.8088 192.031 15.5326L195.2 14.9666C197.453 14.5643 199.482 16.3912 199.317 18.6737L199.086 21.8845C198.972 23.4517 199.915 24.903 201.393 25.4372L204.42 26.5316C206.572 27.3096 207.416 29.9062 206.132 31.8006L204.326 34.4654C203.445 35.7661 203.535 37.4943 204.548 38.6957L206.622 41.1571C208.097 42.907 207.53 45.5776 205.471 46.5762L202.574 47.981C201.16 48.6668 200.375 50.2087 200.651 51.7555L201.217 54.9244C201.619 57.1773 199.792 59.2062 197.51 59.0416L194.299 58.81C192.732 58.6969 191.281 59.6395 190.746 61.1172L189.652 64.1445C188.874 66.2967 186.277 67.1404 184.383 65.8565L181.718 64.0506C180.418 63.1691 178.689 63.2596 177.488 64.2723L175.026 66.3469C173.277 67.8217 170.606 67.2541 169.607 65.195L168.203 62.2986C167.517 60.8849 165.975 60.0992 164.428 60.3755L161.259 60.9414C159.006 61.3437 156.977 59.5169 157.142 57.2343L157.374 54.0236C157.487 52.4563 156.544 51.005 155.066 50.4708L152.039 49.3765C149.887 48.5985 149.043 46.0019 150.327 44.1075L152.133 41.4427C153.015 40.1419 152.924 38.4138 151.911 37.2123L149.837 34.7509C148.362 33.0011 148.93 30.3305 150.989 29.3318L153.885 27.927C155.299 27.2413 156.084 25.6994 155.808 24.1526L155.242 20.9836C154.84 18.7308 156.667 16.7018 158.949 16.8665L162.16 17.0981C163.727 17.2111 165.179 16.2686 165.713 14.7909L166.807 11.7635C167.585 9.61134 170.182 8.76765 172.076 10.0515L174.741 11.8575C176.042 12.739 177.77 12.6484 178.971 11.6358L181.433 9.56115Z" fill="#001A38"/>
<path d="M167.573 29.8766C167.564 29.6771 167.534 29.4889 167.482 29.3121C167.431 29.1353 167.35 28.9746 167.24 28.8301C167.131 28.6856 166.991 28.5634 166.821 28.4635C166.658 28.3588 166.458 28.2811 166.22 28.2305C165.872 28.1566 165.555 28.1625 165.269 28.2484C164.989 28.3356 164.744 28.4813 164.535 28.6856C164.327 28.8837 164.152 29.1239 164.009 29.4061C163.872 29.6895 163.77 29.9868 163.704 30.2981C163.638 30.6093 163.61 30.9222 163.62 31.2368C163.635 31.5526 163.697 31.8464 163.805 32.1182C163.915 32.3838 164.08 32.6134 164.3 32.8069C164.526 33.0017 164.814 33.1361 165.161 33.21C165.418 33.2645 165.653 33.2698 165.866 33.2259C166.081 33.1758 166.274 33.0895 166.447 32.9667C166.621 32.8379 166.77 32.6782 166.894 32.4876C167.017 32.2969 167.116 32.0852 167.191 31.8524L168.308 32.0898C168.2 32.4752 168.039 32.814 167.824 33.1063C167.615 33.3999 167.363 33.6397 167.068 33.8258C166.775 34.0058 166.45 34.1249 166.093 34.183C165.736 34.2411 165.36 34.228 164.963 34.1437C164.475 34.0399 164.054 33.8581 163.701 33.5981C163.356 33.3333 163.082 33.0167 162.879 32.6485C162.677 32.2802 162.547 31.873 162.489 31.4269C162.436 30.9821 162.46 30.5247 162.56 30.0549C162.659 29.5911 162.822 29.1666 163.051 28.7815C163.285 28.3977 163.57 28.0787 163.905 27.8245C164.239 27.5704 164.618 27.3926 165.042 27.2913C165.471 27.1912 165.93 27.1931 166.418 27.2968C166.784 27.3747 167.118 27.4998 167.42 27.6723C167.722 27.8387 167.975 28.0455 168.177 28.2926C168.387 28.535 168.54 28.8097 168.634 29.1167C168.728 29.4237 168.756 29.7581 168.717 30.1198L167.573 29.8766ZM172.826 29.6346C172.478 29.5607 172.161 29.5667 171.875 29.6525C171.595 29.7397 171.35 29.8854 171.141 30.0897C170.933 30.2879 170.758 30.528 170.615 30.8102C170.478 31.0936 170.376 31.391 170.31 31.7022C170.244 32.0134 170.216 32.3263 170.226 32.6409C170.241 32.9568 170.303 33.2506 170.411 33.5223C170.521 33.7879 170.686 34.0175 170.906 34.211C171.132 34.4059 171.42 34.5402 171.767 34.6142C172.115 34.6881 172.429 34.6815 172.709 34.5943C172.995 34.5084 173.242 34.3664 173.45 34.1683C173.66 33.964 173.833 33.7201 173.969 33.4367C174.112 33.1545 174.217 32.8578 174.283 32.5466C174.349 32.2354 174.374 31.9218 174.358 31.606C174.349 31.2914 174.289 31.0013 174.18 30.7357C174.072 30.4639 173.905 30.2307 173.678 30.0358C173.458 29.8423 173.174 29.7086 172.826 29.6346ZM173.024 28.701C173.512 28.8047 173.929 28.989 174.275 29.2538C174.626 29.5199 174.903 29.8371 175.106 30.2054C175.308 30.5737 175.435 30.9802 175.488 31.425C175.546 31.8711 175.526 32.326 175.427 32.7898C175.327 33.2597 175.16 33.6866 174.925 34.0704C174.697 34.4555 174.415 34.7752 174.08 35.0293C173.746 35.2835 173.364 35.4606 172.934 35.5606C172.512 35.6559 172.057 35.6516 171.569 35.5478C171.081 35.4441 170.66 35.2622 170.307 35.0022C169.962 34.7374 169.688 34.4209 169.485 34.0526C169.283 33.6843 169.153 33.2771 169.094 32.831C169.042 32.3862 169.066 31.9289 169.166 31.459C169.265 30.9952 169.428 30.5708 169.657 30.1856C169.891 29.8018 170.176 29.4828 170.511 29.2287C170.845 28.9745 171.224 28.7968 171.648 28.6954C172.077 28.5953 172.536 28.5972 173.024 28.701ZM177.145 29.7395L178.756 30.0819L179.471 35.582L179.49 35.5859L182.335 30.8426L183.928 31.1812L182.538 37.7168L181.449 37.4853L182.521 32.4417L182.503 32.4378L179.618 37.0962L178.676 36.8958L177.935 31.4669L177.917 31.463L176.845 36.5066L175.756 36.2751L177.145 29.7395ZM185.298 31.4724L186.442 31.7156L185.053 38.2512L183.908 38.008L185.298 31.4724ZM187.799 32.0042L189.008 32.261L190.968 37.7101L190.987 37.7139L192.01 32.8992L193.099 33.1307L191.71 39.6663L190.502 39.4095L188.548 33.9716L188.521 33.9657L187.499 38.7714L186.41 38.5398L187.799 32.0042ZM198.765 41.1658L198.032 41.0102L198.022 40.2043C197.643 40.4873 197.286 40.6635 196.953 40.7329C196.619 40.8023 196.254 40.7948 195.857 40.7105C195.369 40.6067 194.949 40.4249 194.596 40.1649C194.25 39.9001 193.976 39.5835 193.774 39.2152C193.571 38.847 193.441 38.4398 193.383 37.9937C193.331 37.5489 193.355 37.0915 193.454 36.6217C193.553 36.1579 193.717 35.7334 193.945 35.3483C194.18 34.9645 194.464 34.6455 194.799 34.3913C195.134 34.1372 195.513 33.9594 195.936 33.8581C196.366 33.758 196.824 33.7599 197.313 33.8636C197.667 33.9389 197.992 34.059 198.288 34.2241C198.592 34.3844 198.849 34.5857 199.059 34.8281C199.271 35.0643 199.429 35.3403 199.534 35.656C199.639 35.9718 199.674 36.3172 199.639 36.6925L198.522 36.4551C198.537 36.235 198.509 36.0346 198.439 35.8539C198.377 35.6684 198.281 35.5045 198.152 35.3622C198.023 35.22 197.869 35.1013 197.692 35.0061C197.514 34.911 197.322 34.8414 197.114 34.7973C196.766 34.7234 196.449 34.7293 196.163 34.8152C195.883 34.9024 195.639 35.0481 195.429 35.2524C195.221 35.4505 195.046 35.6907 194.903 35.9729C194.766 36.2563 194.665 36.5536 194.599 36.8649C194.532 37.1761 194.504 37.489 194.514 37.8036C194.53 38.1194 194.592 38.4132 194.7 38.685C194.809 38.9506 194.974 39.1801 195.194 39.3737C195.421 39.5685 195.708 39.7029 196.056 39.7768C196.347 39.8452 196.615 39.8637 196.857 39.8324C197.101 39.7949 197.316 39.7161 197.501 39.596C197.693 39.4711 197.853 39.3041 197.98 39.0952C198.107 38.8863 198.203 38.6452 198.268 38.3719L196.529 38.0022L196.713 37.1326L199.496 37.7241L198.765 41.1658ZM171.049 42.1988C170.996 42.449 170.993 42.6717 171.041 42.8668C171.089 43.0619 171.177 43.2337 171.305 43.382C171.434 43.5243 171.59 43.6436 171.774 43.7401C171.965 43.8317 172.176 43.9022 172.408 43.9514C172.658 44.0046 172.878 44.0226 173.066 44.0053C173.256 43.9819 173.416 43.9361 173.545 43.8679C173.675 43.7997 173.776 43.7128 173.849 43.6072C173.924 43.4956 173.975 43.3787 174 43.2567C174.054 43.0065 174.035 42.8111 173.943 42.6705C173.859 42.5251 173.755 42.4137 173.632 42.3363C173.418 42.2016 173.163 42.0646 172.868 41.9252C172.579 41.781 172.222 41.5999 171.797 41.3819C171.532 41.249 171.317 41.1044 171.152 40.9483C170.995 40.7873 170.877 40.6219 170.798 40.4521C170.72 40.2823 170.673 40.1099 170.66 39.9347C170.652 39.7609 170.666 39.5885 170.703 39.4177C170.773 39.0881 170.9 38.8186 171.085 38.6092C171.277 38.3949 171.503 38.2325 171.763 38.1218C172.022 38.0111 172.303 37.9496 172.605 37.9374C172.909 37.919 173.207 37.941 173.5 38.0032C173.842 38.0759 174.153 38.1897 174.432 38.3448C174.719 38.4951 174.957 38.6827 175.145 38.9077C175.339 39.134 175.476 39.3926 175.554 39.6835C175.634 39.9683 175.637 40.2816 175.565 40.6233L174.421 40.3801C174.48 39.9526 174.399 39.6261 174.179 39.4008C173.96 39.1693 173.653 39.0115 173.256 38.9272C173.122 38.8986 172.981 38.8847 172.834 38.8854C172.689 38.8799 172.551 38.8985 172.421 38.941C172.292 38.9773 172.176 39.042 172.073 39.135C171.977 39.2293 171.911 39.3588 171.876 39.5236C171.827 39.7555 171.858 39.9534 171.97 40.1175C172.089 40.2768 172.257 40.4147 172.475 40.5311C172.498 40.5424 172.587 40.5899 172.741 40.6738C172.903 40.7528 173.082 40.8418 173.278 40.9409C173.473 41.0399 173.663 41.1376 173.847 41.234C174.038 41.3257 174.173 41.3927 174.254 41.4353C174.453 41.5478 174.62 41.6789 174.754 41.8286C174.888 41.9783 174.99 42.1404 175.062 42.315C175.14 42.4848 175.186 42.6604 175.198 42.8416C175.217 43.0241 175.208 43.2008 175.172 43.3717C175.094 43.7379 174.951 44.0359 174.743 44.2659C174.542 44.4911 174.302 44.6601 174.023 44.773C173.743 44.8858 173.441 44.9458 173.114 44.9529C172.786 44.9661 172.46 44.9383 172.136 44.8695C171.764 44.7904 171.423 44.6701 171.113 44.5085C170.803 44.3469 170.546 44.1456 170.342 43.9045C170.138 43.6635 169.994 43.3809 169.91 43.0569C169.827 42.7267 169.825 42.3596 169.905 41.9556L171.049 42.1988ZM179.777 40.3133C179.43 40.2394 179.113 40.2453 178.826 40.3312C178.546 40.4184 178.302 40.5641 178.093 40.7684C177.885 40.9666 177.709 41.2067 177.566 41.4889C177.429 41.7723 177.328 42.0697 177.262 42.3809C177.196 42.6921 177.167 43.005 177.177 43.3196C177.193 43.6355 177.255 43.9293 177.363 44.201C177.472 44.4666 177.637 44.6962 177.858 44.8897C178.084 45.0845 178.371 45.2189 178.719 45.2929C179.067 45.3668 179.381 45.3602 179.661 45.273C179.947 45.1871 180.194 45.0451 180.402 44.8469C180.611 44.6427 180.784 44.3988 180.921 44.1154C181.064 43.8332 181.168 43.5365 181.234 43.2253C181.301 42.9141 181.326 42.6005 181.31 42.2846C181.3 41.9701 181.241 41.68 181.132 41.4143C181.023 41.1426 180.856 40.9094 180.63 40.7145C180.409 40.521 180.125 40.3872 179.777 40.3133ZM179.976 39.3796C180.464 39.4834 180.881 39.6677 181.226 39.9325C181.578 40.1986 181.855 40.5158 182.057 40.8841C182.26 41.2523 182.387 41.6589 182.439 42.1037C182.497 42.5498 182.477 43.0047 182.379 43.4685C182.279 43.9384 182.112 44.3652 181.877 44.7491C181.648 45.1342 181.367 45.4538 181.032 45.708C180.697 45.9621 180.315 46.1392 179.886 46.2393C179.464 46.3345 179.009 46.3303 178.521 46.2265C178.032 46.1227 177.612 45.9409 177.259 45.6809C176.913 45.4161 176.639 45.0996 176.437 44.7313C176.235 44.363 176.104 43.9558 176.046 43.5097C175.994 43.0649 176.018 42.6076 176.118 42.1377C176.216 41.6739 176.38 41.2494 176.608 40.8643C176.843 40.4805 177.128 40.1615 177.462 39.9073C177.797 39.6532 178.176 39.4754 178.599 39.3741C179.029 39.274 179.488 39.2759 179.976 39.3796ZM186.732 41.7916C186.384 41.7176 186.067 41.7236 185.781 41.8095C185.501 41.8966 185.256 42.0424 185.047 42.2466C184.839 42.4448 184.664 42.685 184.521 42.9671C184.384 43.2506 184.283 43.5479 184.216 43.8591C184.15 44.1703 184.122 44.4832 184.132 44.7978C184.147 45.1137 184.209 45.4075 184.317 45.6792C184.427 45.9448 184.592 46.1744 184.812 46.3679C185.039 46.5628 185.326 46.6972 185.674 46.7711C186.021 46.845 186.335 46.8384 186.615 46.7512C186.901 46.6654 187.148 46.5233 187.356 46.3252C187.566 46.1209 187.739 45.877 187.876 45.5936C188.018 45.3114 188.123 45.0147 188.189 44.7035C188.255 44.3923 188.28 44.0788 188.265 43.7629C188.255 43.4483 188.195 43.1582 188.086 42.8926C187.978 42.6209 187.811 42.3876 187.584 42.1928C187.364 41.9992 187.08 41.8655 186.732 41.7916ZM186.93 40.8579C187.419 40.9617 187.835 41.1459 188.181 41.4107C188.533 41.6768 188.81 41.994 189.012 42.3623C189.214 42.7306 189.342 43.1371 189.394 43.5819C189.452 44.028 189.432 44.483 189.333 44.9467C189.233 45.4166 189.066 45.8435 188.831 46.2273C188.603 46.6124 188.321 46.9321 187.987 47.1862C187.652 47.4404 187.27 47.6175 186.84 47.7175C186.418 47.8128 185.963 47.8085 185.475 47.7048C184.987 47.601 184.566 47.4191 184.213 47.1591C183.868 46.8943 183.594 46.5778 183.392 46.2095C183.189 45.8412 183.059 45.434 183.001 44.9879C182.948 44.5431 182.972 44.0858 183.072 43.6159C183.171 43.1521 183.334 42.7277 183.563 42.3425C183.798 41.9587 184.082 41.6397 184.417 41.3856C184.752 41.1314 185.131 40.9537 185.554 40.8523C185.983 40.7523 186.442 40.7541 186.93 40.8579ZM191.023 41.8905L192.232 42.1474L194.192 47.5964L194.211 47.6003L195.234 42.7855L196.323 43.0171L194.934 49.5527L193.726 49.2959L191.772 43.8579L191.745 43.8521L190.724 48.6577L189.634 48.4262L191.023 41.8905Z" fill="white"/>
<path d="M165.544 37.4387C163.997 37.1099 162.477 38.099 162.149 39.6459C161.82 41.1927 162.805 42.7143 164.352 43.0431C165.902 43.3725 167.424 42.384 167.753 40.8371C168.082 39.2903 167.093 37.7681 165.544 37.4387ZM165.833 41.6006C165.802 41.6211 165.767 41.6352 165.73 41.642C165.693 41.6489 165.655 41.6484 165.618 41.6406C165.582 41.6328 165.547 41.6178 165.516 41.5966C165.485 41.5753 165.459 41.5481 165.438 41.5167L164.712 40.3988C164.691 40.3672 164.677 40.3318 164.67 40.2945C164.663 40.2573 164.663 40.219 164.671 40.1819L164.909 39.061C164.942 38.9069 165.094 38.8076 165.249 38.8404C165.403 38.8731 165.502 39.026 165.469 39.1802L165.255 40.1862L165.917 41.2055C166.003 41.338 165.966 41.5146 165.833 41.6006Z" fill="white"/>
</g>
<defs>
<filter id="filter0_dddd_929_1917" x="113.01" y="2.73438" width="130.439" height="190.439" filterUnits="userSpaceOnUse" color-interpolation-filters="sRGB">
<feFlood flood-opacity="0" result="BackgroundImageFix"/>
<feColorMatrix in="SourceAlpha" type="matrix" values="0 0 0 0 0 0 0 0 0 0 0 0 0 0 0 0 0 0 127 0" result="hardAlpha"/>
<feOffset dy="90"/>
<feGaussianBlur stdDeviation="18"/>
<feComposite in2="hardAlpha" operator="out"/>
<feColorMatrix type="matrix" values="0 0 0 0 0.0627451 0 0 0 0 0.137255 0 0 0 0 0.254902 0 0 0 0.01 0"/>
<feBlend mode="normal" in2="BackgroundImageFix" result="effect1_dropShadow_929_1917"/>
<feColorMatrix in="SourceAlpha" type="matrix" values="0 0 0 0 0 0 0 0 0 0 0 0 0 0 0 0 0 0 127 0" result="hardAlpha"/>
<feOffset dy="51"/>
<feGaussianBlur stdDeviation="15"/>
<feComposite in2="hardAlpha" operator="out"/>
<feColorMatrix type="matrix" values="0 0 0 0 0.0627451 0 0 0 0 0.137255 0 0 0 0 0.254902 0 0 0 0.02 0"/>
<feBlend mode="normal" in2="effect1_dropShadow_929_1917" result="effect2_dropShadow_929_1917"/>
<feColorMatrix in="SourceAlpha" type="matrix" values="0 0 0 0 0 0 0 0 0 0 0 0 0 0 0 0 0 0 127 0" result="hardAlpha"/>
<feOffset dy="23"/>
<feGaussianBlur stdDeviation="11.5"/>
<feComposite in2="hardAlpha" operator="out"/>
<feColorMatrix type="matrix" values="0 0 0 0 0.0627451 0 0 0 0 0.137255 0 0 0 0 0.254902 0 0 0 0.04 0"/>
<feBlend mode="normal" in2="effect2_dropShadow_929_1917" result="effect3_dropShadow_929_1917"/>
<feColorMatrix in="SourceAlpha" type="matrix" values="0 0 0 0 0 0 0 0 0 0 0 0 0 0 0 0 0 0 127 0" result="hardAlpha"/>
<feOffset dy="6"/>
<feGaussianBlur stdDeviation="6"/>
<feComposite in2="hardAlpha" operator="out"/>
<feColorMatrix type="matrix" values="0 0 0 0 0.0627451 0 0 0 0 0.137255 0 0 0 0 0.254902 0 0 0 0.04 0"/>
<feBlend mode="normal" in2="effect3_dropShadow_929_1917" result="effect4_dropShadow_929_1917"/>
<feBlend mode="normal" in="SourceGraphic" in2="effect4_dropShadow_929_1917" result="shape"/>
</filter>
<clipPath id="clip0_929_1917">
<rect width="135" height="51" fill="white" transform="translate(26 83.0001)"/>
</clipPath>
</defs>
</svg>
