<svg width="48" height="49" viewBox="0 0 48 49" fill="none" xmlns="http://www.w3.org/2000/svg">
<g clip-path="url(#clip0_652_6719)">
<path d="M23.7129 25.6519C23.8089 25.2679 23.8089 24.8839 23.8089 24.4999C23.8089 24.1159 23.8089 23.7319 23.7129 23.3479H38.9769V25.6519H23.7129Z" fill="url(#paint0_linear_652_6719)"/>
<path d="M23.7129 25.6519C23.8089 25.2679 23.8089 24.8839 23.8089 24.4999C23.8089 24.1159 23.8089 23.7319 23.7129 23.3479H38.9769V25.6519H23.7129Z" fill="url(#paint1_linear_652_6719)"/>
<path d="M42.2406 42.0679V44.3719H29.1846C28.1286 44.3719 27.1686 43.9879 26.4006 43.2199L16.2246 33.0439C17.0886 32.9479 17.9526 32.6599 18.8166 32.2759L27.4566 40.9159C28.2246 41.6839 29.1846 42.0679 30.2406 42.0679H42.2406Z" fill="url(#paint2_linear_652_6719)"/>
<path d="M42.239 4.62793V6.93193H30.143C29.087 6.93193 28.127 7.31593 27.359 8.08393L18.719 16.7239C17.951 16.3399 17.087 16.0519 16.127 15.9559L26.399 5.77993C27.167 5.01193 28.127 4.62793 29.183 4.62793H42.239Z" fill="url(#paint3_linear_652_6719)"/>
<path d="M30.5273 4.62793H42.2393V6.93193H30.5273V4.62793Z" fill="url(#paint4_linear_652_6719)"/>
<path d="M30.5273 42.0679H42.2393V44.3719H30.5273V42.0679Z" fill="url(#paint5_linear_652_6719)"/>
<path d="M23.7123 8.46802L16.3203 15.86C17.1843 15.956 18.0483 16.244 18.9123 16.628L27.0723 8.46802H23.7123Z" fill="url(#paint6_linear_652_6719)"/>
<path d="M23.7123 40.4359L16.3203 33.0439C17.1843 32.9479 18.0483 32.6599 18.9123 32.2759L27.0723 40.4359H23.7123Z" fill="url(#paint7_linear_652_6719)"/>
<path d="M28.9917 21.5244H27.0717C26.7837 20.2764 26.3037 19.1244 25.6317 18.0684L26.9757 16.7244C27.4557 16.2444 27.4557 15.4764 26.9757 14.9964L24.4797 12.5004C23.9997 12.0204 23.2317 12.0204 22.7517 12.5004L21.5037 13.9404C20.4477 13.2684 19.2957 12.7884 18.0477 12.5004V10.5804C18.0477 9.90841 17.4717 9.42841 16.8957 9.42841H13.4397C12.7677 9.42841 12.2877 10.0044 12.2877 10.5804V12.5004C11.0397 12.7884 9.8877 13.2684 8.8317 13.9404L7.4877 12.5964C7.0077 12.1164 6.2397 12.1164 5.7597 12.5964L3.2637 15.0924C2.7837 15.5724 2.7837 16.3404 3.2637 16.8204L4.6077 18.1644C3.9357 19.2204 3.4557 20.3724 3.1677 21.6204H1.2477C0.575703 21.6204 0.0957031 22.1964 0.0957031 22.7724V26.2284C0.0957031 26.9004 0.671703 27.3804 1.2477 27.3804H3.1677C3.4557 28.6284 3.9357 29.7804 4.6077 30.8364L3.2637 32.1804C2.7837 32.6604 2.7837 33.4284 3.2637 33.9084L5.7597 36.4044C6.2397 36.8844 7.0077 36.8844 7.4877 36.4044L8.7357 35.0604C9.7917 35.7324 10.9437 36.2124 12.1917 36.5004V38.4204C12.1917 39.0924 12.7677 39.5724 13.3437 39.5724H16.7997C17.4717 39.5724 17.9517 38.9964 17.9517 38.4204V36.5004C19.1997 36.2124 20.3517 35.7324 21.4077 35.0604L22.7517 36.4044C23.2317 36.8844 23.9997 36.8844 24.4797 36.4044L26.9757 33.9084C27.4557 33.4284 27.4557 32.6604 26.9757 32.1804L25.6317 30.8364C26.3037 29.7804 26.7837 28.6284 27.0717 27.3804H28.9917C29.6637 27.3804 30.1437 26.8044 30.1437 26.2284V22.7724C30.2397 22.1004 29.6637 21.5244 28.9917 21.5244ZM15.0717 31.3164C11.3277 31.3164 8.2557 28.2444 8.2557 24.5004C8.2557 20.7564 11.3277 17.6844 15.0717 17.6844C18.8157 17.6844 21.8877 20.7564 21.8877 24.5004C21.8877 28.2444 18.8157 31.3164 15.0717 31.3164Z" fill="url(#paint8_linear_652_6719)"/>
<path d="M18.0477 10.58V12.5C17.0877 12.308 16.1277 12.116 15.0717 12.116C14.0157 12.116 13.0557 12.212 12.0957 12.5V10.58C12.0957 9.90796 12.6717 9.42796 13.2477 9.42796H16.7037C17.5677 9.33196 18.0477 9.90796 18.0477 10.58Z" fill="url(#paint9_linear_652_6719)"/>
<path d="M18.0471 36.5V38.42C18.0471 39.092 17.4711 39.572 16.8951 39.572H13.4391C12.7671 39.572 12.2871 38.996 12.2871 38.42V36.5C13.2471 36.692 14.2071 36.884 15.2631 36.884C16.3191 36.884 17.0871 36.692 18.0471 36.5Z" fill="url(#paint10_linear_652_6719)"/>
<path d="M18.0471 36.5V38.42C18.0471 39.092 17.4711 39.572 16.8951 39.572H13.4391C12.7671 39.572 12.2871 38.996 12.2871 38.42V36.5C13.2471 36.692 14.2071 36.884 15.2631 36.884C16.3191 36.884 17.0871 36.692 18.0471 36.5Z" fill="url(#paint11_linear_652_6719)"/>
<path d="M30.24 22.7719V26.2279C30.24 26.8999 29.664 27.3799 29.088 27.3799H27.168C27.36 26.4199 27.552 25.4599 27.552 24.4039C27.552 23.3479 27.456 22.3879 27.168 21.4279H29.088C29.664 21.5239 30.24 22.0999 30.24 22.7719Z" fill="url(#paint12_linear_652_6719)"/>
<path d="M30.24 22.7719V26.2279C30.24 26.8999 29.664 27.3799 29.088 27.3799H27.168C27.36 26.4199 27.552 25.4599 27.552 24.4039C27.552 23.3479 27.456 22.3879 27.168 21.4279H29.088C29.664 21.5239 30.24 22.0999 30.24 22.7719Z" fill="url(#paint13_linear_652_6719)"/>
<path d="M2.7837 24.4999C2.7837 25.5559 2.8797 26.5159 3.1677 27.4759H1.2477C0.575703 27.4759 0.0957031 26.8999 0.0957031 26.3239V22.8679C0.0957031 22.1959 0.671703 21.7159 1.2477 21.7159H3.1677C2.8797 22.4839 2.7837 23.4439 2.7837 24.4999Z" fill="url(#paint14_linear_652_6719)"/>
<path d="M27.0736 16.7239L25.7296 18.0679C24.6736 16.3399 23.2336 14.8999 21.6016 13.9399L22.9456 12.5959C23.4256 12.1159 24.1936 12.1159 24.6736 12.5959L27.1696 15.0919C27.4576 15.4759 27.4576 16.2439 27.0736 16.7239Z" fill="url(#paint15_linear_652_6719)"/>
<path d="M8.73659 35.0599L7.39259 36.4039C6.91259 36.8839 6.14459 36.8839 5.66459 36.4039L3.16859 33.9079C2.68859 33.4279 2.68859 32.6599 3.16859 32.1799L4.51259 30.8359C5.56859 32.5639 7.00859 34.0039 8.73659 35.0599Z" fill="url(#paint16_linear_652_6719)"/>
<path d="M8.73659 35.0599L7.39259 36.4039C6.91259 36.8839 6.14459 36.8839 5.66459 36.4039L3.16859 33.9079C2.68859 33.4279 2.68859 32.6599 3.16859 32.1799L4.51259 30.8359C5.56859 32.5639 7.00859 34.0039 8.73659 35.0599Z" fill="url(#paint17_linear_652_6719)"/>
<path d="M27.0719 34.0039L24.5759 36.4999C24.0959 36.9799 23.3279 36.9799 22.8479 36.4999L21.5039 35.0599C23.2319 34.0039 24.6719 32.5639 25.6319 30.9319L26.9759 32.2759C27.4559 32.7559 27.4559 33.5239 27.0719 34.0039Z" fill="url(#paint18_linear_652_6719)"/>
<path d="M27.0719 34.0039L24.5759 36.4999C24.0959 36.9799 23.3279 36.9799 22.8479 36.4999L21.5039 35.0599C23.2319 34.0039 24.6719 32.5639 25.6319 30.9319L26.9759 32.2759C27.4559 32.7559 27.4559 33.5239 27.0719 34.0039Z" fill="url(#paint19_linear_652_6719)"/>
<path d="M8.7363 13.9399C7.0083 14.9959 5.5683 16.4359 4.6083 18.0679L3.2643 16.7239C2.7843 16.2439 2.7843 15.4759 3.2643 14.9959L5.7603 12.4999C6.2403 12.0199 7.0083 12.0199 7.4883 12.4999L8.7363 13.9399Z" fill="url(#paint20_linear_652_6719)"/>
<path d="M15.0718 15.86C10.2718 15.86 6.43176 19.7 6.43176 24.5C6.43176 29.3 10.2718 33.14 15.0718 33.14C19.8718 33.14 23.7118 29.3 23.7118 24.5C23.7118 19.7 19.8718 15.86 15.0718 15.86ZM15.0718 30.26C11.9038 30.26 9.31176 27.668 9.31176 24.5C9.31176 21.332 11.9038 18.74 15.0718 18.74C18.2398 18.74 20.8318 21.332 20.8318 24.5C20.8318 27.668 18.3358 30.26 15.0718 30.26Z" fill="url(#paint21_linear_652_6719)"/>
<path d="M42.2388 12.2119H42.1428C38.9748 12.2119 36.3828 9.61995 36.3828 6.45195V6.35595C36.3828 3.18795 38.9748 0.595947 42.1428 0.595947H42.2388C45.4068 0.595947 47.9988 3.18795 47.9988 6.35595V6.45195C47.9988 9.61995 45.4068 12.2119 42.2388 12.2119Z" fill="url(#paint22_radial_652_6719)"/>
<g opacity="0.25">
<path d="M42.2388 12.2119H42.1428C38.9748 12.2119 36.3828 9.61995 36.3828 6.45195V6.35595C36.3828 3.18795 38.9748 0.595947 42.1428 0.595947H42.2388C45.4068 0.595947 47.9988 3.18795 47.9988 6.35595V6.45195C47.9988 9.61995 45.4068 12.2119 42.2388 12.2119Z" fill="url(#paint23_radial_652_6719)"/>
</g>
<path d="M38.3991 18.644H45.8871C47.0391 18.644 47.9991 19.604 47.9991 20.756V28.244C47.9991 29.396 47.0391 30.356 45.8871 30.356H38.3991C37.2471 30.356 36.2871 29.396 36.2871 28.244V20.756C36.2871 19.604 37.2471 18.644 38.3991 18.644Z" fill="url(#paint24_linear_652_6719)"/>
<path d="M36.2871 23.3481V28.2441C36.2871 29.3961 37.2471 30.3561 38.3991 30.3561H45.8871C47.0391 30.3561 47.9991 29.3961 47.9991 28.2441V23.3481H36.2871Z" fill="url(#paint25_linear_652_6719)"/>
<path d="M45.8865 18.644H40.8945V30.356H45.8865C47.0385 30.356 47.9985 29.396 47.9985 28.244V20.756C47.9985 19.604 47.0385 18.644 45.8865 18.644Z" fill="url(#paint26_linear_652_6719)"/>
<path d="M41.2793 39.5719L36.4793 46.8679C35.9993 47.5399 36.4793 48.4039 37.3433 48.4039H47.0393C47.8073 48.4039 48.2873 47.5399 47.9033 46.8679L43.1033 39.5719C42.6233 38.9959 41.6633 38.9959 41.2793 39.5719Z" fill="url(#paint27_linear_652_6719)"/>
<path d="M41.2793 39.5719L36.4793 46.8679C35.9993 47.5399 36.4793 48.4039 37.3433 48.4039H47.0393C47.8073 48.4039 48.2873 47.5399 47.9033 46.8679L43.1033 39.5719C42.6233 38.9959 41.6633 38.9959 41.2793 39.5719Z" fill="url(#paint28_linear_652_6719)"/>
<path d="M36.4793 46.9639C35.9993 47.6359 36.4793 48.4999 37.3433 48.4999H47.0393C47.8073 48.4999 48.2873 47.6359 47.9033 46.9639L45.5033 43.3159H38.9753L36.4793 46.9639Z" fill="url(#paint29_linear_652_6719)"/>
</g>
<defs>
<linearGradient id="paint0_linear_652_6719" x1="31.282" y1="23.4248" x2="31.282" y2="25.3645" gradientUnits="userSpaceOnUse">
<stop stop-color="#5A5A5A"/>
<stop offset="1" stop-color="#444444"/>
</linearGradient>
<linearGradient id="paint1_linear_652_6719" x1="33.7017" y1="24.4952" x2="30.3589" y2="24.4952" gradientUnits="userSpaceOnUse">
<stop stop-color="#433F43" stop-opacity="0"/>
<stop offset="0.4114" stop-color="#373537" stop-opacity="0.269"/>
<stop offset="1" stop-color="#1A1A1A"/>
</linearGradient>
<linearGradient id="paint2_linear_652_6719" x1="28.0192" y1="40.8534" x2="26.5485" y2="43.3935" gradientUnits="userSpaceOnUse">
<stop stop-color="#5A5A5A"/>
<stop offset="1" stop-color="#444444"/>
</linearGradient>
<linearGradient id="paint3_linear_652_6719" x1="26.6619" y1="5.43193" x2="28.1993" y2="8.30636" gradientUnits="userSpaceOnUse">
<stop stop-color="#5A5A5A"/>
<stop offset="1" stop-color="#444444"/>
</linearGradient>
<linearGradient id="paint4_linear_652_6719" x1="34.5692" y1="5.77907" x2="36.6022" y2="5.77907" gradientUnits="userSpaceOnUse">
<stop stop-color="#433F43" stop-opacity="0"/>
<stop offset="0.4114" stop-color="#373537" stop-opacity="0.269"/>
<stop offset="1" stop-color="#1A1A1A"/>
</linearGradient>
<linearGradient id="paint5_linear_652_6719" x1="36.2484" y1="43.1319" x2="38.0531" y2="44.3351" gradientUnits="userSpaceOnUse">
<stop stop-color="#433F43" stop-opacity="0"/>
<stop offset="0.4114" stop-color="#373537" stop-opacity="0.269"/>
<stop offset="1" stop-color="#1A1A1A"/>
</linearGradient>
<linearGradient id="paint6_linear_652_6719" x1="22.1928" y1="11.3057" x2="20.7221" y2="13.6452" gradientUnits="userSpaceOnUse">
<stop stop-color="#433F43" stop-opacity="0"/>
<stop offset="0.4114" stop-color="#373537" stop-opacity="0.269"/>
<stop offset="1" stop-color="#1A1A1A"/>
</linearGradient>
<linearGradient id="paint7_linear_652_6719" x1="22.1928" y1="37.6848" x2="20.7221" y2="35.3453" gradientUnits="userSpaceOnUse">
<stop stop-color="#433F43" stop-opacity="0"/>
<stop offset="0.4114" stop-color="#373537" stop-opacity="0.269"/>
<stop offset="1" stop-color="#1A1A1A"/>
</linearGradient>
<linearGradient id="paint8_linear_652_6719" x1="5.54505" y1="14.9303" x2="24.8673" y2="34.2526" gradientUnits="userSpaceOnUse">
<stop stop-color="#F3FAFF"/>
<stop offset="1" stop-color="#D5DAF3"/>
</linearGradient>
<linearGradient id="paint9_linear_652_6719" x1="16.12" y1="10.9317" x2="18.3257" y2="10.9317" gradientUnits="userSpaceOnUse">
<stop stop-color="#DBD5EF" stop-opacity="0"/>
<stop offset="0.2667" stop-color="#D8D2EC" stop-opacity="0.023"/>
<stop offset="0.4431" stop-color="#D1C9E2" stop-opacity="0.098"/>
<stop offset="0.5933" stop-color="#C4B9D1" stop-opacity="0.225"/>
<stop offset="0.7288" stop-color="#B2A4BA" stop-opacity="0.405"/>
<stop offset="0.8545" stop-color="#9A889C" stop-opacity="0.638"/>
<stop offset="0.9713" stop-color="#7E6678" stop-opacity="0.92"/>
<stop offset="1" stop-color="#765D6E"/>
</linearGradient>
<linearGradient id="paint10_linear_652_6719" x1="15.1099" y1="37.9905" x2="15.1099" y2="39.7632" gradientUnits="userSpaceOnUse">
<stop stop-color="#DBD5EF" stop-opacity="0"/>
<stop offset="0.2667" stop-color="#D8D2EC" stop-opacity="0.023"/>
<stop offset="0.4431" stop-color="#D1C9E2" stop-opacity="0.098"/>
<stop offset="0.5933" stop-color="#C4B9D1" stop-opacity="0.225"/>
<stop offset="0.7288" stop-color="#B2A4BA" stop-opacity="0.405"/>
<stop offset="0.8545" stop-color="#9A889C" stop-opacity="0.638"/>
<stop offset="0.9713" stop-color="#7E6678" stop-opacity="0.92"/>
<stop offset="1" stop-color="#765D6E"/>
</linearGradient>
<linearGradient id="paint11_linear_652_6719" x1="16.1589" y1="38.0589" x2="18.1285" y2="38.0589" gradientUnits="userSpaceOnUse">
<stop stop-color="#DBD5EF" stop-opacity="0"/>
<stop offset="0.2667" stop-color="#D8D2EC" stop-opacity="0.023"/>
<stop offset="0.4431" stop-color="#D1C9E2" stop-opacity="0.098"/>
<stop offset="0.5933" stop-color="#C4B9D1" stop-opacity="0.225"/>
<stop offset="0.7288" stop-color="#B2A4BA" stop-opacity="0.405"/>
<stop offset="0.8545" stop-color="#9A889C" stop-opacity="0.638"/>
<stop offset="0.9713" stop-color="#7E6678" stop-opacity="0.92"/>
<stop offset="1" stop-color="#765D6E"/>
</linearGradient>
<linearGradient id="paint12_linear_652_6719" x1="28.6743" y1="25.6626" x2="28.6743" y2="27.6461" gradientUnits="userSpaceOnUse">
<stop stop-color="#DBD5EF" stop-opacity="0"/>
<stop offset="0.2667" stop-color="#D8D2EC" stop-opacity="0.023"/>
<stop offset="0.4431" stop-color="#D1C9E2" stop-opacity="0.098"/>
<stop offset="0.5933" stop-color="#C4B9D1" stop-opacity="0.225"/>
<stop offset="0.7288" stop-color="#B2A4BA" stop-opacity="0.405"/>
<stop offset="0.8545" stop-color="#9A889C" stop-opacity="0.638"/>
<stop offset="0.9713" stop-color="#7E6678" stop-opacity="0.92"/>
<stop offset="1" stop-color="#765D6E"/>
</linearGradient>
<linearGradient id="paint13_linear_652_6719" x1="28.8026" y1="24.4952" x2="30.3432" y2="24.4952" gradientUnits="userSpaceOnUse">
<stop stop-color="#DBD5EF" stop-opacity="0"/>
<stop offset="0.2667" stop-color="#D8D2EC" stop-opacity="0.023"/>
<stop offset="0.4431" stop-color="#D1C9E2" stop-opacity="0.098"/>
<stop offset="0.5933" stop-color="#C4B9D1" stop-opacity="0.225"/>
<stop offset="0.7288" stop-color="#B2A4BA" stop-opacity="0.405"/>
<stop offset="0.8545" stop-color="#9A889C" stop-opacity="0.638"/>
<stop offset="0.9713" stop-color="#7E6678" stop-opacity="0.92"/>
<stop offset="1" stop-color="#765D6E"/>
</linearGradient>
<linearGradient id="paint14_linear_652_6719" x1="1.54684" y1="25.8201" x2="1.54684" y2="27.5925" gradientUnits="userSpaceOnUse">
<stop stop-color="#DBD5EF" stop-opacity="0"/>
<stop offset="0.2667" stop-color="#D8D2EC" stop-opacity="0.023"/>
<stop offset="0.4431" stop-color="#D1C9E2" stop-opacity="0.098"/>
<stop offset="0.5933" stop-color="#C4B9D1" stop-opacity="0.225"/>
<stop offset="0.7288" stop-color="#B2A4BA" stop-opacity="0.405"/>
<stop offset="0.8545" stop-color="#9A889C" stop-opacity="0.638"/>
<stop offset="0.9713" stop-color="#7E6678" stop-opacity="0.92"/>
<stop offset="1" stop-color="#765D6E"/>
</linearGradient>
<linearGradient id="paint15_linear_652_6719" x1="25.4388" y1="15.6367" x2="27.0187" y2="17.2165" gradientUnits="userSpaceOnUse">
<stop stop-color="#DBD5EF" stop-opacity="0"/>
<stop offset="0.2667" stop-color="#D8D2EC" stop-opacity="0.023"/>
<stop offset="0.4431" stop-color="#D1C9E2" stop-opacity="0.098"/>
<stop offset="0.5933" stop-color="#C4B9D1" stop-opacity="0.225"/>
<stop offset="0.7288" stop-color="#B2A4BA" stop-opacity="0.405"/>
<stop offset="0.8545" stop-color="#9A889C" stop-opacity="0.638"/>
<stop offset="0.9713" stop-color="#7E6678" stop-opacity="0.92"/>
<stop offset="1" stop-color="#765D6E"/>
</linearGradient>
<linearGradient id="paint16_linear_652_6719" x1="6.33631" y1="34.8958" x2="7.68463" y2="36.2442" gradientUnits="userSpaceOnUse">
<stop stop-color="#DBD5EF" stop-opacity="0"/>
<stop offset="0.2667" stop-color="#D8D2EC" stop-opacity="0.023"/>
<stop offset="0.4431" stop-color="#D1C9E2" stop-opacity="0.098"/>
<stop offset="0.5933" stop-color="#C4B9D1" stop-opacity="0.225"/>
<stop offset="0.7288" stop-color="#B2A4BA" stop-opacity="0.405"/>
<stop offset="0.8545" stop-color="#9A889C" stop-opacity="0.638"/>
<stop offset="0.9713" stop-color="#7E6678" stop-opacity="0.92"/>
<stop offset="1" stop-color="#765D6E"/>
</linearGradient>
<linearGradient id="paint17_linear_652_6719" x1="5.75704" y1="33.8495" x2="4.16191" y2="35.4446" gradientUnits="userSpaceOnUse">
<stop stop-color="#DBD5EF" stop-opacity="0"/>
<stop offset="0.2667" stop-color="#D8D2EC" stop-opacity="0.023"/>
<stop offset="0.4431" stop-color="#D1C9E2" stop-opacity="0.098"/>
<stop offset="0.5933" stop-color="#C4B9D1" stop-opacity="0.225"/>
<stop offset="0.7288" stop-color="#B2A4BA" stop-opacity="0.405"/>
<stop offset="0.8545" stop-color="#9A889C" stop-opacity="0.638"/>
<stop offset="0.9713" stop-color="#7E6678" stop-opacity="0.92"/>
<stop offset="1" stop-color="#765D6E"/>
</linearGradient>
<linearGradient id="paint18_linear_652_6719" x1="24.3127" y1="33.6971" x2="25.9079" y2="35.2924" gradientUnits="userSpaceOnUse">
<stop stop-color="#DBD5EF" stop-opacity="0"/>
<stop offset="0.2667" stop-color="#D8D2EC" stop-opacity="0.023"/>
<stop offset="0.4431" stop-color="#D1C9E2" stop-opacity="0.098"/>
<stop offset="0.5933" stop-color="#C4B9D1" stop-opacity="0.225"/>
<stop offset="0.7288" stop-color="#B2A4BA" stop-opacity="0.405"/>
<stop offset="0.8545" stop-color="#9A889C" stop-opacity="0.638"/>
<stop offset="0.9713" stop-color="#7E6678" stop-opacity="0.92"/>
<stop offset="1" stop-color="#765D6E"/>
</linearGradient>
<linearGradient id="paint19_linear_652_6719" x1="24.1761" y1="34.6242" x2="22.4224" y2="36.3778" gradientUnits="userSpaceOnUse">
<stop stop-color="#DBD5EF" stop-opacity="0"/>
<stop offset="0.2667" stop-color="#D8D2EC" stop-opacity="0.023"/>
<stop offset="0.4431" stop-color="#D1C9E2" stop-opacity="0.098"/>
<stop offset="0.5933" stop-color="#C4B9D1" stop-opacity="0.225"/>
<stop offset="0.7288" stop-color="#B2A4BA" stop-opacity="0.405"/>
<stop offset="0.8545" stop-color="#9A889C" stop-opacity="0.638"/>
<stop offset="0.9713" stop-color="#7E6678" stop-opacity="0.92"/>
<stop offset="1" stop-color="#765D6E"/>
</linearGradient>
<linearGradient id="paint20_linear_652_6719" x1="4.81422" y1="15.6164" x2="3.2307" y2="17.1999" gradientUnits="userSpaceOnUse">
<stop stop-color="#DBD5EF" stop-opacity="0"/>
<stop offset="0.2667" stop-color="#D8D2EC" stop-opacity="0.023"/>
<stop offset="0.4431" stop-color="#D1C9E2" stop-opacity="0.098"/>
<stop offset="0.5933" stop-color="#C4B9D1" stop-opacity="0.225"/>
<stop offset="0.7288" stop-color="#B2A4BA" stop-opacity="0.405"/>
<stop offset="0.8545" stop-color="#9A889C" stop-opacity="0.638"/>
<stop offset="0.9713" stop-color="#7E6678" stop-opacity="0.92"/>
<stop offset="1" stop-color="#765D6E"/>
</linearGradient>
<linearGradient id="paint21_linear_652_6719" x1="20.9451" y1="30.3297" x2="8.29704" y2="17.6818" gradientUnits="userSpaceOnUse">
<stop stop-color="#F3FAFF"/>
<stop offset="1" stop-color="#D5DAF3"/>
</linearGradient>
<radialGradient id="paint22_radial_652_6719" cx="0" cy="0" r="1" gradientUnits="userSpaceOnUse" gradientTransform="translate(41.1862 4.85758) scale(6.25882)">
<stop stop-color="#BBEC6C"/>
<stop offset="1" stop-color="#78A91F"/>
</radialGradient>
<radialGradient id="paint23_radial_652_6719" cx="0" cy="0" r="1" gradientUnits="userSpaceOnUse" gradientTransform="translate(40.1187 4.88033) scale(8.48131)">
<stop stop-color="#334C0F" stop-opacity="0"/>
<stop offset="0.2872" stop-color="#334C0F" stop-opacity="0.03"/>
<stop offset="0.4349" stop-color="#334C0F" stop-opacity="0.132"/>
<stop offset="0.5509" stop-color="#334C0F" stop-opacity="0.308"/>
<stop offset="0.6504" stop-color="#334C0F" stop-opacity="0.557"/>
<stop offset="0.7384" stop-color="#334C0F" stop-opacity="0.877"/>
<stop offset="0.766" stop-color="#334C0F"/>
<stop offset="0.8217" stop-color="#334C0F" stop-opacity="0.951"/>
<stop offset="0.8745" stop-color="#334C0F" stop-opacity="0.8"/>
<stop offset="0.9261" stop-color="#334C0F" stop-opacity="0.548"/>
<stop offset="0.9767" stop-color="#334C0F" stop-opacity="0.198"/>
<stop offset="1" stop-color="#334C0F" stop-opacity="0"/>
</radialGradient>
<linearGradient id="paint24_linear_652_6719" x1="39.6276" y1="20.1091" x2="44.5997" y2="28.7784" gradientUnits="userSpaceOnUse">
<stop stop-color="#FEF0AE"/>
<stop offset="1" stop-color="#FAC600"/>
</linearGradient>
<linearGradient id="paint25_linear_652_6719" x1="42.1433" y1="27.9105" x2="42.1433" y2="30.7528" gradientUnits="userSpaceOnUse">
<stop stop-color="#FE9738" stop-opacity="0"/>
<stop offset="0.1025" stop-color="#FE9738" stop-opacity="0.02"/>
<stop offset="0.2265" stop-color="#FE9738" stop-opacity="0.078"/>
<stop offset="0.3615" stop-color="#FE9738" stop-opacity="0.175"/>
<stop offset="0.5046" stop-color="#FE9738" stop-opacity="0.31"/>
<stop offset="0.6539" stop-color="#FE9738" stop-opacity="0.483"/>
<stop offset="0.8085" stop-color="#FE9738" stop-opacity="0.695"/>
<stop offset="0.9645" stop-color="#FE9738" stop-opacity="0.94"/>
<stop offset="1" stop-color="#FE9738"/>
</linearGradient>
<linearGradient id="paint26_linear_652_6719" x1="44.8843" y1="24.4953" x2="48.0867" y2="24.4953" gradientUnits="userSpaceOnUse">
<stop stop-color="#FE9738" stop-opacity="0"/>
<stop offset="0.1025" stop-color="#FE9738" stop-opacity="0.02"/>
<stop offset="0.2265" stop-color="#FE9738" stop-opacity="0.078"/>
<stop offset="0.3615" stop-color="#FE9738" stop-opacity="0.175"/>
<stop offset="0.5046" stop-color="#FE9738" stop-opacity="0.31"/>
<stop offset="0.6539" stop-color="#FE9738" stop-opacity="0.483"/>
<stop offset="0.8085" stop-color="#FE9738" stop-opacity="0.695"/>
<stop offset="0.9645" stop-color="#FE9738" stop-opacity="0.94"/>
<stop offset="1" stop-color="#FE9738"/>
</linearGradient>
<linearGradient id="paint27_linear_652_6719" x1="39.6656" y1="43.7631" x2="43.4" y2="47.4975" gradientUnits="userSpaceOnUse">
<stop stop-color="#FD4755"/>
<stop offset="1" stop-color="#A72B2B"/>
</linearGradient>
<linearGradient id="paint28_linear_652_6719" x1="43.8681" y1="44.2865" x2="45.4962" y2="43.1818" gradientUnits="userSpaceOnUse">
<stop stop-color="#C41926" stop-opacity="0"/>
<stop offset="0.1624" stop-color="#BF1A26" stop-opacity="0.051"/>
<stop offset="0.3712" stop-color="#B21E26" stop-opacity="0.198"/>
<stop offset="0.6053" stop-color="#9D2426" stop-opacity="0.441"/>
<stop offset="0.8559" stop-color="#802D26" stop-opacity="0.776"/>
<stop offset="1" stop-color="#6D3326"/>
</linearGradient>
<linearGradient id="paint29_linear_652_6719" x1="42.1408" y1="47.1232" x2="42.1408" y2="48.328" gradientUnits="userSpaceOnUse">
<stop stop-color="#C41926" stop-opacity="0"/>
<stop offset="0.1624" stop-color="#BF1A26" stop-opacity="0.051"/>
<stop offset="0.3712" stop-color="#B21E26" stop-opacity="0.198"/>
<stop offset="0.6053" stop-color="#9D2426" stop-opacity="0.441"/>
<stop offset="0.8559" stop-color="#802D26" stop-opacity="0.776"/>
<stop offset="1" stop-color="#6D3326"/>
</linearGradient>
<clipPath id="clip0_652_6719">
<rect width="48" height="48" fill="white" transform="translate(0 0.5)"/>
</clipPath>
</defs>
</svg>
