<svg xmlns="http://www.w3.org/2000/svg" width="48" height="49" fill="none"><g clip-path="url(#a)"><path fill="url(#b)" d="M23.713 25.652c.096-.384.096-.768.096-1.152 0-.384 0-.768-.096-1.152h15.264v2.304H23.713Z"/><path fill="url(#c)" d="M23.713 25.652c.096-.384.096-.768.096-1.152 0-.384 0-.768-.096-1.152h15.264v2.304H23.713Z"/><path fill="url(#d)" d="M42.24 42.068v2.304H29.186A3.845 3.845 0 0 1 26.4 43.22L16.225 33.044c.864-.096 1.728-.384 2.592-.768l8.64 8.64a3.845 3.845 0 0 0 2.784 1.152h12Z"/><path fill="url(#e)" d="M42.239 4.628v2.304H30.143a3.845 3.845 0 0 0-2.784 1.152l-8.64 8.64a7.423 7.423 0 0 0-2.592-.768L26.399 5.78a3.845 3.845 0 0 1 2.784-1.152h13.056Z"/><path fill="url(#f)" d="M30.527 4.628H42.24v2.304H30.527V4.628Z"/><path fill="url(#g)" d="M30.527 42.068H42.24v2.304H30.527v-2.304Z"/><path fill="url(#h)" d="M23.712 8.468 16.32 15.86c.864.096 1.728.384 2.592.768l8.16-8.16h-3.36Z"/><path fill="url(#i)" d="m23.712 40.436-7.392-7.392c.864-.096 1.728-.384 2.592-.768l8.16 8.16h-3.36Z"/><path fill="url(#j)" d="M28.992 21.524h-1.92a10.99 10.99 0 0 0-1.44-3.456l1.344-1.344c.48-.48.48-1.248 0-1.728L24.48 12.5a1.217 1.217 0 0 0-1.728 0l-1.248 1.44a10.99 10.99 0 0 0-3.456-1.44v-1.92c0-.672-.576-1.152-1.152-1.152H13.44c-.672 0-1.152.576-1.152 1.152v1.92a10.99 10.99 0 0 0-3.456 1.44l-1.344-1.344a1.217 1.217 0 0 0-1.728 0l-2.496 2.496c-.48.48-.48 1.248 0 1.728l1.344 1.344a10.99 10.99 0 0 0-1.44 3.456h-1.92c-.672 0-1.152.576-1.152 1.152v3.456c0 .672.576 1.152 1.152 1.152h1.92a10.99 10.99 0 0 0 1.44 3.456L3.264 32.18c-.48.48-.48 1.248 0 1.728l2.496 2.496c.48.48 1.248.48 1.728 0l1.248-1.344a10.99 10.99 0 0 0 3.456 1.44v1.92c0 .672.576 1.152 1.152 1.152H16.8c.672 0 1.152-.576 1.152-1.152V36.5a10.99 10.99 0 0 0 3.456-1.44l1.344 1.344c.48.48 1.248.48 1.728 0l2.496-2.496c.48-.48.48-1.248 0-1.728l-1.344-1.344a10.99 10.99 0 0 0 1.44-3.456h1.92c.672 0 1.152-.576 1.152-1.152v-3.456c.096-.672-.48-1.248-1.152-1.248Zm-13.92 9.792c-3.744 0-6.816-3.072-6.816-6.816 0-3.744 3.072-6.816 6.816-6.816 3.744 0 6.816 3.072 6.816 6.816 0 3.744-3.072 6.816-6.816 6.816Z"/><path fill="url(#k)" d="M18.048 10.58v1.92c-.96-.192-1.92-.384-2.976-.384s-2.016.096-2.976.384v-1.92c0-.672.576-1.152 1.152-1.152h3.456c.864-.096 1.344.48 1.344 1.152Z"/><path fill="url(#l)" d="M18.047 36.5v1.92c0 .672-.576 1.152-1.152 1.152H13.44c-.672 0-1.152-.576-1.152-1.152V36.5c.96.192 1.92.384 2.976.384s1.824-.192 2.784-.384Z"/><path fill="url(#m)" d="M18.047 36.5v1.92c0 .672-.576 1.152-1.152 1.152H13.44c-.672 0-1.152-.576-1.152-1.152V36.5c.96.192 1.92.384 2.976.384s1.824-.192 2.784-.384Z"/><path fill="url(#n)" d="M30.24 22.772v3.456c0 .672-.576 1.152-1.152 1.152h-1.92c.192-.96.384-1.92.384-2.976s-.096-2.016-.384-2.976h1.92c.576.096 1.152.672 1.152 1.344Z"/><path fill="url(#o)" d="M30.24 22.772v3.456c0 .672-.576 1.152-1.152 1.152h-1.92c.192-.96.384-1.92.384-2.976s-.096-2.016-.384-2.976h1.92c.576.096 1.152.672 1.152 1.344Z"/><path fill="url(#p)" d="M2.784 24.5c0 1.056.096 2.016.384 2.976h-1.92c-.672 0-1.152-.576-1.152-1.152v-3.456c0-.672.576-1.152 1.152-1.152h1.92c-.288.768-.384 1.728-.384 2.784Z"/><path fill="url(#q)" d="m27.074 16.724-1.344 1.344c-1.056-1.728-2.496-3.168-4.128-4.128l1.344-1.344c.48-.48 1.248-.48 1.728 0l2.496 2.496c.288.384.288 1.152-.096 1.632Z"/><path fill="url(#r)" d="m8.737 35.06-1.344 1.344c-.48.48-1.248.48-1.728 0l-2.496-2.496a1.217 1.217 0 0 1 0-1.728l1.344-1.344a12.694 12.694 0 0 0 4.224 4.224Z"/><path fill="url(#s)" d="m8.737 35.06-1.344 1.344c-.48.48-1.248.48-1.728 0l-2.496-2.496a1.217 1.217 0 0 1 0-1.728l1.344-1.344a12.694 12.694 0 0 0 4.224 4.224Z"/><path fill="url(#t)" d="M27.072 34.004 24.576 36.5c-.48.48-1.248.48-1.728 0l-1.344-1.44c1.728-1.056 3.168-2.496 4.128-4.128l1.344 1.344c.48.48.48 1.248.096 1.728Z"/><path fill="url(#u)" d="M27.072 34.004 24.576 36.5c-.48.48-1.248.48-1.728 0l-1.344-1.44c1.728-1.056 3.168-2.496 4.128-4.128l1.344 1.344c.48.48.48 1.248.096 1.728Z"/><path fill="url(#v)" d="M8.736 13.94c-1.728 1.056-3.168 2.496-4.128 4.128l-1.344-1.344a1.217 1.217 0 0 1 0-1.728L5.76 12.5c.48-.48 1.248-.48 1.728 0l1.248 1.44Z"/><path fill="url(#w)" d="M15.072 15.86c-4.8 0-8.64 3.84-8.64 8.64 0 4.8 3.84 8.64 8.64 8.64 4.8 0 8.64-3.84 8.64-8.64 0-4.8-3.84-8.64-8.64-8.64Zm0 14.4c-3.168 0-5.76-2.592-5.76-5.76 0-3.168 2.592-5.76 5.76-5.76 3.168 0 5.76 2.592 5.76 5.76 0 3.168-2.496 5.76-5.76 5.76Z"/><path fill="url(#x)" d="M42.239 12.212h-.096c-3.168 0-5.76-2.592-5.76-5.76v-.096c0-3.168 2.592-5.76 5.76-5.76h.096c3.168 0 5.76 2.592 5.76 5.76v.096c0 3.168-2.592 5.76-5.76 5.76Z"/><path fill="url(#y)" d="M42.239 12.212h-.096c-3.168 0-5.76-2.592-5.76-5.76v-.096c0-3.168 2.592-5.76 5.76-5.76h.096c3.168 0 5.76 2.592 5.76 5.76v.096c0 3.168-2.592 5.76-5.76 5.76Z" opacity=".25"/><path fill="url(#z)" d="M38.4 18.644h7.487A2.13 2.13 0 0 1 48 20.756v7.488a2.13 2.13 0 0 1-2.112 2.112H38.4a2.13 2.13 0 0 1-2.112-2.112v-7.488a2.13 2.13 0 0 1 2.112-2.112Z"/><path fill="url(#A)" d="M36.287 23.348v4.896a2.13 2.13 0 0 0 2.112 2.112h7.488A2.13 2.13 0 0 0 48 28.244v-4.896H36.287Z"/><path fill="url(#B)" d="M45.886 18.644h-4.992v11.712h4.992a2.13 2.13 0 0 0 2.112-2.112v-7.488a2.13 2.13 0 0 0-2.111-2.112Z"/><path fill="url(#C)" d="m41.28 39.572-4.8 7.296c-.48.672 0 1.536.863 1.536h9.696c.768 0 1.248-.864.864-1.536l-4.8-7.296c-.48-.576-1.44-.576-1.824 0Z"/><path fill="url(#D)" d="m41.28 39.572-4.8 7.296c-.48.672 0 1.536.863 1.536h9.696c.768 0 1.248-.864.864-1.536l-4.8-7.296c-.48-.576-1.44-.576-1.824 0Z"/><path fill="url(#E)" d="M36.48 46.964c-.48.672 0 1.536.863 1.536h9.696c.768 0 1.248-.864.864-1.536l-2.4-3.648h-6.528l-2.496 3.648Z"/></g><defs><linearGradient id="c" x1="33.702" x2="30.359" y1="24.495" y2="24.495" gradientUnits="userSpaceOnUse"><stop stop-color="#433F43" stop-opacity="0"/><stop offset=".411" stop-color="#373537" stop-opacity=".269"/><stop offset="1" stop-color="#1A1A1A"/></linearGradient><linearGradient id="q" x1="25.439" x2="27.019" y1="15.637" y2="17.216" gradientUnits="userSpaceOnUse"><stop stop-color="#DBD5EF" stop-opacity="0"/><stop offset=".267" stop-color="#D8D2EC" stop-opacity=".023"/><stop offset=".443" stop-color="#D1C9E2" stop-opacity=".098"/><stop offset=".593" stop-color="#C4B9D1" stop-opacity=".225"/><stop offset=".729" stop-color="#B2A4BA" stop-opacity=".405"/><stop offset=".855" stop-color="#9A889C" stop-opacity=".638"/><stop offset=".971" stop-color="#7E6678" stop-opacity=".92"/><stop offset="1" stop-color="#765D6E"/></linearGradient><linearGradient id="d" x1="28.019" x2="26.549" y1="40.853" y2="43.394" gradientUnits="userSpaceOnUse"><stop stop-color="#5A5A5A"/><stop offset="1" stop-color="#444"/></linearGradient><linearGradient id="e" x1="26.662" x2="28.199" y1="5.432" y2="8.306" gradientUnits="userSpaceOnUse"><stop stop-color="#5A5A5A"/><stop offset="1" stop-color="#444"/></linearGradient><linearGradient id="f" x1="34.569" x2="36.602" y1="5.779" y2="5.779" gradientUnits="userSpaceOnUse"><stop stop-color="#433F43" stop-opacity="0"/><stop offset=".411" stop-color="#373537" stop-opacity=".269"/><stop offset="1" stop-color="#1A1A1A"/></linearGradient><linearGradient id="g" x1="36.248" x2="38.053" y1="43.132" y2="44.335" gradientUnits="userSpaceOnUse"><stop stop-color="#433F43" stop-opacity="0"/><stop offset=".411" stop-color="#373537" stop-opacity=".269"/><stop offset="1" stop-color="#1A1A1A"/></linearGradient><linearGradient id="h" x1="22.193" x2="20.722" y1="11.306" y2="13.645" gradientUnits="userSpaceOnUse"><stop stop-color="#433F43" stop-opacity="0"/><stop offset=".411" stop-color="#373537" stop-opacity=".269"/><stop offset="1" stop-color="#1A1A1A"/></linearGradient><linearGradient id="i" x1="22.193" x2="20.722" y1="37.685" y2="35.345" gradientUnits="userSpaceOnUse"><stop stop-color="#433F43" stop-opacity="0"/><stop offset=".411" stop-color="#373537" stop-opacity=".269"/><stop offset="1" stop-color="#1A1A1A"/></linearGradient><linearGradient id="j" x1="5.545" x2="24.867" y1="14.93" y2="34.253" gradientUnits="userSpaceOnUse"><stop stop-color="#F3FAFF"/><stop offset="1" stop-color="#D5DAF3"/></linearGradient><linearGradient id="k" x1="16.12" x2="18.326" y1="10.932" y2="10.932" gradientUnits="userSpaceOnUse"><stop stop-color="#DBD5EF" stop-opacity="0"/><stop offset=".267" stop-color="#D8D2EC" stop-opacity=".023"/><stop offset=".443" stop-color="#D1C9E2" stop-opacity=".098"/><stop offset=".593" stop-color="#C4B9D1" stop-opacity=".225"/><stop offset=".729" stop-color="#B2A4BA" stop-opacity=".405"/><stop offset=".855" stop-color="#9A889C" stop-opacity=".638"/><stop offset=".971" stop-color="#7E6678" stop-opacity=".92"/><stop offset="1" stop-color="#765D6E"/></linearGradient><linearGradient id="l" x1="15.11" x2="15.11" y1="37.99" y2="39.763" gradientUnits="userSpaceOnUse"><stop stop-color="#DBD5EF" stop-opacity="0"/><stop offset=".267" stop-color="#D8D2EC" stop-opacity=".023"/><stop offset=".443" stop-color="#D1C9E2" stop-opacity=".098"/><stop offset=".593" stop-color="#C4B9D1" stop-opacity=".225"/><stop offset=".729" stop-color="#B2A4BA" stop-opacity=".405"/><stop offset=".855" stop-color="#9A889C" stop-opacity=".638"/><stop offset=".971" stop-color="#7E6678" stop-opacity=".92"/><stop offset="1" stop-color="#765D6E"/></linearGradient><linearGradient id="m" x1="16.159" x2="18.128" y1="38.059" y2="38.059" gradientUnits="userSpaceOnUse"><stop stop-color="#DBD5EF" stop-opacity="0"/><stop offset=".267" stop-color="#D8D2EC" stop-opacity=".023"/><stop offset=".443" stop-color="#D1C9E2" stop-opacity=".098"/><stop offset=".593" stop-color="#C4B9D1" stop-opacity=".225"/><stop offset=".729" stop-color="#B2A4BA" stop-opacity=".405"/><stop offset=".855" stop-color="#9A889C" stop-opacity=".638"/><stop offset=".971" stop-color="#7E6678" stop-opacity=".92"/><stop offset="1" stop-color="#765D6E"/></linearGradient><linearGradient id="n" x1="28.674" x2="28.674" y1="25.663" y2="27.646" gradientUnits="userSpaceOnUse"><stop stop-color="#DBD5EF" stop-opacity="0"/><stop offset=".267" stop-color="#D8D2EC" stop-opacity=".023"/><stop offset=".443" stop-color="#D1C9E2" stop-opacity=".098"/><stop offset=".593" stop-color="#C4B9D1" stop-opacity=".225"/><stop offset=".729" stop-color="#B2A4BA" stop-opacity=".405"/><stop offset=".855" stop-color="#9A889C" stop-opacity=".638"/><stop offset=".971" stop-color="#7E6678" stop-opacity=".92"/><stop offset="1" stop-color="#765D6E"/></linearGradient><linearGradient id="o" x1="28.803" x2="30.343" y1="24.495" y2="24.495" gradientUnits="userSpaceOnUse"><stop stop-color="#DBD5EF" stop-opacity="0"/><stop offset=".267" stop-color="#D8D2EC" stop-opacity=".023"/><stop offset=".443" stop-color="#D1C9E2" stop-opacity=".098"/><stop offset=".593" stop-color="#C4B9D1" stop-opacity=".225"/><stop offset=".729" stop-color="#B2A4BA" stop-opacity=".405"/><stop offset=".855" stop-color="#9A889C" stop-opacity=".638"/><stop offset=".971" stop-color="#7E6678" stop-opacity=".92"/><stop offset="1" stop-color="#765D6E"/></linearGradient><linearGradient id="p" x1="1.547" x2="1.547" y1="25.82" y2="27.593" gradientUnits="userSpaceOnUse"><stop stop-color="#DBD5EF" stop-opacity="0"/><stop offset=".267" stop-color="#D8D2EC" stop-opacity=".023"/><stop offset=".443" stop-color="#D1C9E2" stop-opacity=".098"/><stop offset=".593" stop-color="#C4B9D1" stop-opacity=".225"/><stop offset=".729" stop-color="#B2A4BA" stop-opacity=".405"/><stop offset=".855" stop-color="#9A889C" stop-opacity=".638"/><stop offset=".971" stop-color="#7E6678" stop-opacity=".92"/><stop offset="1" stop-color="#765D6E"/></linearGradient><linearGradient id="b" x1="31.282" x2="31.282" y1="23.425" y2="25.364" gradientUnits="userSpaceOnUse"><stop stop-color="#5A5A5A"/><stop offset="1" stop-color="#444"/></linearGradient><linearGradient id="r" x1="6.336" x2="7.685" y1="34.896" y2="36.244" gradientUnits="userSpaceOnUse"><stop stop-color="#DBD5EF" stop-opacity="0"/><stop offset=".267" stop-color="#D8D2EC" stop-opacity=".023"/><stop offset=".443" stop-color="#D1C9E2" stop-opacity=".098"/><stop offset=".593" stop-color="#C4B9D1" stop-opacity=".225"/><stop offset=".729" stop-color="#B2A4BA" stop-opacity=".405"/><stop offset=".855" stop-color="#9A889C" stop-opacity=".638"/><stop offset=".971" stop-color="#7E6678" stop-opacity=".92"/><stop offset="1" stop-color="#765D6E"/></linearGradient><linearGradient id="s" x1="5.757" x2="4.162" y1="33.849" y2="35.445" gradientUnits="userSpaceOnUse"><stop stop-color="#DBD5EF" stop-opacity="0"/><stop offset=".267" stop-color="#D8D2EC" stop-opacity=".023"/><stop offset=".443" stop-color="#D1C9E2" stop-opacity=".098"/><stop offset=".593" stop-color="#C4B9D1" stop-opacity=".225"/><stop offset=".729" stop-color="#B2A4BA" stop-opacity=".405"/><stop offset=".855" stop-color="#9A889C" stop-opacity=".638"/><stop offset=".971" stop-color="#7E6678" stop-opacity=".92"/><stop offset="1" stop-color="#765D6E"/></linearGradient><linearGradient id="t" x1="24.313" x2="25.908" y1="33.697" y2="35.292" gradientUnits="userSpaceOnUse"><stop stop-color="#DBD5EF" stop-opacity="0"/><stop offset=".267" stop-color="#D8D2EC" stop-opacity=".023"/><stop offset=".443" stop-color="#D1C9E2" stop-opacity=".098"/><stop offset=".593" stop-color="#C4B9D1" stop-opacity=".225"/><stop offset=".729" stop-color="#B2A4BA" stop-opacity=".405"/><stop offset=".855" stop-color="#9A889C" stop-opacity=".638"/><stop offset=".971" stop-color="#7E6678" stop-opacity=".92"/><stop offset="1" stop-color="#765D6E"/></linearGradient><linearGradient id="u" x1="24.176" x2="22.422" y1="34.624" y2="36.378" gradientUnits="userSpaceOnUse"><stop stop-color="#DBD5EF" stop-opacity="0"/><stop offset=".267" stop-color="#D8D2EC" stop-opacity=".023"/><stop offset=".443" stop-color="#D1C9E2" stop-opacity=".098"/><stop offset=".593" stop-color="#C4B9D1" stop-opacity=".225"/><stop offset=".729" stop-color="#B2A4BA" stop-opacity=".405"/><stop offset=".855" stop-color="#9A889C" stop-opacity=".638"/><stop offset=".971" stop-color="#7E6678" stop-opacity=".92"/><stop offset="1" stop-color="#765D6E"/></linearGradient><linearGradient id="v" x1="4.814" x2="3.231" y1="15.616" y2="17.2" gradientUnits="userSpaceOnUse"><stop stop-color="#DBD5EF" stop-opacity="0"/><stop offset=".267" stop-color="#D8D2EC" stop-opacity=".023"/><stop offset=".443" stop-color="#D1C9E2" stop-opacity=".098"/><stop offset=".593" stop-color="#C4B9D1" stop-opacity=".225"/><stop offset=".729" stop-color="#B2A4BA" stop-opacity=".405"/><stop offset=".855" stop-color="#9A889C" stop-opacity=".638"/><stop offset=".971" stop-color="#7E6678" stop-opacity=".92"/><stop offset="1" stop-color="#765D6E"/></linearGradient><linearGradient id="w" x1="20.945" x2="8.297" y1="30.33" y2="17.682" gradientUnits="userSpaceOnUse"><stop stop-color="#F3FAFF"/><stop offset="1" stop-color="#D5DAF3"/></linearGradient><linearGradient id="E" x1="42.141" x2="42.141" y1="47.123" y2="48.328" gradientUnits="userSpaceOnUse"><stop stop-color="#C41926" stop-opacity="0"/><stop offset=".162" stop-color="#BF1A26" stop-opacity=".051"/><stop offset=".371" stop-color="#B21E26" stop-opacity=".198"/><stop offset=".605" stop-color="#9D2426" stop-opacity=".441"/><stop offset=".856" stop-color="#802D26" stop-opacity=".776"/><stop offset="1" stop-color="#6D3326"/></linearGradient><linearGradient id="D" x1="43.868" x2="45.496" y1="44.286" y2="43.182" gradientUnits="userSpaceOnUse"><stop stop-color="#C41926" stop-opacity="0"/><stop offset=".162" stop-color="#BF1A26" stop-opacity=".051"/><stop offset=".371" stop-color="#B21E26" stop-opacity=".198"/><stop offset=".605" stop-color="#9D2426" stop-opacity=".441"/><stop offset=".856" stop-color="#802D26" stop-opacity=".776"/><stop offset="1" stop-color="#6D3326"/></linearGradient><linearGradient id="z" x1="39.628" x2="44.6" y1="20.109" y2="28.778" gradientUnits="userSpaceOnUse"><stop stop-color="#FEF0AE"/><stop offset="1" stop-color="#FAC600"/></linearGradient><linearGradient id="A" x1="42.143" x2="42.143" y1="27.91" y2="30.753" gradientUnits="userSpaceOnUse"><stop stop-color="#FE9738" stop-opacity="0"/><stop offset=".102" stop-color="#FE9738" stop-opacity=".02"/><stop offset=".227" stop-color="#FE9738" stop-opacity=".078"/><stop offset=".361" stop-color="#FE9738" stop-opacity=".175"/><stop offset=".505" stop-color="#FE9738" stop-opacity=".31"/><stop offset=".654" stop-color="#FE9738" stop-opacity=".483"/><stop offset=".808" stop-color="#FE9738" stop-opacity=".695"/><stop offset=".965" stop-color="#FE9738" stop-opacity=".94"/><stop offset="1" stop-color="#FE9738"/></linearGradient><linearGradient id="B" x1="44.884" x2="48.087" y1="24.495" y2="24.495" gradientUnits="userSpaceOnUse"><stop stop-color="#FE9738" stop-opacity="0"/><stop offset=".102" stop-color="#FE9738" stop-opacity=".02"/><stop offset=".227" stop-color="#FE9738" stop-opacity=".078"/><stop offset=".361" stop-color="#FE9738" stop-opacity=".175"/><stop offset=".505" stop-color="#FE9738" stop-opacity=".31"/><stop offset=".654" stop-color="#FE9738" stop-opacity=".483"/><stop offset=".808" stop-color="#FE9738" stop-opacity=".695"/><stop offset=".965" stop-color="#FE9738" stop-opacity=".94"/><stop offset="1" stop-color="#FE9738"/></linearGradient><linearGradient id="C" x1="39.666" x2="43.4" y1="43.763" y2="47.498" gradientUnits="userSpaceOnUse"><stop stop-color="#FD4755"/><stop offset="1" stop-color="#A72B2B"/></linearGradient><radialGradient id="y" cx="0" cy="0" r="1" gradientTransform="translate(40.119 4.88) scale(8.48131)" gradientUnits="userSpaceOnUse"><stop stop-color="#334C0F" stop-opacity="0"/><stop offset=".287" stop-color="#334C0F" stop-opacity=".03"/><stop offset=".435" stop-color="#334C0F" stop-opacity=".132"/><stop offset=".551" stop-color="#334C0F" stop-opacity=".308"/><stop offset=".65" stop-color="#334C0F" stop-opacity=".557"/><stop offset=".738" stop-color="#334C0F" stop-opacity=".877"/><stop offset=".766" stop-color="#334C0F"/><stop offset=".822" stop-color="#334C0F" stop-opacity=".951"/><stop offset=".875" stop-color="#334C0F" stop-opacity=".8"/><stop offset=".926" stop-color="#334C0F" stop-opacity=".548"/><stop offset=".977" stop-color="#334C0F" stop-opacity=".198"/><stop offset="1" stop-color="#334C0F" stop-opacity="0"/></radialGradient><radialGradient id="x" cx="0" cy="0" r="1" gradientTransform="translate(41.186 4.858) scale(6.25882)" gradientUnits="userSpaceOnUse"><stop stop-color="#BBEC6C"/><stop offset="1" stop-color="#78A91F"/></radialGradient><clipPath id="a"><path fill="#fff" d="M0 .5h48v48H0z"/></clipPath></defs></svg>