<svg xmlns="http://www.w3.org/2000/svg" width="43" height="43" fill="none"><path fill="#8FD348" fill-rule="evenodd" d="M24.771 4.877a3.674 3.674 0 0 1 2.143.564c.266.164.429.542.203.799-.737.84-.372 1.734-.153 2.588 1.391 5.433 3.644 10.525 6.282 15.457.963 1.8 1.995 3.564 2.985 5.35.134.242.367.456.102.811-.264.354-.538.079-.77.138-1.772.449-2.435-.865-3.252-1.947-4.13-5.472-6.803-11.608-8.381-18.24-.289-1.213-.456-2.447-.34-3.694.073-.795.318-1.521 1.181-1.826ZM12.045 19.056c.116-.58.381-.85.934-.768.543.08.85.288.99.887.302 1.28 1.216 2.225 2.048 3.184 2.93 3.379 6.103 6.53 9.229 9.727.245.252.514.495.396.934-.142.534-.567.149-.825.292-.848.472-1.438-.064-2.018-.55-3.009-2.531-6.08-4.996-8.554-8.088-.812-1.014-1.593-2.047-2.27-3.16-.298-.493-.054-1.154-.635-1.584-.237-.175-.248-.71-.046-1.092.105-.198.202-.447.454-.42.296.031.184.348.297.639ZM1.437 29.91c1.052-.157 1.745.126 2.466.739 1.39 1.18 3.13 1.755 4.833 2.35a48.467 48.467 0 0 0 6.887 1.871c.594.114 1.17.335 1.742.544.217.08.476.203.357.549-.096.282-.296.296-.561.362-2.064.513-4.004-.24-5.955-.624-2.66-.524-5.26-1.312-7.688-2.572a11.017 11.017 0 0 1-2.445-1.705c-.315-.293-.558-.613-.423-1.09.149-.524.545-.455.787-.424Z" clip-rule="evenodd"/></svg>