<svg xmlns="http://www.w3.org/2000/svg" width="24" height="24" fill="none"><g clip-path="url(#a)"><path fill="url(#b)" d="M12 24c6.627 0 12-5.373 12-12S18.627 0 12 0 0 5.373 0 12s5.373 12 12 12Z"/><path fill="#fff" d="M14.425 6h-4.85A3.58 3.58 0 0 0 6 9.575v4.85A3.58 3.58 0 0 0 9.575 18h4.85A3.578 3.578 0 0 0 18 14.425v-4.85A3.58 3.58 0 0 0 14.425 6Zm2.369 8.425a2.368 2.368 0 0 1-2.369 2.369h-4.85a2.368 2.368 0 0 1-2.369-2.369v-4.85a2.368 2.368 0 0 1 2.369-2.369h4.85a2.368 2.368 0 0 1 2.369 2.369v4.85Z"/><path fill="#fff" d="M12 8.897a3.104 3.104 0 1 0-.003 6.209A3.104 3.104 0 0 0 12 8.897Zm0 4.998a1.895 1.895 0 1 1 0-3.79 1.895 1.895 0 0 1 0 3.79ZM15.122 9.665a.767.767 0 1 0 0-1.535.767.767 0 0 0 0 1.535Z"/></g><defs><linearGradient id="b" x1="12" x2="12" y1="23.89" y2="1.626" gradientUnits="userSpaceOnUse"><stop stop-color="#E09B3D"/><stop offset=".24" stop-color="#C74C4D"/><stop offset=".65" stop-color="#C21975"/><stop offset="1" stop-color="#7024C4"/></linearGradient><clipPath id="a"><path fill="#fff" d="M0 0h24v24H0z"/></clipPath></defs></svg>