<svg xmlns="http://www.w3.org/2000/svg" width="1600" height="415" fill="none"><g clip-path="url(#a)"><path fill="#001A38" d="M1601-1H-1v417h1602V-1Z"/><path fill="#001A38" d="M1601-1H-1v417h1602V-1Z" opacity=".2"/><path fill="#fff" d="M150.5 211.8V190h12.1v1.2h-10.8v9H162v1.2h-10.2v9.1h11.1v1.2h-12.4v.1ZM168.501 201.2v10.6h-1.3v-16.4h1.2v2.6h.1c.4-.8 1-1.5 1.9-2 .8-.5 1.8-.8 3-.8 1.1 0 2.1.2 2.9.7.8.5 1.5 1.1 2 2 .5.9.7 1.9.7 3.1v10.8h-1.3v-10.7c0-1.4-.4-2.5-1.3-3.4-.9-.9-1.9-1.3-3.3-1.3-.9 0-1.7.2-2.4.6-.7.4-1.3 1-1.7 1.7-.4.7-.5 1.5-.5 2.5ZM194.401 199l-1.2.3c-.3-.9-.8-1.6-1.4-2.1-.6-.5-1.5-.8-2.7-.8-1.2 0-2.2.3-2.9.9-.7.6-1.1 1.4-1.1 2.3 0 .8.3 1.4.8 1.9s1.3.9 2.4 1.2l2.5.6c1.3.3 2.3.8 2.9 1.5.7.7 1 1.6 1 2.6 0 .9-.2 1.7-.7 2.4-.5.7-1.2 1.2-2 1.6-.9.4-1.9.6-3 .6-1.5 0-2.8-.4-3.8-1.1-1-.7-1.6-1.7-1.9-3.1l1.2-.3c.2 1.1.7 1.9 1.5 2.4s1.7.8 2.9.8c1.3 0 2.4-.3 3.2-1 .8-.6 1.2-1.5 1.2-2.4 0-1.5-1-2.6-2.9-3l-2.6-.6c-1.3-.3-2.3-.9-3-1.6-.7-.7-1-1.6-1-2.7 0-.9.2-1.7.7-2.3.5-.6 1.1-1.2 1.9-1.6.8-.4 1.7-.6 2.8-.6 1.4 0 2.5.3 3.4 1 .7.9 1.4 1.9 1.8 3.1ZM209.101 206v-10.6h1.3v16.4h-1.3v-2.7h-.1c-.4.8-1 1.5-1.9 2.1-.9.6-1.9.8-3 .8s-2-.2-2.8-.7c-.8-.5-1.5-1.1-1.9-2-.5-.9-.7-1.9-.7-3.1v-10.8h1.3v10.8c0 1.4.4 2.5 1.2 3.3.8.8 1.9 1.3 3.2 1.3.9 0 1.6-.2 2.4-.6.8-.4 1.3-.9 1.7-1.6.4-.7.6-1.6.6-2.6ZM215.301 211.8v-16.4h1.2v2.6h.1c.4-.8 1-1.5 1.8-2s1.8-.8 2.9-.8h.6v1.3h-.8c-.9 0-1.7.2-2.4.6-.7.4-1.3.9-1.7 1.6-.4.7-.6 1.5-.6 2.4v10.8h-1.1v-.1ZM230.902 212.2c-1.5 0-2.8-.4-3.9-1.1-1.1-.7-1.9-1.7-2.5-3-.6-1.3-.9-2.7-.9-4.4 0-1.6.3-3.1.9-4.4.6-1.3 1.4-2.3 2.5-3 1.1-.7 2.2-1.1 3.6-1.1.9 0 1.8.2 2.6.5s1.5.9 2.2 1.6c.7.7 1.1 1.5 1.5 2.5.4 1 .5 2.1.5 3.4v.6h-13v-1.2h12.3l-.6.5c0-1.3-.2-2.4-.7-3.5-.5-1-1.1-1.8-1.9-2.4-.8-.6-1.8-.9-2.9-.9-1.1 0-2.1.3-2.9.9-.9.6-1.5 1.4-2 2.5s-.7 2.2-.7 3.4v.5c0 1.4.2 2.6.7 3.7.5 1.1 1.2 1.9 2.1 2.6.9.6 2 .9 3.2.9.9 0 1.7-.2 2.3-.5.6-.3 1.2-.7 1.6-1.1.4-.4.7-.9.9-1.3l1.2.5c-.2.5-.6 1.1-1.1 1.6-.5.5-1.2 1-2 1.4-.8.4-1.9.8-3 .8ZM253.7 212.2c-.9 0-1.8-.2-2.6-.6-.8-.4-1.4-.9-1.9-1.7-.5-.8-.7-1.6-.7-2.6 0-.7.1-1.3.4-1.8.2-.5.6-1 1.1-1.3.5-.4 1.1-.7 1.9-.9.8-.2 1.7-.4 2.8-.6.8-.1 1.6-.2 2.2-.3.6-.1 1.2-.3 1.5-.5.4-.2.6-.5.6-.9v-.7c0-1.2-.4-2.1-1.1-2.8-.7-.7-1.8-1.1-3.1-1.1-1.2 0-2.1.3-3 .8-.8.5-1.4 1.2-1.7 2l-1.2-.5c.3-.8.8-1.4 1.4-2 .6-.5 1.3-.9 2.1-1.1.8-.2 1.6-.4 2.4-.4.7 0 1.4.1 2.1.3.7.2 1.3.5 1.8.9s.9 1 1.2 1.6c.3.7.4 1.4.4 2.3v11.4H259v-2.9h-.1c-.3.6-.7 1.2-1.2 1.7s-1.1.9-1.8 1.2c-.7.3-1.4.5-2.2.5Zm.1-1.2c1 0 1.9-.3 2.7-.8.8-.5 1.4-1.2 1.9-2.1.4-.9.7-1.9.7-3v-2.4c-.2.1-.4.3-.7.4-.3.1-.7.2-1 .3-.3.1-.8.2-1.2.2-.4 0-.8.1-1.2.2-1.2.1-2.2.4-2.9.7-.7.3-1.3.7-1.6 1.2-.4.5-.5 1.1-.5 1.7 0 1.1.4 2 1.2 2.6.8.6 1.4 1 2.6 1ZM283.6 199l-1.2.3c-.3-.9-.8-1.6-1.4-2.1-.6-.5-1.5-.8-2.7-.8-1.2 0-2.2.3-2.9.9-.7.6-1.1 1.4-1.1 2.3 0 .8.3 1.4.8 1.9s1.3.9 2.4 1.2l2.5.6c1.3.3 2.3.8 2.9 1.5.7.7 1 1.6 1 2.6 0 .9-.2 1.7-.7 2.4-.5.7-1.2 1.2-2 1.6-.9.4-1.9.6-3 .6-1.5 0-2.8-.4-3.8-1.1-1-.7-1.6-1.7-1.9-3.1l1.2-.3c.2 1.1.7 1.9 1.5 2.4s1.7.8 2.9.8c1.3 0 2.4-.3 3.2-1 .8-.6 1.2-1.5 1.2-2.4 0-1.5-1-2.6-2.9-3l-2.6-.6c-1.3-.3-2.3-.9-3-1.6-.7-.7-1-1.6-1-2.7 0-.9.2-1.7.7-2.3.5-.6 1.1-1.2 1.9-1.6.8-.4 1.7-.6 2.8-.6 1.4 0 2.5.3 3.4 1 .8.9 1.4 1.9 1.8 3.1ZM287.9 211.8v-16.4h1.2v2.5h.1c.3-.8.9-1.5 1.6-2 .8-.5 1.7-.7 2.8-.7 1.2 0 2.2.3 2.9.9.7.6 1.3 1.3 1.6 2.3h.1c.3-1 .9-1.7 1.7-2.3.8-.6 1.8-.9 3.1-.9 1.6 0 2.8.5 3.6 1.5.8 1 1.2 2.4 1.2 4.1v11h-1.3v-11c0-1.4-.3-2.5-1-3.2-.7-.7-1.6-1.2-2.9-1.2-1.3 0-2.4.4-3.1 1.3-.7.9-1.1 1.9-1.1 3.2v10.9h-1.3v-11.1c0-1.3-.3-2.3-.9-3.1-.6-.8-1.6-1.2-2.9-1.2-.9 0-1.6.2-2.3.6-.7.4-1.1 1-1.5 1.6-.3.7-.5 1.5-.5 2.4v10.7h-1.1v.1ZM318.9 212.2c-1.3 0-2.5-.4-3.6-1.1-1.1-.7-1.9-1.7-2.5-3-.6-1.3-.9-2.7-.9-4.4 0-1.7.3-3.1.9-4.4.6-1.3 1.4-2.3 2.5-3 1.1-.7 2.3-1.1 3.6-1.1 1.3 0 2.5.4 3.6 1.1 1.1.7 1.9 1.7 2.5 3 .6 1.3.9 2.7.9 4.4 0 1.6-.3 3.1-.9 4.4-.6 1.3-1.4 2.3-2.5 3-1.1.7-2.3 1.1-3.6 1.1Zm0-1.2c1.2 0 2.2-.3 3-1 .9-.6 1.5-1.5 2-2.6s.7-2.3.7-3.7c0-1.3-.2-2.6-.7-3.7-.5-1.1-1.1-2-2-2.6-.8-.6-1.9-1-3-1s-2.1.3-3 1c-.9.7-1.5 1.5-2 2.6s-.7 2.3-.7 3.7c0 1.4.2 2.6.7 3.7.5 1.1 1.1 2 2 2.6.8.6 1.8 1 3 1ZM335.9 212.2c-1.3 0-2.5-.4-3.6-1.1-1.1-.7-1.9-1.7-2.5-3-.6-1.3-.9-2.7-.9-4.4 0-1.7.3-3.1.9-4.4.6-1.3 1.4-2.3 2.5-3 1.1-.7 2.3-1.1 3.6-1.1 1.3 0 2.5.4 3.6 1.1 1.1.7 1.9 1.7 2.5 3 .6 1.3.9 2.7.9 4.4 0 1.6-.3 3.1-.9 4.4-.6 1.3-1.4 2.3-2.5 3-1.1.7-2.2 1.1-3.6 1.1Zm0-1.2c1.2 0 2.2-.3 3-1 .9-.6 1.5-1.5 2-2.6s.7-2.3.7-3.7c0-1.3-.2-2.6-.7-3.7-.5-1.1-1.1-2-2-2.6-.8-.6-1.9-1-3-1s-2.1.3-3 1c-.9.7-1.5 1.5-2 2.6s-.7 2.3-.7 3.7c0 1.4.2 2.6.7 3.7.5 1.1 1.1 2 2 2.6.9.6 1.9 1 3 1ZM352.702 195.4v1.2h-7.1v-1.2h7.1Zm-4.7-3.9h1.3v16.4c0 .9.3 1.6.8 2.1s1.2.7 2 .7h.6c.2 0 .4-.1.6-.1l.3 1.2c-.2.1-.5.2-.7.2-.2 0-.5.1-.8.1-1.1 0-2.1-.4-2.8-1.1-.8-.7-1.2-1.7-1.2-2.8v-16.7h-.1ZM358.7 201.2v10.6h-1.3V190h1.3v8h.1c.4-.8 1-1.5 1.8-2s1.8-.8 3-.8c1.1 0 2.1.2 2.9.7.8.5 1.5 1.1 2 2 .5.9.7 1.9.7 3.1v10.8H368v-10.7c0-1.4-.4-2.5-1.2-3.4-.8-.9-1.9-1.3-3.3-1.3-.9 0-1.7.2-2.5.6-.8.4-1.3 1-1.7 1.7-.4.7-.6 1.5-.6 2.5ZM373.701 216.4l1.4-7.1h1.5l-1.8 7.1h-1.1ZM390.102 217.9v-22.5h1.2v3.7h.2c.2-.7.6-1.3 1.1-1.9.5-.6 1.1-1.1 1.8-1.4.7-.3 1.5-.5 2.5-.5 1.3 0 2.5.4 3.4 1.1.9.7 1.7 1.7 2.3 3 .5 1.3.8 2.7.8 4.4 0 1.7-.3 3.1-.8 4.4-.5 1.3-1.3 2.3-2.3 3-1 .7-2.1 1.1-3.4 1.1-.9 0-1.8-.2-2.5-.5s-1.3-.8-1.8-1.4c-.5-.6-.8-1.2-1.1-1.9h-.1v9.7h-1.3v-.3Zm6.6-6.9c1.1 0 2.1-.3 2.9-1 .8-.7 1.4-1.5 1.8-2.6.4-1.1.6-2.3.6-3.7 0-1.4-.2-2.6-.6-3.7-.4-1.1-1-2-1.8-2.6-.8-.6-1.8-1-2.9-1-1.1 0-2.1.3-2.8.9-.7.6-1.4 1.5-1.8 2.6-.4 1.1-.6 2.3-.6 3.7 0 1.4.2 2.6.6 3.8.4 1.2 1 2 1.8 2.6.8.6 1.7 1 2.8 1ZM407.4 211.8v-16.4h1.2v2.6h.1c.4-.8 1-1.5 1.8-2s1.8-.8 2.9-.8h.6v1.3h-.8c-.9 0-1.7.2-2.4.6-.7.4-1.3.9-1.7 1.6-.4.7-.6 1.5-.6 2.4v10.8h-1.1v-.1ZM422.701 212.2c-1.3 0-2.5-.4-3.6-1.1-1.1-.7-1.9-1.7-2.5-3-.6-1.3-.9-2.7-.9-4.4 0-1.7.3-3.1.9-4.4.6-1.3 1.4-2.3 2.5-3 1.1-.7 2.3-1.1 3.6-1.1 1.3 0 2.5.4 3.6 1.1 1.1.7 1.9 1.7 2.5 3 .6 1.3.9 2.7.9 4.4 0 1.6-.3 3.1-.9 4.4-.6 1.3-1.4 2.3-2.5 3-1.1.7-2.3 1.1-3.6 1.1Zm0-1.2c1.2 0 2.2-.3 3-1 .9-.6 1.5-1.5 2-2.6s.7-2.3.7-3.7c0-1.3-.2-2.6-.7-3.7-.5-1.1-1.1-2-2-2.6-.8-.6-1.9-1-3-1s-2.1.3-3 1c-.9.7-1.5 1.5-2 2.6s-.7 2.3-.7 3.7c0 1.4.2 2.6.7 3.7.5 1.1 1.1 2 2 2.6.8.6 1.8 1 3 1ZM439.902 195.4v1.2h-7.3v-1.2h7.3Zm-4.9 16.4v-18.9c0-.8.2-1.5.6-2.1.4-.6.9-1 1.5-1.3.6-.3 1.3-.5 2-.5.4 0 .7 0 1 .1.3.1.5.1.7.2l-.4 1.2c-.2-.1-.3-.1-.5-.2-.2 0-.4-.1-.7-.1-.8 0-1.5.3-2 .8s-.8 1.2-.8 2.1v18.7h-1.4ZM444.102 192.5c-.3 0-.5-.1-.7-.3-.2-.2-.3-.4-.3-.7 0-.3.1-.5.3-.7.2-.2.4-.3.7-.3.3 0 .5.1.7.3.2.2.3.4.3.7 0 .3-.1.5-.3.7-.2.2-.4.3-.7.3Zm-.6 19.3v-16.4h1.3v16.4h-1.3ZM455.401 195.4v1.2h-7.1v-1.2h7.1Zm-4.7-3.9h1.3v16.4c0 .9.3 1.6.8 2.1s1.2.7 2 .7h.6c.2 0 .4-.1.6-.1l.3 1.2c-.2.1-.5.2-.7.2-.2 0-.5.1-.8.1-1.1 0-2.1-.4-2.8-1.1-.8-.7-1.2-1.7-1.2-2.8v-16.7h-.1ZM464.1 212.2c-.9 0-1.8-.2-2.6-.6-.8-.4-1.4-.9-1.9-1.7-.5-.8-.7-1.6-.7-2.6 0-.7.1-1.3.4-1.8.2-.5.6-1 1.1-1.3.5-.4 1.1-.7 1.9-.9.8-.2 1.7-.4 2.8-.6.8-.1 1.6-.2 2.2-.3.6-.1 1.2-.3 1.5-.5.4-.2.6-.5.6-.9v-.7c0-1.2-.4-2.1-1.1-2.8-.7-.7-1.8-1.1-3.1-1.1-1.2 0-2.1.3-3 .8-.8.5-1.4 1.2-1.7 2l-1.2-.5c.3-.8.8-1.4 1.4-2 .6-.5 1.3-.9 2.1-1.1.8-.2 1.6-.4 2.4-.4.7 0 1.4.1 2.1.3.7.2 1.3.5 1.8.9s.9 1 1.2 1.6c.3.7.4 1.4.4 2.3v11.4h-1.3v-2.9h-.1c-.3.6-.7 1.2-1.2 1.7s-1.1.9-1.8 1.2c-.7.3-1.3.5-2.2.5Zm.2-1.2c1 0 1.9-.3 2.7-.8.8-.5 1.4-1.2 1.9-2.1.4-.9.7-1.9.7-3v-2.4c-.2.1-.4.3-.7.4-.3.1-.7.2-1 .3-.3.1-.8.2-1.2.2-.4 0-.8.1-1.2.2-1.2.1-2.2.4-2.9.7-.7.3-1.3.7-1.6 1.2-.4.5-.5 1.1-.5 1.7 0 1.1.4 2 1.2 2.6.8.6 1.4 1 2.6 1ZM482.401 212.2c-.9 0-1.8-.2-2.5-.5s-1.3-.8-1.8-1.4c-.5-.6-.8-1.2-1.1-1.9v3.6h-1.2v-22h1.3v9.1h.1c.2-.7.6-1.3 1.1-1.9.5-.6 1.1-1.1 1.8-1.4.7-.3 1.5-.5 2.5-.5 1.3 0 2.5.4 3.4 1.1.9.7 1.7 1.7 2.3 3 .5 1.3.8 2.7.8 4.4 0 1.7-.3 3.1-.8 4.4-.5 1.3-1.3 2.3-2.3 3-1.1.6-2.2 1-3.6 1Zm-.1-1.2c1.1 0 2.1-.3 2.9-1 .8-.7 1.4-1.5 1.8-2.6.4-1.1.6-2.3.6-3.7 0-1.4-.2-2.6-.6-3.7-.4-1.1-1-2-1.8-2.6-.8-.6-1.8-1-2.9-1-1.1 0-2.1.3-2.8.9-.7.6-1.4 1.5-1.8 2.6-.4 1.1-.6 2.3-.6 3.7 0 1.4.2 2.6.6 3.8.4 1.2 1 2 1.8 2.6.8.6 1.7 1 2.8 1ZM494.3 190v21.8H493V190h1.3ZM505.601 212.2c-1.5 0-2.8-.4-3.9-1.1-1.1-.7-1.9-1.7-2.5-3-.6-1.3-.9-2.7-.9-4.4 0-1.6.3-3.1.9-4.4.6-1.3 1.4-2.3 2.5-3 1.1-.7 2.2-1.1 3.6-1.1.9 0 1.8.2 2.6.5s1.5.9 2.2 1.6c.7.7 1.1 1.5 1.5 2.5.4 1 .5 2.1.5 3.4v.6h-13v-1.2h12.3l-.6.5c0-1.3-.2-2.4-.7-3.5-.5-1-1.1-1.8-1.9-2.4-.8-.6-1.8-.9-2.9-.9-1.1 0-2.1.3-2.9.9-.9.6-1.5 1.4-2 2.5s-.7 2.2-.7 3.4v.5c0 1.4.2 2.6.7 3.7.5 1.1 1.2 1.9 2.1 2.6.9.6 2 .9 3.2.9.9 0 1.7-.2 2.3-.5.6-.3 1.2-.7 1.6-1.1.4-.4.7-.9.9-1.3l1.2.5c-.2.5-.6 1.1-1.1 1.6-.5.5-1.2 1-2 1.4-.8.4-2 .8-3 .8ZM524 195.4h1.3v18.4c0 .8-.2 1.6-.5 2.2-.3.6-.8 1.1-1.4 1.4-.6.3-1.3.5-2.1.5h-.4v-1.2h.3c.8 0 1.5-.3 2-.8s.8-1.2.8-2.1v-18.4Zm.6-2.9c-.3 0-.5-.1-.7-.3-.2-.2-.3-.4-.3-.7 0-.3.1-.5.3-.7.2-.2.4-.3.7-.3.3 0 .5.1.7.3.2.2.3.4.3.7 0 .3-.1.5-.3.7-.2.2-.4.3-.7.3ZM536.301 212.2c-1.3 0-2.5-.4-3.6-1.1-1.1-.7-1.9-1.7-2.5-3-.6-1.3-.9-2.7-.9-4.4 0-1.7.3-3.1.9-4.4.6-1.3 1.4-2.3 2.5-3 1.1-.7 2.3-1.1 3.6-1.1 1.3 0 2.5.4 3.6 1.1 1.1.7 1.9 1.7 2.5 3 .6 1.3.9 2.7.9 4.4 0 1.6-.3 3.1-.9 4.4-.6 1.3-1.4 2.3-2.5 3-1.1.7-2.2 1.1-3.6 1.1Zm0-1.2c1.2 0 2.2-.3 3-1 .9-.6 1.5-1.5 2-2.6s.7-2.3.7-3.7c0-1.3-.2-2.6-.7-3.7-.5-1.1-1.1-2-2-2.6-.8-.6-1.9-1-3-1s-2.1.3-3 1c-.9.7-1.5 1.5-2 2.6s-.7 2.3-.7 3.7c0 1.4.2 2.6.7 3.7.5 1.1 1.1 2 2 2.6.9.6 1.9 1 3 1ZM557.8 206v-10.6h1.3v16.4h-1.3v-2.7h-.1c-.4.8-1 1.5-1.9 2.1-.9.6-1.9.8-3 .8s-2-.2-2.8-.7c-.8-.5-1.5-1.1-1.9-2-.5-.9-.7-1.9-.7-3.1v-10.8h1.3v10.8c0 1.4.4 2.5 1.2 3.3.8.8 1.9 1.3 3.2 1.3.9 0 1.6-.2 2.4-.6.8-.4 1.3-.9 1.7-1.6.4-.7.6-1.6.6-2.6ZM564 211.8v-16.4h1.2v2.6h.1c.4-.8 1-1.5 1.8-2s1.8-.8 2.9-.8h.6v1.3h-.8c-.9 0-1.7.2-2.4.6-.7.4-1.3.9-1.7 1.6-.4.7-.6 1.5-.6 2.4v10.8H564v-.1ZM575.101 201.2v10.6h-1.3v-16.4h1.2v2.6h.1c.4-.8 1-1.5 1.9-2 .8-.5 1.8-.8 3-.8 1.1 0 2.1.2 2.9.7.8.5 1.5 1.1 2 2 .5.9.7 1.9.7 3.1v10.8h-1.3v-10.7c0-1.4-.4-2.5-1.3-3.4-.8-.8-1.9-1.3-3.3-1.3-.9 0-1.7.2-2.4.6-.7.4-1.3 1-1.7 1.7-.4.7-.5 1.5-.5 2.5ZM596.902 212.2c-1.5 0-2.8-.4-3.9-1.1-1.1-.7-1.9-1.7-2.5-3-.6-1.3-.9-2.7-.9-4.4 0-1.6.3-3.1.9-4.4.6-1.3 1.4-2.3 2.5-3 1.1-.7 2.2-1.1 3.6-1.1.9 0 1.8.2 2.6.5s1.5.9 2.2 1.6c.6.7 1.1 1.5 1.5 2.5.4 1 .5 2.1.5 3.4v.6h-13v-1.2h12.3l-.6.5c0-1.3-.2-2.4-.7-3.5-.5-1-1.1-1.8-1.9-2.4-.8-.6-1.8-.9-2.9-.9-1.1 0-2.1.3-2.9.9-.9.6-1.5 1.4-2 2.5s-.7 2.2-.7 3.4v.5c0 1.4.2 2.6.7 3.7.5 1.1 1.2 1.9 2.1 2.6.9.6 2 .9 3.2.9.9 0 1.7-.2 2.3-.5.6-.3 1.2-.7 1.6-1.1.4-.4.7-.9.9-1.3l1.2.5c-.2.5-.6 1.1-1.2 1.6s-1.2 1-2 1.4c-.8.4-1.8.8-2.9.8ZM607.701 217.9c-.3 0-.7 0-1-.1l-.9-.3.4-1.1.2.1c1 .3 1.8.3 2.5-.1s1.2-1.2 1.7-2.4l.7-2.1-6-16.6h1.4l5.2 14.7h.1l5.2-14.7h1.4l-6.9 19.2c-.3.7-.6 1.4-1 1.9s-.8.9-1.4 1.1c-.6.2-.9.4-1.6.4ZM633.8 211.8l-4.9-16.4h1.4l4.2 14.5h.1l4.2-14.5h1.3l4.2 14.5h.1l4.2-14.5h1.3l-4.9 16.4h-1.5l-4.2-14.3h-.1l-4.2 14.3h-1.2ZM654.301 192.5c-.3 0-.5-.1-.7-.3-.2-.2-.3-.4-.3-.7 0-.3.1-.5.3-.7.2-.2.4-.3.7-.3.3 0 .5.1.7.3.2.2.3.4.3.7 0 .3-.1.5-.3.7-.2.2-.4.3-.7.3Zm-.6 19.3v-16.4h1.3v16.4h-1.3ZM665.702 195.4v1.2h-7.1v-1.2h7.1Zm-4.7-3.9h1.3v16.4c0 .9.3 1.6.8 2.1s1.2.7 2 .7h.6c.2 0 .4-.1.6-.1l.3 1.2c-.2.1-.5.2-.7.2-.2 0-.5.1-.8.1-1.1 0-2.1-.4-2.8-1.1-.8-.7-1.2-1.7-1.2-2.8v-16.7h-.1ZM671.601 201.2v10.6h-1.3V190h1.3v8h.1c.4-.8 1-1.5 1.8-2s1.8-.8 3-.8c1.1 0 2.1.2 2.9.7.8.5 1.5 1.1 2 2 .5.9.7 1.9.7 3.1v10.8h-1.3v-10.7c0-1.4-.4-2.5-1.2-3.4-.8-.9-1.9-1.3-3.3-1.3-.9 0-1.7.2-2.5.6-.7.4-1.3 1-1.7 1.7-.4.7-.5 1.5-.5 2.5ZM693.301 212.2c-1.3 0-2.5-.4-3.6-1.1-1.1-.7-1.9-1.7-2.5-3-.6-1.3-.9-2.7-.9-4.4 0-1.7.3-3.1.9-4.4.6-1.3 1.4-2.3 2.5-3 1.1-.7 2.3-1.1 3.6-1.1 1.3 0 2.5.4 3.6 1.1 1.1.7 1.9 1.7 2.5 3 .6 1.3.9 2.7.9 4.4 0 1.6-.3 3.1-.9 4.4-.6 1.3-1.4 2.3-2.5 3-1.1.7-2.3 1.1-3.6 1.1Zm0-1.2c1.2 0 2.2-.3 3-1 .9-.6 1.5-1.5 2-2.6s.7-2.3.7-3.7c0-1.3-.2-2.6-.7-3.7-.5-1.1-1.1-2-2-2.6-.8-.6-1.9-1-3-1s-2.1.3-3 1c-.9.7-1.5 1.5-2 2.6s-.7 2.3-.7 3.7c0 1.4.2 2.6.7 3.7.5 1.1 1.1 2 2 2.6.8.6 1.8 1 3 1ZM714.8 206v-10.6h1.3v16.4h-1.3v-2.7h-.1c-.4.8-1 1.5-1.9 2.1-.9.6-1.9.8-3 .8s-2-.2-2.8-.7c-.8-.5-1.5-1.1-1.9-2-.5-.9-.7-1.9-.7-3.1v-10.8h1.3v10.8c0 1.4.4 2.5 1.2 3.3.8.8 1.9 1.3 3.2 1.3.9 0 1.6-.2 2.4-.6.7-.4 1.3-.9 1.7-1.6.3-.8.6-1.6.6-2.6ZM726.702 195.4v1.2h-7.1v-1.2h7.1Zm-4.7-3.9h1.3v16.4c0 .9.3 1.6.8 2.1s1.2.7 2 .7h.6c.2 0 .4-.1.6-.1l.3 1.2c-.2.1-.5.2-.7.2-.2 0-.5.1-.8.1-1.1 0-2.1-.4-2.8-1.1-.8-.7-1.2-1.7-1.2-2.8v-16.7h-.1ZM160.401 235l-1.2.3c-.3-.9-.8-1.6-1.4-2.1-.6-.5-1.5-.8-2.7-.8-1.2 0-2.2.3-2.9.9-.7.6-1.1 1.4-1.1 2.3 0 .8.3 1.4.8 1.9s1.3.9 2.4 1.2l2.5.6c1.3.3 2.3.8 2.9 1.5.7.7 1 1.6 1 2.6 0 .9-.2 1.7-.7 2.4-.5.7-1.2 1.2-2 1.6-.9.4-1.9.6-3 .6-1.5 0-2.8-.4-3.8-1.1-1-.7-1.6-1.7-1.9-3.1l1.2-.3c.2 1.1.7 1.9 1.5 2.4s1.7.8 2.9.8c1.3 0 2.4-.3 3.2-1 .8-.6 1.2-1.5 1.2-2.4 0-1.5-1-2.6-2.9-3l-2.6-.6c-1.3-.3-2.3-.9-3-1.6-.7-.7-1-1.6-1-2.7 0-.9.2-1.7.7-2.3.5-.6 1.1-1.2 1.9-1.6.8-.4 1.7-.6 2.8-.6 1.4 0 2.5.3 3.4 1 .8.9 1.4 1.9 1.8 3.1ZM175.201 242v-10.6h1.3v16.4h-1.3v-2.7h-.2c-.4.8-1 1.5-1.9 2.1-.9.6-1.9.8-3 .8s-2-.2-2.8-.7c-.8-.5-1.5-1.1-1.9-2-.5-.9-.7-1.9-.7-3.1v-10.8h1.3v10.8c0 1.4.4 2.5 1.2 3.3.8.8 1.9 1.3 3.2 1.3.9 0 1.6-.2 2.4-.6.8-.4 1.3-.9 1.7-1.6.4-.7.7-1.6.7-2.6ZM187 248.2c-1.3 0-2.5-.4-3.4-1.1-1-.7-1.7-1.7-2.3-3-.6-1.3-.8-2.7-.8-4.4 0-1.6.3-3.1.8-4.4.5-1.3 1.3-2.3 2.3-3 1-.7 2.1-1.1 3.4-1.1.9 0 1.8.2 2.5.5s1.3.8 1.8 1.4c.5.6.8 1.2 1.1 1.9h.1v-9h1.3v21.8h-1.2v-3.6h-.2c-.3.7-.6 1.4-1.1 1.9-.5.5-1.1 1.1-1.8 1.4-.7.3-1.6.7-2.5.7Zm.1-1.2c1.1 0 2.1-.3 2.9-1 .8-.7 1.4-1.5 1.8-2.6.4-1.1.6-2.4.6-3.8s-.2-2.6-.6-3.7c-.4-1.1-1-2-1.8-2.6-.8-.6-1.8-.9-2.9-.9-1.1 0-2.1.3-2.9 1-.8.7-1.4 1.5-1.8 2.6-.4 1.1-.6 2.3-.6 3.7 0 1.4.2 2.6.6 3.7.4 1.1 1 2 1.8 2.6.8.6 1.8 1 2.9 1ZM204.201 248.2c-1.3 0-2.5-.4-3.4-1.1-1-.7-1.7-1.7-2.3-3-.6-1.3-.8-2.7-.8-4.4 0-1.6.3-3.1.8-4.4.5-1.3 1.3-2.3 2.3-3 1-.7 2.1-1.1 3.4-1.1.9 0 1.8.2 2.5.5s1.3.8 1.8 1.4c.5.6.8 1.2 1.1 1.9h.1v-9h1.3v21.8h-1.2v-3.6h-.2c-.3.7-.6 1.4-1.1 1.9-.5.5-1.1 1.1-1.8 1.4-.7.3-1.5.7-2.5.7Zm.1-1.2c1.1 0 2.1-.3 2.9-1 .8-.7 1.4-1.5 1.8-2.6.4-1.1.6-2.4.6-3.8s-.2-2.6-.6-3.7c-.4-1.1-1-2-1.8-2.6-.8-.6-1.8-.9-2.9-.9-1.1 0-2.1.3-2.9 1-.8.7-1.4 1.5-1.8 2.6-.4 1.1-.6 2.3-.6 3.7 0 1.4.2 2.6.6 3.7.4 1.1 1 2 1.8 2.6.8.6 1.8 1 2.9 1ZM222.2 248.2c-1.5 0-2.8-.4-3.9-1.1-1.1-.7-1.9-1.7-2.5-3-.6-1.3-.9-2.7-.9-4.4 0-1.6.3-3.1.9-4.4.6-1.3 1.4-2.3 2.5-3 1.1-.7 2.2-1.1 3.6-1.1.9 0 1.8.2 2.6.5s1.5.9 2.2 1.6c.7.7 1.1 1.5 1.5 2.5.4 1 .5 2.1.5 3.4v.6h-13v-1.2H228l-.6.5c0-1.3-.2-2.4-.7-3.5-.5-1-1.1-1.8-1.9-2.4-.8-.6-1.8-.9-2.9-.9-1.1 0-2.1.3-2.9.9-.9.6-1.5 1.4-2 2.5s-.7 2.2-.7 3.4v.5c0 1.4.2 2.6.7 3.7.5 1.1 1.2 1.9 2.1 2.6.9.6 2 .9 3.2.9.9 0 1.7-.2 2.3-.5.6-.3 1.2-.7 1.6-1.1.4-.4.7-.9.9-1.3l1.2.5c-.2.5-.6 1.1-1.1 1.6-.5.5-1.2 1-2 1.4-.8.4-1.9.8-3 .8ZM233.902 237.2v10.6h-1.3v-16.4h1.2v2.6h.1c.4-.8 1-1.5 1.9-2 .8-.5 1.8-.8 3-.8 1.1 0 2.1.2 2.9.7.8.5 1.5 1.1 2 2 .5.9.7 1.9.7 3.1v10.8h-1.3v-10.7c0-1.4-.4-2.5-1.3-3.4-.9-.9-1.9-1.3-3.3-1.3-.9 0-1.7.2-2.4.6-.7.4-1.3 1-1.7 1.7-.4.7-.5 1.5-.5 2.5ZM263.5 248.2c-1.4 0-2.6-.4-3.7-1.1-1.1-.7-1.9-1.7-2.5-3-.6-1.3-.9-2.7-.9-4.4 0-1.7.3-3.1.9-4.3.6-1.3 1.4-2.3 2.5-3 1.1-.7 2.3-1.1 3.7-1.1 1 0 2 .2 2.8.6.8.4 1.6 1 2.1 1.8s.9 1.6 1.1 2.6h-1.3c-.1-.7-.4-1.4-.8-1.9s-1-1-1.7-1.4c-.7-.4-1.4-.5-2.2-.5-1.1 0-2.1.3-3 .9-.9.6-1.5 1.5-2.1 2.6-.5 1.1-.8 2.3-.8 3.7 0 1.4.2 2.6.7 3.7.5 1.1 1.2 2 2 2.6.8.6 1.9 1 3 1 1.2 0 2.2-.4 3.1-1.1.9-.7 1.4-1.7 1.6-2.9h1.3c-.2 1-.5 1.9-1.1 2.7-.6.8-1.3 1.4-2.1 1.8-.6.4-1.5.7-2.6.7ZM274.8 237.2v10.6h-1.3V226h1.3v8h.1c.4-.8 1-1.5 1.8-2s1.8-.8 3-.8c1.1 0 2.1.2 2.9.7.8.5 1.5 1.1 2 2 .5.9.7 1.9.7 3.1v10.8H284v-10.7c0-1.4-.4-2.5-1.2-3.4-.8-.9-1.9-1.3-3.3-1.3-.9 0-1.7.2-2.5.6-.8.4-1.3 1-1.7 1.7-.4.7-.5 1.5-.5 2.5ZM294.7 248.2c-.9 0-1.8-.2-2.6-.6-.8-.4-1.4-.9-1.9-1.7-.5-.8-.7-1.6-.7-2.6 0-.7.1-1.3.4-1.8.2-.5.6-1 1.1-1.3.5-.4 1.1-.7 1.9-.9.8-.2 1.7-.4 2.8-.6.8-.1 1.6-.2 2.2-.3.6-.1 1.2-.3 1.5-.5.4-.2.6-.5.6-.9v-.7c0-1.2-.4-2.1-1.1-2.8-.7-.7-1.8-1.1-3.1-1.1-1.2 0-2.1.3-3 .8-.8.5-1.4 1.2-1.7 2l-1.2-.5c.3-.8.8-1.4 1.4-2 .6-.5 1.3-.9 2.1-1.1.8-.2 1.6-.4 2.4-.4.7 0 1.4.1 2.1.3.7.2 1.3.5 1.8.9s.9 1 1.2 1.6c.3.7.4 1.4.4 2.3v11.4H300v-2.9h-.1c-.3.6-.7 1.2-1.2 1.7s-1.1.9-1.8 1.2c-.7.3-1.4.5-2.2.5Zm.1-1.2c1 0 1.9-.3 2.7-.8.8-.5 1.4-1.2 1.9-2.1.4-.9.7-1.9.7-3v-2.4c-.2.1-.4.3-.7.4-.3.1-.7.2-1 .3-.3.1-.8.2-1.2.2-.4 0-.8.1-1.2.2-1.2.1-2.2.4-2.9.7-.7.3-1.3.7-1.6 1.2-.4.5-.5 1.1-.5 1.7 0 1.1.4 2 1.2 2.6.8.6 1.4 1 2.6 1ZM306.301 247.8v-16.4h1.2v2.6h.1c.4-.8 1-1.5 1.8-2s1.8-.8 2.9-.8h.6v1.3h-.8c-.9 0-1.7.2-2.4.6-.7.4-1.3.9-1.7 1.6-.4.7-.6 1.5-.6 2.4v10.8h-1.1v-.1ZM321.402 254.3c-1.5 0-2.8-.3-3.9-.9-1.1-.6-1.8-1.4-2.2-2.4l1.1-.6c.2.5.6 1 1 1.4.4.4 1 .7 1.7 1 .7.3 1.4.4 2.3.4 1.6 0 2.8-.4 3.7-1.2.9-.8 1.4-2.1 1.4-3.7v-4.1h-.1c-.2.7-.6 1.3-1.1 1.9-.5.6-1.1 1-1.8 1.3-.7.3-1.5.5-2.4.5-1.3 0-2.4-.3-3.4-1s-1.7-1.6-2.3-2.8c-.6-1.2-.8-2.6-.8-4.3 0-1.7.3-3.1.8-4.4.5-1.3 1.3-2.3 2.3-3 1-.7 2.1-1.1 3.5-1.1.9 0 1.8.2 2.4.5.6.3 1.3.8 1.7 1.4.5.6.8 1.2 1.1 1.9h.1v-3.7h1.3v16.8c0 1.4-.3 2.5-.8 3.4-.5.9-1.3 1.6-2.3 2-.9.5-2 .7-3.3.7Zm-.2-7.8c1.6 0 2.9-.6 3.9-1.9 1-1.2 1.4-2.9 1.4-5.1 0-1.4-.2-2.6-.6-3.7-.4-1.1-1-1.9-1.8-2.6-.8-.7-1.7-.9-2.9-.9s-2.1.3-2.9 1c-.8.7-1.4 1.5-1.8 2.6-.4 1.1-.6 2.3-.6 3.7 0 1.4.2 2.6.6 3.6.4 1 1 1.9 1.8 2.4s1.8.9 2.9.9ZM339.101 248.2c-1.5 0-2.8-.4-3.9-1.1-1.1-.7-1.9-1.7-2.5-3-.6-1.3-.9-2.7-.9-4.4 0-1.6.3-3.1.9-4.4.6-1.3 1.4-2.3 2.5-3 1.1-.7 2.2-1.1 3.6-1.1.9 0 1.8.2 2.6.5s1.5.9 2.2 1.6c.7.7 1.1 1.5 1.5 2.5.4 1 .5 2.1.5 3.4v.6h-13v-1.2h12.3l-.6.5c0-1.3-.2-2.4-.7-3.5-.5-1-1.1-1.8-1.9-2.4-.8-.6-1.8-.9-2.9-.9-1.1 0-2.1.3-2.9.9-.9.6-1.5 1.4-2 2.5s-.7 2.2-.7 3.4v.5c0 1.4.2 2.6.7 3.7.5 1.1 1.2 1.9 2.1 2.6.9.6 2 .9 3.2.9.9 0 1.7-.2 2.3-.5.6-.3 1.2-.7 1.6-1.1.4-.4.7-.9.9-1.3l1.2.5c-.2.5-.6 1.1-1.1 1.6-.5.5-1.2 1-2 1.4-.8.4-1.9.8-3 .8ZM356.2 248.2c-.9 0-1.8-.2-2.5-.5s-1.3-.8-1.8-1.4c-.5-.6-.8-1.2-1.1-1.9h-.2v3.6h-1.2v-22h1.3v9.1h.1c.2-.7.6-1.3 1.1-1.9.5-.6 1.1-1.1 1.8-1.4.7-.3 1.5-.5 2.5-.5 1.3 0 2.5.4 3.4 1.1.9.7 1.7 1.7 2.3 3 .5 1.3.8 2.7.8 4.4 0 1.7-.3 3.1-.8 4.4-.5 1.3-1.3 2.3-2.3 3-.9.6-2 1-3.4 1Zm-.1-1.2c1.1 0 2.1-.3 2.9-1 .8-.7 1.4-1.5 1.8-2.6.4-1.1.6-2.3.6-3.7 0-1.4-.2-2.6-.6-3.7-.4-1.1-1-2-1.8-2.6-.8-.6-1.8-1-2.9-1-1.1 0-2.1.3-2.8.9-.7.6-1.4 1.5-1.8 2.6-.4 1.1-.6 2.3-.6 3.7 0 1.4.2 2.6.6 3.8.4 1.2 1 2 1.8 2.6.8.6 1.7 1 2.8 1ZM371.1 248.2c-.9 0-1.8-.2-2.6-.6-.8-.4-1.4-.9-1.9-1.7-.5-.8-.7-1.6-.7-2.6 0-.7.1-1.3.4-1.8.2-.5.6-1 1.1-1.3.5-.4 1.1-.7 1.9-.9.8-.2 1.7-.4 2.8-.6.8-.1 1.6-.2 2.2-.3.6-.1 1.2-.3 1.5-.5.4-.2.6-.5.6-.9v-.7c0-1.2-.4-2.1-1.1-2.8-.7-.7-1.8-1.1-3.1-1.1-1.2 0-2.1.3-3 .8-.8.5-1.4 1.2-1.7 2l-1.2-.5c.3-.8.8-1.4 1.4-2 .6-.5 1.3-.9 2.1-1.1.8-.2 1.6-.4 2.4-.4.7 0 1.4.1 2.1.3.7.2 1.3.5 1.8.9s.9 1 1.2 1.6c.3.7.4 1.4.4 2.3v11.4h-1.3v-2.9h-.1c-.3.6-.7 1.2-1.2 1.7s-1.1.9-1.8 1.2c-.7.3-1.3.5-2.2.5Zm.1-1.2c1 0 1.9-.3 2.7-.8.8-.5 1.4-1.2 1.9-2.1.4-.9.7-1.9.7-3v-2.4c-.2.1-.4.3-.7.4-.3.1-.7.2-1 .3-.3.1-.8.2-1.2.2-.4 0-.8.1-1.2.2-1.2.1-2.2.4-2.9.7-.7.3-1.3.7-1.6 1.2-.4.5-.5 1.1-.5 1.7 0 1.1.4 2 1.2 2.6.8.6 1.5 1 2.6 1ZM388.801 248.2c-1.4 0-2.6-.4-3.7-1.1-1.1-.7-1.9-1.7-2.5-3-.6-1.3-.9-2.7-.9-4.4 0-1.7.3-3.1.9-4.3.6-1.3 1.4-2.3 2.5-3 1.1-.7 2.3-1.1 3.7-1.1 1 0 2 .2 2.8.6.8.4 1.6 1 2.1 1.8s.9 1.6 1.1 2.6h-1.3c-.1-.7-.4-1.4-.8-1.9s-1-1-1.7-1.4c-.7-.4-1.4-.5-2.2-.5-1.1 0-2.1.3-3 .9-.9.6-1.5 1.5-2.1 2.6-.5 1.1-.8 2.3-.8 3.7 0 1.4.2 2.6.7 3.7.5 1.1 1.2 2 2 2.6.8.6 1.9 1 3 1 1.2 0 2.2-.4 3.1-1.1.9-.7 1.4-1.7 1.6-2.9h1.3c-.2 1-.5 1.9-1.1 2.7-.6.8-1.3 1.4-2.1 1.8-.5.4-1.5.7-2.6.7ZM398.9 247.8V226h1.3v21.8h-1.3Zm1.1-6.4v-1.9h.4l8.2-8.1h1.7l-7.5 7.5-.1.1-2.7 2.4Zm8.8 6.4-6.9-8.7 1-.9 7.6 9.6h-1.7ZM424 235l-1.2.3c-.3-.9-.8-1.6-1.4-2.1-.6-.5-1.5-.8-2.7-.8-1.2 0-2.2.3-2.9.9-.7.6-1.1 1.4-1.1 2.3 0 .8.3 1.4.8 1.9s1.3.9 2.4 1.2l2.5.6c1.3.3 2.3.8 2.9 1.5.7.7 1 1.6 1 2.6 0 .9-.2 1.7-.7 2.4-.5.7-1.2 1.2-2 1.6-.9.4-1.9.6-3 .6-1.5 0-2.8-.4-3.8-1.1-1-.7-1.6-1.7-1.9-3.1l1.2-.3c.2 1.1.7 1.9 1.5 2.4s1.7.8 2.9.8c1.3 0 2.4-.3 3.2-1 .8-.6 1.2-1.5 1.2-2.4 0-1.5-1-2.6-2.9-3l-2.6-.6c-1.3-.3-2.3-.9-3-1.6-.7-.7-1-1.6-1-2.7 0-.9.2-1.7.7-2.3.5-.6 1.1-1.2 1.9-1.6.8-.4 1.7-.6 2.8-.6 1.4 0 2.5.3 3.4 1 .7.9 1.4 1.9 1.8 3.1ZM440.501 248.2c-.9 0-1.8-.2-2.6-.6-.8-.4-1.4-.9-1.9-1.7-.5-.8-.7-1.6-.7-2.6 0-.7.1-1.3.4-1.8.2-.5.6-1 1.1-1.3.5-.4 1.1-.7 1.9-.9.8-.2 1.7-.4 2.8-.6.8-.1 1.6-.2 2.2-.3.6-.1 1.2-.3 1.5-.5.4-.2.6-.5.6-.9v-.7c0-1.2-.4-2.1-1.1-2.8-.7-.7-1.8-1.1-3.1-1.1-1.2 0-2.1.3-3 .8-.8.5-1.4 1.2-1.7 2l-1.2-.5c.3-.8.8-1.4 1.4-2 .6-.5 1.3-.9 2.1-1.1.8-.2 1.6-.4 2.4-.4.7 0 1.4.1 2.1.3.7.2 1.3.5 1.8.9s.9 1 1.2 1.6c.3.7.4 1.4.4 2.3v11.4h-1.3v-2.9h-.1c-.3.6-.7 1.2-1.2 1.7s-1.1.9-1.8 1.2c-.7.3-1.3.5-2.2.5Zm.1-1.2c1 0 1.9-.3 2.7-.8.8-.5 1.4-1.2 1.9-2.1.4-.9.7-1.9.7-3v-2.4c-.2.1-.4.3-.7.4-.3.1-.7.2-1 .3-.3.1-.8.2-1.2.2-.4 0-.8.1-1.2.2-1.2.1-2.2.4-2.9.7-.7.3-1.3.7-1.6 1.2-.4.5-.5 1.1-.5 1.7 0 1.1.4 2 1.2 2.6.8.6 1.5 1 2.6 1ZM453.402 237.2v10.6h-1.3v-16.4h1.2v2.6h.1c.4-.8 1-1.5 1.9-2 .8-.5 1.8-.8 3-.8 1.1 0 2.1.2 2.9.7.8.5 1.5 1.1 2 2 .5.9.7 1.9.7 3.1v10.8h-1.3v-10.7c0-1.4-.4-2.5-1.3-3.4-.9-.9-1.9-1.3-3.3-1.3-.9 0-1.7.2-2.4.6-.7.4-1.3 1-1.7 1.7-.4.7-.5 1.5-.5 2.5ZM474.4 248.2c-1.3 0-2.5-.4-3.4-1.1-1-.7-1.7-1.7-2.3-3-.6-1.3-.8-2.7-.8-4.4 0-1.6.3-3.1.8-4.4.5-1.3 1.3-2.3 2.3-3 1-.7 2.1-1.1 3.4-1.1.9 0 1.8.2 2.5.5s1.3.8 1.8 1.4c.5.6.8 1.2 1.1 1.9h.1v-9h1.3v21.8H480v-3.6h-.2c-.3.7-.6 1.4-1.1 1.9-.5.5-1.1 1.1-1.8 1.4-.7.3-1.5.7-2.5.7Zm.1-1.2c1.1 0 2.1-.3 2.9-1 .8-.7 1.4-1.5 1.8-2.6.4-1.1.6-2.4.6-3.8s-.2-2.6-.6-3.7c-.4-1.1-1-2-1.8-2.6-.8-.6-1.8-.9-2.9-.9-1.1 0-2.1.3-2.9 1-.8.7-1.4 1.5-1.8 2.6-.4 1.1-.6 2.3-.6 3.7 0 1.4.2 2.6.6 3.7.4 1.1 1 2 1.8 2.6.8.6 1.8 1 2.9 1ZM499.701 248.2c-1.3 0-2.5-.4-3.4-1.1-1-.7-1.7-1.7-2.3-3-.6-1.3-.8-2.7-.8-4.4 0-1.6.3-3.1.8-4.4.5-1.3 1.3-2.3 2.3-3 1-.7 2.1-1.1 3.4-1.1.9 0 1.8.2 2.5.5s1.3.8 1.8 1.4c.5.6.8 1.2 1.1 1.9h.1v-9h1.3v21.8h-1.2v-3.6h-.3c-.3.7-.6 1.4-1.1 1.9-.5.5-1.1 1.1-1.8 1.4-.7.3-1.5.7-2.4.7Zm.1-1.2c1.1 0 2.1-.3 2.9-1 .8-.7 1.4-1.5 1.8-2.6.4-1.1.6-2.4.6-3.8s-.2-2.6-.6-3.7c-.4-1.1-1-2-1.8-2.6-.8-.6-1.8-.9-2.9-.9-1.1 0-2.1.3-2.9 1-.8.7-1.4 1.5-1.8 2.6-.4 1.1-.6 2.3-.6 3.7 0 1.4.2 2.6.6 3.7.4 1.1 1 2 1.8 2.6.8.6 1.7 1 2.9 1ZM512 228.5c-.3 0-.5-.1-.7-.3-.2-.2-.3-.4-.3-.7 0-.3.1-.5.3-.7.2-.2.4-.3.7-.3.3 0 .5.1.7.3.2.2.3.4.3.7 0 .3-.1.5-.3.7-.2.2-.5.3-.7.3Zm-.7 19.3v-16.4h1.3v16.4h-1.3ZM527.901 235l-1.2.3c-.3-.9-.8-1.6-1.4-2.1-.6-.5-1.5-.8-2.7-.8-1.2 0-2.2.3-2.9.9-.7.6-1.1 1.4-1.1 2.3 0 .8.3 1.4.8 1.9s1.3.9 2.4 1.2l2.5.6c1.3.3 2.3.8 2.9 1.5.7.7 1 1.6 1 2.6 0 .9-.2 1.7-.7 2.4-.5.7-1.2 1.2-2 1.6-.9.4-1.9.6-3 .6-1.5 0-2.8-.4-3.8-1.1-1-.7-1.6-1.7-1.9-3.1l1.2-.3c.2 1.1.7 1.9 1.5 2.4s1.7.8 2.9.8c1.3 0 2.4-.3 3.2-1 .8-.6 1.2-1.5 1.2-2.4 0-1.5-1-2.6-2.9-3l-2.6-.6c-1.3-.3-2.3-.9-3-1.6-.7-.7-1-1.6-1-2.7 0-.9.2-1.7.7-2.3.5-.6 1.1-1.2 1.9-1.6.8-.4 1.7-.6 2.8-.6 1.4 0 2.5.3 3.4 1 .8.9 1.4 1.9 1.8 3.1ZM532.201 247.8v-16.4h1.2v2.6h.1c.4-.8 1-1.5 1.8-2s1.8-.8 2.9-.8h.6v1.3h-.8c-.9 0-1.7.2-2.4.6-.7.4-1.3.9-1.7 1.6-.4.7-.6 1.5-.6 2.4v10.8h-1.1v-.1ZM552.4 242v-10.6h1.3v16.4h-1.3v-2.7h-.1c-.4.8-1 1.5-1.9 2.1-.9.6-1.9.8-3 .8s-2-.2-2.8-.7c-.8-.5-1.5-1.1-1.9-2-.5-.9-.7-1.9-.7-3.1v-10.8h1.3v10.8c0 1.4.4 2.5 1.2 3.3.8.8 1.9 1.3 3.2 1.3.9 0 1.6-.2 2.4-.6.8-.4 1.3-.9 1.7-1.6.4-.7.6-1.6.6-2.6ZM558.602 253.9v-22.5h1.2v3.7h.2c.2-.7.6-1.3 1.1-1.9.5-.6 1.1-1.1 1.8-1.4.7-.4 1.5-.5 2.5-.5 1.3 0 2.5.4 3.4 1.1.9.7 1.7 1.7 2.3 3 .5 1.3.8 2.7.8 4.4 0 1.7-.3 3.1-.8 4.4-.5 1.3-1.3 2.3-2.3 3-1 .7-2.1 1.1-3.4 1.1-.9 0-1.8-.2-2.5-.5s-1.3-.8-1.8-1.4c-.5-.6-.8-1.2-1.1-1.9h-.1v9.7h-1.3v-.3Zm6.6-6.9c1.1 0 2.1-.3 2.9-1 .8-.7 1.4-1.5 1.8-2.6.4-1.1.6-2.3.6-3.7 0-1.4-.2-2.6-.6-3.7-.4-1.1-1-2-1.8-2.6-.8-.6-1.8-1-2.9-1-1.1 0-2.1.3-2.8.9-.8.6-1.4 1.5-1.8 2.6-.4 1.1-.6 2.3-.6 3.7 0 1.4.2 2.6.6 3.8.4 1.2 1 2 1.8 2.6.8.6 1.7 1 2.8 1ZM581.6 231.4v1.2h-7.1v-1.2h7.1Zm-4.7-3.9h1.3v16.4c0 .9.3 1.6.8 2.1s1.2.7 2 .7h.6c.2 0 .4-.1.6-.1l.3 1.2c-.2.1-.5.2-.7.2-.2 0-.5.1-.8.1-1.1 0-2.1-.4-2.8-1.1-.8-.7-1.2-1.7-1.2-2.8v-16.7h-.1ZM586.602 228.5c-.3 0-.5-.1-.7-.3-.2-.2-.3-.4-.3-.7 0-.3.1-.5.3-.7.2-.2.4-.3.7-.3.3 0 .5.1.7.3.2.2.3.4.3.7 0 .3-.1.5-.3.7-.2.2-.4.3-.7.3Zm-.6 19.3v-16.4h1.3v16.4h-1.3ZM598.301 248.2c-1.3 0-2.5-.4-3.6-1.1-1.1-.7-1.9-1.7-2.5-3-.6-1.3-.9-2.7-.9-4.4 0-1.7.3-3.1.9-4.4.6-1.3 1.4-2.3 2.5-3 1.1-.7 2.3-1.1 3.6-1.1 1.3 0 2.5.4 3.6 1.1 1.1.7 1.9 1.7 2.5 3 .6 1.3.9 2.7.9 4.4 0 1.6-.3 3.1-.9 4.4-.6 1.3-1.4 2.3-2.5 3-1.1.7-2.3 1.1-3.6 1.1Zm0-1.2c1.2 0 2.2-.3 3-1 .9-.6 1.5-1.5 2-2.6s.7-2.3.7-3.7c0-1.3-.2-2.6-.7-3.7-.5-1.1-1.1-2-2-2.6-.8-.6-1.9-1-3-1s-2.1.3-3 1c-.9.7-1.5 1.5-2 2.6s-.7 2.3-.7 3.7c0 1.4.2 2.6.7 3.7.5 1.1 1.1 2 2 2.6.8.6 1.8 1 3 1ZM610.601 237.2v10.6h-1.3v-16.4h1.2v2.6h.1c.4-.8 1-1.5 1.9-2 .8-.5 1.8-.8 3-.8 1.1 0 2.1.2 2.9.7.8.5 1.5 1.1 2 2 .5.9.7 1.9.7 3.1v10.8h-1.3v-10.7c0-1.4-.4-2.5-1.3-3.4-.8-.8-1.9-1.3-3.3-1.3-.9 0-1.7.2-2.4.6-.7.4-1.3 1-1.7 1.7-.4.7-.5 1.5-.5 2.5ZM636.401 235l-1.2.3c-.3-.9-.8-1.6-1.4-2.1-.7-.5-1.5-.8-2.7-.8-1.2 0-2.2.3-2.9.9-.7.6-1.1 1.4-1.1 2.3 0 .8.3 1.4.8 1.9s1.3.9 2.4 1.2l2.5.6c1.3.3 2.3.8 2.9 1.5.7.7 1 1.6 1 2.6 0 .9-.2 1.7-.7 2.4-.5.7-1.2 1.2-2 1.6-.9.4-1.9.6-3 .6-1.5 0-2.8-.4-3.8-1.1-1-.7-1.6-1.7-1.9-3.1l1.2-.3c.2 1.1.7 1.9 1.5 2.4.7.6 1.7.8 2.9.8 1.3 0 2.4-.3 3.2-1 .8-.6 1.2-1.5 1.2-2.4 0-1.5-1-2.6-2.9-3l-2.6-.6c-1.3-.3-2.3-.9-3-1.6-.7-.7-1-1.6-1-2.7 0-.9.2-1.7.7-2.3.5-.6 1.1-1.2 1.9-1.6.8-.4 1.7-.6 2.8-.6 1.4 0 2.5.3 3.4 1 .8.9 1.4 1.9 1.8 3.1ZM642.1 247.9c-.3 0-.6-.1-.8-.3-.2-.2-.3-.5-.3-.8 0-.3.1-.6.3-.8.2-.2.5-.3.8-.3.3 0 .6.1.8.3.2.2.3.5.3.8 0 .3-.1.6-.3.8-.2.2-.5.3-.8.3ZM161.7 93.6c.8-.7 1.6-1 2.5-1 .7 0 1.4.3 2 .8 6.3 6.9 3.5 47.8 11.3 48.8h.3c6.7 0 15.9-24.7 17.8-30.4 1-3.3 4.6-15.2 4.6-22.8 0-3-.6-5.4-2.1-6.1-.2-.1-.4-.4-.4-.6 0-.4.3-.8.7-.8.1 0 .2 0 .3.1 2.5 1.3 3.3 4.6 3.3 8.7 0 8-3.3 18.9-4.6 22.8-2 6.2-12.7 30.5-19.8 30.5h-.4c-10-1.2-7.4-43.3-12.7-49.1-.2-.2-.5-.4-.8-.4-.3 0-.7.2-1.1.6-7.1 6.5-11.5 29.6-12.8 37.9-.1.2-.1.4-.1.6 0 1.2.7 1.5.7 2.4v.4c-.2.5-.6.7-1.1.7-.6 0-1.3-.4-1.4-1.3.1-.1 4.8-33.5 13.8-41.8ZM205.7 115.7c-.1-.2-.1-.3-.1-.5 0-.3.1-.5.3-.7.2-.1.4-.2.6-.2.1 0 .2 0 .4.1.6.2 1 .8 1.3 1.8.8.9 2 1.6 4.3 1.8 1.2.1 2.3.1 3.3.1 3.7 0 5.6-.6 5.6-.6h.2c.4 0 .6.3.6.7 0 .4-.2.7-.5.8 0 0-1.4.3-4.3.3-1.3 0-2.8-.1-4.6-.2-1.9-.2-3.2-.5-4.2-1 0 3-1.2 7.7-3.8 9.6-.5.3-1.1.5-1.6.5-.3 0-.6 0-.8-.1-1-.4-1.4-1.4-1.4-2.6 0-1.6.6-3.5 1-4.4.6-1.3 2.5-4.3 3.8-5.1-.1-.2-.1-.3-.1-.3Zm-2.5 6c-.2.5-.8 2.4-.8 3.7 0 .6.1 1 .5 1.2h.2c1.6 0 3.7-7.5 3.7-9.5v-.1c-.1-.1-.2-.1-.2-.2-1.4 1-2.8 3.4-3.4 4.9ZM249.201 87.5c.4 0 .8.9.8 1.8v.2c-.3 4.8-.1 7.6-.5 10.6 5.1-9.2 9.8-14.9 16.2-18.2 2.1-1 3.7-1.5 5-1.5 3.2 0 4.4 2.7 4.4 6.9 0 8.3-4.9 22.4-9.5 32.2 5.5-8.3 14-19.3 20.1-19.8h.2c2.7 0 3.7 2.4 3.7 6.1 0 8.9-5.6 25.1-5.6 31.9 0 1.1.1 2 .5 2.5.1.1.1.3.1.5 0 .5-.5.9-1 .9-.2 0-.5-.1-.6-.5-.4-.6-.5-1.6-.5-2.8 0-7.4 5.5-24.4 5.5-32.4 0-2.7-.6-4.3-2.2-4.3h-.2c-8.3.8-22.9 27.8-24 27.8-.1.3-.3.4-.6.4-.4 0-.9-.4-.9-1v-.2c0-.1 13.7-30.8 13.7-42.6 0-2.8-.8-4.6-2.7-4.6-.8 0-1.9.4-3.2 1.1-7 3.6-13 12.4-18.3 22.8-1.9 13.3-7 31.2-11.3 36.1-.7.8-1.4 1.2-1.9 1.3h-.1c-1 0-1.5-1-1.5-2.6 0-8.5 12-34.9 13.3-37.4.8-5.8.2-9.7.8-14.3-.1-.7 0-.9.3-.9Zm-1.4 20.7c-.2.5-11.5 28-11.5 32.6 0 .4.1.7.3.7.2 0 .6-.2 1-.8 3.9-5.4 8.2-20.4 10.2-32.5ZM298.2 115.7c-.1-.2-.1-.3-.1-.5 0-.3.1-.5.3-.7.2-.1.4-.2.6-.2.1 0 .2 0 .4.1.6.2 1 .8 1.3 1.8.8.9 2 1.6 4.3 1.8 1.2.1 2.3.1 3.3.1 3.7 0 5.6-.6 5.6-.6h.2c.4 0 .6.3.6.7 0 .4-.2.7-.5.8 0 0-1.4.3-4.3.3-1.3 0-2.8-.1-4.6-.2-1.9-.2-3.2-.5-4.2-1 0 3-1.2 7.7-3.8 9.6-.5.3-1.1.5-1.6.5-.3 0-.6 0-.8-.1-1-.4-1.4-1.4-1.4-2.6 0-1.6.6-3.5 1-4.4.6-1.3 2.5-4.3 3.8-5.1-.1-.2-.1-.3-.1-.3Zm-2.5 6c-.2.5-.8 2.4-.8 3.7 0 .6.1 1 .5 1.2h.2c1.6 0 3.7-7.5 3.7-9.5v-.1c-.1-.1-.2-.1-.2-.2-1.4 1-2.8 3.4-3.4 4.9Z"/><path fill="#fff" d="M314.8 119.3c1.4-2.9 3.4-4.8 5-4.8.7 0 1.4.4 2 1.1 1.3 2.9 6.5 3.4 10.4 3.4 1.7 0 3.2-.1 3.9-.1.4 0 .7-.4.8-.4.1 0 .3-.1.4-.1.2 0 .3.1.3.2 0 .2-.2.6-.5.7-.2.2-2.8.6-6 .6-3.8 0-8.3-.6-10.1-3.1-.2-.3-.5-.4-.7-.4-2.5 0-7.1 11-7.1 11v.1c0 .4-.5.6-1 .6-.6 0-1.3-.2-1.3-.6v-.1l3-12.5c.2-.7.8-.9 1.4-.9.7 0 1.3.4 1.3 1v.1l-1.8 4.2Z"/><path fill="#fff" d="M343 116.5c0 2.9-4.7 4.8-5.7 5.2v.7c0 .8.1 1.8.6 2.5s1.2 1 2.2 1c4.8 0 14.5-7.3 14.5-7.3.1-.1.3-.1.4-.1.5 0 .8.4.8.8 0 .2-.1.3-.3.5-.1 0-9.5 6.8-15.2 6.8-1.5 0-2.8-.5-3.5-1.6-.7-1-.9-2-.9-3 0-2 1-3.8 2.1-5.2.6-.7 1.3-1.3 2-1.6.5-.3.9-.4 1.4-.4.2 0 .5 0 .7.1.5.2.8.7.9 1.3-.1.1 0 .2 0 .3Zm-2.2 0c0-.1 0-.1-.1-.1-.7.1-1.4 1.4-3 3.5 2.3-1.9 3.1-3.1 3.1-3.4ZM378.501 95.5c.2-.6.5-.9.6-1.2.3-.3.8-.5 1.3-.5.6 0 1.2.2 1.4.6.1.2.1.3.1.6v.5c-.7 4-3.4 11.2-4.7 17.7 5.8-14.9 14.1-31.7 24.1-32.3h.5c5.6 0 7.1 6.4 7.1 12.9 0 4.7-.7 9.3-1.2 11.7-1.2 6.1-3.2 12.7-5.8 18.9 8.9-3.9 15.9-6.3 16-6.3.2 0 .4-.1.5-.1.5 0 .7.2.7.5 0 .4-.4.8-.8 1-.1 0-7.6 2.2-17 6.2-.4.9-1 2.3-1.5 3.2-7.6 15.5-20.3 21.8-27.1 21.8-2.7 0-4.4-1.1-4.4-2.9 0-4.1 8.1-12.3 31.7-22.6 2.9-6.4 5-13.4 6.3-20 .3-1.5.8-5.5.8-9.7 0-6.3-1-13-5.1-13h-.2c-11.2.7-20.5 23.2-25.7 38.8-.1.6-.6 1.8-.7 2.3-1.2 5.9-3.3 10.1-4 11.3-.1.2-.3.4-.5.4h-.3c-.4 0-.6-.4-.6-1.3 0-.7.1-1.6.4-2.8.5-2.1 1.4-5 2.5-8.5.2-.6.4-1.1.5-1.7.8-3.7 1.6-7.9 2.3-11.8v-.9c0-6.6 2-10.9 2.8-12.8Zm20.7 31c-21.9 9.5-29.3 16.8-29.3 20.3 0 1.5 1.3 2.3 3.5 2.3 5.9 0 17.9-6.1 25.2-20.8.2-.4.4-1.4.6-1.8Z"/><path fill="#fff" d="M423.801 116.5c0 2.9-4.7 4.8-5.7 5.2v.7c0 .8.1 1.8.6 2.5s1.2 1 2.2 1c4.8 0 14.5-7.3 14.5-7.3.1-.1.3-.1.4-.1.5 0 .8.4.8.8 0 .2-.1.3-.3.5-.1 0-9.5 6.8-15.2 6.8-1.5 0-2.8-.5-3.5-1.6-.7-1-.9-2-.9-3 0-2 1-3.8 2.1-5.2.6-.7 1.3-1.3 2-1.6.5-.3.9-.4 1.4-.4.2 0 .5 0 .7.1.5.2.8.7.9 1.3v.3Zm-2.1 0c0-.1 0-.1-.1-.1-.7.1-1.4 1.4-3 3.5 2.3-1.9 3.1-3.1 3.1-3.4Z"/><path fill="#fff" d="M432.701 137c0 1.1.1 1.9.4 2.5.4.7.9 1.1 1.5 1.1 5.1 0 18.3-21.2 18.4-21.2.4-.5.7-.7 1.1-.7.4 0 .7.3.7.8 0 .1-13.9 21.7-20.2 21.7-.9 0-1.7-.5-2.3-1.6-.4-.7-.5-1.9-.5-3.3 0-9.2 6.8-30.3 11.4-36.7 1.1-1.9 2.2-3.5 3.2-4.7 1.1-1.2 2.1-1.9 2.9-1.9.6 0 1.1.4 1.3 1.2.1.4.2.8.2 1.4 0 6.3-10 21.1-14.2 23.9-2.6 8.1-3.9 14.1-3.9 17.5Zm16.8-42.1c0-.2 0-.3-.1-.4-.1-.2-.2-.3-.2-.3-.4 0-1 .6-1.8 1.5-.9 1-2 2.6-3 4.4-2.2 3.7-5 11.4-6.6 16.1 2-2.1 11.7-17.6 11.7-21.3Z"/><path fill="#fff" d="M459.201 120.3c-2.8 2.6-5.9 5.6-7.4 5.6h-.2c-.4-.1-.7-.3-.9-.6-.3-.3-.4-.8-.4-1.3v-.5c.1-.6.3-1.3.6-2 1-2.2 3.2-4.9 5.9-5.7.7-.2 1.3-.3 1.9-.3 1.1 0 1.9.4 2.4.9 1.1-.9 2.3-1.8 2.9-1.8.1 0 .2 0 .3.1.5.1.7.5.7 1.3s-.3 2-.9 3.5c-.4 1.1-.6 1.9-.6 2.6 0 1.8 1.2 2.5 2.9 2.5 4.4 0 12.7-4.7 13.9-6.2.2-.4.5-.6.7-.6.3 0 .5.3.5.7 0 .2-.1.4-.2.6-.4.6-9.8 6.1-15.3 6.1-2.2 0-3.8-.9-3.8-3.6 0-.7.1-1.5.4-2.5.2-1.3.7-2.6.7-2.8l-1.3 1.3c.1.4.1.8.1 1v.1c-.3.5-.7.7-1.1.7-.1 0-.3 0-.4-.1l-.1-.3c-.5.6-.7.8-1.3 1.3Zm-.6-2.3c-1.7 0-4.6 3.8-4.6 4.6 0 .1.1.2.2.2.7 0 2.8-1.7 5-4.6-.2-.1-.4-.2-.6-.2Z"/><path fill="#fff" d="M498.301 116.6c0 3-1.8 7.6-2.1 9 3-4.1 11.6-7.5 14.5-7.5h.5c.4.1.6.3.6.5 0 .3-.2.6-.6.9-7.7.3-13.1 4.6-16 8.4-1.4 5-4.8 13.6-6.4 18-.5 1.2-3.7 10-5.8 10h-.2c-1-.3-1.3-1.3-1.3-2.4 0-1.2.3-2.5.5-2.9.6-2.2 1.6-5 2.9-7.9 1.8-4.1 5.2-9.7 7.9-13.4.4-1.5 1.1-3.8 1.5-5.2.2-.7 1.7-6.9 1.7-8.4 0-.2 0-.3-.1-.4h-.1c-1.2 0-9.8 11.2-13 12-.5.1-.9.2-1.3.2-1.2 0-2-.6-2.1-1.6-.1-.5-.2-1-.2-1.5 0-3.2 1.7-7.5 2.4-10.2.1-.5.5-.7 1-.7.9 0 2.1.7 2.1 1.5v.2c-.7 2.6-2.1 6-2.1 8.7 0 .3 0 .6.1.9.1.6.2.9.6.9h.1c3.2-.6 10-11.8 13.2-11.8 1.2 0 1.7 1.1 1.7 2.7Zm-6.8 16.9c-1.5 2.6-3.7 7.4-4.8 9.9-1.3 3-2.3 5.7-2.9 7.8-.4 1.4-.6 2.5-.6 3.1v.1c.7-.6 2.9-4.5 4.7-9.4 1.1-2.8 2.5-8.1 3.6-11.5Z"/><path fill="#fff" d="M517.2 113.4c0-.2-.1-.3-.3-.3-.2 0-.4.1-.7.2-.7.3-1.9 1.4-3 2.9-.7 1-1 1.9-1 2.8 0 2.3 2.1 4.3 3.7 7.1 3.2-2.3 6-4 9.6-5.8 2-1 4.7-2.3 7.1-3.2.8.1 1.2.7 1.2 1.4 0 .4-.2.8-.5 1-2.4.3-4.6 1.2-6.5 2.2-3.6 1.8-7 3.3-10.2 5.6.6 1.2.9 2.5.9 3.9 0 5.3-4 11.2-8.6 11.2-.5 0-.9-.1-1.4-.2-1.4-.3-2-1.7-2-3.1 0-.5.1-1 .2-1.5.7-2.3 3.7-6.4 9.6-10.9-1.3-2.2-4.9-5.1-4.9-8.4 0-1 .3-2 1.1-3.1 1.3-1.8 3.3-2.8 4.1-3.2.8-.3 1.4-.5 1.9-.5.9 0 1.4.5 1.5 1.4v.6c0 2.1-1.2 4.8-1.2 4.9-.3.4-.7.5-1.2.5-.7 0-1.5-.5-1.5-1.2v-.3c.1-.1 2.1-3 2.1-4ZM507 137.9c-.1.3-.2.7-.2 1 0 .6.2 1.1.9 1.3.3.1.6.1 1 .1 3.8 0 7.6-5.7 7.6-10.2 0-.9-.1-1.8-.5-2.5-5.3 4.2-8.1 8.3-8.8 10.3ZM548.901 115.7c-.1-.2-.1-.3-.1-.5 0-.3.1-.5.3-.7.2-.1.4-.2.6-.2.1 0 .2 0 .4.1.6.2 1 .8 1.3 1.8.8.9 2 1.6 4.3 1.8 1.2.1 2.3.1 3.3.1 3.7 0 5.6-.6 5.6-.6h.2c.4 0 .6.3.6.7 0 .4-.2.7-.5.8 0 0-1.4.3-4.3.3-1.3 0-2.8-.1-4.6-.2-1.9-.2-3.2-.5-4.2-1 0 3-1.2 7.7-3.8 9.6-.5.3-1.1.5-1.6.5-.3 0-.6 0-.8-.1-1-.4-1.4-1.4-1.4-2.6 0-1.6.6-3.5 1-4.4.6-1.3 2.5-4.3 3.8-5.1-.1-.2-.1-.3-.1-.3Zm-2.5 6c-.2.5-.8 2.4-.8 3.7 0 .6.1 1 .5 1.2h.2c1.6 0 3.7-7.5 3.7-9.5v-.1c-.1-.1-.2-.1-.2-.2-1.4 1-2.8 3.4-3.4 4.9Z"/><path fill="#fff" d="M565.5 119.3c1.4-2.9 3.4-4.8 5-4.8.7 0 1.4.4 2 1.1 1.3 2.9 6.5 3.4 10.4 3.4 1.7 0 3.2-.1 3.9-.1.4 0 .7-.4.8-.4.1 0 .3-.1.4-.1.2 0 .3.1.3.2 0 .2-.2.6-.5.7-.2.2-2.8.6-6 .6-3.8 0-8.3-.6-10.1-3.1-.2-.3-.5-.4-.7-.4-2.5 0-7.1 11-7.1 11v.1c0 .4-.5.6-1 .6-.6 0-1.3-.2-1.3-.6v-.1l3-12.5c.2-.7.8-.9 1.4-.9.7 0 1.3.4 1.3 1v.1l-1.8 4.2ZM621.2 84.9c.6 0 1.1.7 1.3 2.5-2.2 8-8.3 25.5-12.4 41.3l1.9-.3c6.8-18.1 16.2-39.4 25.4-43.4 2.6-1.2 5-1.7 7-1.7 6.7 0 10.4 5.5 10.4 12.5 0 6.2-2.8 13.5-9 19.7-8 7.9-20.4 11.9-30.7 13.8 18.4 1.7 39.4 6.9 39.4 12.5 0 .2 0 .5-.1.7-.2.4-.6.6-1 .6-.3 0-.6-.2-.9-.6-2.6-7.5-24-11.3-39.3-11.9h-.1c-2.5 6.7-5 12.8-6.6 17.5-1.7 5.1-2.8 8.4-3.6 8.4-.5-.1-.7-.4-.7-1v-.2c.2-2.2 2.2-10.5 4.9-20.8.4-1.3.7-2.7 1-4-6.5.8-11.2.8-11.9.8h-.7l-.1-.6v-.2c0-.6.5-1.1 1.3-1.4 1.1-.4 3-.6 5.5-.6h.7c1.7 0 3.6.1 5.6.2 4.2-16 9.2-32.6 11.4-40.7.1-.5.2-.8.2-.9V87c-.2 0-2.2 4.8-2.2 4.8-.2.2-.5.4-.8.4-.5 0-1-.4-1-1.1.1 0 3.2-6.2 5.1-6.2Zm-12.7 49.8c-1.2 4.8-2.3 9.1-3.2 12.6 1.5-4.5 3.5-10.5 5.9-17l-1.6-.1c-.3 1.5-.7 3-1.1 4.5Zm5.7-6.7c10.4-1.8 22.4-5.5 30.6-13.5 5.8-5.7 8.6-12.9 8.6-18.7 0-5.9-2.9-10.3-8.5-10.3-1.8 0-4 .5-6.3 1.5-8.7 3.8-17.7 23.3-24.4 41Z"/><path fill="#fff" d="M655.301 116.5c0 2.9-4.7 4.8-5.7 5.2v.7c0 .8.1 1.8.6 2.5s1.2 1 2.2 1c4.8 0 14.5-7.3 14.5-7.3.1-.1.3-.1.4-.1.5 0 .8.4.8.8 0 .2-.1.3-.3.5-.1 0-9.5 6.8-15.2 6.8-1.5 0-2.8-.5-3.5-1.6-.7-1-.9-2-.9-3 0-2 1-3.8 2.1-5.2.6-.7 1.3-1.3 2-1.6.5-.3.9-.4 1.4-.4.2 0 .5 0 .7.1.5.2.8.7.9 1.3v.3Zm-2.1 0c0-.1 0-.1-.1-.1-.7.1-1.4 1.4-3 3.5 2.2-1.9 3.1-3.1 3.1-3.4Z"/><path fill="#fff" d="M667.8 126.5c0 .1 0 .2.1.2 0 0 .1 0 .1-.1.9-.7 7.7-13.9 8.4-15.2l.4-.9c.1-.1.4-.1.7-.1.7 0 1.6.2 1.6.8v.1l-.5 1c-.2.5-.8 1.8-.8 3.2 0 1.6 1 3.3 5.1 3.3.6 0 1.2 0 1.9-.1.5.1.7.5.7.7 0 .3-.2.6-.7.7-6.2 0-8.1-2.3-8.4-4.6-3 5.5-8.2 14.5-10.2 14.5-.1 0-.2 0-.3-.1-.7-.1-1-1.3-1-2.9 0-3.7 1.5-10 2.5-12.9.2-.7.7-.9 1.2-.9.8 0 1.8.7 2.1 1.5.1 0-2.9 10.2-2.9 11.8Z"/><path fill="#fff" d="M690.301 116.5c0 2.9-4.7 4.8-5.7 5.2v.7c0 .8.1 1.8.6 2.5s1.2 1 2.2 1c4.8 0 14.5-7.3 14.5-7.3.1-.1.3-.1.4-.1.5 0 .8.4.8.8 0 .2-.1.3-.3.5-.1 0-9.5 6.8-15.2 6.8-1.5 0-2.8-.5-3.5-1.6-.7-1-.9-2-.9-3 0-2 1-3.8 2.1-5.2.6-.7 1.3-1.3 2-1.6.5-.3.9-.4 1.4-.4.2 0 .5 0 .7.1.5.2.8.7.9 1.3v.3Zm-2.1 0c0-.1 0-.1-.1-.1-.7.1-1.4 1.4-3 3.5 2.2-1.9 3.1-3.1 3.1-3.4Z"/><path fill="#fff" d="M702.501 122.8c2-2.6 4-4.8 5.5-4.8.7 0 1.3.4 1.8 1.4 1.5 3.5 3.4 4.9 5.5 4.9 2.8 0 6.1-2.3 9.8-5.1.1-.2.3-.2.5-.2.3 0 .7.4.7.7 0 .2-.1.4-.3.5-2.8 2.2-7 5.4-10.8 5.4-2.4 0-4.6-1.2-6.2-4.8-.1-.3-.3-.5-.5-.5-1.8 0-6.9 7.2-7 7.9-.2.5-.9.7-1.4.7-.5 0-.9-.2-.9-.7v-.1l3.4-13.6c.2-.7.7-1 1.2-1 .6 0 1.3.5 1.3 1.3v.1l-2.6 7.9Z"/><path fill="#fff" d="M725.6 124.9c0 .7.2 1.2.8 1.2h.2c2.1-.6 7.6-8.3 7.7-10.3.1-.7.5-1 .8-1 .6 0 1.4.8 1.4 1.7 0 0-.6 2.7-.6 5 0 1.5.2 2.8 1 3.2.1.1.4.1.6.1 2.8 0 10.5-6.3 10.6-6.3.2-.1.4-.2.5-.2.4 0 .7.4.7.8 0 .1 0 .2-.1.4 0 0-7.7 6.2-11.6 6.2-.4 0-.8-.1-1.1-.2-1.5-.8-1.9-2.9-1.9-5v-.3c-1.9 3.2-5.4 7.8-8.1 7.8-.4 0-.7-.1-1-.2-1.2-.6-1.6-1.9-1.6-3.5 0-4.3 3.3-10.5 3.3-10.6.2-.6.7-.9 1.3-.9.8 0 1.7.7 1.7 1.6v.3c-2.9 4.1-4.6 8.2-4.6 10.2Z"/><path fill="#fff" d="M754.301 116.5c0 2.9-4.7 4.8-5.7 5.2v.7c0 .8.1 1.8.6 2.5s1.2 1 2.2 1c4.8 0 14.5-7.3 14.5-7.3.1-.1.3-.1.4-.1.5 0 .8.4.8.8 0 .2-.1.3-.3.5-.1 0-9.5 6.8-15.2 6.8-1.5 0-2.8-.5-3.5-1.6-.7-1-.9-2-.9-3 0-2 1-3.8 2.1-5.2.6-.7 1.3-1.3 2-1.6.5-.3.9-.4 1.4-.4.2 0 .5 0 .7.1.5.2.8.7.9 1.3v.3Zm-2.1 0c0-.1 0-.1-.1-.1-.7.1-1.4 1.4-3 3.5 2.3-1.9 3.1-3.1 3.1-3.4ZM804.001 79.7c.4-.6.7-.8 1.1-.8.6 0 1 .5 1 1.1 0 .2-.1.5-.2.7-.2.5-2.1 3.1-2.4 7.7-1.2 15.7-12.1 48.4-16.2 56.7.1-.1.3-.2.4-.3 4.4-3.3 26-8.8 36.8-8.8 2 0 3.7.2 4.7.6.6.2.8.6.8 1 0 .6-.5 1.2-1 1.2h-.2c-2-.7-3.2-1.3-5.6-1.3h-.2c-12.6.2-29.6 3.9-34.3 8.4-.7.5-1.5 1.5-2.2 1.8-.7.3-1.3.5-1.8.5-.6 0-.9-.3-.9-.7 0-.5.6-1.3 1.7-1.9 2.8 0 12.5-39.1 16.7-57.6l.6-2.4-.4.5c-.1.1-.3.1-.5.1-.6 0-1.3-.5-1.4-1.2.6-.4 2.9-3.1 3.5-5.3Z"/><path fill="#fff" d="M810.2 115.7c-.1-.2-.1-.3-.1-.5 0-.3.1-.5.3-.7.2-.1.3-.2.6-.2.1 0 .2 0 .4.1.6.2 1 .8 1.3 1.8.8.9 2 1.6 4.3 1.8 1.2.1 2.3.1 3.3.1 3.7 0 5.6-.6 5.6-.6h.2c.4 0 .6.3.6.7 0 .4-.2.7-.5.8 0 0-1.4.3-4.3.3-1.3 0-2.8-.1-4.6-.2-1.9-.2-3.2-.5-4.2-1 0 3-1.2 7.7-3.8 9.6-.5.3-1.1.5-1.6.5-.3 0-.6 0-.8-.1-1-.4-1.4-1.4-1.4-2.6 0-1.6.6-3.5 1.1-4.4.6-1.3 2.5-4.3 3.8-5.1-.2-.2-.2-.3-.2-.3Zm-2.5 6c-.2.5-.8 2.4-.8 3.7 0 .6.1 1 .5 1.2h.2c1.6 0 3.7-7.5 3.7-9.5v-.1c-.1-.1-.2-.1-.2-.2-1.4 1-2.7 3.4-3.4 4.9Z"/><path fill="#fff" d="M831.8 113.4c0-.2-.1-.3-.3-.3-.2 0-.4.1-.7.2-.7.3-1.9 1.4-3 2.9-.7 1-1 1.9-1 2.8 0 2.3 2.1 4.3 3.7 7.1 3.2-2.3 6-4 9.6-5.8 2-1 4.7-2.3 7.1-3.2.8.1 1.2.7 1.2 1.4 0 .4-.2.8-.5 1-2.4.3-4.6 1.2-6.5 2.2-3.6 1.8-7 3.3-10.2 5.6.6 1.2.9 2.5.9 3.9 0 5.3-4 11.2-8.6 11.2-.5 0-.9-.1-1.4-.2-1.4-.3-2-1.7-2-3.1 0-.5.1-1 .2-1.5.7-2.3 3.7-6.4 9.6-10.9-1.3-2.2-4.9-5.1-4.9-8.4 0-1 .3-2 1.1-3.1 1.3-1.8 3.3-2.8 4.1-3.2.8-.3 1.4-.5 1.9-.5.9 0 1.4.5 1.5 1.4v.6c0 2.1-1.2 4.8-1.2 4.9-.3.4-.7.5-1.2.5-.7 0-1.5-.5-1.5-1.2v-.3c.1-.1 2.1-3 2.1-4Zm-10.1 24.5c-.1.3-.2.7-.2 1 0 .6.2 1.1.9 1.3.3.1.6.1 1 .1 3.8 0 7.6-5.7 7.6-10.2 0-.9-.1-1.8-.5-2.5-5.4 4.2-8.2 8.3-8.8 10.3Z"/><path fill="#fff" d="M853.501 113.4c0-.2-.1-.3-.3-.3-.2 0-.4.1-.7.2-.7.3-1.9 1.4-3 2.9-.7 1-1 1.9-1 2.8 0 2.3 2.1 4.3 3.7 7.1 3.2-2.3 6-4 9.6-5.8 2-1 4.7-2.3 7.1-3.2.8.1 1.2.7 1.2 1.4 0 .4-.2.8-.5 1-2.4.3-4.6 1.2-6.5 2.2-3.6 1.8-7 3.3-10.2 5.6.6 1.2.9 2.5.9 3.9 0 5.3-4 11.2-8.6 11.2-.5 0-.9-.1-1.4-.2-1.4-.3-2-1.7-2-3.1 0-.5.1-1 .2-1.5.7-2.3 3.7-6.4 9.6-10.9-1.3-2.2-4.9-5.1-4.9-8.4 0-1 .3-2 1.1-3.1 1.3-1.8 3.3-2.8 4.1-3.2.8-.3 1.4-.5 1.9-.5.9 0 1.4.5 1.5 1.4v.6c0 2.1-1.2 4.8-1.2 4.9-.3.4-.7.5-1.2.5-.7 0-1.5-.5-1.5-1.2v-.3c0-.1 2.1-3 2.1-4Zm-10.2 24.5c-.1.3-.2.7-.2 1 0 .6.2 1.1.9 1.3.3.1.6.1 1 .1 3.8 0 7.6-5.7 7.6-10.2 0-.9-.1-1.8-.5-2.5-5.4 4.2-8.2 8.3-8.8 10.3Z"/><path fill="#fff" fill-opacity=".2" d="m1578.1 632.3-1.5-.6c53.1-135.7 66.4-206.8 44.6-237.7-17-24.2-54.7-23-102.3-21.6-46.6 1.4-104.5 3.2-160.5-19.7-65.4-26.8-115.6-81.5-153.5-167.4l1.5-.7c85.1 193 216.4 189 312.4 186.1 48.1-1.5 86.2-2.6 103.7 22.3 22.2 31.5 8.9 103.1-44.4 239.3Z"/><path fill="#fff" fill-opacity=".2" d="m1610 635.6-1.5-.5c40.3-127.5 47.6-198.3 23.7-229.4-19.9-26-59.7-24.2-109.9-21.9-96.7 4.4-229 10.4-314.3-185.6l1.5-.6c84.8 194.9 216.6 189 312.8 184.6 50.8-2.3 90.8-4.1 111.3 22.5 24.1 31.6 16.9 102.8-23.6 230.9Z"/><path fill="#fff" fill-opacity=".2" d="m1641.9 638.8-1.6-.4c29-121.4 30.1-189.6 3.6-221.2-23.3-27.8-67.4-25.2-118.5-22.1-50.1 3-106.9 6.4-162.6-15.7-64.6-25.6-114.3-80.7-152-168.4l1.5-.6c84.5 196.7 216.6 188.9 313 183.1 51.5-3.1 95.9-5.7 119.8 22.7 26.9 32 25.9 100.7-3.2 222.6Z"/><path fill="#fff" fill-opacity=".2" d="m1673.8 642.1-1.6-.3c18.2-114 13.2-181.7-15.8-213.2-27.3-29.7-73.9-26.2-127.9-22.3-50.7 3.7-108.1 8-163.6-13.7-64.1-25-113.5-80.2-151.1-168.9l1.5-.6c84.1 198.4 211.1 189.1 313.1 181.5 54.4-4 101.4-7.5 129.2 22.8 29.3 31.9 34.4 100.1 16.2 214.7Z"/><path fill="#fff" fill-opacity=".2" d="M1704 645.2c8.4-108.6-2.5-173.9-34.4-205.5-31.8-31.5-81.1-27.2-138.2-22.2-102.7 9-230.5 20.1-314.7-180.9l1.5-.6c83.7 200 210.8 188.9 313 179.9 57.5-5 107.1-9.4 139.5 22.6 32.3 32 43.4 97.7 34.9 206.7h-1.6Z"/><path fill="#fff" fill-opacity=".2" d="M1735.9 648.501c-.7-103.5-17.4-166.5-52.5-198-36.8-33.1-88.9-27.9-149.2-21.8-51.9 5.2-110.6 11.1-165.6-9.7-62.9-23.9-111.6-79.4-148.9-169.6l1.5-.6c83.2 201.4 205.2 189.1 312.8 178.3 58.2-5.8 113.1-11.4 150.5 22.2 35.5 31.9 52.3 95.2 53 199.2h-1.6Z"/><path fill="#fff" fill-opacity=".2" d="M1767.8 651.9c-9.1-97.6-32-160.1-70-191-42.4-34.5-100-28-161-21.1-108.3 12.2-231 26.1-314.1-177.7l1.5-.6c82.6 202.7 204.7 188.9 312.4 176.7 61.3-6.9 119.2-13.5 162.2 21.4 38.4 31.2 61.5 94 70.6 192.1l-1.6.2Z"/><path fill="#fff" fill-opacity=".2" d="M1799.6 655.201c-19.3-105.8-52.2-167.5-103.3-194.3-45.5-23.9-99.7-17.1-157.1-9.9-55.6 7-113.1 14.2-167.4-6-61.5-22.8-109.4-78.5-146.2-170.1l1.5-.6c82 203.8 198.9 189.2 311.9 175.1 57.7-7.2 112.2-14 158.1 10 51.6 27.1 84.7 89.2 104.1 195.5l-1.6.3Z"/><path fill="#fff" fill-opacity=".2" d="M1831.5 658.6c-62.6-227.6-173.1-212.4-290-196.4-113.6 15.6-231.1 31.7-312.9-174.4l1.5-.6c81.3 204.9 198.2 188.9 311.2 173.4 59.4-8.1 115.5-15.8 166 7 57.1 25.8 97.1 86.4 125.8 190.6l-1.6.4Z"/><path fill="#fff" fill-opacity=".2" d="M1863.4 661.901c-37.2-100.4-85.1-160.8-146.6-184.8-54.8-21.4-115-12.4-173.2-3.8-56.8 8.4-115.5 17.1-169-2.4-59.9-21.8-106.8-77.6-143.1-170.5l1.5-.6c36.2 92.4 82.7 147.8 142.2 169.5 53.1 19.3 111.6 10.7 168.2 2.3 58.4-8.7 118.9-17.6 174 3.9 61.9 24.1 110.1 84.9 147.5 185.8l-1.5.6Z"/><path fill="#fff" fill-opacity=".2" d="M1895.3 665.3c-103.1-220-228.5-200.1-349.7-180.8-118.7 18.9-230.8 36.7-311.1-171.2l1.5-.6c79.9 206.7 191.3 189 309.3 170.2 60.2-9.6 122.4-19.5 182.2.7 67.5 22.8 122.9 82 169.2 180.9l-1.4.8Z"/><path fill="#fff" fill-opacity=".2" d="M1927.2 668.6c-123.4-216.4-259.6-193.3-379.8-172.9-60.5 10.3-117.7 20-170.2 1.1-59-21.2-103.4-75.5-139.7-170.7l1.5-.6c36.1 94.8 80.2 148.7 138.7 169.7 52.1 18.7 109.1 9.1 169.4-1.1 61.9-10.5 125.9-21.4 190.4-2.5 73.2 21.4 135.7 79 191 176.2l-1.3.8Z"/><path fill="#fff" fill-opacity=".2" d="M1959.1 672.001c-143.7-212.9-285.2-187.4-410.1-165-61.1 11-118.7 21.3-170.8 2.7-58.1-20.8-101.9-75-137.9-170.8l1.5-.6c78.2 208.1 184.2 189.1 306.8 167 125.3-22.5 267.4-48 411.7 165.7l-1.2 1Z"/><path fill="#fff" fill-opacity=".2" d="M1991 675.3c-164.1-209.4-310.9-181.6-440.5-157.1-61.5 11.6-119.7 22.6-171.2 4.3-57.1-20.4-100.3-74.6-136-170.8l1.5-.6c35.5 95.7 78.4 149.7 135 169.9 51.1 18.2 109 7.3 170.3-4.4 62.4-11.8 133.2-25.2 207.2-9 84.6 18.5 161.5 73.1 234.9 166.7l-1.2 1Z"/><path fill="#fff" fill-opacity=".2" d="M2022.9 678.7c-184.6-206-343.4-174.5-471-149.2-64.7 12.9-120.6 24-171.5 5.8-56.1-20-98.7-74.3-134-170.8l1.5-.6c76.5 209.1 176.7 189.2 303.7 164 64.2-12.7 136.9-27.2 215.6-12.4 90.5 17 174.5 70 256.9 162l-1.2 1.2Z"/><path fill="#fff" fill-opacity=".2" d="M2054.8 682c-205.1-202.7-369.6-168.6-501.8-141.1-65.1 13.5-121.4 25.2-171.7 7.3-55.1-19.6-97.1-73.9-132-170.9l1.5-.6c34.8 96.5 76.4 150.5 131 169.9 49.9 17.8 106 6.1 170.8-7.4 132.5-27.5 297.5-61.8 503.2 141.6l-1 1.2Z"/><path fill="#fff" fill-opacity=".2" d="M2086.7 685.3c-225.9-199.5-395.9-162.7-532.6-133.1-65.5 14.2-122.1 26.4-171.8 8.7-54.1-19.2-95.4-73.5-130-170.9l1.5-.5c74.6 209.9 169.1 189.4 300 161.1 67.7-14.6 144.3-31.2 232.7-19.2 102.2 13.9 200.8 63.8 301.4 152.7l-1.2 1.2ZM69.9 669.2l-.9-1.3c118.8-84.3 169-136.4 167.8-174.2-1-29.5-33.1-49.3-73.7-74.2-39.7-24.4-89.1-54.7-123.3-104.6-40-58.3-51.9-131.6-36.4-224.1L5 91c-34.9 208 77.1 276.8 158.9 327.1 41 25.2 73.5 45.1 74.5 75.5 1.2 38.5-49.2 91-168.5 175.6Z"/><path fill="#fff" fill-opacity=".2" d="m94.7 689.4-1-1.3c103.699-84.5 148.699-139.6 145.799-178.7-2.4-32.6-36.6-52.9-79.9-78.7-83.2-49.3-197.1-117-160.8-327.6l1.6.3c-36.2 209.5 77.2 276.9 160 326 43.7 25.9 78.2 46.4 80.7 79.9 2.9 39.8-42.2 95.3-146.4 180.1Z"/><path fill="#fff" fill-opacity=".2" d="m119.599 709.6-1.1-1.2c90.9-85.5 129.3-142 124.5-182.9-4.2-36.1-42.5-58.1-86.9-83.6-43.5-25-92.8-53.4-127.3-102.3-39.9-56.9-51.3-130.2-34.6-224.2l1.6.3c-37.4 210.8 77.3 276.8 161 324.9 44.7 25.7 83.3 47.9 87.7 84.8 5 41.5-33.6 98.3-124.9 184.2Z"/><path fill="#fff" fill-opacity=".2" d="m144.499 729.8-1.2-1.1c77.8-85.3 110.8-144.7 103.9-186.9-6.5-39.8-47.4-62.5-94.7-88.8-44.4-24.7-94.8-52.7-129.2-101.2-39.8-56.1-50.8-129.4-33.6-224.1l1.6.3c-38.6 212 72.6 273.9 162 323.6 47.7 26.5 88.9 49.4 95.5 90 7 42.7-26.2 102.5-104.3 188.2Z"/><path fill="#fff" fill-opacity=".2" d="M168.099 749c66.7-86.099 93.4-146.699 84-190.599-9.3-43.8-52.8-67.2-103.3-94.401-90.7-48.9-203.7-109.7-163.6-324l1.6.3c-39.8 213.1 72.5 273.6 162.8 322.3 50.8 27.4 94.7 51 104.1 95.5 9.4 44.4-17.4 105.4-84.3 192l-1.3-1.1Z"/><path fill="#fff" fill-opacity=".2" d="M192.899 769.3c56.3-86.9 76.9-148.7 64.9-194.3-12.6-47.9-59-72.1-112.8-100.2-46.2-24.1-98.6-51.5-133-99.1-39.5-54.5-49.7-127.6-31.3-223.5l1.6.3c-41 214 67.6 270.7 163.5 320.8 51.8 27.1 100.8 52.6 113.6 101.2 12.1 46.1-8.5 108.3-65.1 195.6l-1.4-.8Z"/><path fill="#fff" fill-opacity=".2" d="M217.599 789.6c46-86.6 61.1-151.4 46.3-198-16.5-52.1-68.2-78.3-123-106-97.2-49.2-207.4-105-165-321l1.6.3C-64.6 379.7 45 435.2 141.8 484.2c55 27.9 107.1 54.2 123.8 106.9 14.9 47.1-.3 112.3-46.5 199.3l-1.5-.8Z"/><path fill="#fff" fill-opacity=".2" d="M242.399 810c41.9-99 48.4-168.7 20.4-219.1-24.9-44.9-74-69-125.9-94.5-50.3-24.8-102.3-50.4-136.6-97-38.9-52.9-48.3-125.6-28.8-222.5l1.6.3c-43.4 215.4 62.3 267.3 164.6 317.6 52.2 25.6 101.5 49.8 126.6 95.2 28.3 50.9 21.8 121-20.3 220.5l-1.6-.5Z"/><path fill="#fff" fill-opacity=".2" d="M267.199 830.3c72.6-224.6-28-272.6-134.5-323.4-103.5-49.4-210.5-100.5-165.7-317.6l1.6.3C-76 405.5 30.5 456.3 133.4 505.4c54.1 25.8 105.2 50.2 134.9 97 33.6 52.9 33.7 125.5.5 228.4l-1.6-.5Z"/><path fill="#fff" fill-opacity=".2" d="M292.099 850.6c24.1-104.3 17.2-181.199-21-234.899-34-47.9-89.3-73.5-142.7-98.3-52.1-24.1-105.9-49.1-139.9-94.801-38.1-51.2-46.6-123.5-26-221.1l1.6.3c-20.5 97.1-12.1 169 25.7 219.7 33.7 45.5 87.3 70.301 139.2 94.401 53.6 24.8 109 50.5 143.3 98.8 38.5 54.2 45.4 131.4 21.3 236.2l-1.5-.301Z"/><path fill="#fff" fill-opacity=".2" d="M316.899 870.9c34.6-240.5-81.1-292.6-193-343.1-109.5-49.4-213-96-166-313.9l1.6.3c-46.7 216.6 56.1 263 165.1 312.1 55.5 25 113 50.9 151.9 100.7 43.9 56.1 57.7 136 42.1 244.2l-1.7-.3Z"/><path fill="#fff" fill-opacity=".2" d="M341.7 891.2c15.7-248.6-110.8-304.1-222.5-353.1C63 513.5 9.9 490.2-23.7 445.6c-37.7-50.1-45-119.8-23-219.4l1.6.3c-21.8 99-14.6 168.3 22.7 218 33.3 44.3 86.2 67.5 142.2 92.1 57.5 25.2 117 51.3 160.5 102.5 49.4 58.1 70 140.5 62.9 252.1h-1.5Z"/><path fill="#fff" fill-opacity=".2" d="M366.5 911.5c-3.2-256.799-135.4-313.299-252.1-363.099C57.4 524.001 3.5 501-29.8 456.9c-37.1-49.3-44-118.7-21.5-218.4l1.6.4C-98.5 455.7.4 498.001 115 546.901c117.1 50 249.9 106.699 253.1 364.599h-1.6Z"/><path fill="#fff" fill-opacity=".2" d="M391.3 931.8c-22.1-265.1-160.1-322.5-281.9-373.2-57.8-24-112.4-46.7-145.3-90.3-36.6-48.4-42.9-117.5-19.9-217.4l1.6.4c-22.9 99.4-16.7 168.1 19.6 216.1 32.7 43.3 87.1 65.9 144.7 89.9 58.7 24.4 125.2 52.1 178.1 106.2 60.6 62 94.8 149.7 104.7 268.3h-1.6Z"/><path fill="#fff" fill-opacity=".2" d="M416.2 952.1C375.1 678.6 225 617.7 104.4 568.8 43.3 544-9.5 522.6-42.1 479.5c-36-47.5-41.8-116.3-18.3-216.4l1.6.4C-109.7 480.3-15 518.7 105 567.3c60.6 24.6 129.4 52.4 187 108.1 66.3 63.9 107.4 154.3 125.8 276.5l-1.6.2Z"/><path fill="#fff" fill-opacity=".2" d="M441 972.4C380.9 690.3 224.7 628.6 99.1 578.9c-61.9-24.5-115.3-45.6-147.5-88.2C-83.7 444-89 375.6-64.9 275.4l1.6.4C-87.2 375.5-82 443.5-47.1 489.7c32 42.3 85.2 63.3 146.8 87.7C225.6 627.2 382.2 689.1 442.5 972l-1.5.4Z"/><path fill="#fff" fill-opacity=".2" d="M465.799 992.7c-79.2-290.7-241.6-353.4-372-403.7-62.5-24.1-116.6-45-148.4-87.1-34.7-45.8-39.4-113.8-14.9-214.1l1.6.4c-52.9 216.4 37.3 251.2 162.2 299.3 64.6 24.9 137.8 53.1 205 111.7 77.7 67.7 132.7 163.6 168 293.1l-1.5.4ZM1313.5-43.6c-.4.3-.7.5-1.1.8-.2-.4-.4-.7-.7-1-1.2-1.9-2.5-3.8-3.7-5.6-.3-.4-.5-.7-.8-1.1-1.2-1.8-2.4-3.6-3.7-5.3-.3-.4-.6-.8-.8-1.2-1.3-1.8-2.6-3.6-3.9-5.3-.2-.3-.5-.6-.7-.9-1.3-1.7-2.6-3.3-3.9-4.9-.3-.4-.6-.7-.9-1.1-1.3-1.5-2.5-3-3.8-4.4-.4-.4-.7-.8-1.1-1.2-1.4-1.5-2.7-2.9-4.1-4.3l-.9-.9c-1.4-1.4-2.7-2.7-4.1-3.9-.4-.3-.7-.6-1.1-1-1.4-1.3-2.9-2.4-4.3-3.6l-1.2-.9c-1.4-1.1-2.8-2.1-4.2-3-.5-.3-1-.6-1.4-.9-1.4-.9-2.8-1.7-4.2-2.5-.6-.3-1.2-.7-1.8-1-1.4-.7-2.8-1.4-4.3-2-.8-.3-1.6-.6-2.3-.9-1.3-.5-2.5-.9-3.8-1.3-.5-.2-1-.3-1.5-.4-1.1-.3-2.3-.6-3.4-.8-1.4-.3-2.8-.5-4.1-.6-1.5-.2-2.9-.3-4.3-.3-1.7-.1-3.5 0-5.2.1-.7 0-1.5.1-2.2.2-2.1.2-4.2.5-6.3 1-.5.1-1 .2-1.6.3-22.6 5.2-45.4 22.3-70.7 41.3-33.3 24.9-70.9 53.2-118.7 62.8C977.499 13.7 919.099-2.6 854.199-47l.7-1.1C1000.4 51.4 1083.6-11.1 1150.6-61.2c25.1-18.8 47.8-35.8 70.3-41.3.5-.1 1.1-.3 1.6-.4 1.8-.4 3.7-.7 5.5-1 .7-.1 1.5-.2 2.2-.3.9-.1 1.8-.2 2.8-.2 1.5-.1 3.1-.1 4.6 0 4 .1 8 .7 12 1.8.5.1.9.3 1.4.4 1.6.5 3.1 1 4.6 1.6.6.2 1.1.4 1.7.7.8.3 1.5.7 2.3 1 1.2.5 2.4 1.1 3.6 1.8.6.3 1.2.6 1.8 1 1.3.7 2.6 1.6 3.9 2.4.5.3 1 .6 1.4 1 1.3.9 2.7 1.9 4 3l1.2.9c1.4 1.1 2.8 2.3 4.2 3.5.4.3.7.6 1.1 1 1.3 1.2 2.7 2.5 4 3.9l.9.9c1.3 1.4 2.7 2.8 4 4.2.4.4.7.8 1.1 1.2 1.3 1.4 2.5 2.9 3.8 4.4.3.4.6.7.9 1.1 1.3 1.6 2.6 3.2 3.9 4.9.2.3.5.6.7.9 1.3 1.7 2.6 3.4 3.9 5.2.3.4.6.8.8 1.2 1.2 1.7 2.4 3.4 3.6 5.2.3.4.5.7.8 1.1 1.2 1.8 2.4 3.7 3.7 5.6.1.2.4.6.6.9Z"/><path fill="#fff" fill-opacity=".2" d="M1327.6-53.9c-.4.2-.7.5-1.1.8-.3-.3-.5-.6-.8-.9-1.4-1.7-2.7-3.3-4.1-4.8-.3-.3-.6-.7-.9-1-1.3-1.5-2.7-3-4-4.5-.3-.4-.7-.7-1-1.1-1.5-1.6-2.9-3.1-4.3-4.5l-.8-.8c-1.4-1.4-2.9-2.8-4.3-4.1-.4-.3-.7-.7-1.1-1-1.4-1.2-2.8-2.4-4.1-3.6-.5-.4-.9-.7-1.4-1.1-1.5-1.2-3-2.4-4.5-3.5l-1.2-.9c-1.5-1.1-3-2.1-4.4-3.1-.5-.3-.9-.6-1.4-.9-1.5-1-3.1-1.9-4.6-2.7-.5-.3-1.1-.6-1.6-.9-1.5-.8-3-1.5-4.4-2.2-.7-.3-1.4-.6-2-.9-1.4-.6-2.8-1.1-4.2-1.6-1-.3-1.9-.7-2.9-.9-1.3-.4-2.5-.7-3.8-1-.5-.1-1-.2-1.5-.4-1.3-.3-2.5-.5-3.8-.7-1.3-.2-2.6-.4-3.9-.5-1.6-.1-3.2-.2-4.8-.2-1.7 0-3.4 0-5.2.1-.8.1-1.6.1-2.4.2-2.1.2-4.3.6-6.4 1-.6.1-1.1.2-1.7.4-2.4.5-4.8 1.2-7.2 2-.4.1-.9.3-1.3.4-22.2 7.5-44.2 24.4-68.3 43-66.7 51.5-149.8 115.6-296.501 14.2l.8-1.1C1008.3 60.1 1091-3.7 1157.4-54.9c24-18.5 45.9-35.4 68.1-43.1.5-.2.9-.3 1.3-.4 2.2-.7 4.5-1.4 6.7-1.9.6-.1 1.1-.3 1.7-.4 1.8-.4 3.7-.7 5.5-1 .8-.1 1.7-.2 2.5-.3.8-.1 1.6-.2 2.4-.2 1.7-.1 3.4-.2 5.1-.1 4.1.1 8.3.5 12.6 1.4.5.1 1.1.2 1.6.4 1.7.4 3.4.9 5.1 1.4.5.2.9.3 1.4.5.9.3 1.9.7 2.8 1 1.1.4 2.3.9 3.4 1.5.7.3 1.3.6 2 .9 1.3.6 2.7 1.3 4 2.1.5.3 1 .6 1.6.9 1.5.8 2.9 1.7 4.4 2.7.5.3.9.6 1.4.9 1.4.9 2.9 2 4.3 3l1.2.9c1.5 1.1 2.9 2.2 4.4 3.5.5.4.9.7 1.4 1.1 1.4 1.1 2.7 2.3 4.1 3.6.4.3.7.6 1.1 1 1.4 1.3 2.8 2.7 4.2 4.1l.8.8c1.4 1.4 2.9 2.9 4.3 4.5.3.4.7.7 1 1.1 1.3 1.4 2.7 2.9 4 4.5.3.3.6.7.9 1 1.4 1.6 2.7 3.2 4.1 4.8.3.2.6.5.8.8Z"/><path fill="#fff" fill-opacity=".2" d="M1341.3-63c-.4.2-.7.5-1.1.7-.3-.3-.6-.6-.9-.8-1.5-1.4-3-2.8-4.4-4.1-.4-.3-.7-.6-1.1-.9-1.5-1.3-2.9-2.5-4.4-3.8-.4-.4-.8-.7-1.3-1-1.6-1.3-3.2-2.6-4.8-3.8-.3-.3-.7-.5-1-.7-1.5-1.2-3.1-2.3-4.6-3.3-.4-.3-.9-.6-1.3-.9-1.5-1-2.9-1.9-4.3-2.8-.6-.4-1.2-.7-1.7-1-1.6-1-3.2-1.9-4.8-2.7-.5-.3-1-.5-1.5-.8-1.6-.8-3.1-1.6-4.7-2.3-.6-.3-1.2-.6-1.8-.8-1.6-.7-3.2-1.3-4.8-1.9-.7-.3-1.5-.5-2.2-.8-1.4-.5-2.9-.9-4.3-1.3l-3.3-.9c-1.2-.3-2.4-.6-3.6-.8-.6-.1-1.3-.2-1.9-.3-1.4-.2-2.9-.4-4.3-.6-1-.1-2-.2-3.1-.3-1.8-.1-3.6-.2-5.4-.1-1.7 0-3.5.1-5.2.2l-2.7.3c-2.1.2-4.2.6-6.3 1-.6.1-1.2.2-1.8.4-2.5.5-4.9 1.2-7.3 1.9-.5.2-.9.3-1.4.5-2.7.9-5.3 1.8-7.9 2.9-.4.2-.8.3-1.2.5-21.7 9.3-42.8 26-65.7 44.2-33.4 26.5-71.3 56.5-118.3 66.3C993 30.3 935 13.6 869.5-32.1l.8-1.1c146.1 102 224.7 39.7 294.1-15.2 22.2-17.6 43.6-34.5 65.8-44.1.4-.2.8-.3 1.2-.5 2.6-1.1 5.1-2 7.7-2.9.5-.2.9-.3 1.4-.5 2.3-.7 4.6-1.4 6.9-1.9.6-.2 1.2-.3 1.8-.4 1.8-.4 3.6-.7 5.4-1 .9-.1 1.8-.3 2.7-.4.7-.1 1.5-.1 2.2-.2 1.9-.2 3.8-.2 5.7-.2 4.2 0 8.4.3 12.6 1l1.8.3c2 .4 4 .8 5.9 1.4.3.1.6.2.9.2 1.1.3 2.1.6 3.2 1s2.3.8 3.4 1.2c.7.3 1.4.5 2.2.8 1.4.6 2.9 1.2 4.3 1.8.6.3 1.2.6 1.8.8 1.5.7 2.9 1.5 4.4 2.2.5.3 1 .5 1.5.8 1.5.8 3.1 1.7 4.6 2.7.6.4 1.1.7 1.7 1.1 1.4.9 2.8 1.8 4.2 2.8.4.3.9.6 1.3.9 1.5 1 3 2.1 4.5 3.3.3.2.6.5 1 .7 1.6 1.2 3.1 2.4 4.7 3.7.4.3.8.7 1.3 1 1.4 1.2 2.9 2.4 4.3 3.7.3.3.7.6 1 .9 1.5 1.3 2.9 2.7 4.4 4.1l1.1 1.1Z"/><path fill="#fff" fill-opacity=".2" d="M1354.3-71c-.4.2-.8.5-1.2.7-.3-.3-.7-.5-1-.7-1.6-1.2-3.2-2.3-4.8-3.4l-1.2-.9c-1.6-1.1-3.1-2.1-4.6-3-.5-.3-1-.6-1.5-1-1.7-1.1-3.4-2.1-5.1-3.1-.4-.2-.8-.4-1.2-.7-1.6-.9-3.3-1.8-4.9-2.6-.5-.3-1.1-.6-1.6-.8-1.5-.7-3-1.5-4.4-2.1-.7-.3-1.5-.7-2.2-1-1.7-.7-3.3-1.4-5-2-.6-.3-1.3-.5-1.9-.7-1.6-.6-3.1-1.1-4.7-1.6-.9-.3-1.7-.5-2.6-.7-1.5-.4-3.1-.8-4.6-1.1-1.1-.3-2.3-.5-3.4-.7-1.2-.2-2.4-.4-3.5-.6-.9-.1-1.7-.2-2.6-.3-1.5-.2-3-.3-4.5-.4-.7 0-1.3-.1-2-.1-2-.1-4.1-.1-6.1 0l-5.1.3-3 .3c-2.2.3-4.3.6-6.5 1-.7.1-1.3.3-2 .4-2.4.5-4.8 1.1-7.2 1.9-.5.2-1 .3-1.5.5-2.7.8-5.4 1.8-8.1 2.9-.4.2-.9.3-1.3.5-2.9 1.2-5.8 2.5-8.7 3.9-.4.2-.8.4-1.1.6-21.4 10.8-41.9 27.5-63.1 44.7-69.2 56.2-147.5 119.9-294.702 16.2l.8-1.1C1024.5 77.4 1102.5 14 1171.3-41.9c21.2-17.2 41.7-33.9 63.2-44.8l1.2-.6c2.8-1.4 5.6-2.7 8.5-3.9.4-.2.9-.4 1.3-.5 2.6-1 5.2-2 7.8-2.8.5-.2 1-.3 1.5-.5 2.2-.7 4.5-1.3 6.7-1.8.7-.2 1.3-.3 2-.4 1.8-.4 3.6-.7 5.4-1 1-.2 2-.3 3-.4.6-.1 1.1-.1 1.7-.2 2.1-.2 4.2-.4 6.3-.4 4.1-.1 8.3 0 12.5.5.8.1 1.7.2 2.5.3 2.2.3 4.4.7 6.7 1.2.2 0 .3.1.5.1 1.1.2 2.2.5 3.3.8 1.2.3 2.4.6 3.6 1 .8.3 1.7.5 2.6.8 1.4.5 2.8.9 4.2 1.5.6.2 1.3.5 1.9.7 1.6.6 3.1 1.3 4.7 1.9.7.3 1.5.7 2.2 1 1.4.6 2.8 1.3 4.3 2.1.5.3 1.1.6 1.6.8 1.6.8 3.1 1.7 4.7 2.6.4.2.8.5 1.2.7 1.7 1 3.3 2 5 3 .5.3 1 .6 1.5 1l4.5 3c.4.3.8.6 1.3.9 1.6 1.1 3.2 2.2 4.7 3.4.2.4.5.7.9.9Z"/><path fill="#fff" fill-opacity=".2" d="M1367.3-78.2c-.5.2-.9.5-1.4.7-.4-.2-.8-.5-1.2-.7-1.7-1-3.4-1.9-5.1-2.8-.5-.3-1-.5-1.5-.8l-4.8-2.4c-.6-.3-1.3-.6-1.9-.9l-5.4-2.4c-.5-.2-1-.4-1.4-.6-1.7-.7-3.4-1.3-5-1.9-.7-.3-1.4-.5-2-.7-1.5-.5-2.9-1-4.4-1.4l-3-.9c-1.7-.5-3.3-.9-5-1.3-.9-.2-1.8-.4-2.8-.6-1.5-.3-2.9-.6-4.4-.8-1.4-.2-2.8-.4-4.1-.6-1.3-.2-2.6-.3-3.9-.4-2.5-.2-5-.4-7.5-.4h-1.1c-2.3 0-4.5 0-6.8.1-1.2.1-2.4.1-3.5.2-.5 0-1 .1-1.4.1-1.1.1-2.2.2-3.3.4-2.2.3-4.4.6-6.5 1.1-.7.1-1.4.3-2.2.4-2.5.6-5 1.2-7.4 1.9-.6.2-1.1.3-1.6.5-2.7.8-5.4 1.8-8 2.8-.5.2-.9.4-1.3.5-3 1.2-5.9 2.5-8.9 3.9l-1.2.6c-3.1 1.5-6.3 3.2-9.3 4.9-.4.2-.7.4-1.1.6-20.5 11.8-40.1 28-60.2 44.8-35.2 29.3-71.6 59.7-117.9 69.7-52.4 11.4-109.9-5.8-175.7-52.6l.8-1.1c146.4 104.2 220.4 42.5 292-17.1 20.2-16.8 39.8-33.2 60.4-45 .4-.2.7-.4 1.1-.6 3-1.7 6.1-3.3 9.2-4.8l1.2-.6c2.8-1.4 5.7-2.6 8.6-3.8.5-.2.9-.4 1.4-.5 2.5-1 5.1-1.9 7.7-2.7.5-.2 1.1-.3 1.6-.5 2.3-.7 4.5-1.3 6.8-1.8.7-.2 1.5-.3 2.2-.5 1.7-.4 3.5-.7 5.3-1 1.1-.2 2.2-.4 3.4-.5.4-.1.7-.1 1.1-.1 1.1-.1 2.3-.3 3.4-.4 1.3-.1 2.5-.2 3.8-.3 5.2-.3 10.4-.1 15.7.4 2.4.2 4.8.5 7.2.9.1 0 .3 0 .4.1 1.4.2 2.7.5 4.1.8 1.1.2 2.1.5 3.2.7.9.2 1.8.4 2.7.7 1.5.4 3 .8 4.4 1.2 1 .3 2 .6 2.9.9 1.4.4 2.7.9 4.1 1.4.7.2 1.4.5 2 .7 1.6.6 3.2 1.2 4.8 1.9.5.2 1 .4 1.4.6 1.8.7 3.5 1.5 5.3 2.4.6.3 1.3.6 1.9.9 1.6.7 3.1 1.5 4.7 2.3.5.3 1 .5 1.5.8 1.7.9 3.3 1.8 5 2.8.1.3.5.5.9.8Z"/><path fill="#fff" fill-opacity=".2" d="M1379.9-84.6c-.6.3-1.1.5-1.7.8-.5-.2-.9-.4-1.4-.6-1.8-.7-3.6-1.5-5.3-2.1-.6-.2-1.2-.5-1.8-.7-1.6-.6-3.3-1.2-4.9-1.8-.8-.3-1.6-.5-2.3-.8-1.9-.6-3.8-1.2-5.6-1.7-.6-.2-1.2-.3-1.8-.5-1.7-.5-3.3-.9-5-1.3l-2.7-.6c-1.3-.3-2.6-.6-3.9-.8-1.4-.3-2.8-.5-4.2-.7-1.6-.2-3.1-.5-4.6-.6-1.4-.2-2.9-.3-4.3-.5-.9-.1-1.8-.2-2.8-.2-3.1-.2-6.1-.3-9-.3h-.9c-2.6 0-5.1.2-7.6.4-1.6.1-3.2.3-4.8.5-1.2.1-2.4.3-3.6.5-2.1.3-4.2.7-6.4 1.1-.8.2-1.6.3-2.4.5-2.5.6-5 1.2-7.4 1.9-.6.2-1.2.3-1.8.5-2.8.8-5.5 1.8-8.2 2.8-.5.2-1 .4-1.4.6-2.9 1.1-5.8 2.3-8.7 3.7l-1.2.6c-3.2 1.5-6.4 3.1-9.5 4.8-.4.2-.8.4-1.1.6-3.4 1.9-6.7 3.8-10 5.9-.4.2-.7.5-1.1.7-19.7 12.5-38.4 28.4-57.3 44.6-71.4 60.8-145.2 123.8-292.401 18l.8-1.1C1040 94.8 1113.4 32.2 1184.4-28.3c19.2-16.4 37.9-32.3 57.6-44.8.4-.2.7-.5 1.1-.7 3.2-2 6.5-4 9.8-5.8.4-.2.8-.4 1.1-.6 3.1-1.7 6.2-3.3 9.3-4.7.4-.2.8-.4 1.3-.6 2.8-1.3 5.6-2.5 8.4-3.6.5-.2 1-.4 1.4-.5 2.6-1 5.2-1.9 7.8-2.7.6-.2 1.2-.4 1.8-.5 2.2-.7 4.5-1.3 6.8-1.8l2.4-.6c1.7-.4 3.4-.7 5.1-1 1.1-.2 2.3-.4 3.4-.6h.3c.2 0 .4-.1.6-.1 2.6-.4 5.3-.7 7.9-.8 5.5-.4 11.1-.4 16.7-.1 2.6.1 5.2.4 7.7.7.4 0 .7.1 1.1.1 1.1.1 2.1.3 3.2.4 1.1.2 2.2.4 3.4.6 1.4.2 2.8.5 4.2.8 1.1.2 2.2.5 3.3.7l2.7.6c1.5.4 3.1.8 4.6 1.3.6.2 1.2.3 1.8.5 1.8.5 3.6 1.1 5.4 1.7.8.3 1.5.5 2.3.8 1.6.6 3.1 1.1 4.7 1.7.6.2 1.2.5 1.8.7 1.7.7 3.4 1.4 5.2 2.1.4.1.9.3 1.3.5Z"/><path fill="#fff" fill-opacity=".2" d="M1391.9-90.1c-.6.3-1.2.6-1.9.8-.5-.2-1.1-.3-1.6-.5-1.8-.5-3.7-1.1-5.5-1.5-.7-.2-1.5-.4-2.2-.6-1.6-.4-3.3-.8-4.9-1.2-1-.2-2-.4-2.9-.6-2-.4-3.9-.8-5.8-1.1-.8-.1-1.6-.3-2.4-.4-1.6-.3-3.2-.5-4.8-.7-1.3-.2-2.5-.3-3.8-.4l-3-.3c-2.2-.2-4.4-.3-6.6-.4-1.3-.1-2.5-.1-3.8-.1h-6.8c-.8 0-1.5 0-2.3.1-2 .1-4.1.2-6.1.4-1.8.1-3.6.3-5.4.6-1.4.2-2.8.4-4.1.6-1.9.3-3.8.6-5.7 1-.3.1-.6.1-1 .2-.9.2-1.7.4-2.6.6-2.5.6-5 1.2-7.4 1.9-.6.2-1.3.4-1.9.6-2.8.8-5.5 1.8-8.3 2.7l-1.5.6c-3 1.1-6 2.3-8.9 3.6-.4.2-.9.4-1.3.6-3.2 1.4-6.3 3-9.4 4.6l-1.2.6c-3.4 1.8-6.8 3.8-10.2 5.8-.4.2-.7.4-1.1.7-3.6 2.2-7.2 4.5-10.7 6.9-.4.2-.7.5-1.1.7-19.1 13-36.9 28.6-54.4 43.9-35.4 30.8-72 62.7-117.4 72.9-50.9 11.4-107.7-6.3-173.8-54.2l.8-1.1c65.7 47.7 122.2 65.3 172.7 54 45.1-10.1 81.5-41.9 116.8-72.6 17.6-15.4 35.6-31 54.8-44.1.4-.3.7-.5 1.1-.7 3.5-2.4 7-4.6 10.5-6.8.4-.2.7-.4 1.1-.7 3.3-2 6.6-3.9 10-5.7l1.2-.6c3-1.6 6.1-3.1 9.1-4.5.4-.2.9-.4 1.3-.6 2.8-1.3 5.7-2.5 8.6-3.6l1.5-.6c2.6-.9 5.2-1.8 7.8-2.6.6-.2 1.3-.4 2-.6l6.6-1.8c.9-.2 1.8-.4 2.6-.6 1.1-.2 2.2-.5 3.3-.7l1.8-.3c1.4-.3 2.8-.5 4.2-.7.2 0 .3-.1.5-.1 2.8-.4 5.7-.8 8.6-1 5.4-.5 10.8-.7 16.3-.5 2.7.1 5.4.2 8.2.4h.4c2 .2 4 .4 6.1.6.5.1 1 .1 1.6.2 1.2.2 2.5.3 3.7.5 1.4.2 2.8.4 4.1.7.8.1 1.6.3 2.4.4 1.8.3 3.6.7 5.4 1.1 1 .2 2 .4 3 .7 1.5.4 3.1.7 4.6 1.2.7.2 1.5.4 2.2.6 1.8.5 3.5 1 5.3 1.5.5-.2 1.1 0 1.6.2Z"/><path fill="#fff" fill-opacity=".2" d="M1404-95.2c-.7.3-1.3.5-2 .8-.7-.1-1.3-.3-2-.4-1.8-.4-3.7-.7-5.5-1-.9-.2-1.9-.3-2.8-.4-1.6-.2-3.1-.5-4.6-.7-1.3-.2-2.6-.3-3.9-.5-1.9-.2-3.8-.4-5.7-.5-1.1-.1-2.2-.2-3.3-.2-1.3-.1-2.7-.2-4-.2-1.8-.1-3.6-.1-5.3-.1h-.6c-4.2 0-8.4.1-12.5.4-.3 0-.6 0-.9.1-2.9.2-5.7.5-8.4.8-1.2.1-2.4.3-3.6.5-1.5.2-3 .5-4.4.7-2.2.4-4.4.8-6.6 1.3-1 .2-1.9.4-2.9.6-2.6.6-5.1 1.3-7.7 2l-2.1.6c-2.8.8-5.5 1.7-8.1 2.7-.6.2-1.1.4-1.7.6-3 1.1-6 2.3-9 3.5-.5.2-.9.4-1.4.6-3.2 1.4-6.4 2.9-9.6 4.5l-1.2.6c-3.4 1.7-6.7 3.5-10 5.4-.4.2-.8.4-1.1.7-3.7 2.1-7.3 4.4-10.8 6.7-.4.2-.7.5-1.1.7-3.8 2.5-7.6 5.1-11.3 7.8-.4.3-.7.5-1.1.8-17.9 13.1-34.7 28.1-51.4 43-73.1 65.2-142.4 127-289.502 19.2l.8-1.1C1054.9 111.4 1123.8 50 1196.8-15c16.7-14.9 33.6-30 51.8-43.2.4-.3.7-.5 1.1-.8 3.7-2.7 7.4-5.3 11.2-7.7.4-.2.7-.5 1.1-.7 3.5-2.3 7.1-4.5 10.7-6.6.4-.2.7-.4 1.1-.6 3.2-1.9 6.5-3.6 9.8-5.3l1.2-.6c3.1-1.6 6.2-3 9.4-4.4.5-.2.9-.4 1.4-.6 2.8-1.2 5.7-2.4 8.6-3.5.6-.2 1.1-.4 1.7-.6 2.5-.9 5.1-1.8 7.7-2.6l2.1-.6c2.3-.7 4.5-1.3 6.8-1.9h.2c.9-.2 1.8-.5 2.8-.7 1.7-.4 3.3-.7 5-1.1l3.3-.6c.4-.1.8-.1 1.2-.2 2.8-.5 5.7-.9 8.6-1.2 5.8-.7 11.6-1 17.6-1.1 2.8 0 5.6 0 8.5.1 1.5.1 3 .1 4.6.2.4 0 .9.1 1.3.1.9.1 1.7.1 2.6.2 1.1.1 2.1.2 3.2.3 1.7.2 3.3.4 5 .6 1.3.2 2.5.3 3.8.5l4.2.6c.9.2 1.8.3 2.8.5 1.7.3 3.5.6 5.2 1 .3 0 1 .2 1.6.3Z"/><path fill="#fff" fill-opacity=".2" d="M1416.1-99.7c-1.1.4-2.2.8-3.2 1.2-.8-.1-1.7-.2-2.5-.2-1.9-.2-3.7-.3-5.5-.5-1.2-.1-2.5-.2-3.7-.2-1.4-.1-2.8-.1-4.2-.2-1.8-.1-3.7-.1-5.5-.1h-5.9c-1.8 0-3.5.1-5.3.2-1.2 0-2.3.1-3.5.2-1 .1-1.9.1-2.9.2-3 .2-6 .5-8.9.9-.5 0-.9.1-1.4.2-1.9.2-3.8.5-5.7.8-1.7.3-3.3.5-5 .8-2.2.4-4.3.8-6.5 1.3-1.1.2-2.1.5-3.2.7-2.7.6-5.4 1.3-8 2-.8.2-1.5.4-2.3.7-3 .9-5.9 1.8-8.8 2.8l-1.8.6c-3 1.1-6 2.2-9 3.4l-1.5.6c-3.3 1.4-6.6 2.8-9.8 4.4-.4.2-.9.4-1.3.6-3.5 1.7-6.9 3.5-10.3 5.3l-1.2.6c-3.6 2-7.2 4.1-10.7 6.3-.4.2-.7.5-1.1.7-3.9 2.4-7.7 5-11.5 7.6-.4.2-.7.5-1.1.7-4.1 2.8-8 5.8-12 8.8-.4.3-.7.6-1.1.8-17.1 13.2-33 27.6-48.4 41.6-37.2 33.8-72.2 65.7-116.7 75.8-50 11.4-104.5-6.3-171.5-55.9l.8-1.1c66.7 49.3 120.8 67 170.4 55.7C1131 57.5 1165.9 25.7 1203-8c15.8-14.3 31.7-28.8 48.8-42 .4-.3.7-.6 1.1-.8 3.9-3 7.8-5.9 11.8-8.7.4-.2.7-.5 1.1-.7 3.7-2.6 7.5-5.1 11.3-7.5.4-.2.7-.5 1.1-.7 3.4-2.1 6.9-4.2 10.4-6.2.4-.2.8-.5 1.2-.7 3.3-1.8 6.6-3.6 10-5.3.4-.2.9-.4 1.3-.6 3.1-1.5 6.2-2.9 9.4-4.3l1.5-.6c2.8-1.2 5.6-2.3 8.5-3.3.6-.2 1.2-.4 1.8-.7 2.6-.9 5.3-1.8 8-2.7.8-.2 1.6-.5 2.4-.7.2 0 .3-.1.5-.1 2.1-.6 4.2-1.2 6.3-1.7 1.1-.3 2.1-.5 3.2-.8 1.3-.3 2.7-.6 4-.9 1.5-.3 3.1-.6 4.6-.9.2 0 .3-.1.5-.1 3.1-.6 6.2-1.1 9.4-1.5 5.9-.8 11.9-1.3 17.9-1.6 3-.1 6-.2 9.1-.2h5c1.2 0 2.5.1 3.7.1 1.8.1 3.5.2 5.3.3 1.1.1 2.1.1 3.2.2l3.6.3c1.6.1 3.2.3 4.9.5.6 0 1.4.1 2.2.2Z"/><path fill="#fff" fill-opacity=".2" d="M1428.4-103.8c-1.3.4-2.5.8-3.8 1.2-1.1 0-2.2-.1-3.2-.1-1.7 0-3.3-.1-5-.1-1.7 0-3.4 0-5.1.1-.9 0-1.8 0-2.7.1-2.8.1-5.6.2-8.4.4-1.6.1-3.2.2-4.8.4-1.5.1-3 .3-4.5.4-2.2.2-4.3.5-6.4.8-2.6.3-5.1.7-7.6 1.1-.5.1-1.1.2-1.6.3-1.6.3-3.3.6-4.9.9-2.4.5-4.8 1-7.1 1.5-1.2.3-2.3.6-3.5.8-2.4.6-4.8 1.2-7.2 1.9-.9.2-1.7.5-2.6.8-2.9.9-5.7 1.8-8.5 2.8-.7.2-1.3.5-2 .7-3.2 1.1-6.3 2.3-9.3 3.5-.5.2-1.1.4-1.6.7-3.2 1.3-6.4 2.7-9.5 4.2-.5.2-.9.4-1.4.6-3.5 1.7-6.9 3.4-10.3 5.2-.4.2-.8.4-1.2.7-3.7 2-7.3 4-10.8 6.2-.4.2-.8.5-1.1.7-3.8 2.3-7.5 4.7-11.2 7.2-.4.2-.7.5-1.1.7-4.1 2.8-8.1 5.6-12 8.5-.4.3-.7.5-1.1.8-4.3 3.2-8.5 6.5-12.6 9.8-.4.3-.7.6-1.1.9-15.9 12.9-30.8 26.7-45.3 40.2-37.2 34.5-72.3 67.1-116.4 77.2-49.2 11.3-103.301-6.7-170.301-56.8l.8-1.1C1069.7 128.2 1134.2 68.3 1209-1c14.7-13.6 29.7-27.5 45.8-40.6.4-.3.7-.6 1.1-.9 4.1-3.3 8.2-6.5 12.4-9.7.4-.3.7-.5 1.1-.8 3.9-2.9 7.9-5.7 11.9-8.5.4-.2.7-.5 1.1-.7 3.6-2.4 7.3-4.8 11.1-7.1.4-.2.7-.5 1.1-.7 3.5-2.1 7-4.1 10.6-6.1.4-.2.8-.4 1.2-.7 3.3-1.8 6.6-3.5 10-5.1.5-.2.9-.4 1.4-.7 3-1.4 6.1-2.8 9.2-4.1.5-.2 1.1-.5 1.6-.7 2.9-1.2 5.9-2.4 8.9-3.4.7-.3 1.3-.5 2-.7 2.6-.9 5.2-1.8 7.9-2.6.9-.3 1.7-.5 2.6-.8 2-.6 4-1.2 6.1-1.7l3.6-.9c1.4-.4 2.7-.7 4.1-1 .3-.1.5-.1.8-.2 1.6-.4 3.3-.7 5-1.1 3.1-.6 6.3-1.2 9.5-1.7 6.3-1 12.8-1.8 19.5-2.2 3-.2 6-.4 9-.5h1.4c2.2-.1 4.4-.1 6.7-.1h.7c1.6 0 3.3 0 5 .1 1.3 0 2.6.1 4 .1.8.2 1.9.2 3 .3Z"/><path fill="#fff" fill-opacity=".2" d="M1440.6-107.5c-1.4.4-2.9.8-4.3 1.2-1.5 0-3 .1-4.5.2-1.2 0-2.3.1-3.5.2-1.9.1-3.8.2-5.6.4-.7.1-1.5.1-2.2.2-4 .3-7.9.8-11.7 1.3-1.1.1-2.1.3-3.2.5-3.4.5-6.8 1.1-10.2 1.7-.8.1-1.7.3-2.5.5-2.5.5-4.9 1-7.4 1.6-1.5.3-3 .7-4.5 1.1-1.1.3-2.3.6-3.4.9-2.7.7-5.3 1.4-7.9 2.2-.9.3-1.9.6-2.8.8-2.7.8-5.3 1.7-7.9 2.6-.7.3-1.5.5-2.2.8-3.1 1.1-6.1 2.3-9.1 3.5-.6.2-1.2.5-1.7.7-3.3 1.4-6.6 2.8-9.9 4.3-.5.2-1 .5-1.5.7-3.4 1.6-6.8 3.2-10.1 5-.4.2-.8.4-1.3.7-3.7 1.9-7.3 3.9-10.8 6-.4.2-.8.4-1.2.7-3.9 2.3-7.7 4.6-11.4 7-.4.2-.7.5-1.1.7-4 2.6-7.9 5.3-11.8 8.1-.4.3-.7.5-1.1.8-4.3 3.1-8.5 6.3-12.6 9.5-.4.3-.7.6-1.1.8-4.5 3.5-8.9 7.1-13.2 10.8-.4.3-.7.6-1.1.9-14.8 12.6-28.7 25.7-42.2 38.5-37.2 35.2-72.4 68.4-116 78.5-48.3 11.2-102-7.1-169-57.6l.8-1.1c66.6 50.2 120 68.5 167.9 57.4 43.2-10 78.3-43.1 115.4-78.1 13.5-12.7 27.6-26 42.7-38.9.4-.3.7-.6 1.1-.9 4.3-3.6 8.6-7.2 13.1-10.6.4-.3.7-.6 1.1-.8 4.1-3.2 8.2-6.3 12.5-9.4.4-.3.7-.5 1.1-.8 3.8-2.7 7.7-5.4 11.7-8 .4-.2.7-.5 1.1-.7 3.7-2.4 7.4-4.7 11.2-7 .4-.2.8-.5 1.2-.7 3.5-2 7-4 10.7-5.9.4-.2.9-.5 1.3-.7 3.2-1.7 6.5-3.3 9.9-4.9.5-.2 1-.5 1.5-.7 3.2-1.5 6.4-2.9 9.6-4.2.6-.3 1.2-.5 1.7-.7 2.4-1 4.9-1.9 7.3-2.9.5-.2.9-.3 1.4-.5.7-.3 1.5-.5 2.2-.8 2.4-.9 4.9-1.7 7.4-2.5.9-.3 1.9-.6 2.8-.9 2.3-.7 4.6-1.4 6.9-2 1.1-.3 2.3-.6 3.5-.9.8-.2 1.7-.4 2.5-.6 1.4-.4 2.7-.7 4.1-1 1.2-.3 2.4-.5 3.5-.8 3.4-.7 6.9-1.4 10.4-2 6.2-1.1 12.5-1.9 19-2.6 3-.3 6.1-.6 9.2-.8 2.4-.2 4.9-.3 7.3-.4h.5c.6 0 1.2-.1 1.7-.1 1.7-.2 3.2-.2 4.7-.3Z"/><path fill="#fff" fill-opacity=".2" d="M1454.1-111c-3.2.8-6.3 1.6-9.4 2.4-2.4.3-4.8.5-7.2.8-.9.1-1.7.2-2.6.3-.4.1-.7.1-1.1.2-3.8.5-7.5 1.1-11.1 1.8l-4.8.9h-.1c-.8.2-1.6.3-2.4.5l-6.9 1.5c-2.2.5-4.5 1-6.7 1.6-1.7.4-3.3.9-5 1.3-2.4.6-4.7 1.3-7.1 2-.9.3-1.8.5-2.7.8-3.1.9-6.1 1.9-9.1 3-.8.3-1.6.6-2.4.8l-9 3.3c-.6.3-1.3.5-1.9.8-3.4 1.3-6.7 2.8-9.9 4.2-.5.2-1 .5-1.6.7-3.6 1.6-7.2 3.3-10.7 5.1-.5.2-.9.5-1.4.7-3.6 1.8-7.2 3.8-10.7 5.7-.4.2-.8.5-1.2.7-3.9 2.2-7.7 4.5-11.5 6.8-.4.2-.7.5-1.1.7-4.1 2.5-8.1 5.2-12 7.8-.4.2-.7.5-1.1.7-4.2 2.9-8.4 5.9-12.4 8.9-.4.3-.7.5-1.1.8-4.5 3.4-8.9 6.8-13.2 10.4-.4.3-.7.6-1.1.9-4.7 3.9-9.3 7.8-13.8 11.7-.4.3-.7.6-1.1.9-13.8 12.2-26.8 24.6-39.2 36.5C1183 51.7 1149.4 84 1106.3 94c-47.5 11-100.7-7.6-167.7-58.5l.8-1.1c144.9 110.3 205.2 52.3 281.5-21.1 12.5-12.1 25.6-24.7 39.7-37 .4-.3.7-.6 1.1-.9 4.5-3.9 9-7.8 13.7-11.6.4-.3.7-.6 1.1-.9 4.3-3.5 8.6-6.9 13.1-10.3l1.1-.8c4-3 8.1-6 12.3-8.8.4-.3.7-.5 1.1-.7 3.9-2.7 7.8-5.3 11.8-7.8.4-.2.7-.5 1.1-.7 3.7-2.3 7.4-4.5 11.3-6.7.4-.2.8-.5 1.2-.7 3.4-1.9 6.9-3.8 10.5-5.6.5-.2.9-.5 1.4-.7 3.4-1.7 6.8-3.4 10.3-5 .5-.2 1-.5 1.6-.7 3.1-1.4 6.3-2.8 9.5-4.1.5-.2.9-.4 1.4-.6.2-.1.4-.2.6-.2 2.8-1.1 5.5-2.2 8.3-3.2.8-.3 1.6-.6 2.4-.8 2.7-1 5.4-1.9 8.2-2.8.9-.3 1.8-.6 2.7-.8 1.8-.6 3.6-1.1 5.4-1.6 1.7-.5 3.4-1 5.2-1.5 1.2-.3 2.4-.6 3.5-.9 1.8-.5 3.6-.9 5.4-1.3.6-.1 1.2-.3 1.8-.4 3.3-.8 6.6-1.5 10-2.1 6.5-1.3 13-2.3 19.6-3.1 3.4-.4 6.8-.8 10.2-1.1 2-.2 3.9-.4 5.9-.5 0-.3.4-.3.7-.4Z"/><path fill="#fff" fill-opacity=".2" d="M1473-115c-5.9 1.1-11.8 2.4-17.4 3.7-.8.1-1.7.3-2.5.4-4.3.7-8.6 1.5-12.8 2.3-1.8.4-3.5.7-5.3 1.1-.2 0-.4.1-.6.1-2 .4-4 .9-6 1.4l-7.2 1.8c-1.6.4-3.2.9-4.8 1.3-2.6.7-5.1 1.5-7.6 2.2l-3.9 1.2c-2.7.9-5.4 1.8-8 2.7-.8.3-1.5.5-2.2.8-3.3 1.2-6.5 2.4-9.6 3.6-.7.3-1.4.5-2 .8-3.2 1.3-6.4 2.6-9.6 4-.6.3-1.2.5-1.8.8-3.5 1.6-7 3.2-10.4 4.9-.5.2-1 .5-1.5.7-3.8 1.9-7.5 3.8-11.2 5.8-.4.2-.9.5-1.3.7-3.8 2.1-7.6 4.3-11.3 6.5-.4.2-.8.5-1.2.7-4.1 2.5-8.1 5-12 7.6-.4.2-.7.5-1.1.7-4.3 2.8-8.5 5.7-12.5 8.7-.4.2-.7.5-1.1.8-4.4 3.2-8.8 6.5-13 9.8-.4.3-.7.5-1 .8-4.7 3.7-9.3 7.5-13.8 11.3-.4.3-.7.6-1 .9-4.9 4.2-9.7 8.4-14.4 12.7-.4.3-.7.7-1.1 1-12.7 11.6-24.6 23.2-36.1 34.5-38.9 38-72.5 70.9-115 80.8-46.6 10.8-99.4-8-166.302-59.4l.8-1c66.502 51.1 119.002 69.9 165.202 59.2 42.2-9.8 75.7-42.5 114.4-80.4 11.7-11.4 23.8-23.2 36.6-35 .4-.3.7-.6 1.1-1 4.7-4.2 9.4-8.4 14.3-12.6.3-.3.7-.6 1-.9 4.4-3.8 9-7.5 13.7-11.2.3-.3.7-.5 1-.8 4.2-3.3 8.5-6.5 12.8-9.7.4-.3.7-.5 1.1-.8 4-2.9 8.2-5.8 12.4-8.6.4-.3.7-.5 1.1-.7 3.9-2.6 7.8-5.1 11.8-7.5.4-.3.8-.5 1.2-.7 3.6-2.2 7.3-4.3 11.1-6.4.4-.2.9-.5 1.3-.7 3.6-2 7.2-3.9 10.9-5.7.5-.3 1-.5 1.5-.7 3.3-1.6 6.7-3.2 10.1-4.8.6-.3 1.2-.5 1.8-.8 3-1.3 6.1-2.6 9.1-3.9.7-.3 1.4-.6 2.1-.8 3-1.2 6-2.4 9-3.5.7-.3 1.5-.6 2.2-.8 2.4-.8 4.7-1.7 7.1-2.5 1.3-.4 2.6-.9 4-1.3 2-.6 4.1-1.3 6.1-1.9 1.6-.5 3.3-1 4.9-1.4.6-.2 1.1-.3 1.7-.5h.1c.8-.2 1.7-.5 2.6-.7 2-.5 4-1 6-1.6 3.4-.8 6.9-1.6 10.4-2.4 6.9-1.5 14.1-2.8 21.4-3.9 4.9-.5 9.8-1.1 14.7-1.7Z"/><path fill="#fff" fill-opacity=".2" d="M1473-115c-5.9 1.1-11.8 2.4-17.4 3.7-.5.1-.9.2-1.4.3-3.2.8-6.3 1.6-9.4 2.4-1.4.4-2.7.7-4.1 1.1-1.4.4-2.9.8-4.3 1.2-2.7.8-5.4 1.6-8 2.4-1.3.4-2.5.8-3.8 1.2-2.9.9-5.7 1.9-8.5 2.9-1.1.4-2.2.8-3.2 1.2-3 1.1-5.9 2.2-8.8 3.4-.7.3-1.3.5-2 .8-3.4 1.4-6.8 2.8-10.2 4.3-.6.3-1.2.6-1.9.8-3.4 1.5-6.8 3.1-10.1 4.7-.6.3-1.1.5-1.7.8-3.7 1.8-7.4 3.7-10.9 5.6-.5.2-.9.5-1.4.7-4 2.1-7.8 4.3-11.6 6.5-.4.2-.8.5-1.2.7-4 2.4-7.9 4.8-11.8 7.3-.4.2-.7.5-1.1.7-4.3 2.7-8.4 5.5-12.5 8.4-.4.2-.7.5-1.1.8-4.4 3.1-8.8 6.3-13 9.5-.4.3-.7.5-1.1.8-4.6 3.5-9.1 7.1-13.5 10.7-.3.3-.7.6-1 .8-4.9 4-9.7 8.1-14.3 12.3-.4.3-.7.6-1.1.9-5.1 4.5-10.1 9.1-15 13.7-.4.3-.7.7-1.1 1-11.5 10.8-22.4 21.7-33 32.2-38.9 38.7-72.4 72.1-114.5 81.8-45.7 10.6-98.1-8.5-164.9-60.3l.8-1c143.9 111.6 200 55.8 277.6-21.4 10.7-10.7 21.8-21.7 33.6-32.7.4-.4.7-.7 1.1-1 4.9-4.5 9.8-9.1 14.9-13.6.4-.3.7-.6 1.1-.9 4.6-4.1 9.4-8.1 14.3-12.1.3-.3.7-.6 1-.8 4.4-3.6 8.8-7.1 13.4-10.6.4-.3.7-.5 1-.8 4.2-3.2 8.5-6.3 12.9-9.4.4-.3.7-.5 1.1-.7 4-2.8 8.2-5.6 12.4-8.3.4-.2.7-.5 1.1-.7 3.8-2.4 7.7-4.8 11.7-7.2.4-.2.8-.5 1.2-.7 3.8-2.2 7.6-4.3 11.5-6.4.5-.3.9-.5 1.4-.7 3.5-1.9 7.1-3.7 10.7-5.5.6-.3 1.1-.5 1.7-.8 1.9-.9 3.7-1.8 5.6-2.7 1.4-.7 2.8-1.3 4.3-1.9.6-.3 1.2-.6 1.9-.8 3.2-1.5 6.5-2.8 9.8-4.2.6-.3 1.3-.6 2-.8 2.8-1.1 5.5-2.2 8.3-3.2 1.1-.4 2.2-.8 3.2-1.2 2.6-.9 5.1-1.8 7.7-2.7 1.3-.4 2.5-.8 3.8-1.3 2.2-.7 4.5-1.4 6.7-2.1 1.4-.4 2.8-.9 4.3-1.3.5-.2 1-.3 1.4-.4.9-.3 1.8-.5 2.7-.8l6.9-1.8c3.7-1 7.5-1.9 11.2-2.7 4.8-.9 9.7-1.5 14.6-2.1Z"/><path fill="#2864BC" d="M738.5 349.5h-571c-9.7 0-17.5-7.8-17.5-17.5s7.8-17.5 17.5-17.5h571c9.7 0 17.5 7.8 17.5 17.5s-7.8 17.5-17.5 17.5Z"/><path fill="#fff" d="M193.899 340c-1.5 0-2.7-.2-3.8-.7-1.1-.5-1.9-1.1-2.5-2-.6-.9-.9-2-.9-3.4h4c0 .6.2 1 .5 1.4.3.4.6.7 1.1.9.5.2 1 .3 1.6.3.6 0 1.1-.1 1.5-.2.4-.1.7-.4.9-.6.2-.2.3-.6.3-.9 0-.3-.1-.6-.3-.8-.2-.2-.5-.4-.9-.6-.4-.2-.9-.3-1.6-.5l-1.8-.4c-1.5-.3-2.7-.9-3.6-1.7-.9-.8-1.3-1.8-1.3-3.2 0-1.1.3-2 .9-2.8.6-.8 1.4-1.4 2.4-1.9s2.2-.7 3.5-.7c1.4 0 2.5.2 3.5.7 1 .5 1.8 1.1 2.3 1.9.5.8.8 1.8.8 2.9h-4.1c0-.6-.3-1.1-.7-1.5-.4-.4-1.1-.5-1.9-.5-.5 0-1 .1-1.4.2-.4.1-.6.3-.8.6-.2.3-.3.5-.3.8 0 .3.1.6.3.9.2.3.5.4.9.6.4.2.8.3 1.4.4l1.5.3c.9.2 1.6.4 2.3.8.7.4 1.2.7 1.7 1.1.5.4.8.9 1 1.5.2.6.4 1.2.4 1.9 0 1.1-.3 2.1-.8 2.9-.5.8-1.3 1.4-2.4 1.8-1.1.4-2.3.5-3.7.5ZM204.399 325.2c-.6 0-1.1-.2-1.5-.6-.4-.4-.6-.9-.6-1.4 0-.5.2-1 .6-1.4.4-.4.9-.6 1.5-.6s1.1.2 1.5.6c.4.4.6.9.6 1.4 0 .5-.2 1-.6 1.4-.4.4-1 .6-1.5.6Zm-2.1 14.6v-13.1h4.2v13.1h-4.2ZM214.498 345c-1.9 0-3.3-.4-4.4-1.1-1.1-.7-1.7-1.7-1.8-2.9l3.9-.2c.1.3.2.5.4.7.2.2.5.4.8.5.3.1.7.2 1.2.2.7 0 1.3-.2 1.7-.5.4-.3.7-.9.7-1.8v-2.3h-.2c-.2.4-.4.8-.8 1.1-.4.3-.8.6-1.2.8-.4.2-1.1.3-1.7.3-1 0-1.8-.2-2.6-.7-.8-.5-1.4-1.1-1.9-2.1s-.7-2.2-.7-3.6c0-1.5.2-2.8.7-3.8.5-1 1.1-1.7 1.9-2.2.8-.5 1.7-.7 2.6-.7.7 0 1.3.1 1.8.4.5.3.9.5 1.2.9.3.4.6.8.7 1.2h.1V327h4.1v13.2c0 1.1-.3 2-.8 2.8-.5.8-1.3 1.3-2.3 1.7-1 .4-2.1.3-3.4.3Zm.1-8.4c.8 0 1.3-.3 1.8-.9.5-.6.6-1.4.6-2.5 0-.7-.1-1.3-.3-1.8-.2-.5-.5-.9-.8-1.2-.3-.3-.8-.4-1.3-.4s-1 .1-1.3.4c-.3.3-.6.7-.8 1.2-.2.5-.3 1.1-.3 1.8s.1 1.3.3 1.8c.2.5.5.9.8 1.2.3.3.8.4 1.3.4ZM227.3 332.3v7.5h-4.2v-13.1h4.1v2.4h.1c.3-.8.8-1.4 1.4-1.9.6-.5 1.5-.7 2.4-.7.9 0 1.7.2 2.4.6.7.4 1.2 1 1.6 1.7.4.7.6 1.6.6 2.6v8.3h-4.2v-7.5c0-.7-.2-1.3-.6-1.7-.4-.4-.9-.6-1.5-.6-.4 0-.8.1-1.1.3-.3.2-.6.5-.8.8-.2.3-.2.8-.2 1.3ZM250.599 334.2v-7.5h4.2v13.1h-4v-2.4h-.1c-.3.8-.8 1.4-1.5 1.9s-1.5.7-2.5.7c-.9 0-1.7-.2-2.3-.6-.6-.4-1.2-1-1.6-1.7-.4-.7-.6-1.6-.6-2.6v-8.4h4.2v7.5c0 .7.2 1.3.6 1.7.4.4.9.6 1.5.6.4 0 .8-.1 1.1-.3.3-.2.6-.5.8-.8.2-.3.2-.7.2-1.2ZM256.799 344.701v-18h4.1v2.2h.1c.2-.4.4-.8.7-1.2.3-.4.7-.7 1.2-.9.5-.2 1.1-.4 1.8-.4.9 0 1.8.2 2.6.7.8.5 1.4 1.2 1.9 2.2.5 1 .7 2.3.7 3.8s-.2 2.7-.7 3.7c-.5 1-1.1 1.8-1.9 2.2-.8.4-1.7.8-2.6.8-.7 0-1.2-.1-1.7-.3-.5-.2-.9-.5-1.2-.9-.3-.4-.6-.7-.7-1.1h-.1v7h-4.2v.2Zm6.5-8c.5 0 1-.1 1.3-.4.3-.3.6-.7.8-1.2.2-.5.3-1.1.3-1.8s-.1-1.3-.3-1.8c-.2-.5-.5-.9-.8-1.2-.3-.3-.8-.4-1.3-.4s-.9.1-1.3.4c-.4.3-.6.7-.8 1.2-.2.5-.3 1.1-.3 1.9 0 .7.1 1.3.3 1.8.2.5.5.9.8 1.2.3.3.8.3 1.3.3ZM283.3 326.7v3.1H275v-3.1h8.3Zm-6.5-3.1h4.2v12.1c0 .4.1.6.3.8.2.2.4.3.8.3h.5c.2 0 .3-.1.4-.1l.6 3c-.5.1-.9.2-1.3.3-.4.1-.8.1-1.2.1-1.4 0-2.4-.3-3.2-1-.8-.7-1.1-1.6-1.1-2.9v-12.6ZM290.7 340c-1.4 0-2.6-.3-3.5-.8-.9-.5-1.7-1.4-2.3-2.4-.6-1-.8-2.2-.8-3.5 0-1.4.3-2.5.8-3.5s1.3-1.8 2.3-2.4c1-.6 2.2-.8 3.5-.8 1.3 0 2.6.3 3.5.8.9.5 1.7 1.4 2.3 2.4.6 1 .8 2.2.8 3.5 0 1.3-.3 2.5-.8 3.5s-1.3 1.8-2.3 2.4c-1 .6-2.1.8-3.5.8Zm.1-3.1c.5 0 .9-.1 1.3-.4.4-.3.6-.7.8-1.3.2-.6.3-1.2.3-1.9s-.1-1.4-.3-1.9c-.2-.5-.4-.9-.8-1.2-.4-.3-.8-.4-1.3-.4s-.9.1-1.3.4c-.4.3-.6.7-.8 1.2-.2.5-.3 1.2-.3 1.9s.1 1.3.3 1.9c.2.6.4 1 .8 1.3.4.3.8.4 1.3.4ZM303.598 340c-1 0-1.8-.2-2.6-.8-.8-.6-1.4-1.2-1.9-2.2-.5-1-.7-2.2-.7-3.7s.2-2.8.7-3.8c.5-1 1.1-1.7 1.9-2.2.8-.5 1.6-.7 2.6-.7.7 0 1.3.1 1.8.4.5.3.9.5 1.2.9.3.4.6.8.7 1.2h.1v-6.6h4.2V340h-4.1v-2.1h-.1c-.2.4-.4.8-.8 1.1-.4.3-.7.6-1.2.9-.5.3-1.2.1-1.8.1Zm1.4-3.3c.5 0 .9-.1 1.3-.4.4-.3.6-.7.8-1.2.2-.5.3-1.1.3-1.8s-.1-1.3-.3-1.9c-.2-.6-.5-.9-.8-1.2-.3-.3-.8-.4-1.3-.4s-.9.1-1.3.4c-.4.3-.6.7-.8 1.2-.2.5-.3 1.1-.3 1.8s.1 1.3.3 1.8c.2.5.5.9.8 1.2.3.3.8.5 1.3.5ZM317.198 340c-.8 0-1.6-.1-2.2-.4-.6-.3-1.2-.7-1.5-1.3-.3-.6-.6-1.3-.6-2.2 0-.7.1-1.3.4-1.8.3-.5.6-.9 1.1-1.2.5-.3 1-.6 1.6-.7.6-.1 1.2-.3 1.9-.3.7-.1 1.3-.1 1.8-.2s.8-.2 1-.3c.2-.1.3-.4.3-.6v-.1c0-.4-.1-.8-.4-1-.3-.2-.7-.4-1.2-.4-.6 0-1 .1-1.3.4-.3.3-.5.6-.6 1l-3.8-.1c.1-.8.4-1.5.9-2.1.5-.6 1.1-1.1 2-1.5.9-.4 1.8-.5 3-.5.8 0 1.6.1 2.3.3.7.2 1.3.5 1.8.9s.9.8 1.2 1.4c.3.6.4 1.2.4 1.8v8.9h-3.9v-2h-.4c-.2.5-.5.8-.9 1.1-.4.3-.8.5-1.3.7-.5.2-1 .2-1.6.2Zm1.2-2.7c.4 0 .8-.1 1.2-.3.4-.2.7-.4.9-.8.2-.4.3-.7.3-1.1v-1.2c-.1.1-.3.1-.4.2-.1.1-.4.1-.6.1-.2 0-.4.1-.6.1-.2 0-.4.1-.6.1-.4.1-.7.2-1 .3-.3.1-.5.3-.6.5-.1.2-.2.4-.2.7 0 .4.2.8.5 1 .3.2.7.4 1.1.4ZM329 344.7c-.5 0-1 0-1.4-.1-.4-.1-.8-.2-1.1-.3l.9-3h.1c.6.2 1.1.2 1.5.2.4 0 .7-.3.9-.8l.2-.4-4.6-13.6h4.3l2.4 9.4h.1l2.4-9.4h4.4l-4.9 14.4c-.2.7-.6 1.3-1 1.9-.4.6-1 1-1.7 1.3-.7.3-1.5.4-2.5.4ZM348.3 340c-.8 0-1.6-.1-2.2-.4-.6-.3-1.2-.7-1.5-1.3-.3-.6-.6-1.3-.6-2.2 0-.7.1-1.3.4-1.8.3-.5.6-.9 1.1-1.2.5-.3 1-.6 1.6-.7.6-.1 1.2-.3 1.9-.3.7-.1 1.3-.1 1.8-.2s.8-.2 1-.3c.2-.1.3-.4.3-.6v-.1c0-.4-.1-.8-.4-1-.3-.2-.7-.4-1.2-.4-.6 0-1 .1-1.3.4-.3.3-.5.6-.6 1l-3.8-.1c.1-.8.4-1.5.9-2.1.5-.6 1.1-1.1 2-1.5.9-.4 1.8-.5 3-.5.8 0 1.6.1 2.3.3.7.2 1.3.5 1.8.9s.9.8 1.2 1.4c.3.6.4 1.2.4 1.8v8.9h-3.9v-2h-.1c-.2.5-.5.8-.9 1.1-.4.3-.8.5-1.3.7-.5.2-1.3.2-1.9.2Zm1.3-2.7c.4 0 .8-.1 1.2-.3.4-.2.7-.4.9-.8.2-.4.3-.7.3-1.1v-1.2c-.1.1-.3.1-.4.2-.1.1-.4.1-.6.1-.2 0-.4.1-.6.1-.2 0-.4.1-.6.1-.4.1-.7.2-1 .3-.3.1-.5.3-.6.5-.1.2-.2.4-.2.7 0 .4.2.8.5 1 .3.2.6.4 1.1.4ZM362.3 332.3v7.5h-4.2v-13.1h4.1v2.4h.1c.3-.8.8-1.4 1.4-1.9.6-.5 1.5-.7 2.4-.7.9 0 1.7.2 2.4.6.7.4 1.2 1 1.6 1.7.4.7.6 1.6.6 2.6v8.3h-4.2v-7.5c0-.7-.2-1.3-.6-1.7-.4-.4-.9-.6-1.5-.6-.4 0-.8.1-1.1.3-.3.2-.6.5-.8.8-.2.3-.2.8-.2 1.3ZM377.399 340c-1 0-1.8-.199-2.6-.799-.8-.6-1.4-1.201-1.9-2.201s-.7-2.2-.7-3.7.2-2.8.7-3.8c.5-1 1.1-1.7 1.9-2.2.8-.5 1.6-.7 2.6-.7.7 0 1.3.1 1.8.4.5.3.9.5 1.2.9.3.4.6.8.7 1.2h.1v-6.6h4.2V340h-4.1v-2.1h-.1c-.2.4-.4.8-.8 1.1-.4.3-.7.6-1.2.9-.5.3-1.1.1-1.8.1Zm1.5-3.299c.5 0 .9-.101 1.3-.401.4-.3.6-.7.8-1.2.2-.5.3-1.1.3-1.8s-.1-1.3-.3-1.9c-.2-.6-.5-.899-.8-1.199-.3-.3-.8-.401-1.3-.401s-.9.101-1.3.401c-.4.3-.6.699-.8 1.199-.2.5-.3 1.101-.3 1.801s.1 1.299.3 1.799c.2.5.5.901.8 1.201.3.3.8.5 1.3.5ZM397.999 340c-1.4 0-2.6-.3-3.6-.8s-1.8-1.3-2.3-2.3c-.5-1-.8-2.2-.8-3.6s.3-2.5.8-3.5 1.3-1.8 2.2-2.4c.9-.6 2.1-.8 3.4-.8.9 0 1.8.1 2.6.4.8.3 1.4.7 2 1.3.6.6 1 1.3 1.3 2.1.3.8.5 1.8.5 2.9v1h-11.4v-2.4h9.4l-1.9.6c0-.6-.1-1.1-.3-1.5-.2-.4-.4-.8-.8-1-.4-.2-.8-.4-1.3-.4s-1 .1-1.3.4c-.3.3-.6.6-.8 1-.2.4-.3.9-.3 1.5v1.7c0 .6.1 1.1.3 1.6.2.5.5.8.9 1 .4.2.8.4 1.4.4.4 0 .7-.1 1-.2.3-.1.6-.3.8-.5.2-.2.4-.4.5-.7l3.8.1c-.2.9-.5 1.6-1 2.2-.5.6-1.2 1.1-2.1 1.5-.9.4-1.9.4-3 .4ZM408.699 326.7l2.1 4.3 2.2-4.3h4.2l-3.7 6.6 3.8 6.5h-4.2l-2.4-4.3-2.3 4.3h-4.2l3.8-6.5-3.6-6.6h4.3ZM418.5 344.701v-18h4.1v2.2h.1c.2-.4.4-.8.7-1.2.3-.4.7-.7 1.2-.9.5-.2 1.1-.4 1.8-.4.9 0 1.8.2 2.6.7.8.5 1.4 1.2 1.9 2.2.5 1 .7 2.3.7 3.8s-.2 2.7-.7 3.7c-.5 1-1.1 1.8-1.9 2.2-.8.4-1.7.8-2.6.8-.7 0-1.2-.1-1.7-.3-.5-.2-.9-.5-1.2-.9-.3-.4-.6-.7-.7-1.1h-.1v7h-4.2v.2Zm6.5-8c.5 0 1-.1 1.3-.4.3-.3.6-.7.8-1.2.2-.5.3-1.1.3-1.8s-.1-1.3-.3-1.8c-.2-.5-.5-.9-.8-1.2-.3-.3-.8-.4-1.3-.4s-.9.1-1.3.4c-.4.3-.6.7-.8 1.2-.2.5-.3 1.1-.3 1.9 0 .7.1 1.3.3 1.8.2.5.5.9.8 1.2.3.3.8.3 1.3.3ZM439.3 340c-1.4 0-2.6-.3-3.6-.8s-1.8-1.3-2.3-2.3c-.5-1-.8-2.2-.8-3.6s.3-2.5.8-3.5 1.3-1.8 2.2-2.4c.9-.6 2.1-.8 3.4-.8.9 0 1.8.1 2.6.4.8.3 1.4.7 2 1.3.6.6 1 1.3 1.3 2.1.3.8.5 1.8.5 2.9v1H434v-2.4h9.4l-1.9.6c0-.6-.1-1.1-.3-1.5-.2-.4-.4-.8-.8-1-.4-.2-.8-.4-1.3-.4s-1 .1-1.3.4c-.3.3-.6.6-.8 1-.2.4-.3.9-.3 1.5v1.7c0 .6.1 1.1.3 1.6.2.5.5.8.9 1 .4.2.8.4 1.4.4.4 0 .7-.1 1-.2.3-.1.6-.3.8-.5.2-.2.4-.4.5-.7l3.8.1c-.2.9-.5 1.6-1 2.2-.5.6-1.2 1.1-2.1 1.5-.9.4-1.9.4-3 .4ZM446.898 339.8v-13.1h4v2.4h.1c.2-.9.6-1.5 1.2-1.9.6-.4 1.2-.6 1.9-.6h.6c.2 0 .4.1.6.1v3.6c-.2-.1-.5-.1-.8-.2-.3-.1-.6-.1-.9-.1-.5 0-.9.1-1.3.3-.4.2-.7.5-.9.9-.2.4-.3.8-.3 1.4v7.1h-4.2v.1ZM458.399 325.2c-.6 0-1.1-.2-1.5-.6-.4-.4-.6-.9-.6-1.4 0-.5.2-1 .6-1.4.4-.4.9-.6 1.5-.6s1.1.2 1.5.6c.4.4.6.9.6 1.4 0 .5-.2 1-.6 1.4-.4.4-.9.6-1.5.6Zm-2.1 14.6v-13.1h4.2v13.1h-4.2ZM468.598 340c-1.4 0-2.6-.3-3.6-.8s-1.8-1.3-2.3-2.3c-.5-1-.8-2.2-.8-3.6s.3-2.5.8-3.5 1.3-1.8 2.2-2.4c.9-.6 2.1-.8 3.4-.8.9 0 1.8.1 2.6.4.8.3 1.4.7 2 1.3.6.6 1 1.3 1.3 2.1.3.8.5 1.8.5 2.9v1h-11.4v-2.4h9.4l-1.9.6c0-.6-.1-1.1-.3-1.5-.2-.4-.4-.8-.8-1-.4-.2-.8-.4-1.3-.4s-1 .1-1.3.4c-.3.3-.6.6-.8 1-.2.4-.3.9-.3 1.5v1.7c0 .6.1 1.1.3 1.6.2.5.5.8.9 1 .4.2.8.4 1.4.4.4 0 .7-.1 1-.2.3-.1.6-.3.8-.5.2-.2.4-.4.5-.7l3.8.1c-.2.9-.5 1.6-1 2.2-.5.6-1.2 1.1-2.1 1.5-.9.4-1.9.4-3 .4ZM480.399 332.3v7.5h-4.2v-13.099h4.1v2.399h.1c.3-.8.8-1.399 1.4-1.899.6-.5 1.5-.701 2.4-.701.9 0 1.7.2 2.4.6.7.4 1.2 1 1.6 1.7.4.7.6 1.6.6 2.6v8.301h-4.2v-7.5c0-.7-.2-1.301-.6-1.701-.4-.4-.9-.6-1.5-.6-.4 0-.8.101-1.1.301-.3.2-.6.499-.8.799-.2.3-.2.8-.2 1.3ZM496.899 340c-1.4 0-2.6-.3-3.6-.9-1-.6-1.7-1.4-2.3-2.4-.6-1-.8-2.2-.8-3.5 0-1.3.3-2.5.8-3.5s1.3-1.8 2.3-2.4c1-.6 2.2-.9 3.5-.9 1.2 0 2.3.2 3.2.7.9.5 1.6 1.1 2.1 1.9.5.8.8 1.7.8 2.8h-3.9c-.1-.4-.2-.8-.4-1.1-.2-.3-.4-.6-.7-.7-.3-.1-.7-.3-1-.3-.5 0-.9.1-1.3.4-.4.3-.6.7-.8 1.2-.2.5-.3 1.2-.3 2s.1 1.4.3 2c.2.6.5.9.8 1.2.3.3.8.4 1.3.4.6 0 1-.2 1.4-.6.4-.4.6-.9.7-1.6h3.9c0 1.1-.3 2-.8 2.8-.5.8-1.2 1.4-2.1 1.9-.9.5-1.8.6-3.1.6ZM510.598 340c-1.4 0-2.6-.3-3.6-.8s-1.8-1.3-2.3-2.3c-.5-1-.8-2.2-.8-3.6s.3-2.5.8-3.5 1.3-1.8 2.2-2.4c.9-.6 2.1-.8 3.4-.8.9 0 1.8.1 2.6.4.8.3 1.4.7 2 1.3.6.6 1 1.3 1.3 2.1.3.8.5 1.8.5 2.9v1h-11.4v-2.4h9.4l-1.9.6c0-.6-.1-1.1-.3-1.5-.2-.4-.4-.8-.8-1-.4-.2-.8-.4-1.3-.4s-1 .1-1.3.4c-.3.3-.6.6-.8 1-.2.4-.3.9-.3 1.5v1.7c0 .6.1 1.1.3 1.6.2.5.5.8.9 1 .4.2.8.4 1.4.4.4 0 .7-.1 1-.2.3-.1.6-.3.8-.5.2-.2.4-.4.5-.7l3.8.1c-.2.9-.5 1.6-1 2.2-.5.6-1.2 1.1-2.1 1.5-.9.4-1.9.4-3 .4ZM530.098 326.7v3.1h-8.2v-3.1h8.2Zm-6.5-3.1h4.2v12.1c0 .4.1.6.3.8.2.2.4.3.8.3h.5c.2 0 .3-.1.4-.1l.6 3c-.5.1-.9.2-1.3.3-.4.1-.8.1-1.2.1-1.4 0-2.4-.3-3.2-1-.8-.7-1.1-1.6-1.1-2.9v-12.6ZM535.999 332.301v7.5h-4.2v-17.5h4v6.8h.2c.3-.8.8-1.4 1.5-1.9s1.5-.7 2.5-.7c.9 0 1.7.2 2.4.6.7.4 1.2 1 1.6 1.7.4.7.6 1.6.6 2.6v8.3h-4.2v-7.5c0-.7-.2-1.3-.6-1.7-.4-.4-.9-.6-1.6-.6-.4 0-.8.1-1.2.3-.4.2-.6.5-.8.8-.2.3-.2.8-.2 1.3ZM552.598 340c-1.4 0-2.6-.3-3.6-.8s-1.8-1.3-2.3-2.3c-.5-1-.8-2.2-.8-3.6s.3-2.5.8-3.5 1.3-1.8 2.2-2.4c.9-.6 2.1-.8 3.4-.8.9 0 1.8.1 2.6.4.8.3 1.4.7 2 1.3.6.6 1 1.3 1.3 2.1.3.8.5 1.8.5 2.9v1h-11.4v-2.4h9.4l-1.9.6c0-.6-.1-1.1-.3-1.5-.2-.4-.4-.8-.8-1-.4-.2-.8-.4-1.3-.4s-1 .1-1.3.4c-.3.3-.6.6-.8 1-.2.4-.3.9-.3 1.5v1.7c0 .6.1 1.1.3 1.6.2.5.5.8.9 1 .4.2.8.4 1.4.4.4 0 .7-.1 1-.2.3-.1.6-.3.8-.5.2-.2.4-.4.5-.7l3.8.1c-.2.9-.5 1.6-1 2.2-.5.6-1.2 1.1-2.1 1.5-.9.4-1.9.4-3 .4ZM569.499 340c-1 0-1.8-.2-2.6-.8-.8-.6-1.4-1.2-1.9-2.2-.5-1-.7-2.2-.7-3.7s.2-2.8.7-3.8c.5-1 1.1-1.7 1.9-2.2.8-.5 1.6-.7 2.6-.7.7 0 1.3.1 1.8.4.5.3.9.5 1.2.9.3.4.6.8.7 1.2h.1v-6.6h4.2V340h-4.1v-2.1h-.1c-.2.4-.4.8-.8 1.1-.4.3-.7.6-1.2.9-.5.3-1.2.1-1.8.1Zm1.4-3.3c.5 0 .9-.1 1.3-.4.4-.3.6-.7.8-1.2.2-.5.3-1.1.3-1.8s-.1-1.3-.3-1.9c-.2-.6-.5-.9-.8-1.2-.3-.3-.8-.4-1.3-.4s-.9.1-1.3.4c-.4.3-.6.7-.8 1.2-.2.5-.3 1.1-.3 1.8s.1 1.3.3 1.8c.2.5.5.9.8 1.2.3.3.8.5 1.3.5ZM581.399 325.2c-.6 0-1.1-.2-1.5-.6-.4-.4-.6-.9-.6-1.4 0-.5.2-1 .6-1.4.4-.4.9-.6 1.5-.6s1.1.2 1.5.6c.4.4.6.9.6 1.4 0 .5-.2 1-.6 1.4-.4.4-.9.6-1.5.6Zm-2 14.6v-13.1h4.2v13.1h-4.2ZM593 326.7v3.1h-8.4v-3.1h8.4Zm-6.6 13.1V326c0-1 .2-1.9.6-2.5.4-.6.9-1.2 1.6-1.5.7-.3 1.5-.5 2.3-.5.6 0 1.1 0 1.6.1s.9.2 1.1.2l-.7 3c-.2 0-.3-.1-.6-.1s-.4-.1-.6-.1c-.5 0-.8.1-1 .3-.2.2-.3.5-.3.9v13.8h-4v.2ZM601.9 326.7v3.1h-8.4v-3.1h8.4Zm-6.7 13.1V326c0-1 .2-1.9.6-2.5.4-.6.9-1.2 1.6-1.5.7-.3 1.5-.5 2.3-.5.6 0 1.1 0 1.6.1s.9.2 1.1.2l-.7 3c-.2 0-.3-.1-.6-.1s-.4-.1-.6-.1c-.5 0-.8.1-1 .3-.2.2-.3.5-.3.9v13.8h-4v.2ZM608.899 340c-1.4 0-2.6-.3-3.6-.8s-1.8-1.3-2.3-2.3c-.5-1-.8-2.2-.8-3.6s.3-2.5.8-3.5 1.3-1.8 2.2-2.4c.9-.6 2.1-.8 3.4-.8.9 0 1.8.1 2.6.4.8.3 1.4.7 2 1.3.6.6 1 1.3 1.3 2.1.3.8.5 1.8.5 2.9v1h-11.4v-2.4h9.4l-1.9.6c0-.6-.1-1.1-.3-1.5-.2-.4-.4-.8-.8-1-.4-.2-.8-.4-1.3-.4s-1 .1-1.3.4c-.3.3-.6.6-.8 1-.2.4-.3.9-.3 1.5v1.7c0 .6.1 1.1.3 1.6.2.5.5.8.9 1 .4.2.8.4 1.4.4.4 0 .7-.1 1-.2.3-.1.6-.3.8-.5.2-.2.4-.4.5-.7l3.8.1c-.2.9-.5 1.6-1 2.2-.5.6-1.2 1.1-2.1 1.5-.9.4-1.8.4-3 .4ZM616.6 339.8v-13.1h4v2.4h.1c.2-.9.6-1.5 1.2-1.9.6-.4 1.2-.6 1.9-.6h.6c.2 0 .4.1.6.1v3.6c-.2-.1-.5-.1-.8-.2-.3-.1-.6-.1-.9-.1-.5 0-.9.1-1.3.3-.4.2-.7.5-.9.9-.2.4-.3.8-.3 1.4v7.1h-4.2v.1ZM631.399 340c-1.4 0-2.6-.3-3.6-.8s-1.8-1.3-2.3-2.3c-.5-1-.8-2.2-.8-3.6s.3-2.5.8-3.5 1.3-1.8 2.2-2.4c.9-.6 2.1-.8 3.4-.8.9 0 1.8.1 2.6.4.8.3 1.4.7 2 1.3.6.6 1 1.3 1.3 2.1.3.8.5 1.8.5 2.9v1h-11.4v-2.4h9.4l-1.9.6c0-.6-.1-1.1-.3-1.5-.2-.4-.4-.8-.8-1-.4-.2-.8-.4-1.3-.4s-1 .1-1.3.4c-.3.3-.6.6-.8 1-.2.4-.3.9-.3 1.5v1.7c0 .6.1 1.1.3 1.6.2.5.5.8.9 1 .4.2.8.4 1.4.4.4 0 .7-.1 1-.2.3-.1.6-.3.8-.5.2-.2.4-.4.5-.7l3.8.1c-.2.9-.5 1.6-1 2.2-.5.6-1.2 1.1-2.1 1.5-.9.4-1.8.4-3 .4ZM643.2 332.3v7.5H639v-13.1h4.1v2.4h.1c.3-.8.8-1.4 1.4-1.9.6-.5 1.5-.7 2.4-.7.9 0 1.7.2 2.4.6.7.4 1.2 1 1.6 1.7.4.7.6 1.6.6 2.6v8.3h-4.2v-7.5c0-.7-.2-1.3-.6-1.7-.4-.4-.9-.6-1.5-.6-.4 0-.8.1-1.1.3-.3.2-.6.5-.8.8-.2.3-.2.8-.2 1.3ZM659.8 340.001c-1.4 0-2.6-.3-3.6-.9-1-.6-1.7-1.4-2.3-2.4-.6-1-.8-2.2-.8-3.5 0-1.3.3-2.5.8-3.5s1.3-1.8 2.3-2.4c1-.6 2.2-.9 3.5-.9 1.2 0 2.3.2 3.2.7.9.5 1.6 1.1 2.1 1.9.5.8.8 1.7.8 2.8H662c-.1-.4-.2-.8-.4-1.1-.2-.3-.4-.6-.7-.7-.3-.1-.7-.3-1-.3-.5 0-.9.1-1.3.4-.4.3-.6.7-.8 1.2-.2.5-.3 1.2-.3 2s.1 1.4.3 2c.2.6.5.9.8 1.2.3.3.8.4 1.3.4.6 0 1-.2 1.4-.6.4-.4.6-.9.7-1.6h3.9c0 1.1-.3 2-.8 2.8-.5.8-1.2 1.4-2.1 1.9-.9.5-2 .6-3.2.6ZM673.399 340c-1.4 0-2.6-.3-3.6-.8s-1.8-1.3-2.3-2.3c-.5-1-.8-2.2-.8-3.6s.3-2.5.8-3.5 1.3-1.8 2.2-2.4c.9-.6 2.1-.8 3.4-.8.9 0 1.8.1 2.6.4.8.3 1.4.7 2 1.3.6.6 1 1.3 1.3 2.1.3.8.5 1.8.5 2.9v1h-11.4v-2.4h9.4l-1.9.6c0-.6-.1-1.1-.3-1.5-.2-.4-.4-.8-.8-1-.4-.2-.8-.4-1.3-.4s-1 .1-1.3.4c-.3.3-.6.6-.8 1-.2.4-.3.9-.3 1.5v1.7c0 .6.1 1.1.3 1.6.2.5.5.8.9 1 .4.2.8.4 1.4.4.4 0 .7-.1 1-.2.3-.1.6-.3.8-.5.2-.2.4-.4.5-.7l3.8.1c-.2.9-.5 1.6-1 2.2-.5.6-1.2 1.1-2.1 1.5-.9.4-1.8.4-3 .4Z"/><path fill="#fff" stroke="#fff" stroke-miterlimit="10" stroke-width="2" d="M686.5 323.1v2.3l1.6 1.6 5.4 5.4-5.4 5.4-1.6 1.6v2.3l9.3-9.3-9.3-9.3Z"/><path fill="#fff" stroke="#fff" stroke-miterlimit="10" stroke-width="2" d="M698.5 323.1v2.3l1.6 1.6 5.4 5.4-5.4 5.4-1.6 1.6v2.3l9.3-9.3-9.3-9.3Z" opacity=".65"/><path fill="#fff" stroke="#fff" stroke-miterlimit="10" stroke-width="2" d="M710.5 323.1v2.3l1.6 1.6 5.4 5.4-5.4 5.4-1.6 1.6v2.3l9.3-9.3-9.3-9.3Z" opacity=".3"/><g opacity=".3"><path fill="#245C5C" d="M1451.3 328.5c114.05 0 206.5-92.453 206.5-206.5s-92.45-206.5-206.5-206.5S1244.8 7.953 1244.8 122s92.45 206.5 206.5 206.5Z"/><path fill="#2D7474" d="M1451.3 287.7c91.52 0 165.7-74.186 165.7-165.7 0-91.513-74.18-165.7-165.7-165.7-91.51 0-165.7 74.187-165.7 165.7 0 91.514 74.19 165.7 165.7 165.7Z"/><path fill="#E1F4F2" d="M1451.3 278.1c86.21 0 156.1-69.888 156.1-156.1 0-86.212-69.89-156.1-156.1-156.1S1295.2 35.788 1295.2 122c0 86.212 69.89 156.1 156.1 156.1Z"/><path fill="#2D7474" d="m1451.4 137.2-83.3-53.8 13.8-21.4 69.3 44.7 101.2-67.6 14.2 21.2-115.2 76.9Z"/></g><g fill="#FF9240" opacity=".3"><path d="m1215.4 341.6-4.7 2.8-83.7 50.9-4.8 3c-.1-2-1.1-3.6-2.7-4.5l4.8-2.9 84-51.1 5-3.1c0 .2-.1.4-.1.7.1 1.7.9 3.3 2.2 4.2ZM1280.8 385.9l4.3 3.7c-1.8.6-3.1 2.1-3.5 4l-4.3-3.6-52.2-44.3-4.2-3.5c1.6-.9 2.8-2.6 2.8-4.5l4.5 3.8 52.6 44.4ZM1309.3 333.2l-1.7 5.4-15.1 47.1-1.7 5.4c-1-1.1-2.4-1.8-4-1.8-.4 0-.7 0-1.1.1l1.7-5.4 15.1-47.1 1.7-5.4c1 1.1 2.4 1.7 3.9 1.7.5.1.9.1 1.2 0ZM1330.4 339.2l4.7 3c-1.5.9-2.5 2.6-2.5 4.5v.1l-4.8-3.1-12.4-7.9-4.7-3.1c1.6-.8 2.8-2.5 2.9-4.4l4.7 3.1 12.1 7.8ZM1403.5 312.5l-4.9 2.8-50.5 29.3-5.1 2.9c0-.2.1-.5.1-.7 0-1.7-.8-3.2-2.1-4.2l4.7-2.7 50.4-29.2 5-2.9v.3c0 1.8 1 3.5 2.4 4.4ZM1459.6 323.1l-6.1-1.5-37.7-9.1-5.3-1.3c.7-.9 1.1-2 1.1-3.2 0-.7-.2-1.4-.4-2.1l5.7 1.4 37.3 9 5.2 1.3c-.4.7-.7 1.6-.7 2.5 0 1.1.3 2.2.9 3ZM1508.4 275.6l-3.8 4.2-31.7 34.8-3.9 4.2c-.4-1.8-1.9-3.3-3.7-3.8l3.8-4.1 31.6-34.7 3.8-4.2c.5 1.8 2 3.2 3.9 3.6Z"/><path d="M1127 395.4c-.5-1.7-1.5-3.3-2.7-4.5-1.9-1.8-4.5-3-7.3-3-5.8 0-10.5 4.7-10.5 10.5s4.7 10.5 10.5 10.5 10.5-4.7 10.5-10.5c-.1-1-.2-2-.5-3Zm-4.8 3.1c0 2.9-2.3 5.2-5.2 5.2-2.9 0-5.3-2.3-5.3-5.2 0-2.9 2.4-5.3 5.3-5.3.9 0 1.8.2 2.5.6 1.6.9 2.7 2.6 2.7 4.5v.2ZM1218.5 326.9c-5.8 0-10.5 4.7-10.5 10.5 0 .8.1 1.6.3 2.4.4 1.8 1.3 3.4 2.5 4.7 1.9 2.1 4.7 3.5 7.8 3.5 2.5 0 4.8-.9 6.6-2.3 1.4-1.1 2.5-2.6 3.1-4.3.5-1.2.8-2.5.8-3.9 0-5.9-4.8-10.6-10.6-10.6Zm2.5 15.2c-.7.4-1.6.6-2.4.6-1.2 0-2.2-.4-3.1-1-1.3-.9-2.1-2.5-2.1-4.2 0-.2 0-.4.1-.7.3-2.6 2.5-4.6 5.2-4.6 2.9 0 5.2 2.3 5.2 5.3v.1c-.2 1.9-1.3 3.6-2.9 4.5ZM1292.5 385.7c-1.5-.9-3.2-1.5-5-1.6h-.7c-2.2 0-4.3.7-6 1.9-1.5 1-2.7 2.4-3.4 4-.7 1.4-1.1 3-1.1 4.6 0 5.8 4.7 10.5 10.5 10.5s10.5-4.7 10.5-10.5c0-3.8-1.9-7.1-4.8-8.9Zm-5.7 14.1c-2.9 0-5.3-2.3-5.3-5.2 0-.3 0-.7.1-1 .3-1.8 1.7-3.4 3.5-4 .2-.1.4-.1.7-.2.3-.1.7-.1 1.1-.1 1.6 0 3 .7 4 1.8.8.9 1.3 2.1 1.3 3.5-.1 2.8-2.5 5.2-5.4 5.2ZM1308.2 317.5c-5.8 0-10.5 4.7-10.5 10.5 0 3.7 2 7 4.9 8.9 1.5.9 3.2 1.5 5 1.6h.6c2.8 0 5.3-1.1 7.1-2.8 1.3-1.2 2.3-2.7 2.8-4.4.4-1 .6-2.2.6-3.3.1-5.8-4.7-10.5-10.5-10.5Zm2.4 15.2c-.4.2-.8.4-1.3.4-.3.1-.7.1-1.1.1-1.5 0-2.9-.7-3.9-1.7-.9-.9-1.4-2.2-1.4-3.6 0-2.9 2.4-5.2 5.3-5.2s5.3 2.3 5.3 5.2v.3c-.1 2.1-1.3 3.7-2.9 4.5ZM1348.1 344.5c-.4-1.8-1.2-3.4-2.4-4.7-1.9-2.2-4.8-3.6-7.9-3.6-2.9 0-5.5 1.2-7.4 3-1.2 1.2-2.2 2.8-2.7 4.5-.3.9-.4 2-.4 3 0 5.8 4.7 10.5 10.5 10.5s10.5-4.7 10.5-10.5c0-.7 0-1.5-.2-2.2Zm-10.3 7.5c-2.9 0-5.2-2.3-5.2-5.1v-.1c0-1.9 1-3.6 2.5-4.5.8-.5 1.7-.8 2.7-.8 1.2 0 2.3.4 3.2 1.1 1.3.9 2.1 2.5 2.1 4.2 0 .2 0 .5-.1.7-.3 2.5-2.5 4.5-5.2 4.5ZM1416.9 307.4c-.3-5.5-5-9.9-10.5-9.9-5.8 0-10.5 4.7-10.5 10.5 0 .9.1 1.7.3 2.6.4 1.8 1.3 3.3 2.5 4.6 1.9 2.1 4.7 3.3 7.7 3.3 4.2 0 7.8-2.5 9.5-6 .7-1.4 1.1-2.9 1.1-4.5-.1-.2-.1-.4-.1-.6Zm-10.5 5.9c-1.1 0-2-.3-2.8-.9-1.5-.9-2.4-2.6-2.4-4.4v-.3c.2-2.8 2.5-5 5.2-5 2.2 0 4.1 1.3 4.9 3.2.3.6.4 1.3.4 2.1 0 1.2-.4 2.3-1.1 3.2-1 1.3-2.6 2.1-4.2 2.1ZM1472.9 314.6c-.9-1.5-2.3-2.8-3.8-3.7-1.5-.8-3.3-1.3-5.1-1.3-4.5 0-8.3 2.8-9.8 6.8-.4 1.2-.7 2.5-.7 3.8 0 .5 0 1 .1 1.5.7 5.1 5.1 9 10.4 9 5.8 0 10.5-4.7 10.5-10.5 0-2.1-.6-4-1.6-5.6Zm-8.9 10.8c-1.8 0-3.4-.9-4.4-2.3-.6-.8-.9-1.9-.9-3 0-.9.2-1.8.7-2.5.9-1.6 2.6-2.7 4.6-2.7.5 0 .9.1 1.3.2 1.8.5 3.3 1.9 3.7 3.8.1.4.2.9.2 1.3 0 2.9-2.3 5.2-5.2 5.2ZM1509.5 259.9c-5.8 0-10.5 4.7-10.5 10.5 0 2.1.6 4.1 1.7 5.8 1 1.5 2.3 2.7 3.9 3.5 1.5.8 3.1 1.2 4.9 1.2 5.8 0 10.5-4.7 10.5-10.5s-4.7-10.5-10.5-10.5Zm0 15.8c-.4 0-.8-.1-1.1-.1-1.8-.4-3.3-1.7-3.9-3.5-.2-.5-.2-1-.2-1.6 0-2.9 2.4-5.3 5.3-5.3s5.2 2.4 5.2 5.3-2.4 5.2-5.3 5.2Z"/></g><path fill="#2D7474" d="M1181.1 330.3c-.2 0-.5-.1-.7-.2-.6-.4-.8-1.2-.4-1.8l81.9-125.8 38.4 40 45.5-67L1454.2 279l62.9-49.6 45.4-113.5c.3-.7 1-1 1.7-.7.7.3 1 1 .7 1.7L1519.2 231l-65.2 51.4-107.8-102.8-45.6 67.1-38.4-40-80.2 123.1c-.1.3-.5.5-.9.5Z"/><path fill="#2D7474" d="M1181.6 334.3c4.36 0 7.9-3.537 7.9-7.9s-3.54-7.9-7.9-7.9-7.9 3.537-7.9 7.9 3.54 7.9 7.9 7.9Z"/><path fill="#2D7474" d="M1181.6 335.6c-5.1 0-9.2-4.1-9.2-9.2s4.1-9.2 9.2-9.2 9.2 4.1 9.2 9.2c-.1 5.1-4.2 9.2-9.2 9.2Zm0-15.8c-3.6 0-6.6 3-6.6 6.6 0 3.6 3 6.6 6.6 6.6 3.6 0 6.6-3 6.6-6.6 0-3.7-3-6.6-6.6-6.6ZM1261.6 214.8c4.36 0 7.9-3.537 7.9-7.9s-3.54-7.9-7.9-7.9-7.9 3.537-7.9 7.9 3.54 7.9 7.9 7.9Z"/><path fill="#2D7474" d="M1261.6 216.1c-5.1 0-9.2-4.1-9.2-9.2s4.1-9.2 9.2-9.2 9.2 4.1 9.2 9.2-4.2 9.2-9.2 9.2Zm0-15.8c-3.6 0-6.6 3-6.6 6.6 0 3.6 3 6.6 6.6 6.6 3.6 0 6.6-3 6.6-6.6 0-3.6-3-6.6-6.6-6.6ZM1352.7 177.9c0 4.4-3.5 7.9-7.9 7.9s-7.9-3.5-7.9-7.9 3.5-7.9 7.9-7.9c4.3 0 7.9 3.6 7.9 7.9Z"/><path fill="#2D7474" d="M1344.8 187.1c-5.1 0-9.2-4.1-9.2-9.2s4.1-9.2 9.2-9.2 9.2 4.1 9.2 9.2-4.2 9.2-9.2 9.2Zm0-15.8c-3.6 0-6.6 3-6.6 6.6 0 3.6 3 6.6 6.6 6.6 3.6 0 6.6-3 6.6-6.6 0-3.6-3-6.6-6.6-6.6ZM1461.2 281.1c0 4.4-3.5 7.9-7.9 7.9s-7.9-3.5-7.9-7.9 3.5-7.9 7.9-7.9 7.9 3.6 7.9 7.9Z"/><path fill="#2D7474" d="M1453.3 290.3c-5.1 0-9.2-4.1-9.2-9.2s4.1-9.2 9.2-9.2 9.2 4.1 9.2 9.2-4.1 9.2-9.2 9.2Zm0-15.8c-3.6 0-6.6 3-6.6 6.6 0 3.6 3 6.6 6.6 6.6 3.6 0 6.6-3 6.6-6.6 0-3.6-2.9-6.6-6.6-6.6ZM1525.5 230.6c0 4.4-3.5 7.9-7.9 7.9s-7.9-3.5-7.9-7.9 3.5-7.9 7.9-7.9 7.9 3.6 7.9 7.9Z"/><path fill="#2D7474" d="M1517.6 239.8c-5.1 0-9.2-4.1-9.2-9.2s4.1-9.2 9.2-9.2 9.2 4.1 9.2 9.2-4.1 9.2-9.2 9.2Zm0-15.8c-3.6 0-6.6 3-6.6 6.6 0 3.6 3 6.6 6.6 6.6 3.6 0 6.6-3 6.6-6.6 0-3.6-2.9-6.6-6.6-6.6ZM1563.7 124.3c4.36 0 7.9-3.537 7.9-7.9s-3.54-7.9-7.9-7.9-7.9 3.537-7.9 7.9 3.54 7.9 7.9 7.9ZM1309.3 245.9c0 4.4-3.5 7.9-7.9 7.9s-7.9-3.5-7.9-7.9 3.5-7.9 7.9-7.9 7.9 3.6 7.9 7.9Z"/><path fill="#2D7474" d="M1301.4 255.1c-5.1 0-9.2-4.1-9.2-9.2s4.1-9.2 9.2-9.2 9.2 4.1 9.2 9.2-4.1 9.2-9.2 9.2Zm0-15.8c-3.6 0-6.6 3-6.6 6.6 0 3.6 3 6.6 6.6 6.6 3.6 0 6.6-3 6.6-6.6 0-3.6-2.9-6.6-6.6-6.6Z"/></g><defs><clipPath id="a"><path fill="#fff" d="M0 0h1600v415H0z"/></clipPath></defs></svg>