<svg width="724" height="79" viewBox="0 0 724 79" fill="none" xmlns="http://www.w3.org/2000/svg">
<path d="M14.7004 15.5999C15.5004 14.8999 16.3004 14.5999 17.2004 14.5999C17.9004 14.5999 18.6004 14.8999 19.2004 15.3999C25.5004 22.2999 22.7004 63.1999 30.5004 64.1999C30.6004 64.1999 30.7004 64.1999 30.8004 64.1999C37.5004 64.1999 46.7004 39.4999 48.6004 33.7999C49.6004 30.4999 53.2004 18.5999 53.2004 10.9999C53.2004 7.99988 52.6004 5.59988 51.1004 4.89988C50.9004 4.79988 50.7004 4.49988 50.7004 4.29988C50.7004 3.89988 51.0004 3.49988 51.4004 3.49988C51.5004 3.49988 51.6004 3.49988 51.7004 3.59988C54.2004 4.89988 55.0004 8.19988 55.0004 12.2999C55.0004 20.2999 51.7004 31.1999 50.4004 35.0999C48.4004 41.2999 37.7004 65.5999 30.6004 65.5999C30.5004 65.5999 30.4004 65.5999 30.2004 65.5999C20.2004 64.3999 22.8004 22.2999 17.5004 16.4999C17.3004 16.2999 17.0004 16.0999 16.7004 16.0999C16.4004 16.0999 16.0004 16.2999 15.6004 16.6999C8.5004 23.1999 4.1004 46.2999 2.8004 54.5999C2.7004 54.7999 2.70039 54.9999 2.70039 55.1999C2.70039 56.3999 3.40039 56.6999 3.40039 57.5999C3.40039 57.6999 3.40039 57.7999 3.40039 57.9999C3.20039 58.4999 2.8004 58.6999 2.3004 58.6999C1.7004 58.6999 1.00039 58.2999 0.900391 57.3999C1.00039 57.2999 5.70039 23.8999 14.7004 15.5999Z" fill="white"/>
<path d="M58.7 37.6998C58.6 37.4998 58.6 37.3998 58.6 37.1998C58.6 36.8998 58.7 36.6998 58.9 36.4998C59.1 36.3998 59.3 36.2998 59.5 36.2998C59.6 36.2998 59.7 36.2998 59.9 36.3998C60.5 36.5998 60.9 37.1998 61.2 38.1998C62 39.0998 63.2 39.7998 65.5 39.9998C66.7 40.0998 67.8 40.0998 68.8 40.0998C72.5 40.0998 74.4 39.4998 74.4 39.4998H74.6C75 39.4998 75.2 39.7998 75.2 40.1998C75.2 40.5998 75 40.8998 74.7 40.9998C74.7 40.9998 73.3 41.2998 70.4 41.2998C69.1 41.2998 67.6 41.1998 65.8 41.0998C63.9 40.8998 62.6 40.5998 61.6 40.0998C61.6 43.0998 60.4 47.7998 57.8 49.6998C57.3 49.9998 56.7 50.1998 56.2 50.1998C55.9 50.1998 55.6 50.1998 55.4 50.0998C54.4 49.6998 54 48.6998 54 47.4998C54 45.8998 54.6 43.9998 55 43.0998C55.6 41.7998 57.5 38.7998 58.8 37.9998C58.7 37.7998 58.7 37.6998 58.7 37.6998ZM56.2 43.6998C56 44.1998 55.4 46.0998 55.4 47.3998C55.4 47.9998 55.5 48.3998 55.9 48.5998C56 48.5998 56 48.5998 56.1 48.5998C57.7 48.5998 59.8 41.0998 59.8 39.0998V38.9998C59.7 38.8998 59.6 38.8998 59.6 38.7998C58.2 39.7998 56.8 42.1998 56.2 43.6998Z" fill="white"/>
<path d="M102.201 9.4999C102.601 9.4999 103.001 10.3999 103.001 11.2999V11.4999C102.701 16.2999 102.901 19.0999 102.501 22.0999C107.601 12.8999 112.301 7.1999 118.701 3.8999C120.801 2.8999 122.401 2.3999 123.701 2.3999C126.901 2.3999 128.101 5.0999 128.101 9.2999C128.101 17.5999 123.201 31.6999 118.601 41.4999C124.101 33.1999 132.601 22.1999 138.701 21.6999H138.901C141.601 21.6999 142.601 24.0999 142.601 27.7999C142.601 36.6999 137.001 52.8999 137.001 59.6999C137.001 60.7999 137.101 61.6999 137.501 62.1999C137.601 62.2999 137.601 62.4999 137.601 62.6999C137.601 63.1999 137.101 63.5999 136.601 63.5999C136.401 63.5999 136.101 63.4999 136.001 63.0999C135.601 62.4999 135.501 61.4999 135.501 60.2999C135.501 52.8999 141.001 35.8999 141.001 27.8999C141.001 25.1999 140.401 23.5999 138.801 23.5999H138.601C130.301 24.3999 115.701 51.3999 114.601 51.3999C114.501 51.6999 114.301 51.7999 114.001 51.7999C113.601 51.7999 113.101 51.3999 113.101 50.7999V50.5999C113.101 50.4999 126.801 19.7999 126.801 7.9999C126.801 5.1999 126.001 3.3999 124.101 3.3999C123.301 3.3999 122.201 3.7999 120.901 4.4999C113.901 8.0999 107.901 16.8999 102.601 27.2999C100.701 40.5999 95.6008 58.4999 91.3008 63.3999C90.6008 64.1999 89.9008 64.5999 89.4008 64.6999H89.3008C88.3008 64.6999 87.8008 63.6999 87.8008 62.0999C87.8008 53.5999 99.8008 27.1999 101.101 24.6999C101.901 18.8999 101.301 14.9999 101.901 10.3999C101.801 9.6999 101.901 9.4999 102.201 9.4999ZM100.801 30.1999C100.601 30.6999 89.3008 58.1999 89.3008 62.7999C89.3008 63.1999 89.4008 63.4999 89.6008 63.4999C89.8008 63.4999 90.2008 63.2999 90.6008 62.6999C94.5008 57.2999 98.8008 42.2999 100.801 30.1999Z" fill="white"/>
<path d="M151.2 37.6998C151.1 37.4998 151.1 37.3998 151.1 37.1998C151.1 36.8998 151.2 36.6998 151.4 36.4998C151.6 36.3998 151.8 36.2998 152 36.2998C152.1 36.2998 152.2 36.2998 152.4 36.3998C153 36.5998 153.4 37.1998 153.7 38.1998C154.5 39.0998 155.7 39.7998 158 39.9998C159.2 40.0998 160.3 40.0998 161.3 40.0998C165 40.0998 166.9 39.4998 166.9 39.4998H167.1C167.5 39.4998 167.7 39.7998 167.7 40.1998C167.7 40.5998 167.5 40.8998 167.2 40.9998C167.2 40.9998 165.8 41.2998 162.9 41.2998C161.6 41.2998 160.1 41.1998 158.3 41.0998C156.4 40.8998 155.1 40.5998 154.1 40.0998C154.1 43.0998 152.9 47.7998 150.3 49.6998C149.8 49.9998 149.2 50.1998 148.7 50.1998C148.4 50.1998 148.1 50.1998 147.9 50.0998C146.9 49.6998 146.5 48.6998 146.5 47.4998C146.5 45.8998 147.1 43.9998 147.5 43.0998C148.1 41.7998 150 38.7998 151.3 37.9998C151.2 37.7998 151.2 37.6998 151.2 37.6998ZM148.7 43.6998C148.5 44.1998 147.9 46.0998 147.9 47.3998C147.9 47.9998 148 48.3998 148.4 48.5998C148.5 48.5998 148.5 48.5998 148.6 48.5998C150.2 48.5998 152.3 41.0998 152.3 39.0998V38.9998C152.2 38.8998 152.1 38.8998 152.1 38.7998C150.7 39.7998 149.3 42.1998 148.7 43.6998Z" fill="white"/>
<path d="M167.8 41.2999C169.2 38.3999 171.2 36.4999 172.8 36.4999C173.5 36.4999 174.2 36.8999 174.8 37.5999C176.1 40.4999 181.3 40.9999 185.2 40.9999C186.9 40.9999 188.4 40.8999 189.1 40.8999C189.5 40.8999 189.8 40.4999 189.9 40.4999C190 40.4999 190.2 40.3999 190.3 40.3999C190.5 40.3999 190.6 40.4999 190.6 40.5999C190.6 40.7999 190.4 41.1999 190.1 41.2999C189.9 41.4999 187.3 41.8999 184.1 41.8999C180.3 41.8999 175.8 41.2999 174 38.7999C173.8 38.4999 173.5 38.3999 173.3 38.3999C170.8 38.3999 166.2 49.3999 166.2 49.3999V49.4999C166.2 49.8999 165.7 50.0999 165.2 50.0999C164.6 50.0999 163.9 49.8999 163.9 49.4999C163.9 49.3999 163.9 49.3999 163.9 49.3999L166.9 36.8999C167.1 36.1999 167.7 35.9999 168.3 35.9999C169 35.9999 169.6 36.3999 169.6 36.9999V37.0999L167.8 41.2999Z" fill="white"/>
<path d="M196 38.4999C196 41.3999 191.3 43.2999 190.3 43.6999C190.3 43.8999 190.3 44.1999 190.3 44.3999C190.3 45.1999 190.4 46.1999 190.9 46.8999C191.4 47.5999 192.1 47.8999 193.1 47.8999C197.9 47.8999 207.6 40.5999 207.6 40.5999C207.7 40.4999 207.9 40.4999 208 40.4999C208.5 40.4999 208.8 40.8999 208.8 41.2999C208.8 41.4999 208.7 41.5999 208.5 41.7999C208.4 41.7999 199 48.5999 193.3 48.5999C191.8 48.5999 190.5 48.0999 189.8 46.9999C189.1 45.9999 188.9 44.9999 188.9 43.9999C188.9 41.9999 189.9 40.1999 191 38.7999C191.6 38.0999 192.3 37.4999 193 37.1999C193.5 36.8999 193.9 36.7999 194.4 36.7999C194.6 36.7999 194.9 36.7999 195.1 36.8999C195.6 37.0999 195.9 37.5999 196 38.1999C195.9 38.2999 196 38.3999 196 38.4999ZM193.8 38.4999C193.8 38.3999 193.8 38.3999 193.7 38.3999C193 38.4999 192.3 39.7999 190.7 41.8999C193 39.9999 193.8 38.7999 193.8 38.4999Z" fill="white"/>
<path d="M231.501 17.4999C231.701 16.8999 232.001 16.5999 232.101 16.2999C232.401 15.9999 232.901 15.7999 233.401 15.7999C234.001 15.7999 234.601 15.9999 234.801 16.3999C234.901 16.5999 234.901 16.6999 234.901 16.9999C234.901 17.0999 234.901 17.2999 234.901 17.4999C234.201 21.4999 231.501 28.6999 230.201 35.1999C236.001 20.2999 244.301 3.4999 254.301 2.8999H254.801C260.401 2.8999 261.901 9.2999 261.901 15.7999C261.901 20.4999 261.201 25.0999 260.701 27.4999C259.501 33.5999 257.501 40.1999 254.901 46.3999C263.801 42.4999 270.801 40.0999 270.901 40.0999C271.101 40.0999 271.301 39.9999 271.401 39.9999C271.901 39.9999 272.101 40.1999 272.101 40.4999C272.101 40.8999 271.701 41.2999 271.301 41.4999C271.201 41.4999 263.701 43.6999 254.301 47.6999C253.901 48.5999 253.301 49.9999 252.801 50.8999C245.201 66.3999 232.501 72.6999 225.701 72.6999C223.001 72.6999 221.301 71.5999 221.301 69.7999C221.301 65.6999 229.401 57.4999 253.001 47.1999C255.901 40.7999 258.001 33.7999 259.301 27.1999C259.601 25.6999 260.101 21.6999 260.101 17.4999C260.101 11.1999 259.101 4.4999 255.001 4.4999H254.801C243.601 5.1999 234.301 27.6999 229.101 43.2999C229.001 43.8999 228.501 45.0999 228.401 45.5999C227.201 51.4999 225.101 55.6999 224.401 56.8999C224.301 57.0999 224.101 57.2999 223.901 57.2999C223.801 57.2999 223.701 57.2999 223.601 57.2999C223.201 57.2999 223.001 56.8999 223.001 55.9999C223.001 55.2999 223.101 54.3999 223.401 53.1999C223.901 51.0999 224.801 48.1999 225.901 44.6999C226.101 44.0999 226.301 43.5999 226.401 42.9999C227.201 39.2999 228.001 35.0999 228.701 31.1999V30.2999C228.701 23.6999 230.701 19.3999 231.501 17.4999ZM252.201 48.4999C230.301 57.9999 222.901 65.2999 222.901 68.7999C222.901 70.2999 224.201 71.0999 226.401 71.0999C232.301 71.0999 244.301 64.9999 251.601 50.2999C251.801 49.8999 252.001 48.8999 252.201 48.4999Z" fill="white"/>
<path d="M276.801 38.4998C276.801 41.3998 272.101 43.2998 271.101 43.6998C271.101 43.8998 271.101 44.1998 271.101 44.3998C271.101 45.1998 271.201 46.1998 271.701 46.8998C272.201 47.5998 272.901 47.8998 273.901 47.8998C278.701 47.8998 288.401 40.5998 288.401 40.5998C288.501 40.4998 288.701 40.4998 288.801 40.4998C289.301 40.4998 289.601 40.8998 289.601 41.2998C289.601 41.4998 289.501 41.5998 289.301 41.7998C289.201 41.7998 279.801 48.5998 274.101 48.5998C272.601 48.5998 271.301 48.0998 270.601 46.9998C269.901 45.9998 269.701 44.9998 269.701 43.9998C269.701 41.9998 270.701 40.1998 271.801 38.7998C272.401 38.0998 273.101 37.4998 273.801 37.1998C274.301 36.8998 274.701 36.7998 275.201 36.7998C275.401 36.7998 275.701 36.7998 275.901 36.8998C276.401 37.0998 276.701 37.5998 276.801 38.1998C276.801 38.2998 276.801 38.3998 276.801 38.4998ZM274.701 38.4998C274.701 38.3998 274.701 38.3998 274.601 38.3998C273.901 38.4998 273.201 39.7998 271.601 41.8998C273.901 39.9998 274.701 38.7998 274.701 38.4998Z" fill="white"/>
<path d="M285.701 59C285.701 60.1 285.801 60.9 286.101 61.5C286.501 62.2 287.001 62.6 287.601 62.6C292.701 62.6 305.901 41.4 306.001 41.4C306.401 40.9 306.701 40.7 307.101 40.7C307.501 40.7 307.801 41 307.801 41.5C307.801 41.6 293.901 63.2 287.601 63.2C286.701 63.2 285.901 62.7 285.301 61.6C284.901 60.9 284.801 59.7 284.801 58.3C284.801 49.1 291.601 28 296.201 21.6C297.301 19.7 298.401 18.1 299.401 16.9C300.501 15.7 301.501 15 302.301 15C302.901 15 303.401 15.4 303.601 16.2C303.701 16.6 303.801 17 303.801 17.6C303.801 23.9 293.801 38.7 289.601 41.5C287.001 49.6 285.701 55.6 285.701 59ZM302.501 16.9C302.501 16.7 302.501 16.6 302.401 16.5C302.301 16.3 302.201 16.2 302.201 16.2C301.801 16.2 301.201 16.8 300.401 17.7C299.501 18.7 298.401 20.3 297.401 22.1C295.201 25.8 292.401 33.5 290.801 38.2C292.801 36.1 302.501 20.6 302.501 16.9Z" fill="white"/>
<path d="M312.201 42.3001C309.401 44.9001 306.301 47.9001 304.801 47.9001C304.801 47.9001 304.701 47.9001 304.601 47.9001C304.201 47.8001 303.901 47.6001 303.701 47.3001C303.401 47.0001 303.301 46.5001 303.301 46.0001C303.301 45.8001 303.301 45.6001 303.301 45.5001C303.401 44.9001 303.601 44.2001 303.901 43.5001C304.901 41.3001 307.101 38.6001 309.801 37.8001C310.501 37.6001 311.101 37.5001 311.701 37.5001C312.801 37.5001 313.601 37.9001 314.101 38.4001C315.201 37.5001 316.401 36.6001 317.001 36.6001C317.101 36.6001 317.201 36.6001 317.301 36.7001C317.801 36.8001 318.001 37.2001 318.001 38.0001C318.001 38.8001 317.701 40.0001 317.101 41.5001C316.701 42.6001 316.501 43.4001 316.501 44.1001C316.501 45.9001 317.701 46.6001 319.401 46.6001C323.801 46.6001 332.101 41.9001 333.301 40.4001C333.501 40.0001 333.801 39.8001 334.001 39.8001C334.301 39.8001 334.501 40.1001 334.501 40.5001C334.501 40.7001 334.401 40.9001 334.301 41.1001C333.901 41.7001 324.501 47.2001 319.001 47.2001C316.801 47.2001 315.201 46.3001 315.201 43.6001C315.201 42.9001 315.301 42.1001 315.601 41.1001C315.801 39.8001 316.301 38.5001 316.301 38.3001C316.301 38.3001 315.801 38.8001 315.001 39.6001C315.101 40.0001 315.101 40.4001 315.101 40.6001V40.7001C314.801 41.2001 314.401 41.4001 314.001 41.4001C313.901 41.4001 313.701 41.4001 313.601 41.3001L313.501 41.0001C313.001 41.6001 312.801 41.8001 312.201 42.3001ZM311.601 40.0001C309.901 40.0001 307.001 43.8001 307.001 44.6001C307.001 44.7001 307.101 44.8001 307.201 44.8001C307.901 44.8001 310.001 43.1001 312.201 40.2001C312.001 40.1001 311.801 40.0001 311.601 40.0001Z" fill="white"/>
<path d="M351.301 38.6C351.301 41.6 349.501 46.2 349.201 47.6C352.201 43.5 360.801 40.1 363.701 40.1C363.901 40.1 364.101 40.1 364.201 40.1C364.601 40.2 364.801 40.4 364.801 40.6C364.801 40.9 364.601 41.2 364.201 41.5C356.501 41.8 351.101 46.1 348.201 49.9C346.801 54.9 343.401 63.5 341.801 67.9C341.301 69.1 338.101 77.9 336.001 77.9C335.901 77.9 335.801 77.9 335.801 77.9C334.801 77.6 334.501 76.6 334.501 75.5C334.501 74.3 334.801 73 335.001 72.6C335.601 70.4 336.601 67.6 337.901 64.7C339.701 60.6 343.101 55 345.801 51.3C346.201 49.8 346.901 47.5 347.301 46.1C347.501 45.4 349.001 39.2 349.001 37.7C349.001 37.5 349.001 37.4 348.901 37.3H348.801C347.601 37.3 339.001 48.5 335.801 49.3C335.301 49.4 334.901 49.5 334.501 49.5C333.301 49.5 332.501 48.9 332.401 47.9C332.301 47.4 332.201 46.9 332.201 46.4C332.201 43.2 333.901 38.9 334.601 36.2C334.701 35.7 335.101 35.5 335.601 35.5C336.501 35.5 337.701 36.2 337.701 37C337.701 37.1 337.701 37.2 337.701 37.2C337.001 39.8 335.601 43.2 335.601 45.9C335.601 46.2 335.601 46.5 335.701 46.8C335.801 47.4 335.901 47.7 336.301 47.7H336.401C339.601 47.1 346.401 35.9 349.601 35.9C350.801 35.9 351.301 37 351.301 38.6ZM344.501 55.5C343.001 58.1 340.801 62.9 339.701 65.4C338.401 68.4 337.401 71.1 336.801 73.2C336.401 74.6 336.201 75.7 336.201 76.3V76.4C336.901 75.8 339.101 71.9 340.901 67C342.001 64.2 343.401 58.9 344.501 55.5Z" fill="white"/>
<path d="M370.2 35.4C370.2 35.2 370.1 35.1 369.9 35.1C369.7 35.1 369.5 35.2 369.2 35.3C368.5 35.6 367.3 36.7 366.2 38.2C365.5 39.2 365.2 40.1 365.2 41C365.2 43.3 367.3 45.3 368.9 48.1C372.1 45.8 374.9 44.1 378.5 42.3C380.5 41.3 383.2 40 385.6 39.1C386.4 39.2 386.8 39.8 386.8 40.5C386.8 40.9 386.6 41.3 386.3 41.5C383.9 41.8 381.7 42.7 379.8 43.7C376.2 45.5 372.8 47 369.6 49.3C370.2 50.5 370.5 51.8 370.5 53.2C370.5 58.5 366.5 64.4 361.9 64.4C361.4 64.4 361 64.3 360.5 64.2C359.1 63.9 358.5 62.5 358.5 61.1C358.5 60.6 358.6 60.1 358.7 59.6C359.4 57.3 362.4 53.2 368.3 48.7C367 46.5 363.4 43.6 363.4 40.3C363.4 39.3 363.7 38.3 364.5 37.2C365.8 35.4 367.8 34.4 368.6 34C369.4 33.7 370 33.5 370.5 33.5C371.4 33.5 371.9 34 372 34.9C372 35.1 372 35.2 372 35.5C372 37.6 370.8 40.3 370.8 40.4C370.5 40.8 370.1 40.9 369.6 40.9C368.9 40.9 368.1 40.4 368.1 39.7C368.1 39.6 368.1 39.5 368.1 39.4C368.2 39.3 370.2 36.4 370.2 35.4ZM360 59.9C359.9 60.2 359.8 60.6 359.8 60.9C359.8 61.5 360 62 360.7 62.2C361 62.3 361.3 62.3 361.7 62.3C365.5 62.3 369.3 56.6 369.3 52.1C369.3 51.2 369.2 50.3 368.8 49.6C363.5 53.8 360.7 57.9 360 59.9Z" fill="white"/>
<path d="M401.901 37.6998C401.801 37.4998 401.801 37.3998 401.801 37.1998C401.801 36.8998 401.901 36.6998 402.101 36.4998C402.301 36.3998 402.501 36.2998 402.701 36.2998C402.801 36.2998 402.901 36.2998 403.101 36.3998C403.701 36.5998 404.101 37.1998 404.401 38.1998C405.201 39.0998 406.401 39.7998 408.701 39.9998C409.901 40.0998 411.001 40.0998 412.001 40.0998C415.701 40.0998 417.601 39.4998 417.601 39.4998H417.801C418.201 39.4998 418.401 39.7998 418.401 40.1998C418.401 40.5998 418.201 40.8998 417.901 40.9998C417.901 40.9998 416.501 41.2998 413.601 41.2998C412.301 41.2998 410.801 41.1998 409.001 41.0998C407.101 40.8998 405.801 40.5998 404.801 40.0998C404.801 43.0998 403.601 47.7998 401.001 49.6998C400.501 49.9998 399.901 50.1998 399.401 50.1998C399.101 50.1998 398.801 50.1998 398.601 50.0998C397.601 49.6998 397.201 48.6998 397.201 47.4998C397.201 45.8998 397.801 43.9998 398.201 43.0998C398.801 41.7998 400.701 38.7998 402.001 37.9998C401.901 37.7998 401.901 37.6998 401.901 37.6998ZM399.401 43.6998C399.201 44.1998 398.601 46.0998 398.601 47.3998C398.601 47.9998 398.701 48.3998 399.101 48.5998C399.201 48.5998 399.201 48.5998 399.301 48.5998C400.901 48.5998 403.001 41.0998 403.001 39.0998V38.9998C402.901 38.8998 402.801 38.8998 402.801 38.7998C401.401 39.7998 400.001 42.1998 399.401 43.6998Z" fill="white"/>
<path d="M418.5 41.3C419.9 38.4 421.9 36.5 423.5 36.5C424.2 36.5 424.9 36.9 425.5 37.6C426.8 40.5 432 41 435.9 41C437.6 41 439.1 40.9 439.8 40.9C440.2 40.9 440.5 40.5 440.6 40.5C440.7 40.5 440.9 40.4 441 40.4C441.2 40.4 441.3 40.5 441.3 40.6C441.3 40.8 441.1 41.2 440.8 41.3C440.6 41.5 438 41.9 434.8 41.9C431 41.9 426.5 41.3 424.7 38.8C424.5 38.5 424.2 38.4 424 38.4C421.5 38.4 416.9 49.4 416.9 49.4V49.5C416.9 49.9 416.4 50.1 415.9 50.1C415.3 50.1 414.6 49.9 414.6 49.5C414.6 49.4 414.6 49.4 414.6 49.4L417.6 36.9C417.8 36.2 418.4 36 419 36C419.7 36 420.3 36.4 420.3 37V37.1L418.5 41.3Z" fill="white"/>
<path d="M474.2 6.89993C474.8 6.89993 475.3 7.59993 475.5 9.39993C473.3 17.3999 467.2 34.8999 463.1 50.6999L465 50.3999C471.8 32.2999 481.2 10.9999 490.4 6.99992C493 5.79992 495.4 5.29993 497.4 5.29993C504.1 5.29993 507.8 10.7999 507.8 17.7999C507.8 23.9999 505 31.2999 498.8 37.4999C490.8 45.3999 478.4 49.3999 468.1 51.2999C486.5 52.9999 507.5 58.1999 507.5 63.7999C507.5 63.9999 507.5 64.2999 507.4 64.4999C507.2 64.8999 506.8 65.0999 506.4 65.0999C506.1 65.0999 505.8 64.8999 505.5 64.4999C502.9 56.9999 481.5 53.1999 466.2 52.5999H466.1C463.6 59.2999 461.1 65.3999 459.5 70.0999C457.8 75.1999 456.7 78.4999 455.9 78.4999C455.4 78.3999 455.2 78.0999 455.2 77.4999V77.2999C455.4 75.0999 457.4 66.7999 460.1 56.4999C460.5 55.1999 460.8 53.7999 461.1 52.4999C454.6 53.2999 449.9 53.2999 449.2 53.2999H448.5L448.4 52.6999V52.4999C448.4 51.8999 448.9 51.3999 449.7 51.0999C450.8 50.6999 452.7 50.4999 455.2 50.4999H455.9C457.6 50.4999 459.5 50.5999 461.5 50.6999C465.7 34.6999 470.7 18.0999 472.9 9.99992C473 9.49992 473.1 9.19992 473.1 9.09992V8.99992C472.9 8.99992 470.9 13.7999 470.9 13.7999C470.7 13.9999 470.4 14.1999 470.1 14.1999C469.6 14.1999 469.1 13.7999 469.1 13.0999C469.2 13.0999 472.3 6.89993 474.2 6.89993ZM461.5 56.6999C460.3 61.4999 459.2 65.7999 458.3 69.2999C459.8 64.7999 461.8 58.7999 464.2 52.2999L462.6 52.1999C462.3 53.6999 461.9 55.1999 461.5 56.6999ZM467.2 49.9999C477.6 48.1999 489.6 44.4999 497.8 36.4999C503.6 30.7999 506.4 23.5999 506.4 17.7999C506.4 11.8999 503.5 7.49992 497.9 7.49992C496.1 7.49992 493.9 7.99992 491.6 8.99992C482.9 12.7999 473.9 32.2999 467.2 49.9999Z" fill="white"/>
<path d="M508.301 38.4998C508.301 41.3998 503.601 43.2998 502.601 43.6998C502.601 43.8998 502.601 44.1998 502.601 44.3998C502.601 45.1998 502.701 46.1998 503.201 46.8998C503.701 47.5998 504.401 47.8998 505.401 47.8998C510.201 47.8998 519.901 40.5998 519.901 40.5998C520.001 40.4998 520.201 40.4998 520.301 40.4998C520.801 40.4998 521.101 40.8998 521.101 41.2998C521.101 41.4998 521.001 41.5998 520.801 41.7998C520.701 41.7998 511.301 48.5998 505.601 48.5998C504.101 48.5998 502.801 48.0998 502.101 46.9998C501.401 45.9998 501.201 44.9998 501.201 43.9998C501.201 41.9998 502.201 40.1998 503.301 38.7998C503.901 38.0998 504.601 37.4998 505.301 37.1998C505.801 36.8998 506.201 36.7998 506.701 36.7998C506.901 36.7998 507.201 36.7998 507.401 36.8998C507.901 37.0998 508.201 37.5998 508.301 38.1998C508.301 38.2998 508.301 38.3998 508.301 38.4998ZM506.201 38.4998C506.201 38.3998 506.201 38.3998 506.101 38.3998C505.401 38.4998 504.701 39.7998 503.101 41.8998C505.301 39.9998 506.201 38.7998 506.201 38.4998Z" fill="white"/>
<path d="M520.8 48.4999C520.8 48.5999 520.8 48.6999 520.9 48.6999C520.9 48.6999 521 48.6999 521 48.5999C521.9 47.8999 528.7 34.6999 529.4 33.3999L529.8 32.4999C529.9 32.3999 530.2 32.3999 530.5 32.3999C531.2 32.3999 532.1 32.5999 532.1 33.1999V33.2999L531.6 34.2999C531.4 34.7999 530.8 36.0999 530.8 37.4999C530.8 39.0999 531.8 40.7999 535.9 40.7999C536.5 40.7999 537.1 40.7999 537.8 40.6999C538.3 40.7999 538.5 41.1999 538.5 41.3999C538.5 41.6999 538.3 41.9999 537.8 42.0999C531.6 42.0999 529.7 39.7999 529.4 37.4999C526.4 42.9999 521.2 51.9999 519.2 51.9999C519.1 51.9999 519 51.9999 518.9 51.8999C518.2 51.7999 517.9 50.5999 517.9 48.9999C517.9 45.2999 519.4 38.9999 520.4 36.0999C520.6 35.3999 521.1 35.1999 521.6 35.1999C522.4 35.1999 523.4 35.8999 523.7 36.6999C523.8 36.6999 520.8 46.8999 520.8 48.4999Z" fill="white"/>
<path d="M543.301 38.4998C543.301 41.3998 538.601 43.2998 537.601 43.6998C537.601 43.8998 537.601 44.1998 537.601 44.3998C537.601 45.1998 537.701 46.1998 538.201 46.8998C538.701 47.5998 539.401 47.8998 540.401 47.8998C545.201 47.8998 554.901 40.5998 554.901 40.5998C555.001 40.4998 555.201 40.4998 555.301 40.4998C555.801 40.4998 556.101 40.8998 556.101 41.2998C556.101 41.4998 556.001 41.5998 555.801 41.7998C555.701 41.7998 546.301 48.5998 540.601 48.5998C539.101 48.5998 537.801 48.0998 537.101 46.9998C536.401 45.9998 536.201 44.9998 536.201 43.9998C536.201 41.9998 537.201 40.1998 538.301 38.7998C538.901 38.0998 539.601 37.4998 540.301 37.1998C540.801 36.8998 541.201 36.7998 541.701 36.7998C541.901 36.7998 542.201 36.7998 542.401 36.8998C542.901 37.0998 543.201 37.5998 543.301 38.1998C543.301 38.2998 543.301 38.3998 543.301 38.4998ZM541.201 38.4998C541.201 38.3998 541.201 38.3998 541.101 38.3998C540.401 38.4998 539.701 39.7998 538.101 41.8998C540.301 39.9998 541.201 38.7998 541.201 38.4998Z" fill="white"/>
<path d="M555.501 44.8C557.501 42.2 559.501 40 561.001 40C561.701 40 562.301 40.4 562.801 41.4C564.301 44.9 566.201 46.3 568.301 46.3C571.101 46.3 574.401 44 578.101 41.2C578.201 41 578.401 41 578.601 41C578.901 41 579.301 41.4 579.301 41.7C579.301 41.9 579.201 42.1 579.001 42.2C576.201 44.4 572.001 47.6 568.201 47.6C565.801 47.6 563.601 46.4 562.001 42.8C561.901 42.5 561.701 42.3 561.501 42.3C559.701 42.3 554.601 49.5 554.501 50.2C554.301 50.7 553.601 50.9 553.101 50.9C552.601 50.9 552.201 50.7 552.201 50.2V50.1L555.601 36.5C555.801 35.8 556.301 35.5 556.801 35.5C557.401 35.5 558.101 36 558.101 36.8V36.9L555.501 44.8Z" fill="white"/>
<path d="M578.6 46.8999C578.6 47.5999 578.8 48.0999 579.4 48.0999C579.5 48.0999 579.6 48.0999 579.6 48.0999C581.7 47.4999 587.2 39.7999 587.3 37.7999C587.4 37.0999 587.8 36.7999 588.1 36.7999C588.7 36.7999 589.5 37.5999 589.5 38.4999C589.5 38.4999 588.9 41.1999 588.9 43.4999C588.9 44.9999 589.1 46.2999 589.9 46.6999C590 46.7999 590.3 46.7999 590.5 46.7999C593.3 46.7999 601 40.4999 601.1 40.4999C601.3 40.3999 601.5 40.2999 601.6 40.2999C602 40.2999 602.3 40.6999 602.3 41.0999C602.3 41.1999 602.3 41.2999 602.2 41.4999C602.2 41.4999 594.5 47.6999 590.6 47.6999C590.2 47.6999 589.8 47.5999 589.5 47.4999C588 46.6999 587.6 44.5999 587.6 42.4999V42.1999C585.7 45.3999 582.2 49.9999 579.5 49.9999C579.1 49.9999 578.8 49.8999 578.5 49.7999C577.3 49.1999 576.9 47.8999 576.9 46.2999C576.9 41.9999 580.2 35.7999 580.2 35.6999C580.4 35.0999 580.9 34.7999 581.5 34.7999C582.3 34.7999 583.2 35.4999 583.2 36.3999C583.2 36.4999 583.2 36.5999 583.2 36.6999C580.3 40.7999 578.6 44.8999 578.6 46.8999Z" fill="white"/>
<path d="M607.301 38.4998C607.301 41.3998 602.601 43.2998 601.601 43.6998C601.601 43.8998 601.601 44.1998 601.601 44.3998C601.601 45.1998 601.701 46.1998 602.201 46.8998C602.701 47.5998 603.401 47.8998 604.401 47.8998C609.201 47.8998 618.901 40.5998 618.901 40.5998C619.001 40.4998 619.201 40.4998 619.301 40.4998C619.801 40.4998 620.101 40.8998 620.101 41.2998C620.101 41.4998 620.001 41.5998 619.801 41.7998C619.701 41.7998 610.301 48.5998 604.601 48.5998C603.101 48.5998 601.801 48.0998 601.101 46.9998C600.401 45.9998 600.201 44.9998 600.201 43.9998C600.201 41.9998 601.201 40.1998 602.301 38.7998C602.901 38.0998 603.601 37.4998 604.301 37.1998C604.801 36.8998 605.201 36.7998 605.701 36.7998C605.901 36.7998 606.201 36.7998 606.401 36.8998C606.901 37.0998 607.201 37.5998 607.301 38.1998C607.301 38.2998 607.301 38.3998 607.301 38.4998ZM605.201 38.4998C605.201 38.3998 605.201 38.3998 605.101 38.3998C604.401 38.4998 603.701 39.7998 602.101 41.8998C604.401 39.9998 605.201 38.7998 605.201 38.4998Z" fill="white"/>
<path d="M657.001 1.6999C657.401 1.0999 657.701 0.899902 658.101 0.899902C658.701 0.899902 659.101 1.3999 659.101 1.9999C659.101 2.1999 659.001 2.4999 658.901 2.6999C658.701 3.1999 656.801 5.7999 656.501 10.3999C655.301 26.0999 644.401 58.7999 640.301 67.0999C640.401 66.9999 640.601 66.8999 640.701 66.7999C645.101 63.4999 666.701 57.9999 677.501 57.9999C679.501 57.9999 681.201 58.1999 682.201 58.5999C682.801 58.7999 683.001 59.1999 683.001 59.5999C683.001 60.1999 682.501 60.7999 682.001 60.7999C681.901 60.7999 681.801 60.7999 681.801 60.7999C679.801 60.0999 678.601 59.4999 676.201 59.4999H676.001C663.401 59.6999 646.401 63.3999 641.701 67.8999C641.001 68.3999 640.201 69.3999 639.501 69.6999C638.801 69.9999 638.201 70.1999 637.701 70.1999C637.101 70.1999 636.801 69.8999 636.801 69.4999C636.801 68.9999 637.401 68.1999 638.501 67.5999C641.301 67.5999 651.001 28.4999 655.201 9.9999L655.801 7.5999L655.401 8.0999C655.301 8.1999 655.101 8.1999 654.901 8.1999C654.301 8.1999 653.601 7.6999 653.501 6.9999C654.101 6.5999 656.401 3.8999 657.001 1.6999Z" fill="white"/>
<path d="M663.2 37.6998C663.1 37.4998 663.1 37.3998 663.1 37.1998C663.1 36.8998 663.2 36.6998 663.4 36.4998C663.6 36.3998 663.7 36.2998 664 36.2998C664.1 36.2998 664.2 36.2998 664.4 36.3998C665 36.5998 665.4 37.1998 665.7 38.1998C666.5 39.0998 667.7 39.7998 670 39.9998C671.2 40.0998 672.3 40.0998 673.3 40.0998C677 40.0998 678.9 39.4998 678.9 39.4998H679.1C679.5 39.4998 679.7 39.7998 679.7 40.1998C679.7 40.5998 679.5 40.8998 679.2 40.9998C679.2 40.9998 677.8 41.2998 674.9 41.2998C673.6 41.2998 672.1 41.1998 670.3 41.0998C668.4 40.8998 667.1 40.5998 666.1 40.0998C666.1 43.0998 664.9 47.7998 662.3 49.6998C661.8 49.9998 661.2 50.1998 660.7 50.1998C660.4 50.1998 660.1 50.1998 659.9 50.0998C658.9 49.6998 658.5 48.6998 658.5 47.4998C658.5 45.8998 659.1 43.9998 659.6 43.0998C660.2 41.7998 662.1 38.7998 663.4 37.9998C663.2 37.7998 663.2 37.6998 663.2 37.6998ZM660.7 43.6998C660.5 44.1998 659.9 46.0998 659.9 47.3998C659.9 47.9998 660 48.3998 660.4 48.5998C660.5 48.5998 660.5 48.5998 660.6 48.5998C662.2 48.5998 664.3 41.0998 664.3 39.0998V38.9998C664.2 38.8998 664.1 38.8998 664.1 38.7998C662.7 39.7998 661.4 42.1998 660.7 43.6998Z" fill="white"/>
<path d="M684.8 35.4C684.8 35.2 684.7 35.1 684.5 35.1C684.3 35.1 684.1 35.2 683.8 35.3C683.1 35.6 681.9 36.7 680.8 38.2C680.1 39.2 679.8 40.1 679.8 41C679.8 43.3 681.9 45.3 683.5 48.1C686.7 45.8 689.5 44.1 693.1 42.3C695.1 41.3 697.8 40 700.2 39.1C701 39.2 701.4 39.8 701.4 40.5C701.4 40.9 701.2 41.3 700.9 41.5C698.5 41.8 696.3 42.7 694.4 43.7C690.8 45.5 687.4 47 684.2 49.3C684.8 50.5 685.1 51.8 685.1 53.2C685.1 58.5 681.1 64.4 676.5 64.4C676 64.4 675.6 64.3 675.1 64.2C673.7 63.9 673.1 62.5 673.1 61.1C673.1 60.6 673.2 60.1 673.3 59.6C674 57.3 677 53.2 682.9 48.7C681.6 46.5 678 43.6 678 40.3C678 39.3 678.3 38.3 679.1 37.2C680.4 35.4 682.4 34.4 683.2 34C684 33.7 684.6 33.5 685.1 33.5C686 33.5 686.5 34 686.6 34.9C686.6 35.1 686.6 35.2 686.6 35.5C686.6 37.6 685.4 40.3 685.4 40.4C685.1 40.8 684.7 40.9 684.2 40.9C683.5 40.9 682.7 40.4 682.7 39.7C682.7 39.6 682.7 39.5 682.7 39.4C682.8 39.3 684.8 36.4 684.8 35.4ZM674.7 59.9C674.6 60.2 674.5 60.6 674.5 60.9C674.5 61.5 674.7 62 675.4 62.2C675.7 62.3 676 62.3 676.4 62.3C680.2 62.3 684 56.6 684 52.1C684 51.2 683.9 50.3 683.5 49.6C678.1 53.8 675.3 57.9 674.7 59.9Z" fill="white"/>
<path d="M706.501 35.4C706.501 35.2 706.401 35.1 706.201 35.1C706.001 35.1 705.801 35.2 705.501 35.3C704.801 35.6 703.601 36.7 702.501 38.2C701.801 39.2 701.501 40.1 701.501 41C701.501 43.3 703.601 45.3 705.201 48.1C708.401 45.8 711.201 44.1 714.801 42.3C716.801 41.3 719.501 40 721.901 39.1C722.701 39.2 723.101 39.8 723.101 40.5C723.101 40.9 722.901 41.3 722.601 41.5C720.201 41.8 718.001 42.7 716.101 43.7C712.501 45.5 709.101 47 705.901 49.3C706.501 50.5 706.801 51.8 706.801 53.2C706.801 58.5 702.801 64.4 698.201 64.4C697.701 64.4 697.301 64.3 696.801 64.2C695.401 63.9 694.801 62.5 694.801 61.1C694.801 60.6 694.901 60.1 695.001 59.6C695.701 57.3 698.701 53.2 704.601 48.7C703.301 46.5 699.701 43.6 699.701 40.3C699.701 39.3 700.001 38.3 700.801 37.2C702.101 35.4 704.101 34.4 704.901 34C705.701 33.7 706.301 33.5 706.801 33.5C707.701 33.5 708.201 34 708.301 34.9C708.301 35.1 708.301 35.2 708.301 35.5C708.301 37.6 707.101 40.3 707.101 40.4C706.801 40.8 706.401 40.9 705.901 40.9C705.201 40.9 704.401 40.4 704.401 39.7C704.401 39.6 704.401 39.5 704.401 39.4C704.401 39.3 706.501 36.4 706.501 35.4ZM696.301 59.9C696.201 60.2 696.101 60.6 696.101 60.9C696.101 61.5 696.301 62 697.001 62.2C697.301 62.3 697.601 62.3 698.001 62.3C701.801 62.3 705.601 56.6 705.601 52.1C705.601 51.2 705.501 50.3 705.101 49.6C699.701 53.8 696.901 57.9 696.301 59.9Z" fill="white"/>
</svg>
