<svg xmlns="http://www.w3.org/2000/svg" width="124" height="118" fill="none"><path fill="#B9D0DF" d="M100.284 114.16c-.676-4.083-1.562-8.046-2.613-12.053-.81-3.588-1.442-7.837-3.21-11.15-.923-1.843-4.13-1.106-4.002 1.058 0 0-.044.165.121.21-.463.407-.882.65-1.511 1.014-.165-.045-.54.032-.705-.012-.375.077-.794.32-1.213.562-7.635-7.19-15.359-14.05-22.111-21.89-2.035-2.32-3.86-4.76-5.431-7.487 9.845-3.039 21.898-9.034 22.875-19.948 1.202-14.401-15.496-10.893-22.36-5.104-8.374 6.803-9.995 14.174-6.164 23.006-6.504 1.805-13.403 2.44-19.427.471-14.57-4.436-13.5-18.34-6.729-28.412 3.852 2.806 8.675 4.63 13.237 4.789 8.208.425 18.34-9.633 14.75-18.045-3.633-8.247-20.925.78-24.843 4.165a30.178 30.178 0 0 0-3.332 3.186c-.121-.21-.287-.254-.407-.463C17.354 17.256 28.38 7.087 38.048 4.71c1.499-.308.483-1.3-.972-1.158-9.776 1.46-19.834 8.175-16.68 20.196a17.773 17.773 0 0 0 4.636 7.806c-6.073 8.129-8.912 18.722-2.425 27.555 7.783 10.6 22 9.089 33 6.36l.242.42c6.559 11.868 17.893 21.114 27.86 30.17-1.136.938-2.317 2.041-3.453 2.978-.718.695-.863 1.898-.38 2.737 4.331 6.305 10.13 11.761 17.253 14.911 1.684.984 3.493-.482 3.155-2.525ZM55.976 56.166c-1.95-7.264 4.196-12.358 9.733-15.841 7.258-4.62 15.901-.53 11.556 8.418-2.278 4.534-7.593 7.19-11.905 9.405a49.865 49.865 0 0 1-7.564 3.118c-.802-1.634-1.394-3.39-1.82-5.1Zm-25.544-24.94c3.51-3.848 7.701-6.273 12.54-7.815 2.128-.671 4.377-1.133 6.658-1.054 6.06-.15.857 8.035-.92 10.042-5.155 5.36-12.952 2.739-18.278-1.172Zm54.272 69.713c.044-.166.21-.122.254-.287.495.133 1.08-.066 1.588-.639.805-1.026 1.777-2.007 2.748-2.99.464-.407 1.72-1.135 1.39-1.223.166.044.375-.077.42-.243.503 2.086 1.337 4.261 1.84 6.347.701 2.672 1.358 5.508 2.014 8.345-3.82-2.264-7.374-5.523-10.254-9.31Z"/></svg>