<svg xmlns="http://www.w3.org/2000/svg" width="49" height="48" fill="none"><g clip-path="url(#a)"><path fill="#423751" d="M4.627 37.248c.096.096.096.096 0 0Z"/><path fill="#423751" d="M29.107 23.808 5.875 37.152a1.31 1.31 0 0 1-1.152.192h-.096l-1.152-.48c-.384-.192-.768-.576-.768-1.248L.5 16.512c-.096-1.152.576-2.592 1.536-3.168L25.171 0c.48-.288.864-.288 1.248-.096l1.152.48c.384.096.672.576.768 1.248l2.208 19.008c.192 1.152-.48 2.592-1.44 3.168Z"/><path fill="#423751" d="M4.627 37.248c.096.096.096.096 0 0Z"/><path fill="#312944" d="M26.42-.192c-.385-.192-.769-.096-1.249.192L2.035 13.344C1.075 13.92.403 15.36.5 16.512L2.707 35.52c.096.672.384 1.056.768 1.248l1.152.48c-.384-.192-.768-.576-.768-1.248L1.651 16.992c-.096-1.152.576-2.592 1.536-3.168L26.323.48c.48-.288.864-.288 1.248-.192l-1.152-.48Z"/><path fill="#423751" d="M26.324.48c.96-.576 1.824-.096 2.016 1.152l2.208 19.008c.096 1.152-.576 2.592-1.536 3.168L5.876 37.152c-.96.576-1.824.096-2.016-1.152L1.652 16.992c-.096-1.152.576-2.592 1.536-3.168L26.324.48Z"/><path fill="#FFD86A" d="M29.108 20.736 5.684 34.272c-.384.288-.96 0-1.056-.48l-1.92-16.8c-.096-.768.384-1.824.96-2.112L26.612 1.536c.288-.192.672 0 .672.384l2.112 18.144c.096.288 0 .576-.288.672Z"/><path fill="#FCCB4F" d="M29.107 20.736 5.683 34.272c-.384.288-.96 0-1.056-.48L3.475 23.328c4.704 1.824 10.272-1.056 12.48-6.432 1.344-3.168 1.152-6.528 0-9.12l10.752-6.144c.288-.192.672 0 .672.384L29.49 20.16c0 .192-.096.48-.384.576Z"/><path fill="#EDEEF2" d="M48.5 32.064v1.344c0 .384-.192.768-.672.96l-23.04 13.344c-.96.576-2.496.576-3.456 0L5.684 38.784c-.48-.288-.768-.672-.768-1.056v-1.344c0-.384.192-.768.672-1.056l1.92-1.152 1.152.672 18.048-10.464V23.04l1.92-1.152c.96-.576 2.496-.576 3.456 0l15.648 9.024c.48.384.768.768.768 1.152Z"/><path fill="#423751" d="m27.86 23.808-1.153-.672c-.864.288-.672.768 0 1.344l1.152.672v-1.344Z"/><path fill="#B5B7C6" d="m47.828 33.024-23.04 13.344c-.96.576-2.496.576-3.456 0L5.684 37.44c-.48-.288-.768-.672-.768-1.056v1.344c0 .384.288.768.768 1.056l15.648 9.024c.96.576 2.496.576 3.456 0l23.04-13.344c.48-.288.672-.672.672-.96V32.16c0 .288-.288.672-.672.864Z"/><path fill="#EDEEF2" d="M47.73 31.008c.96.576.96 1.44 0 2.016L24.69 46.368c-.96.576-2.495.576-3.455 0L5.683 37.44c-.96-.576-.96-1.44 0-2.016l1.92-1.152 1.152.672 19.2-11.136-1.152-.672 1.92-1.152c.96-.576 2.496-.576 3.456 0l15.552 9.024Z"/><path fill="#E0E1EC" d="m47.827 33.024-23.04 13.344c-.96.576-2.496.576-3.456 0L5.683 37.44c-.96-.576-.96-1.44 0-2.016l.672-.384c2.592 1.92 6.144 3.168 10.176 3.168 7.776 0 14.112-4.608 14.112-10.368 0-2.112-.864-4.032-2.304-5.664l.288-.192c.96-.576 2.496-.576 3.456 0l15.648 9.024c.96.576 1.056 1.536.096 2.016Z"/><path fill="#B5B7C6" d="M37.94 36.096c.48.288.48.672 0 .96l-8.256 4.8a1.65 1.65 0 0 1-1.632 0l-4.512-2.688c-.48-.288-.48-.672 0-.96l8.256-4.8a1.65 1.65 0 0 1 1.632 0l4.512 2.688Z"/><path fill="#423751" d="m38.132 36.864-.192.192-8.256 4.8a1.65 1.65 0 0 1-1.632 0l-4.512-2.688c-.096-.096-.192-.096-.192-.192l.192-.192 8.256-4.8a1.65 1.65 0 0 1 1.632 0l4.512 2.592c.096.192.192.192.192.288Z"/><path fill="#382E49" d="m38.132 36.864-.192.192-8.256 4.8a1.65 1.65 0 0 1-1.632 0l-2.304-1.344h.192c3.264 0 5.856-2.016 5.856-4.512 0-.576-.192-1.152-.48-1.728l.384-.192a1.65 1.65 0 0 1 1.632 0l4.512 2.592c.192.096.288.096.288.192Z"/><path fill="#423751" d="m38.131 36.192-.096-.096c0 .096 0 .096.096.096Z"/><path fill="#B5B7C6" d="m38.132 36.864-.192-.192-4.512-2.592a1.65 1.65 0 0 0-1.632 0l-8.256 4.8c-.096.096-.192.096-.192.192-.192-.288-.096-.576.192-.768l8.256-4.8a1.65 1.65 0 0 1 1.632 0l4.512 2.592c.288.192.384.48.192.768ZM35.635 28.32c.48.288.48.672 0 .96L17.203 40.032c-.48.288-1.248.288-1.632 0l-5.184-2.976c-.48-.288-.48-.672 0-.96L28.82 25.44c.48-.288 1.248-.288 1.632 0l5.184 2.88Z"/><path fill="#423751" d="M36.307 28.32c.48.288.48.672 0 .96L17.875 39.936c-.48.288-1.248.288-1.632 0L11.06 36.96c-.48-.288-.48-.672 0-.96l18.432-10.656c.48-.288 1.248-.288 1.632 0l5.184 2.976Z"/><path fill="#382E49" d="M36.307 29.28 17.875 39.936c-.48.288-1.248.288-1.632 0L11.06 36.96c-.48-.288-.48-.672 0-.96l1.44-.864c1.824.864 4.416 1.152 7.008.48 4.608-1.152 7.68-4.512 6.912-7.584-.096-.288-.192-.576-.288-.768l3.36-1.92c.48-.288 1.248-.288 1.632 0l5.184 2.976c.48.192.48.672 0 .96Z"/><path fill="#FF3D47" d="m24.98 13.44-1.248 2.976a.75.75 0 0 1-.384.384c-.096 0-.096.096-.192.096l-1.44.096c-.096 0-.096 0-.192.096l-.288.288c-.864 1.344-1.824 2.592-2.976 3.552-.192.192-.288.384-.288.672l-.192 1.92c0 .288-.192.48-.384.672l-2.304 1.344c-.096.096-.192.096-.288 0l-1.536-.864c-.096 0-.096-.096-.096-.192l-.192-.96a5.59 5.59 0 0 1-1.824-.288h-.288c-.096 0-.096.096-.192.192l-1.44 1.632-.096.096c-.096.096-.192.096-.288 0l-1.632-.864h-.096l-1.248-1.44c-.096-.096-.096-.384.096-.672l1.152-1.92c.096-.192.192-.48.096-.672-.288-.768-.384-1.536-.384-2.496s.096-1.824.384-2.784v-.192l-1.344-.768c-.096-.096-.192-.288-.096-.576l1.248-2.976c.096-.192.288-.384.384-.48.096 0 .096-.096.192-.096l1.44-.096c.096 0 .096 0 .192-.096l.288-.288c.864-1.344 1.824-2.592 2.976-3.552.192-.192.288-.384.288-.672l.192-1.92c0-.288.192-.48.384-.672L15.668.576c.096-.096.192-.096.288 0l1.536.864c.096 0 .096.096.096.192l.096.864a5.59 5.59 0 0 1 1.824.288h.288c.096 0 .096-.096.192-.192L21.428.96c.192.096.288 0 .288 0 .096-.096.192-.096.288 0l1.536.864h.096l1.248 1.44c.096.096.096.384-.096.672l-1.152 1.92c-.096.192-.096.48-.096.672.288.768.384 1.536.384 2.496s-.096 1.824-.384 2.784V12l1.344.768c.192.192.192.384.096.672Z"/><path fill="#143838" d="m23.348 12-1.248-.48 1.536.864 1.152.48-1.44-.864ZM14.707 25.248l-.192-1.632c0-.096-.096-.192-.096-.192l-1.536-.864c.096 0 .096.096.096.192l.192 1.632c0 .096.096.192.096.192l1.536.864c-.096-.096-.096-.096-.096-.192ZM23.251 1.824c.096-.096.192-.096.288 0L22.003.96h-.288c-.096 0-.096.096-.192.192l-1.44 1.632s-.096.096-.192.096c-.096.096-.192.096-.288 0-.864-.288-1.824-.384-2.88-.096h-.192l1.536.864h.192c1.056-.288 2.016-.192 2.88.096h.288c.096 0 .096-.096.192-.192l1.44-1.632c.096 0 .192 0 .192-.096Z"/><path fill="#143838" d="M17.587 1.632 16.051.768h-.288L13.46 2.112c-.192.096-.384.384-.384.672l-.192 1.92c0 .192-.192.48-.288.672-1.152.96-2.112 2.208-2.976 3.552-.192.096-.288.192-.384.192-.096.096-.096.096-.192.096l-1.44.096c-.096 0-.096 0-.192.096-.096 0-.288.192-.288.384l-1.248 2.976c-.096.288-.096.48.096.576l1.248.672v.192c-.192.96-.384 1.92-.384 2.784 0 .96.096 1.824.384 2.496.096.192 0 .384-.096.672l-1.152 1.92c-.192.288-.192.48-.096.672l1.344 1.536h.096l1.536.864h-.096l-1.248-1.44c-.096-.096-.096-.384.096-.672l1.152-1.92c.096-.192.192-.48.096-.672-.288-.768-.384-1.536-.384-2.496s.096-1.824.384-2.784c.096-.192 0-.384-.096-.48l-1.344-.768c0-.096 0-.192.096-.288l1.248-2.976a.75.75 0 0 1 .384-.384c.096 0 .096-.096.192-.096l1.44-.096c.096 0 .096 0 .192-.096l.288-.288c.864-1.344 1.824-2.592 2.976-3.552.192-.192.288-.384.288-.672l.192-1.92c0-.288.192-.48.384-.672l2.304-1.344c0 .096.096.096.192.096Z"/><path fill="#2D7474" d="M17.298 1.632c.192-.096.384 0 .384.192l.192 1.632c0 .192.192.288.288.288 1.056-.288 2.016-.192 2.88.096h.288c.096 0 .096-.096.192-.192l1.44-1.632c.192-.096.288-.096.288-.192a.292.292 0 0 1 .384 0l1.248 1.44c.096.096.096.384-.096.672l-1.152 1.92c-.096.192-.096.48-.096.672.288.768.384 1.536.384 2.496s-.096 1.824-.384 2.784c-.096.192 0 .384.096.48l1.152.48c.192.096.192.288.096.576l-1.248 2.976a.75.75 0 0 1-.384.384c-.096 0-.096.096-.192.096l-1.44.096c-.096 0-.096 0-.192.096l-.288.288c-.864 1.344-1.824 2.592-2.976 3.552-.192.192-.288.384-.288.672l-.192 1.92c0 .288-.192.48-.384.672l-2.304 1.344c-.192.096-.384 0-.384-.192l-.192-1.632c0-.192-.192-.288-.288-.288-1.056.288-2.016.192-2.88-.096h-.288c-.096 0-.096.096-.192.192l-1.44 1.632c-.096 0-.192.096-.192.096a.292.292 0 0 1-.384 0l-1.248-1.44c-.096-.096-.096-.384.096-.672l1.152-1.92c.096-.192.192-.48.096-.672-.288-.768-.384-1.536-.384-2.496s.096-1.824.384-2.784c.096-.192 0-.384-.096-.48l-1.152-.48c-.192-.096-.192-.288-.096-.576l1.248-2.976a.75.75 0 0 1 .384-.384c.096 0 .096-.096.192-.096l1.44-.096c.096 0 .096 0 .192-.096l.288-.288c.864-1.344 1.824-2.592 2.976-3.552.192-.192.288-.384.288-.672l.192-1.92c0-.288.192-.48.384-.672l2.208-1.248Z"/><path fill="#245C5C" d="m24.98 13.44-1.248 2.976a.75.75 0 0 1-.384.384c-.096 0-.096.096-.192.096l-1.44.096c-.096 0-.096 0-.192.096l-.288.288c-.864 1.344-1.824 2.592-2.976 3.552-.192.192-.288.384-.288.672l-.192 1.92c0 .288-.192.48-.384.672l-2.304 1.344c-.192.096-.384 0-.384-.192l-.192-1.632c0-.192-.192-.288-.288-.288-1.056.288-2.016.192-2.88-.096h-.288c-.096 0-.096.096-.192.192l-1.44 1.632c-.192-.096-.288 0-.288 0a.292.292 0 0 1-.384 0l-1.248-1.44c-.096-.096-.096-.384.096-.672l1.152-1.92c.096-.192.192-.48.096-.672-.288-.768-.384-1.536-.384-2.496s.096-1.824.288-2.784c.096-.192 0-.384-.096-.48l-1.152-.48c-.096 0-.096-.096-.096-.096.192.096.48.288.672.384 3.456 1.536 7.68-.288 9.408-4.128 1.248-2.88.768-5.952-.96-8.064l.864-.48c.192-.096.384 0 .384.192l.192 1.632c0 .192.192.288.288.288 1.056-.288 2.016-.192 2.88.096h.288c.096 0 .096-.096.192-.192l1.44-1.632c.096-.288.192-.288.192-.384a.292.292 0 0 1 .384 0l1.248 1.44c.096.096.096.384-.096.672l-1.152 1.92c-.096.192-.096.48-.096.672.288.768.384 1.536.384 2.496s-.096 1.824-.384 2.784c-.096.192 0 .384.096.48l1.152.48c.288.192.288.384.192.672Z"/><path fill="#143838" d="M18.535 14.957c1.677-2.889 1.697-6.008.047-6.966-1.651-.957-4.349.608-6.025 3.497-1.677 2.889-1.697 6.007-.046 6.965 1.65.958 4.348-.607 6.024-3.496Z"/><path fill="#EDEEF2" d="M19.182 15.288c1.676-2.89 1.697-6.008.046-6.966-1.65-.958-4.348.608-6.025 3.497-1.676 2.889-1.697 6.007-.046 6.965 1.65.958 4.348-.607 6.025-3.496Z"/><path fill="#E0E1EC" d="M20.468 11.04c0 2.688-1.92 6.048-4.224 7.392-2.4 1.344-4.224.288-4.32-2.4v-.576c.384.096.864.192 1.344.192 2.4 0 4.32-1.92 4.32-4.32 0-1.056-.384-2.112-1.056-2.88 2.208-1.056 3.936 0 3.936 2.592Z"/></g><defs><clipPath id="a"><path fill="#fff" d="M.5 0h48v48H.5z"/></clipPath></defs></svg>