<svg width="49" height="48" viewBox="0 0 49 48" fill="none" xmlns="http://www.w3.org/2000/svg">
<g clip-path="url(#clip0_652_6822)">
<path d="M4.62695 37.2478C4.72295 37.3438 4.72295 37.3438 4.62695 37.2478V37.2478Z" fill="#423751"/>
<path d="M29.1074 23.8079L5.87536 37.1519C5.49135 37.4399 5.01136 37.4399 4.72336 37.3439C4.72336 37.3439 4.72336 37.3439 4.62736 37.3439L3.47535 36.8639C3.09135 36.6719 2.70736 36.2879 2.70736 35.6159L0.499355 16.5119C0.403355 15.3599 1.07536 13.9199 2.03536 13.3439L25.1714 -0.000107273C25.6514 -0.288107 26.0354 -0.288107 26.4194 -0.0961073L27.5714 0.383893C27.9554 0.479893 28.2434 0.959893 28.3394 1.63189L30.5474 20.6399C30.7394 21.7919 30.0674 23.2319 29.1074 23.8079Z" fill="#423751"/>
<path d="M4.62695 37.2478C4.72295 37.3438 4.72295 37.3438 4.62695 37.2478V37.2478Z" fill="#423751"/>
<path d="M26.4194 -0.192102C26.0354 -0.384102 25.6514 -0.288102 25.1714 -0.000102431L2.03536 13.3439C1.07536 13.9199 0.403355 15.3599 0.499355 16.5119L2.70736 35.5199C2.80335 36.1919 3.09135 36.5759 3.47535 36.7679L4.62736 37.2479C4.24336 37.0559 3.85935 36.6719 3.85935 35.9999L1.65136 16.9919C1.55536 15.8399 2.22736 14.3999 3.18736 13.8239L26.3234 0.479898C26.8034 0.191898 27.1874 0.191898 27.5714 0.287898L26.4194 -0.192102Z" fill="#312944"/>
<path d="M26.3237 0.479868C27.2837 -0.0961319 28.1477 0.383868 28.3397 1.63187L30.5477 20.6399C30.6437 21.7919 29.9717 23.2319 29.0117 23.8079L5.8757 37.1519C4.9157 37.7279 4.0517 37.2479 3.8597 35.9999L1.6517 16.9919C1.5557 15.8399 2.2277 14.3999 3.1877 13.8239L26.3237 0.479868Z" fill="#423751"/>
<path d="M29.1076 20.736L5.68361 34.272C5.29961 34.56 4.72361 34.272 4.62761 33.792L2.70761 16.992C2.61161 16.224 3.09161 15.168 3.66761 14.88L26.6116 1.53602C26.8996 1.34402 27.2836 1.53602 27.2836 1.92002L29.3956 20.064C29.4916 20.352 29.3956 20.64 29.1076 20.736Z" fill="#FFD86A"/>
<path d="M29.1066 20.736L5.68261 34.272C5.29861 34.56 4.72261 34.272 4.62661 33.792L3.47461 23.328C8.17861 25.152 13.7466 22.272 15.9546 16.896C17.2986 13.728 17.1066 10.368 15.9546 7.77596L26.7066 1.63196C26.9946 1.43996 27.3786 1.63196 27.3786 2.01596L29.4906 20.16C29.4906 20.352 29.3946 20.64 29.1066 20.736Z" fill="#FCCB4F"/>
<path d="M48.5 32.0638V33.4078C48.5 33.7918 48.308 34.1758 47.828 34.3678L24.788 47.7118C23.828 48.2878 22.292 48.2878 21.332 47.7118L5.68402 38.7838C5.20402 38.4958 4.91602 38.1118 4.91602 37.7278V36.3838C4.91602 35.9998 5.10802 35.6158 5.58802 35.3278L7.50802 34.1758L8.66002 34.8478L26.708 24.3838V23.0398L28.628 21.8878C29.588 21.3118 31.124 21.3118 32.084 21.8878L47.732 30.9118C48.212 31.2958 48.5 31.6798 48.5 32.0638Z" fill="#EDEEF2"/>
<path d="M27.8594 23.8079L26.7074 23.1359C25.8434 23.4239 26.0354 23.9039 26.7074 24.4799L27.8594 25.1519V23.8079Z" fill="#423751"/>
<path d="M47.828 33.0239L24.788 46.3679C23.828 46.9439 22.292 46.9439 21.332 46.3679L5.68402 37.4399C5.20402 37.1519 4.91602 36.7679 4.91602 36.3839V37.7279C4.91602 38.1119 5.20402 38.4959 5.68402 38.7839L21.332 47.8079C22.292 48.3839 23.828 48.3839 24.788 47.8079L47.828 34.4639C48.308 34.1759 48.5 33.7919 48.5 33.5039V32.1599C48.5 32.4479 48.212 32.8319 47.828 33.0239Z" fill="#B5B7C6"/>
<path d="M47.7309 31.008C48.6909 31.584 48.6909 32.448 47.7309 33.024L24.6909 46.368C23.7309 46.944 22.1949 46.944 21.2349 46.368L5.68289 37.44C4.72289 36.864 4.72289 36 5.68289 35.424L7.60289 34.272L8.75489 34.944L27.9549 23.808L26.8029 23.136L28.7229 21.984C29.6829 21.408 31.2189 21.408 32.1789 21.984L47.7309 31.008Z" fill="#EDEEF2"/>
<path d="M47.8269 33.024L24.7869 46.368C23.8269 46.944 22.2909 46.944 21.3309 46.368L5.68289 37.44C4.72289 36.864 4.72289 36 5.68289 35.424L6.35489 35.04C8.94689 36.96 12.4989 38.208 16.5309 38.208C24.3069 38.208 30.6429 33.6 30.6429 27.84C30.6429 25.728 29.7789 23.808 28.3389 22.176L28.6269 21.984C29.5869 21.408 31.1229 21.408 32.0829 21.984L47.7309 31.008C48.6909 31.584 48.7869 32.544 47.8269 33.024Z" fill="#E0E1EC"/>
<path d="M37.9397 36.0959C38.4197 36.3839 38.4197 36.7679 37.9397 37.0559L29.6837 41.8559C29.2037 42.1439 28.5317 42.1439 28.0517 41.8559L23.5397 39.1679C23.0597 38.8799 23.0597 38.4959 23.5397 38.2079L31.7957 33.4079C32.2757 33.1199 32.9477 33.1199 33.4277 33.4079L37.9397 36.0959Z" fill="#B5B7C6"/>
<path d="M38.1317 36.8638C38.0357 36.9598 38.0357 36.9598 37.9397 37.0558L29.6837 41.8558C29.2037 42.1438 28.5317 42.1438 28.0517 41.8558L23.5397 39.1678C23.4437 39.0718 23.3477 39.0718 23.3477 38.9758C23.4437 38.8798 23.4437 38.8798 23.5397 38.7838L31.7957 33.9838C32.2757 33.6958 32.9477 33.6958 33.4277 33.9838L37.9397 36.5758C38.0357 36.7678 38.1317 36.7678 38.1317 36.8638Z" fill="#423751"/>
<path d="M38.132 36.864C38.036 36.96 38.036 36.96 37.94 37.056L29.684 41.856C29.204 42.144 28.532 42.144 28.052 41.856L25.748 40.512C25.844 40.512 25.844 40.512 25.94 40.512C29.204 40.512 31.796 38.496 31.796 36C31.796 35.424 31.604 34.848 31.316 34.272L31.7 34.08C32.18 33.792 32.852 33.792 33.332 34.08L37.844 36.672C38.036 36.768 38.132 36.768 38.132 36.864Z" fill="#382E49"/>
<path d="M38.1313 36.1919L38.0353 36.0959C38.0353 36.1919 38.0353 36.1919 38.1313 36.1919Z" fill="#423751"/>
<path d="M38.1319 36.8638C38.0359 36.7678 38.0359 36.7678 37.9399 36.6718L33.4279 34.0798C32.9479 33.7918 32.2759 33.7918 31.7959 34.0798L23.5399 38.8798C23.4439 38.9758 23.3479 38.9758 23.3479 39.0718C23.1559 38.7838 23.2519 38.4958 23.5399 38.3038L31.7959 33.5038C32.2759 33.2158 32.9479 33.2158 33.4279 33.5038L37.9399 36.0958C38.2279 36.2878 38.3239 36.5758 38.1319 36.8638Z" fill="#B5B7C6"/>
<path d="M35.6353 28.3199C36.1153 28.6079 36.1153 28.9919 35.6353 29.2799L17.2033 40.0319C16.7233 40.3199 15.9553 40.3199 15.5713 40.0319L10.3873 37.0559C9.90734 36.7679 9.90734 36.3839 10.3873 36.0959L28.8193 25.4399C29.2993 25.1519 30.0673 25.1519 30.4513 25.4399L35.6353 28.3199Z" fill="#B5B7C6"/>
<path d="M36.3073 28.3199C36.7873 28.6079 36.7873 28.9919 36.3073 29.2799L17.8753 39.9359C17.3953 40.2239 16.6273 40.2239 16.2433 39.9359L11.0593 36.9599C10.5793 36.6719 10.5793 36.2879 11.0593 35.9999L29.4913 25.3439C29.9713 25.0559 30.7393 25.0559 31.1233 25.3439L36.3073 28.3199Z" fill="#423751"/>
<path d="M36.3073 29.2799L17.8753 39.9359C17.3953 40.2239 16.6273 40.2239 16.2433 39.9359L11.0593 36.9599C10.5793 36.6719 10.5793 36.2879 11.0593 35.9999L12.4993 35.1359C14.3233 35.9999 16.9153 36.2879 19.5073 35.6159C24.1153 34.4639 27.1873 31.1039 26.4193 28.0319C26.3233 27.7439 26.2273 27.4559 26.1313 27.2639L29.4913 25.3439C29.9713 25.0559 30.7393 25.0559 31.1233 25.3439L36.3073 28.3199C36.7873 28.5119 36.7873 28.9919 36.3073 29.2799Z" fill="#382E49"/>
<path d="M24.98 13.4399L23.732 16.4159C23.636 16.6079 23.54 16.7039 23.348 16.7999C23.252 16.7999 23.252 16.8959 23.156 16.8959L21.716 16.9919C21.62 16.9919 21.62 16.9919 21.524 17.0879C21.428 17.1839 21.332 17.2799 21.236 17.3759C20.372 18.7199 19.412 19.9679 18.26 20.9279C18.068 21.1199 17.972 21.3119 17.972 21.5999L17.78 23.5199C17.78 23.8079 17.588 23.9999 17.396 24.1919L15.092 25.5359C14.996 25.6319 14.9 25.6319 14.804 25.5359L13.268 24.6719C13.172 24.6719 13.172 24.5759 13.172 24.4799L12.98 23.5199C12.308 23.5199 11.732 23.4239 11.156 23.2319C11.06 23.2319 10.964 23.2319 10.868 23.2319C10.772 23.2319 10.772 23.3279 10.676 23.4239L9.236 25.0559L9.14 25.1519C9.044 25.2479 8.948 25.2479 8.852 25.1519L7.22 24.2879C7.22 24.2879 7.22 24.2879 7.124 24.2879L5.876 22.8479C5.78 22.7519 5.78 22.4639 5.972 22.1759L7.124 20.2559C7.22 20.0639 7.316 19.7759 7.22 19.5839C6.932 18.8159 6.836 18.0479 6.836 17.0879C6.836 16.1279 6.932 15.2639 7.22 14.3039C7.22 14.2079 7.22 14.1119 7.22 14.1119L5.876 13.3439C5.78 13.2479 5.684 13.0559 5.78 12.7679L7.028 9.79191C7.124 9.59991 7.316 9.40791 7.412 9.31191C7.508 9.31191 7.508 9.21591 7.604 9.21591L9.044 9.11991C9.14 9.11991 9.14 9.11991 9.236 9.02391C9.332 8.92791 9.428 8.83191 9.524 8.73591C10.388 7.39191 11.348 6.14391 12.5 5.18391C12.692 4.99191 12.788 4.79991 12.788 4.51191L12.98 2.59191C12.98 2.30391 13.172 2.11191 13.364 1.91991L15.668 0.575906C15.764 0.479906 15.86 0.479906 15.956 0.575906L17.492 1.43991C17.588 1.43991 17.588 1.53591 17.588 1.63191L17.684 2.49591C18.356 2.49591 18.932 2.59191 19.508 2.78391C19.604 2.78391 19.7 2.78391 19.796 2.78391C19.892 2.78391 19.892 2.68791 19.988 2.59191L21.428 0.959906C21.62 1.05591 21.716 0.959906 21.716 0.959906C21.812 0.863906 21.908 0.863906 22.004 0.959906L23.54 1.82391C23.54 1.82391 23.54 1.82391 23.636 1.82391L24.884 3.26391C24.98 3.35991 24.98 3.64791 24.788 3.93591L23.636 5.85591C23.54 6.04791 23.54 6.33591 23.54 6.52791C23.828 7.29591 23.924 8.06391 23.924 9.02391C23.924 9.98391 23.828 10.8479 23.54 11.8079C23.54 11.9039 23.54 11.9999 23.54 11.9999L24.884 12.7679C25.076 12.9599 25.076 13.1519 24.98 13.4399Z" fill="#FF3D47"/>
<path d="M23.3476 11.9998L22.0996 11.5198L23.6356 12.3838L24.7876 12.8638L23.3476 11.9998Z" fill="#143838"/>
<path d="M14.7068 25.2478L14.5148 23.6158C14.5148 23.5198 14.4188 23.4238 14.4188 23.4238L12.8828 22.5598C12.9788 22.5598 12.9788 22.6558 12.9788 22.7518L13.1708 24.3838C13.1708 24.4798 13.2668 24.5758 13.2668 24.5758L14.8028 25.4398C14.7068 25.3438 14.7068 25.3438 14.7068 25.2478Z" fill="#143838"/>
<path d="M23.2514 1.8239C23.3474 1.7279 23.4434 1.7279 23.5394 1.8239L22.0034 0.9599C21.9074 0.9599 21.8114 0.9599 21.7154 0.9599C21.6194 0.9599 21.6194 1.0559 21.5234 1.1519L20.0834 2.7839C20.0834 2.7839 19.9874 2.8799 19.8914 2.8799C19.7954 2.9759 19.6994 2.9759 19.6034 2.8799C18.7394 2.5919 17.7794 2.4959 16.7234 2.7839C16.6274 2.7839 16.5314 2.7839 16.5314 2.7839L18.0674 3.6479C18.1634 3.6479 18.1634 3.6479 18.2594 3.6479C19.3154 3.3599 20.2754 3.4559 21.1394 3.7439C21.2354 3.7439 21.3314 3.7439 21.4274 3.7439C21.5234 3.7439 21.5234 3.6479 21.6194 3.5519L23.0594 1.9199C23.1554 1.9199 23.2514 1.9199 23.2514 1.8239Z" fill="#143838"/>
<path d="M17.5874 1.63188L16.0514 0.767883C15.9554 0.767883 15.8594 0.767883 15.7634 0.767883L13.4594 2.11188C13.2674 2.20788 13.0754 2.49588 13.0754 2.78388L12.8834 4.70388C12.8834 4.89588 12.6914 5.18388 12.5954 5.37588C11.4434 6.33588 10.4834 7.58388 9.61938 8.92788C9.42738 9.02388 9.33138 9.11988 9.23538 9.11988C9.13938 9.21588 9.13937 9.21588 9.04337 9.21588L7.60338 9.31188C7.50738 9.31188 7.50738 9.31188 7.41137 9.40788C7.31537 9.40788 7.12338 9.59988 7.12338 9.79188L5.87537 12.7679C5.77937 13.0559 5.77937 13.2479 5.97137 13.3439L7.21938 14.0159C7.21938 14.1119 7.21938 14.1119 7.21938 14.2079C7.02738 15.1679 6.83538 16.1279 6.83538 16.9919C6.83538 17.9519 6.93138 18.8159 7.21938 19.4879C7.31538 19.6799 7.21938 19.8719 7.12338 20.1599L5.97137 22.0799C5.77937 22.3679 5.77937 22.5599 5.87537 22.7519L7.21938 24.2879C7.21938 24.2879 7.21938 24.2879 7.31538 24.2879L8.85138 25.1519C8.85138 25.1519 8.85138 25.1519 8.75538 25.1519L7.50738 23.7119C7.41138 23.6159 7.41138 23.3279 7.60338 23.0399L8.75538 21.1199C8.85138 20.9279 8.94738 20.6399 8.85138 20.4479C8.56337 19.6799 8.46738 18.9119 8.46738 17.9519C8.46738 16.9919 8.56337 16.1279 8.85138 15.1679C8.94738 14.9759 8.85138 14.7839 8.75538 14.6879L7.41137 13.9199C7.41137 13.8239 7.41138 13.7279 7.50738 13.6319L8.75538 10.6559C8.85138 10.4639 8.94738 10.3679 9.13938 10.2719C9.23538 10.2719 9.23537 10.1759 9.33138 10.1759L10.7714 10.0799C10.8674 10.0799 10.8674 10.0799 10.9634 9.98388C11.0594 9.88788 11.1554 9.79188 11.2514 9.69588C12.1154 8.35188 13.0754 7.10388 14.2274 6.14388C14.4194 5.95188 14.5154 5.75988 14.5154 5.47188L14.7074 3.55188C14.7074 3.26388 14.8994 3.07188 15.0914 2.87988L17.3954 1.53588C17.3954 1.63188 17.4914 1.63188 17.5874 1.63188Z" fill="#143838"/>
<path d="M17.2984 1.6319C17.4904 1.5359 17.6824 1.6319 17.6824 1.8239L17.8744 3.4559C17.8744 3.6479 18.0664 3.7439 18.1624 3.7439C19.2184 3.4559 20.1784 3.5519 21.0424 3.8399C21.1384 3.8399 21.2344 3.8399 21.3304 3.8399C21.4264 3.8399 21.4264 3.7439 21.5224 3.6479L22.9624 2.0159C23.1544 1.9199 23.2504 1.9199 23.2504 1.8239C23.3464 1.7279 23.5384 1.7279 23.6344 1.8239L24.8824 3.2639C24.9784 3.3599 24.9784 3.6479 24.7864 3.9359L23.6344 5.8559C23.5384 6.0479 23.5384 6.3359 23.5384 6.5279C23.8264 7.2959 23.9224 8.0639 23.9224 9.0239C23.9224 9.9839 23.8264 10.8479 23.5384 11.8079C23.4424 11.9999 23.5384 12.1919 23.6344 12.2879L24.7864 12.7679C24.9784 12.8639 24.9784 13.0559 24.8824 13.3439L23.6344 16.3199C23.5384 16.5119 23.4424 16.6079 23.2504 16.7039C23.1544 16.7039 23.1544 16.7999 23.0584 16.7999L21.6184 16.8959C21.5224 16.8959 21.5224 16.8959 21.4264 16.9919C21.3304 17.0879 21.2344 17.1839 21.1384 17.2799C20.2744 18.6239 19.3144 19.8719 18.1624 20.8319C17.9704 21.0239 17.8744 21.2159 17.8744 21.5039L17.6824 23.4239C17.6824 23.7119 17.4904 23.9039 17.2984 24.0959L14.9944 25.4399C14.8024 25.5359 14.6104 25.4399 14.6104 25.2479L14.4184 23.6159C14.4184 23.4239 14.2264 23.3279 14.1304 23.3279C13.0744 23.6159 12.1144 23.5199 11.2504 23.2319C11.1544 23.2319 11.0584 23.2319 10.9624 23.2319C10.8664 23.2319 10.8664 23.3279 10.7704 23.4239L9.33042 25.0559C9.23442 25.0559 9.13842 25.1519 9.13842 25.1519C9.04242 25.2479 8.85042 25.2479 8.75442 25.1519L7.50642 23.7119C7.41042 23.6159 7.41042 23.3279 7.60242 23.0399L8.75442 21.1199C8.85042 20.9279 8.94642 20.6399 8.85042 20.4479C8.56242 19.6799 8.46642 18.9119 8.46642 17.9519C8.46642 16.9919 8.56242 16.1279 8.85042 15.1679C8.94642 14.9759 8.85042 14.7839 8.75442 14.6879L7.60242 14.2079C7.41042 14.1119 7.41042 13.9199 7.50642 13.6319L8.75442 10.6559C8.85042 10.4639 8.94642 10.3679 9.13842 10.2719C9.23442 10.2719 9.23442 10.1759 9.33042 10.1759L10.7704 10.0799C10.8664 10.0799 10.8664 10.0799 10.9624 9.9839C11.0584 9.8879 11.1544 9.7919 11.2504 9.6959C12.1144 8.3519 13.0744 7.1039 14.2264 6.1439C14.4184 5.9519 14.5144 5.7599 14.5144 5.4719L14.7064 3.5519C14.7064 3.2639 14.8984 3.0719 15.0904 2.8799L17.2984 1.6319Z" fill="#2D7474"/>
<path d="M24.9801 13.44L23.7321 16.416C23.6361 16.608 23.5401 16.704 23.3481 16.8C23.2521 16.8 23.2521 16.896 23.1561 16.896L21.7161 16.992C21.6201 16.992 21.6201 16.992 21.5241 17.088C21.4281 17.184 21.3321 17.28 21.2361 17.376C20.3721 18.72 19.4121 19.968 18.2601 20.928C18.0681 21.12 17.9721 21.312 17.9721 21.6L17.7801 23.52C17.7801 23.808 17.5881 24 17.3961 24.192L15.0921 25.536C14.9001 25.632 14.7081 25.536 14.7081 25.344L14.5161 23.712C14.5161 23.52 14.3241 23.424 14.2281 23.424C13.1721 23.712 12.2121 23.616 11.3481 23.328C11.2521 23.328 11.1561 23.328 11.0601 23.328C10.9641 23.328 10.9641 23.424 10.8681 23.52L9.42811 25.152C9.23611 25.056 9.14011 25.152 9.14011 25.152C9.04411 25.248 8.85211 25.248 8.75611 25.152L7.50811 23.712C7.41211 23.616 7.41211 23.328 7.60411 23.04L8.75611 21.12C8.85211 20.928 8.94811 20.64 8.85211 20.448C8.56411 19.68 8.46811 18.912 8.46811 17.952C8.46811 16.992 8.56411 16.128 8.75611 15.168C8.85211 14.976 8.75611 14.784 8.66011 14.688L7.50811 14.208C7.41211 14.208 7.41211 14.112 7.41211 14.112C7.60411 14.208 7.89211 14.4 8.08411 14.496C11.5401 16.032 15.7641 14.208 17.4921 10.368C18.7401 7.48795 18.2601 4.41595 16.5321 2.30395L17.3961 1.82395C17.5881 1.72795 17.7801 1.82395 17.7801 2.01595L17.9721 3.64795C17.9721 3.83995 18.1641 3.93595 18.2601 3.93595C19.3161 3.64795 20.2761 3.74395 21.1401 4.03195C21.2361 4.03195 21.3321 4.03195 21.4281 4.03195C21.5241 4.03195 21.5241 3.93595 21.6201 3.83995L23.0601 2.20795C23.1561 1.91995 23.2521 1.91995 23.2521 1.82395C23.3481 1.72795 23.5401 1.72795 23.6361 1.82395L24.8841 3.26395C24.9801 3.35995 24.9801 3.64795 24.7881 3.93595L23.6361 5.85595C23.5401 6.04795 23.5401 6.33595 23.5401 6.52795C23.8281 7.29595 23.9241 8.06395 23.9241 9.02395C23.9241 9.98395 23.8281 10.848 23.5401 11.808C23.4441 12 23.5401 12.192 23.6361 12.288L24.7881 12.768C25.0761 12.96 25.0761 13.152 24.9801 13.44Z" fill="#245C5C"/>
<path d="M18.5352 14.957C20.2116 12.068 20.2324 8.94946 18.5816 7.99149C16.9307 7.03351 14.2334 8.59888 12.557 11.4878C10.8805 14.3768 10.8597 17.4953 12.5106 18.4533C14.1614 19.4113 16.8587 17.8459 18.5352 14.957Z" fill="#143838"/>
<path d="M19.1816 15.2878C20.8581 12.3988 20.8789 9.28027 19.228 8.3223C17.5772 7.36432 14.8799 8.92969 13.2035 11.8186C11.527 14.7076 11.5062 17.8262 13.1571 18.7841C14.8079 19.7421 17.5052 18.1767 19.1816 15.2878Z" fill="#EDEEF2"/>
<path d="M20.4678 11.04C20.4678 13.728 18.5478 17.088 16.2438 18.432C13.8438 19.776 12.0198 18.72 11.9238 16.032C11.9238 15.84 11.9238 15.648 11.9238 15.456C12.3078 15.552 12.7878 15.648 13.2678 15.648C15.6678 15.648 17.5878 13.728 17.5878 11.328C17.5878 10.272 17.2038 9.21597 16.5318 8.44797C18.7398 7.39197 20.4678 8.44797 20.4678 11.04Z" fill="#E0E1EC"/>
</g>
<defs>
<clipPath id="clip0_652_6822">
<rect width="48" height="48" fill="white" transform="translate(0.5)"/>
</clipPath>
</defs>
</svg>
